<svg width="48" height="32" viewBox="0 0 48 32" fill="none" xmlns="http://www.w3.org/2000/svg"><rect width="48" height="32" rx="4" fill="#016FD0"/><path d="M9.396 11L5 20.73h5.263l.653-1.552h1.491l.652 1.551h5.794v-1.184l.516 1.184h2.997l.516-1.209v1.21H34.93l1.465-1.512 1.372 1.511 6.188.013-4.41-4.85L43.955 11h-6.092l-1.426 1.483L35.108 11H22.001l-1.125 2.511L19.724 11h-5.252v1.144L13.887 11h-4.49zm1.019 1.382h2.565l2.916 6.597v-6.597h2.81l2.253 4.73 2.076-4.73h2.796v6.98H24.13l-.014-5.47-2.48 5.47h-1.523l-2.494-5.47v5.47h-3.5l-.664-1.564H9.869l-.662 1.563H7.332l3.083-6.98zm16.973 0h6.919l2.116 2.285 2.184-2.285h2.116l-3.215 3.508 3.215 3.469h-2.212l-2.116-2.313-2.196 2.313h-6.811V12.38zm-15.725 1.18l-1.181 2.789h2.36l-1.18-2.788zm17.433.265v1.274h3.775v1.42h-3.775v1.392h4.234l1.967-2.05-1.883-2.037h-4.318v.001z" fill="#fff"/></svg>