<svg width="48" height="32" viewBox="0 0 48 32" fill="none" xmlns="http://www.w3.org/2000/svg"><g clip-path="url(#clip0_89_11560)"><path d="M0 4a4 4 0 014-4h40a4 4 0 014 4v24a4 4 0 01-4 4H4a4 4 0 01-4-4V4z" fill="#EFF2F6"/><path d="M28.58 15.982a3.321 3.321 0 00-.967-2.37 3.32 3.32 0 00-2.375-.966h-.012A3.332 3.332 0 0021.87 16a3.355 3.355 0 003.355 3.355A3.332 3.332 0 0028.58 16v-.018z" fill="#F26E21"/><path d="M21.247 17.42c-.501.502-.964.698-1.462.708-1.215-.01-2.108-.91-2.108-2.192 0-.646.245-1.175.632-1.626a1.97 1.97 0 011.368-.568c.581 0 1.033.194 1.549.71v-1.484c-.516-.258-.968-.387-1.549-.387a3.74 3.74 0 00-2.186.91c-.17.154-.335.324-.474.518a3.252 3.252 0 00-.695 1.992c0 1.87 1.485 3.29 3.355 3.29l.027-.001h.038c.516 0 .968-.128 1.548-.386l-.043-1.484c-.021.021.022.042 0 .062v-.062zm11.569-3.915l-1.461 3.592-1.678-4.258h-1.354l2.645 6.516h.71l2.774-6.516h-1.355l-.281.666zm2.152 2.173v3.484h3.548v-1.033h-2.257v-1.741h2.193V15.29h-2.194v-1.354h2.258v-1.097h-3.548v2.839zM5.807 12.839H4v6.323h1.807c.967 0 1.677-.258 2.257-.71A3.19 3.19 0 009.226 16c0-1.872-1.355-3.162-3.42-3.162zm1.483 4.774c-.387.323-.903.516-1.677.516h-.387v-4.193h.322c.775 0 1.29.129 1.678.516.452.386.71.967.71 1.548a1.929 1.929 0 01-.646 1.613zm3.743-4.775H9.807v6.323h1.226v-6.323zm3.097 2.452c-.775-.258-.969-.451-.969-.774 0-.387.388-.71.904-.71.387 0 .71.13 1.032.517l.645-.839a2.81 2.81 0 00-1.87-.71c-1.098 0-2.001.775-2.001 1.807 0 .903.387 1.29 1.548 1.742.517.193.71.258.84.387a.71.71 0 01.386.645c0 .516-.386.903-.967.903a1.504 1.504 0 01-1.355-.839l-.775.774c.581.84 1.29 1.226 2.194 1.226 1.29 0 2.193-.838 2.193-2.064 0-1.097-.386-1.549-1.806-2.065zM42 16.516c.968-.193 1.484-.838 1.484-1.806 0-1.161-.839-1.871-2.258-1.871h-1.871v6.323h1.226v-2.517h.193l1.742 2.517H44l-2-2.646zm-1.032-.774h-.387v-1.935h.387c.774 0 1.226.322 1.226.968 0 .645-.452.967-1.226.967z" fill="#2B2B2B"/></g><defs><clipPath id="clip0_89_11560"><path fill="#fff" d="M0 0h48v32H0z"/></clipPath></defs></svg>