<svg width="17" height="408" viewBox="0 0 17 408" fill="none" xmlns="http://www.w3.org/2000/svg"><g clip-path="url(#clip0_2_4784)"><path d="M9.719 23.75v.5H13.5c.965 0 1.75-.785 1.75-1.75a.125.125 0 01.25 0c0 1.102-.898 2-2 2h-11c-1.102 0-2-.898-2-2v-11c0-1.102.898-2 2-2h11c1.102 0 2 .898 2 2v7.875a.125.125 0 01-.25 0V11.5c0-.965-.785-1.75-1.75-1.75h-11c-.965 0-1.75.785-1.75 1.75v11c0 .965.785 1.75 1.75 1.75h6.969v-6.438H7.563a.125.125 0 010-.25h1.906v-2.218c0-1.103.897-2 2-2h.312a.125.125 0 110 .25h-.312a1.75 1.75 0 00-1.75 1.75v2.219h1.906a.125.125 0 010 .25H9.719v5.937z" fill="#676767" stroke="#676767"/></g><g clip-path="url(#clip1_2_4784)"><path fill-rule="evenodd" clip-rule="evenodd" d="M4.22 56.5A3.221 3.221 0 001 59.721v7.442a3.221 3.221 0 003.22 3.22h7.443a3.22 3.22 0 003.22-3.22V59.72a3.22 3.22 0 00-3.22-3.221H4.22zM0 59.721A4.221 4.221 0 014.22 55.5h7.443c2.33 0 4.22 1.89 4.22 4.221v7.442a4.221 4.221 0 01-4.22 4.22H4.22A4.221 4.221 0 010 67.164V59.72zm8.337 1.239a2.477 2.477 0 10-.726 4.9 2.477 2.477 0 00.726-4.9zm-1.964-.636a3.477 3.477 0 113.202 6.171 3.477 3.477 0 01-3.202-6.171zm5.662-1.475a.5.5 0 100 1h.006a.5.5 0 100-1h-.006z" fill="#676767"/></g><g clip-path="url(#clip2_2_4784)"><mask id="a" fill="#fff"><path d="M13.65 104.85A7.94 7.94 0 008 102.5c-4.405 0-8 3.595-8 8 0 1.303.32 2.59.927 3.734l-.913 3.684a.47.47 0 00.568.568l3.684-.913A7.98 7.98 0 008 118.5a7.94 7.94 0 005.65-2.35A7.941 7.941 0 0016 110.5a7.941 7.941 0 00-2.35-5.65zM8 117.562a7.035 7.035 0 01-3.44-.897.47.47 0 00-.343-.046l-3.106.77.77-3.107a.468.468 0 00-.046-.342 7.032 7.032 0 01-.897-3.44c0-3.894 3.168-7.062 7.062-7.062s7.063 3.168 7.063 7.062-3.169 7.062-7.063 7.062z"/></mask><path d="M13.65 104.85A7.94 7.94 0 008 102.5c-4.405 0-8 3.595-8 8 0 1.303.32 2.59.927 3.734l-.913 3.684a.47.47 0 00.568.568l3.684-.913A7.98 7.98 0 008 118.5a7.94 7.94 0 005.65-2.35A7.941 7.941 0 0016 110.5a7.941 7.941 0 00-2.35-5.65zM8 117.562a7.035 7.035 0 01-3.44-.897.47.47 0 00-.343-.046l-3.106.77.77-3.107a.468.468 0 00-.046-.342 7.032 7.032 0 01-.897-3.44c0-3.894 3.168-7.062 7.062-7.062s7.063 3.168 7.063 7.062-3.169 7.062-7.063 7.062z" fill="#676767"/><path d="M.927 114.234l.971.241.092-.372-.18-.338-.883.469zm-.913 3.684l.97.241-.97-.241zm.123.445l.708-.707-.708.707zm.445.123l-.241-.97.24.97zm3.684-.913l.469-.884-.338-.179-.372.092.24.971zm9.384-1.423l.707.707-.707-.707zm-9.09.515l-.49.872.49-.872zm-.343-.046l-.24-.971.24.971zm-3.106.77l-.97-.241-.4 1.611 1.61-.399-.24-.971zm.77-3.107l-.97-.241v.001l.97.24zm-.046-.342l.872-.49-.872.49zm12.522-9.797A8.94 8.94 0 008 101.5v2c1.861 0 3.614.728 4.943 2.057l1.415-1.414zM8 101.5c-4.958 0-9 4.043-9 9h2c0-3.853 3.147-7 7-7v-2zm-9 9c0 1.466.36 2.914 1.044 4.203l1.767-.938A6.976 6.976 0 011 110.5h-2zm.957 3.493l-.914 3.685 1.941.481.914-3.684-1.941-.482zm-.914 3.685c-.124.5.023 1.028.387 1.392l1.414-1.414a.53.53 0 01.14.503l-1.94-.481zm.387 1.391c.362.363.89.513 1.392.388l-.481-1.941a.53.53 0 01.504.14l-1.415 1.413zm1.392.388l3.685-.914-.482-1.941-3.684.914.481 1.941zm2.975-1.001A8.98 8.98 0 008 119.5v-2a6.97 6.97 0 01-3.265-.811l-.938 1.767zM8 119.5a8.94 8.94 0 006.357-2.643l-1.414-1.414A6.944 6.944 0 018 117.5v2zm6.357-2.643A8.941 8.941 0 0017 110.5h-2a6.943 6.943 0 01-2.057 4.943l1.415 1.414zM17 110.5a8.941 8.941 0 00-2.643-6.357l-1.414 1.414A6.943 6.943 0 0115 110.5h2zm-9 6.062a6.028 6.028 0 01-2.95-.769l-.98 1.744A8.04 8.04 0 008 118.562v-2zm-2.95-.769a1.47 1.47 0 00-1.072-.145l.48 1.941a.53.53 0 01-.388-.052l.98-1.744zm-1.073-.145l-3.107.77.482 1.942 3.106-.771-.481-1.941zm-1.895 1.982l.77-3.107-1.941-.481-.77 3.106 1.94.482zm.77-3.106a1.47 1.47 0 00-.145-1.074l-1.744.98a.533.533 0 01-.052-.389l1.94.483zm-.145-1.074a6.032 6.032 0 01-.77-2.95h-2a8.03 8.03 0 001.026 3.93l1.744-.98zm-.77-2.95A6.07 6.07 0 018 104.438v-2c-4.447 0-8.062 3.615-8.062 8.062h2zM8 104.438a6.07 6.07 0 016.063 6.062h2c0-4.447-3.616-8.062-8.063-8.062v2zm6.063 6.062A6.07 6.07 0 018 116.562v2c4.447 0 8.063-3.615 8.063-8.062h-2z" fill="#676767" mask="url(#a)"/><mask id="b" fill="#fff"><path d="M12.23 111.923c-.31-.31-.652-.624-1.048-.815-.59-.284-1.153-.203-1.586.23-.197.197-.468.585-.624.776-.402-.067-1.205-.745-1.524-1.063-.318-.319-.995-1.122-1.062-1.523.19-.155.58-.427.776-.624.433-.433.514-.996.23-1.586-.19-.396-.505-.738-.815-1.048-.633-.646-1.608-.694-2.45.149-.63.629-1.19 1.796-.288 3.78.534 1.174 1.394 2.212 1.818 2.64l.004.004c.428.424 1.466 1.284 2.64 1.818 1.326.603 2.747.746 3.78-.287.855-.855.783-1.83.15-2.451zm-.812 1.788c-.61.61-1.528.643-2.729.097-1.054-.479-2.008-1.275-2.367-1.63-.355-.359-1.15-1.313-1.63-2.367-.546-1.201-.513-2.119.097-2.729.357-.357.767-.515 1.118-.156l.007.007c.832.832.773 1.12.585 1.308-.166.167-.659.501-.818.66-.374.374-.304.953.206 1.72.305.458.708.903.898 1.093v.001c.191.19.636.593 1.094.898.768.51 1.346.58 1.72.206.159-.159.493-.651.66-.818.127-.127.252-.176.516-.048.307.148.635.476.792.633l.007.007c.362.354.2.761-.155 1.118z"/></mask><path d="M12.23 111.923c-.31-.31-.652-.624-1.048-.815-.59-.284-1.153-.203-1.586.23-.197.197-.468.585-.624.776-.402-.067-1.205-.745-1.524-1.063-.318-.319-.995-1.122-1.062-1.523.19-.155.58-.427.776-.624.433-.433.514-.996.23-1.586-.19-.396-.505-.738-.815-1.048-.633-.646-1.608-.694-2.45.149-.63.629-1.19 1.796-.288 3.78.534 1.174 1.394 2.212 1.818 2.64l.004.004c.428.424 1.466 1.284 2.64 1.818 1.326.603 2.747.746 3.78-.287.855-.855.783-1.83.15-2.451zm-.812 1.788c-.61.61-1.528.643-2.729.097-1.054-.479-2.008-1.275-2.367-1.63-.355-.359-1.15-1.313-1.63-2.367-.546-1.201-.513-2.119.097-2.729.357-.357.767-.515 1.118-.156l.007.007c.832.832.773 1.12.585 1.308-.166.167-.659.501-.818.66-.374.374-.304.953.206 1.72.305.458.708.903.898 1.093v.001c.191.19.636.593 1.094.898.768.51 1.346.58 1.72.206.159-.159.493-.651.66-.818.127-.127.252-.176.516-.048.307.148.635.476.792.633l.007.007c.362.354.2.761-.155 1.118z" fill="#676767"/><path d="M11.182 111.108l.435-.9v-.001l-.435.901zm-2.21 1.006l-.165.986.573.096.367-.45-.775-.632zm-1.524-1.063l-.709.706.003.003.706-.709zm-1.062-1.523l-.633-.775-.45.367.097.573.986-.165zm.776-.624l.707.707-.707-.707zm.23-1.586l.9-.435-.9.435zm-.815-1.048l-.715.7.008.007.707-.707zm-2.45.149l.707.707-.708-.707zm-.288 3.78l-.91.414.91-.414zm1.818 2.64l-.71.704.003.004.707-.708zm.004.004l-.707.707.003.003.704-.71zm2.64 1.818l.414-.91-.414.91zm3.78-.287l.708.707-.708-.707zm-3.392-.566l-.414.91.414-.91zm-2.367-1.63l-.711.703.008.008.703-.711zm-1.63-2.367l-.91.414.91-.414zm1.215-2.885l-.714.7v.001l.714-.701zm.007.007l-.714.701.007.006.707-.707zm-.233 1.968l.707.708-.707-.708zm.206 1.72l.833-.554-.833.554zm.898 1.093l.747-.664-.019-.022-.02-.02-.708.706zm0 .001l-.747.665.02.022.022.022.706-.709zm1.094.898l.554-.833-.554.833zm2.896-.66l-.434.901.434-.901zm.792.633l-.707.708.007.006.7-.714zm.007.007l-.7.713v.001l.7-.714zm1.364-1.377c-.317-.316-.761-.738-1.321-1.008l-.869 1.801c.23.111.47.316.775.621l1.415-1.414zm-1.322-1.009a2.465 2.465 0 00-1.43-.242 2.284 2.284 0 00-1.297.666l1.414 1.414c.08-.08.136-.096.17-.101.039-.006.127-.006.275.065l.869-1.802zm-2.727.424c-.15.15-.304.345-.413.488-.134.173-.212.281-.278.362l1.549 1.265c.09-.109.224-.291.315-.409.114-.148.195-.245.241-.292l-1.414-1.414zm.248.497c.078.013.076.029-.033-.033a3.23 3.23 0 01-.326-.219 6.615 6.615 0 01-.624-.533l-1.412 1.417c.193.192.51.472.838.718.165.123.35.25.534.355.165.094.415.221.693.267l.33-1.972zm-.98-.782a6.555 6.555 0 01-.533-.624 3.29 3.29 0 01-.22-.327c-.062-.109-.045-.11-.032-.033l-1.972.331c.046.278.173.528.267.692.105.185.232.369.355.534.245.328.525.645.717.838l1.417-1.411zm-1.138-.044c.08-.066.188-.144.362-.277.143-.11.338-.263.488-.414l-1.414-1.414a3.847 3.847 0 01-.293.242c-.118.09-.3.225-.409.314l1.266 1.549zm.85-.691c.353-.353.594-.794.667-1.298a2.467 2.467 0 00-.243-1.43l-1.802.869c.072.148.07.236.065.275-.005.034-.021.09-.101.17l1.414 1.414zm.424-2.728c-.27-.56-.693-1.004-1.009-1.32l-1.414 1.414c.305.305.51.545.621.775l1.802-.869zM7.29 105.57a2.525 2.525 0 00-1.89-.783c-.73.021-1.416.359-1.982.925l1.415 1.414c.276-.277.5-.336.626-.34.123-.004.263.041.402.184l1.43-1.4zm-3.872.142a3.527 3.527 0 00-.996 1.92c-.147.857-.01 1.849.505 2.981l1.821-.828c-.388-.853-.42-1.436-.355-1.815a1.53 1.53 0 01.44-.844l-1.415-1.414zm-.49 4.901c.596 1.311 1.537 2.444 2.018 2.93l1.421-1.407c-.367-.371-1.147-1.314-1.619-2.351l-1.82.828zm2.021 2.934l.004.003 1.414-1.414-.004-.004-1.414 1.415zm.007.006c.486.481 1.62 1.422 2.93 2.019l.828-1.821c-1.037-.471-1.98-1.251-2.35-1.619l-1.408 1.421zm2.93 2.019c1.458.663 3.419.991 4.902-.491l-1.415-1.414c-.584.584-1.465.627-2.659.084l-.828 1.821zm4.902-.491c.573-.574.909-1.266.925-1.998a2.533 2.533 0 00-.784-1.874l-1.4 1.429c.14.137.187.276.184.4-.002.125-.059.347-.34.629l1.415 1.414zm-2.078-2.077c-.168.168-.553.373-1.608-.106l-.828 1.82c1.347.613 2.798.752 3.85-.3l-1.414-1.414zm-1.608-.106c-.915-.417-1.775-1.131-2.078-1.431l-1.406 1.422c.414.41 1.464 1.287 2.656 1.829l.828-1.82zm-2.07-1.423c-.3-.304-1.014-1.163-1.43-2.078l-1.821.828c.542 1.192 1.419 2.242 1.829 2.656l1.422-1.406zm-1.43-2.078c-.48-1.055-.275-1.44-.107-1.608l-1.414-1.415c-1.052 1.053-.913 2.504-.3 3.851l1.82-.828zm-.107-1.608a.614.614 0 01.102-.087c.019-.011.002.003-.047.013a.44.44 0 01-.358-.089l1.429-1.4c-.398-.406-.928-.582-1.473-.47-.466.096-.826.377-1.067.618l1.414 1.415zm-.302-.162l.006.006 1.427-1.401-.006-.007-1.427 1.402zm.013.013a3.9 3.9 0 01.371.416c.073.098.073.122.061.086a.603.603 0 01.003-.342.62.62 0 01.15-.266l1.414 1.414a1.38 1.38 0 00.36-.599 1.407 1.407 0 00-.027-.833c-.145-.439-.487-.86-.918-1.29l-1.414 1.414zm.585-.106c.002-.002-.022.021-.09.075-.062.049-.136.105-.22.168-.079.061-.17.129-.25.194a3.061 3.061 0 00-.258.223l1.414 1.415a12.04 12.04 0 01.304-.238c.08-.061.171-.13.253-.196.076-.06.176-.142.261-.227l-1.414-1.414zm-.818.66c-.428.428-.581.981-.514 1.539.06.508.299.997.595 1.442l1.665-1.108c-.214-.322-.267-.506-.275-.573-.003-.024.003-.008-.009.031a.227.227 0 01-.048.084l-1.414-1.415zm.08 2.981a9.044 9.044 0 001.023 1.245l1.416-1.412a7.1 7.1 0 01-.773-.941l-1.665 1.108zm.983 1.204l.001.001 1.495-1.329v-.001l-1.496 1.329zm.043.045c.22.219.715.669 1.245 1.021l1.108-1.665a7.092 7.092 0 01-.941-.773l-1.412 1.417zm1.245 1.021c.445.297.934.534 1.442.595.558.067 1.111-.086 1.539-.514l-1.415-1.414a.212.212 0 01.084-.048c.039-.012.055-.006.03-.009-.066-.008-.25-.061-.572-.275l-1.108 1.665zm2.98.081c.085-.084.166-.184.225-.258.064-.081.132-.171.193-.251l.168-.218c.054-.069.076-.093.075-.091l-1.414-1.414a3.1 3.1 0 00-.227.261 13.82 13.82 0 00-.196.253 12.04 12.04 0 01-.238.304l1.415 1.414zm.66-.818a.65.65 0 01-.35.162c-.205.031-.324-.04-.274-.016l.869-1.802c-.215-.103-.528-.214-.893-.159a1.358 1.358 0 00-.765.401l1.414 1.414zm-.624.146c.037.018.118.071.235.171a4.7 4.7 0 01.284.269l1.414-1.415c-.125-.125-.575-.591-1.065-.827l-.868 1.802zm.526.446l.006.006 1.402-1.427-.007-.006-1.401 1.427zm.007.007a.33.33 0 01-.073-.133.452.452 0 01-.015-.226c.01-.05.026-.067.014-.048a.686.686 0 01-.089.104l1.415 1.414c.238-.239.522-.598.619-1.064.114-.548-.065-1.078-.471-1.475l-1.4 1.428z" fill="#676767" mask="url(#b)"/></g><g clip-path="url(#clip3_2_4784)"><mask id="c" fill="#fff"><path d="M15.753 150.839a1.038 1.038 0 00-.824-.37 1.62 1.62 0 00-.576.114L.81 155.753c-.72.275-.816.686-.81.907.006.221.126.627.86.86l.013.004 2.81.804 1.518 4.344c.208.593.673.961 1.214.961.341 0 .677-.144.971-.414l1.738-1.6 2.52 2.029.001.001.024.019.007.006c.28.217.586.332.884.332.584 0 1.049-.432 1.184-1.101l2.22-10.957c.088-.44.014-.834-.211-1.109zm-11.131 7.336l5.42-2.769-3.375 3.586a.471.471 0 00-.114.209l-.65 2.636-1.281-3.662zm2.13 4.354a.814.814 0 01-.069.056l.604-2.445 1.098.884-1.634 1.505zm8.293-10.767l-2.22 10.957c-.02.105-.09.349-.265.349-.086 0-.195-.047-.307-.133l-2.856-2.3v-.001l-1.7-1.368 4.88-5.186a.47.47 0 00-.554-.739l-8.027 4.101-2.848-.814 13.54-5.169a.682.682 0 01.24-.053c.03 0 .08.004.1.027.024.03.056.134.016.329z"/></mask><path d="M15.753 150.839a1.038 1.038 0 00-.824-.37 1.62 1.62 0 00-.576.114L.81 155.753c-.72.275-.816.686-.81.907.006.221.126.627.86.86l.013.004 2.81.804 1.518 4.344c.208.593.673.961 1.214.961.341 0 .677-.144.971-.414l1.738-1.6 2.52 2.029.001.001.024.019.007.006c.28.217.586.332.884.332.584 0 1.049-.432 1.184-1.101l2.22-10.957c.088-.44.014-.834-.211-1.109zm-11.131 7.336l5.42-2.769-3.375 3.586a.471.471 0 00-.114.209l-.65 2.636-1.281-3.662zm2.13 4.354a.814.814 0 01-.069.056l.604-2.445 1.098.884-1.634 1.505zm8.293-10.767l-2.22 10.957c-.02.105-.09.349-.265.349-.086 0-.195-.047-.307-.133l-2.856-2.3v-.001l-1.7-1.368 4.88-5.186a.47.47 0 00-.554-.739l-8.027 4.101-2.848-.814 13.54-5.169a.682.682 0 01.24-.053c.03 0 .08.004.1.027.024.03.056.134.016.329z" fill="#676767"/><path d="M14.353 150.583l.357.935v-.001l-.357-.934zM.81 155.753l.356.935-.356-.935zm.05 1.767l-.304.953.011.003.293-.956zm.013.004l.275-.962-.008-.002-.267.964zm2.81.804l.943-.33-.17-.489-.499-.143-.275.962zm1.518 4.344l-.944.33.944-.33zm2.185.547l.677.736-.677-.736zm1.738-1.6l.627-.779-.67-.54-.634.583.677.736zm2.52 2.029l.707-.707-.038-.038-.042-.034-.627.779zm.001.001l-.707.707.038.038.041.034.628-.779zm.024.019l-.628.779.007.005.007.006.614-.79zm.007.006l-.614.789v.001l.614-.79zm.884.332v1-1zm1.184-1.101l.98.199-.98-.199zm2.22-10.957l-.98-.199.98.199zm-11.342 6.227l-.455-.89-.777.397.288.823.944-.33zm5.42-2.769l.728.686-1.183-1.576.455.89zm-3.375 3.586l.728.686-.728-.686zm-.114.209l.971.24v-.001l-.97-.239zm-.65 2.636l-.944.33 1.109 3.172.805-3.262-.97-.24zm.848.692l.677.737v-.001l-.677-.736zm-.068.056l-.97-.239-.673 2.725 2.244-1.686-.6-.8zm.604-2.445l.627-.779-1.222-.984-.376 1.523.971.24zm1.098.884l.678.736.854-.786-.904-.729-.628.779zm4.44 1.695l.98.2v-.001l-.98-.199zm-.572.216l-.627.779.009.007.008.006.61-.792zm-2.856-2.3l-.707.708.038.038.042.033.627-.779zm0-.001l-.628.779.084.068.096.048.447-.895zm-1.7-1.368l-.728-.685-.74.786.84.678.628-.779zm4.88-5.186l-.728-.685.728.685zm.034-.603l.8-.6-.8.6zm-.588-.136l.455.891-.455-.891zm-8.027 4.101l-.275.962.379.108.35-.179-.454-.891zm-2.848-.814l-.357-.935-2.803 1.071 2.885.825.275-.961zm13.54-5.169l.356.934-.356-.934zm.34-.026l-.777.63.003.004.773-.634zm1.5-1.227a2.04 2.04 0 00-1.6-.737v2c.038 0 .054.007.055.008.002 0 0 0 0-.002l-.004-.003 1.548-1.266zm-1.6-.737a2.63 2.63 0 00-.932.18l.714 1.868a.634.634 0 01.219-.048v-2zm-.931.18l-13.544 5.17.713 1.869 13.544-5.17-.713-1.869zm-13.544 5.17c-.502.191-.89.472-1.144.841-.256.373-.316.75-.308 1.028L1 156.632a.307.307 0 01-.01.086.245.245 0 01-.033.075c-.027.04-.008-.022.21-.105l-.714-1.869zm-1.452 1.869c.007.279.089.652.366 1.01.274.354.678.612 1.19.775l.606-1.906c-.222-.07-.244-.132-.215-.094a.303.303 0 01.052.159l-2 .056zm1.566 1.788a.591.591 0 00.038.011l.535-1.927.012.004c.002 0 .003 0 0 0l-.585 1.912zm.03.009l2.81.804.55-1.923-2.81-.804-.55 1.923zm2.141.173l1.52 4.344 1.887-.66-1.519-4.344-1.888.66zm1.52 4.344c.318.91 1.108 1.631 2.157 1.631v-2a.17.17 0 01-.112-.043.533.533 0 01-.158-.248l-1.888.66zm2.157 1.631c.635 0 1.203-.269 1.648-.678l-1.354-1.472c-.143.132-.246.15-.294.15v2zm1.649-.678l1.737-1.6-1.354-1.472-1.738 1.6 1.355 1.472zm.433-1.557l2.52 2.029 1.254-1.558-2.52-2.029-1.254 1.558zm2.44 1.957a.865.865 0 00.143.119l.037.024a.071.071 0 00.01.006l.002.002h.001l-.003-.002-.01-.005a1.693 1.693 0 01-.098-.07 1.285 1.285 0 01-.081-.073l1.414-1.414a1.034 1.034 0 00-.142-.118l-.038-.025a.071.071 0 00-.01-.006l-.002-.001v-.001l.002.002a.072.072 0 01.01.006l.037.024a.99.99 0 01.142.118l-1.414 1.414zm.08.073l.024.019 1.256-1.557-.024-.02-1.255 1.558zm.038.03c0-.001 0-.001 0 0l.007.005 1.228-1.579c0 .001 0 .001 0 0a.052.052 0 00-.007-.005l-1.228 1.579zm.008.006c.421.327.937.541 1.497.542v-2c-.037 0-.133-.015-.271-.123l-1.226 1.581zm1.497.542v-2 2zm0 0c1.165 0 1.957-.879 2.164-1.902l-1.96-.397a.496.496 0 01-.124.267.104.104 0 01-.08.032v2zm2.164-1.902l2.22-10.958-1.96-.397-2.22 10.958 1.96.397zm2.22-10.958c.131-.649.046-1.373-.417-1.94l-1.548 1.267c-.014-.017.05.046.004.276l1.96.397zm-11.867 6.92l5.42-2.769-.91-1.781-5.42 2.769.91 1.781zm4.237-4.345l-3.375 3.586 1.456 1.371 3.375-3.586-1.456-1.371zm-3.375 3.586a1.462 1.462 0 00-.357.655l1.942.478a.534.534 0 01-.129.238l-1.456-1.371zm-.357.654l-.65 2.636 1.941.48.651-2.636-1.942-.48zm1.265 2.546l-1.281-3.662-1.888.66 1.28 3.662 1.889-.66zm-.772.286l.008-.007 1.201 1.599c.045-.034.093-.073.144-.119l-1.353-1.473zm1.58 1.032l.603-2.445-1.942-.48-.603 2.446 1.941.479zm-.995-1.906l1.098.884 1.255-1.558-1.099-.884-1.254 1.558zm1.048-.63l-1.634 1.505 1.354 1.471 1.635-1.505-1.355-1.471zm6.356-8.726l-2.219 10.958 1.96.397 2.22-10.958-1.96-.397zm-2.218 10.957v-.002l.002-.007a.385.385 0 01.031-.068.69.69 0 01.178-.203.821.821 0 01.503-.172v2c.632 0 .956-.456 1.062-.645.118-.21.165-.417.183-.504l-1.96-.399zm.714-.452c.132 0 .22.034.254.048.038.017.053.03.05.027l-1.22 1.584c.185.143.509.341.916.341v-2zm.32.088l-2.855-2.299-1.255 1.557 2.856 2.3 1.255-1.558zm-2.775-2.228a1.01 1.01 0 00-.262-.188l-.894 1.789a1.046 1.046 0 01-.259-.186l1.415-1.415zm-.082-.072l-1.699-1.369-1.254 1.558 1.699 1.368 1.254-1.557zm-1.598.095l4.88-5.186-1.456-1.37-4.88 5.186 1.456 1.37zm4.88-5.185a1.47 1.47 0 00.106-1.889l-1.6 1.201a.531.531 0 01.038-.683l1.457 1.371zm.105-1.889a1.469 1.469 0 00-1.842-.426l.91 1.781a.531.531 0 01-.667-.154l1.6-1.201zm-1.842-.426l-8.027 4.101.91 1.781 8.027-4.101-.91-1.781zm-7.297 4.03l-2.848-.815-.55 1.923 2.848.815.55-1.923zm-2.766 1.081l13.54-5.169-.714-1.868-13.54 5.168.714 1.869zm13.54-5.169c.01-.004-.03.013-.116.013v-2c-.18 0-.38.036-.598.119l.713 1.868zm-.116.013c-.016 0-.07 0-.145-.015a.94.94 0 01-.533-.328l1.553-1.26c-.243-.299-.565-.36-.625-.372a1.256 1.256 0 00-.25-.025v2zm-.675-.339a.885.885 0 01-.154-.272.7.7 0 01-.034-.146c-.007-.068.001-.1-.002-.086l1.96.397c.037-.18.05-.361.03-.537a1.197 1.197 0 00-.253-.624l-1.547 1.268z" fill="#676767" mask="url(#c)"/></g><path d="M15.401 203.464c0-3.276-3.283-5.94-7.32-5.94-4.035 0-7.32 2.664-7.32 5.94 0 2.936 2.605 5.395 6.122 5.86.239.052.563.157.645.361.074.185.049.475.024.662l-.104.627c-.032.185-.147.723.634.394.78-.329 4.215-2.482 5.75-4.25 1.061-1.163 1.57-2.343 1.57-3.654z" stroke="#676767" stroke-width=".5"/><path d="M11.333 246.75L10 244.083H6l-1.333 2.667m7.333 0H4a2.675 2.675 0 00-2.667 2.667v5.333c0 1.467 1.2 2.667 2.667 2.667h8c1.467 0 2.667-1.2 2.667-2.667v-5.333c0-1.467-1.2-2.667-2.667-2.667zm-4 8a2.675 2.675 0 01-2.667-2.667c0-1.466 1.2-2.666 2.667-2.666 1.467 0 2.667 1.2 2.667 2.666 0 1.467-1.2 2.667-2.667 2.667z" stroke="#676767" stroke-linecap="round"/><path d="M8.334 304.167H3c-.733 0-1.333-.6-1.333-1.334V297.5c0-3.667 3-6.667 6.667-6.667 3.666 0 6.666 3 6.666 6.667 0 3.733-2.933 6.667-6.666 6.667z" stroke="#676767" stroke-miterlimit="10" stroke-linecap="round" stroke-linejoin="round"/><path d="M5.167 297.5a.166.166 0 01-.166.166.166.166 0 110-.333c.092 0 .166.075.166.167zm6.666 0a.166.166 0 01-.166.166.166.166 0 110-.333c.092 0 .166.075.166.167zm-3.333 0a.166.166 0 01-.166.166.166.166 0 110-.333c.092 0 .166.075.166.167z" fill="#A66FE5" stroke="#676767"/><path d="M9.174 348.423l1.62-1.621a1.334 1.334 0 011.706-.151l1.762 1.229c.68.475.766 1.45.18 2.036l-.177.177a1.215 1.215 0 01-1.195.329c-1.4-.401-4.663-1.561-7.316-4.214-2.653-2.653-3.813-5.916-4.214-7.315-.123-.429.014-.88.33-1.196l.176-.176a1.333 1.333 0 012.037.18l1.228 1.761c.37.53.306 1.249-.15 1.706l-1.621 1.621" stroke="#676767"/><path clip-rule="evenodd" d="M7.894 397.459s4.894-3.916 4.894-8.565a4.894 4.894 0 10-9.788 0c0 4.649 4.894 8.565 4.894 8.565z" stroke="#676767"/><path clip-rule="evenodd" d="M7.894 391.341a2.447 2.447 0 100-4.893 2.447 2.447 0 000 4.893z" stroke="#676767"/><defs><clipPath id="clip0_2_4784"><path fill="#fff" transform="translate(0 9)" d="M0 0h16v16H0z"/></clipPath><clipPath id="clip1_2_4784"><path fill="#fff" transform="translate(0 55.75)" d="M0 0h16v16H0z"/></clipPath><clipPath id="clip2_2_4784"><path fill="#fff" transform="translate(0 102.5)" d="M0 0h16v16H0z"/></clipPath><clipPath id="clip3_2_4784"><path fill="#fff" transform="translate(0 149.25)" d="M0 0h16v16H0z"/></clipPath></defs></svg>