<svg width="289" height="34" viewBox="0 0 289 34" fill="none" xmlns="http://www.w3.org/2000/svg"><g clip-path="url(#clip0_143_9162)"><path d="M9.719 23.75v.5H13.5c.965 0 1.75-.785 1.75-1.75a.125.125 0 01.25 0c0 1.102-.898 2-2 2h-11c-1.102 0-2-.898-2-2v-11c0-1.102.898-2 2-2h11c1.102 0 2 .898 2 2v7.875a.125.125 0 01-.25 0V11.5c0-.965-.785-1.75-1.75-1.75h-11c-.965 0-1.75.785-1.75 1.75v11c0 .965.785 1.75 1.75 1.75h6.969v-6.438H7.563a.125.125 0 010-.25h1.906v-2.218c0-1.103.897-2 2-2h.312a.125.125 0 110 .25h-.312a1.75 1.75 0 00-1.75 1.75v2.219h1.906a.125.125 0 010 .25H9.719v5.937z" fill="#fff" stroke="#fff"/></g><g clip-path="url(#clip1_143_9162)"><path fill-rule="evenodd" clip-rule="evenodd" d="M38.22 9.75A3.221 3.221 0 0035 12.971v7.442a3.221 3.221 0 003.22 3.22h7.443a3.22 3.22 0 003.22-3.22V12.97a3.22 3.22 0 00-3.22-3.221H38.22zM34 12.971a4.22 4.22 0 014.22-4.221h7.443a4.22 4.22 0 014.22 4.221v7.442a4.221 4.221 0 01-4.22 4.22H38.22A4.221 4.221 0 0134 20.414V12.97zm8.337 1.239a2.477 2.477 0 10-.726 4.9 2.477 2.477 0 00.726-4.9zm-1.964-.636a3.476 3.476 0 113.202 6.171 3.476 3.476 0 01-3.202-6.171zm5.662-1.475a.5.5 0 100 1h.007a.5.5 0 100-1h-.007z" fill="#fff"/></g><g clip-path="url(#clip2_143_9162)" fill="#fff"><mask id="a"><path d="M81.65 11.35A7.943 7.943 0 0076 9c-4.405 0-8 3.595-8 8 0 1.303.32 2.59.927 3.734l-.913 3.684a.469.469 0 00.568.568l3.684-.913a7.977 7.977 0 009.384-1.423A7.944 7.944 0 0084 17a7.943 7.943 0 00-2.35-5.65zM76 24.063a7.034 7.034 0 01-3.44-.898.47.47 0 00-.343-.046l-3.106.77.77-3.107a.47.47 0 00-.046-.342 7.032 7.032 0 01-.897-3.44A7.07 7.07 0 0176 9.937 7.07 7.07 0 0183.063 17 7.07 7.07 0 0176 24.063z"/></mask><path d="M81.65 11.35A7.943 7.943 0 0076 9c-4.405 0-8 3.595-8 8 0 1.303.32 2.59.927 3.734l-.913 3.684a.469.469 0 00.568.568l3.684-.913a7.977 7.977 0 009.384-1.423A7.944 7.944 0 0084 17a7.943 7.943 0 00-2.35-5.65zM76 24.063a7.034 7.034 0 01-3.44-.898.47.47 0 00-.343-.046l-3.106.77.77-3.107a.47.47 0 00-.046-.342 7.032 7.032 0 01-.897-3.44A7.07 7.07 0 0176 9.937 7.07 7.07 0 0183.063 17 7.07 7.07 0 0176 24.063z"/><path d="M68.927 20.734l.971.24.092-.37-.18-.339-.883.47zm-.913 3.684l.97.241-.97-.24zm.123.445l.708-.707-.708.707zm.445.123l-.241-.97.24.97zm3.684-.913l.469-.884-.338-.18-.372.093.24.97zm9.384-1.423l.707.708-.707-.708zm-9.09.515l-.49.872.49-.872zm-.343-.046l-.24-.971.24.97zm-3.106.77l-.97-.24-.4 1.61 1.61-.4-.24-.97zm.77-3.107l-.97-.24.97.24zm-.046-.342l.872-.49-.872.49zm12.523-9.798A8.943 8.943 0 0076 8v2c1.861 0 3.614.728 4.943 2.057l1.415-1.415zM76 8c-4.958 0-9 4.043-9 9h2c0-3.852 3.147-7 7-7V8zm-9 9c0 1.466.36 2.914 1.044 4.203l1.767-.938A6.977 6.977 0 0169 17h-2zm.957 3.494l-.914 3.684 1.941.481.914-3.684-1.941-.482zm-.914 3.684c-.124.5.023 1.028.387 1.392l1.414-1.414a.531.531 0 01.14.503l-1.94-.481zm.387 1.391c.362.363.89.512 1.392.388l-.481-1.941a.532.532 0 01.504.14l-1.415 1.413zm1.392.388l3.685-.914-.482-1.941-3.684.914.481 1.94zm2.975-1.001A8.978 8.978 0 0076 26v-2c-1.14 0-2.266-.28-3.265-.81l-.938 1.766zM76 26a8.943 8.943 0 006.358-2.642l-1.415-1.415A6.943 6.943 0 0176 24v2zm6.358-2.642A8.944 8.944 0 0085 17h-2a6.944 6.944 0 01-2.057 4.943l1.415 1.415zM85 17a8.943 8.943 0 00-2.642-6.357l-1.415 1.414A6.943 6.943 0 0183 17h2zm-9 6.063a6.035 6.035 0 01-2.95-.77l-.98 1.744A8.035 8.035 0 0076 25.063v-2zm-2.95-.77a1.468 1.468 0 00-1.072-.145l.48 1.942a.53.53 0 01-.388-.053l.98-1.744zm-1.073-.145l-3.107.77.482 1.942 3.106-.77-.481-1.942zm-1.895 1.982l.77-3.107-1.941-.481-.77 3.106 1.94.482zm.77-3.106c.09-.364.038-.748-.145-1.074l-1.744.98a.532.532 0 01-.052-.389l1.94.483zm-.145-1.074a6.032 6.032 0 01-.77-2.95h-2a8.03 8.03 0 001.026 3.93l1.744-.98zm-.77-2.95A6.07 6.07 0 0176 10.937v-2c-4.447 0-8.063 3.616-8.063 8.063h2zM76 10.937A6.07 6.07 0 0182.063 17h2c0-4.447-3.616-8.063-8.063-8.063v2zM82.063 17A6.07 6.07 0 0176 23.063v2c4.447 0 8.063-3.616 8.063-8.063h-2z" mask="url(#a)"/><mask id="b"><path d="M80.23 18.423c-.31-.31-.653-.624-1.048-.815-.59-.284-1.153-.203-1.586.23-.197.197-.468.585-.624.776-.402-.067-1.205-.745-1.524-1.063-.318-.318-.995-1.122-1.062-1.523.19-.155.58-.427.776-.624.433-.432.514-.996.23-1.586-.19-.396-.504-.737-.815-1.048-.633-.646-1.608-.694-2.45.149-.63.629-1.19 1.796-.288 3.78.534 1.174 1.394 2.212 1.818 2.64l.004.004c.428.424 1.466 1.285 2.64 1.818 1.326.603 2.747.746 3.78-.287.855-.855.783-1.83.15-2.45zm-.812 1.788c-.61.61-1.528.643-2.729.097-1.054-.48-2.008-1.275-2.367-1.63-.355-.359-1.15-1.313-1.63-2.367-.546-1.2-.513-2.119.097-2.73.357-.356.767-.514 1.118-.155l.007.007c.832.832.773 1.12.585 1.308-.166.167-.659.501-.818.66-.374.374-.304.953.207 1.72.304.458.707.903.897 1.093v.001c.191.19.636.593 1.094.898.767.51 1.346.58 1.72.206.159-.159.493-.651.66-.818.127-.127.252-.175.516-.048.307.148.635.476.792.633l.007.007c.362.354.2.761-.156 1.118z"/></mask><path d="M80.23 18.423c-.31-.31-.653-.624-1.048-.815-.59-.284-1.153-.203-1.586.23-.197.197-.468.585-.624.776-.402-.067-1.205-.745-1.524-1.063-.318-.318-.995-1.122-1.062-1.523.19-.155.58-.427.776-.624.433-.432.514-.996.23-1.586-.19-.396-.504-.737-.815-1.048-.633-.646-1.608-.694-2.45.149-.63.629-1.19 1.796-.288 3.78.534 1.174 1.394 2.212 1.818 2.64l.004.004c.428.424 1.466 1.285 2.64 1.818 1.326.603 2.747.746 3.78-.287.855-.855.783-1.83.15-2.45zm-.812 1.788c-.61.61-1.528.643-2.729.097-1.054-.48-2.008-1.275-2.367-1.63-.355-.359-1.15-1.313-1.63-2.367-.546-1.2-.513-2.119.097-2.73.357-.356.767-.514 1.118-.155l.007.007c.832.832.773 1.12.585 1.308-.166.167-.659.501-.818.66-.374.374-.304.953.207 1.72.304.458.707.903.897 1.093v.001c.191.19.636.593 1.094.898.767.51 1.346.58 1.72.206.159-.159.493-.651.66-.818.127-.127.252-.175.516-.048.307.148.635.476.792.633l.007.007c.362.354.2.761-.156 1.118z"/><path d="M79.182 17.608l.435-.9-.435.9zm-2.21 1.006l-.165.986.573.096.367-.45-.775-.632zm-1.524-1.063l-.709.706.003.003.706-.709zm-1.062-1.523l-.633-.775-.45.367.097.573.986-.165zm.776-.624l.707.707-.707-.707zm.23-1.586l.9-.434-.9.434zm-.815-1.048l-.715.7.008.007.707-.707zm-2.45.149l.707.707-.708-.707zm-.288 3.78l-.91.414.91-.414zm1.818 2.64l-.71.704.003.004.707-.708zm.004.004l-.707.707.003.003.704-.71zm2.64 1.818l.414-.91-.414.91zm3.78-.287l.707.707-.707-.707zm-3.392-.566l-.414.91.414-.91zm-2.367-1.63l-.711.703.008.008.703-.71zm-1.63-2.367l-.91.414.91-.414zm1.215-2.885l-.714.7.714-.7zm.007.007l-.714.7.007.007.707-.707zM73.68 15.4l.707.708-.707-.708zm.207 1.72l.832-.554-.832.554zm.897 1.093l.747-.664-.019-.022-.02-.02-.708.706zm0 .001l-.747.665.02.022.022.021.706-.708zm1.094.898l.554-.833-.554.833zm2.896-.66l-.434.9.434-.9zm.792.633l-.707.708.007.006.7-.714zm.007.007l-.7.713v.001l.7-.714zm1.364-1.377c-.317-.316-.761-.738-1.321-1.008l-.869 1.801c.23.111.47.317.775.621l1.415-1.414zm-1.322-1.009a2.467 2.467 0 00-1.43-.242 2.291 2.291 0 00-1.297.666l1.414 1.414c.08-.08.136-.096.17-.101.039-.006.127-.006.275.065l.868-1.802zm-2.727.424c-.15.15-.303.345-.413.488-.133.173-.212.281-.278.363l1.549 1.264c.09-.11.224-.291.315-.409.114-.148.195-.245.241-.292l-1.414-1.414zm.248.497c.078.013.076.03-.033-.033a3.18 3.18 0 01-.326-.22 6.46 6.46 0 01-.624-.532l-1.412 1.417c.193.192.51.472.838.718.165.123.35.25.535.355.164.094.414.22.692.267l.33-1.972zm-.98-.782a6.466 6.466 0 01-.533-.624 3.292 3.292 0 01-.22-.327c-.062-.109-.045-.11-.032-.033l-1.972.331c.046.278.173.528.267.692.105.185.232.369.355.534.245.328.525.645.717.838l1.417-1.411zm-1.138-.044c.08-.066.188-.144.362-.277a5.23 5.23 0 00.488-.414l-1.414-1.414a3.551 3.551 0 01-.293.242c-.118.09-.3.225-.409.314l1.266 1.55zm.85-.69c.353-.354.594-.795.667-1.299a2.467 2.467 0 00-.243-1.43l-1.802.869c.072.148.07.236.065.275-.005.034-.021.09-.101.17l1.414 1.414zm.424-2.729c-.27-.56-.693-1.004-1.009-1.32l-1.414 1.414c.305.305.51.545.621.775l1.802-.869zM75.29 12.07a2.525 2.525 0 00-1.89-.783c-.73.021-1.416.36-1.982.925l1.415 1.414c.276-.277.5-.336.626-.34.123-.004.263.04.403.184l1.428-1.4zm-3.872.142a3.53 3.53 0 00-.996 1.92c-.148.857-.01 1.85.505 2.98l1.821-.827c-.388-.853-.42-1.436-.355-1.815.064-.377.241-.646.44-.844l-1.415-1.414zm-.49 4.9c.596 1.312 1.537 2.445 2.018 2.931l1.421-1.407c-.367-.371-1.147-1.314-1.619-2.351l-1.82.828zm2.021 2.935l.004.003 1.414-1.414-.003-.004-1.415 1.415zm.007.006c.486.481 1.62 1.422 2.93 2.019l.828-1.821c-1.037-.472-1.98-1.251-2.35-1.619l-1.408 1.421zm2.93 2.019c1.458.663 3.419.991 4.901-.491l-1.414-1.414c-.584.584-1.465.627-2.659.084l-.828 1.82zm4.902-.491c.573-.574.909-1.266.925-1.998a2.533 2.533 0 00-.784-1.874l-1.4 1.429c.14.137.187.276.184.4-.002.125-.058.347-.34.629l1.415 1.414zm-2.078-2.077c-.168.168-.553.373-1.608-.106l-.828 1.82c1.347.613 2.798.752 3.85-.3l-1.414-1.414zm-1.608-.106c-.915-.417-1.774-1.13-2.078-1.43l-1.406 1.421c.414.41 1.464 1.287 2.656 1.83l.828-1.821zm-2.07-1.423c-.3-.304-1.014-1.163-1.43-2.078l-1.821.828c.542 1.192 1.419 2.242 1.829 2.656l1.422-1.406zm-1.43-2.078c-.48-1.055-.275-1.44-.107-1.608l-1.414-1.415c-1.052 1.053-.913 2.504-.3 3.85l1.82-.827zm-.107-1.608a.647.647 0 01.102-.087c.019-.011.002.003-.047.013a.448.448 0 01-.223-.014.348.348 0 01-.135-.075l1.429-1.4c-.398-.406-.928-.582-1.473-.47-.466.096-.826.377-1.067.618l1.414 1.415zm-.302-.162l.006.006 1.427-1.4-.006-.008-1.427 1.402zm.013.013c.186.186.302.322.371.416.073.098.073.122.061.086a.6.6 0 01.003-.342.624.624 0 01.15-.266l1.414 1.414a1.38 1.38 0 00.36-.6 1.407 1.407 0 00-.027-.832c-.145-.439-.487-.86-.918-1.29l-1.414 1.414zm.585-.106c.002-.002-.022.02-.09.075-.063.05-.135.105-.22.168-.079.06-.17.13-.25.194-.074.058-.174.14-.258.223l1.414 1.414c-.005.005.016-.015.085-.07l.219-.167c.08-.061.171-.13.253-.196.076-.06.176-.142.261-.227l-1.414-1.414zm-.818.66c-.428.427-.581.981-.514 1.539.06.508.299.997.595 1.442l1.665-1.108c-.214-.322-.267-.506-.275-.573-.002-.024.003-.008-.009.03a.22.22 0 01-.048.085l-1.414-1.415zm.08 2.981c.353.53.803 1.025 1.023 1.245l1.416-1.412a7.08 7.08 0 01-.773-.94l-1.665 1.107zm.983 1.203l.001.002 1.495-1.33-1.496 1.328zm.043.046c.22.219.716.669 1.245 1.021l1.108-1.665a7.078 7.078 0 01-.941-.773l-1.412 1.416zm1.245 1.021c.445.297.934.534 1.442.595.558.067 1.111-.086 1.539-.514l-1.415-1.414a.22.22 0 01.084-.048c.039-.012.055-.006.03-.01-.066-.007-.25-.06-.572-.274l-1.108 1.665zm2.98.081a3.09 3.09 0 00.224-.258c.065-.08.133-.171.194-.25.063-.085.119-.158.168-.22.054-.068.076-.091.075-.09l-1.414-1.414a3.173 3.173 0 00-.227.26c-.066.083-.135.174-.196.254a12.04 12.04 0 01-.238.304l1.415 1.414zm.66-.818a.633.633 0 01-.35.162c-.205.031-.324-.04-.274-.016l.869-1.802c-.215-.103-.528-.214-.893-.16a1.362 1.362 0 00-.765.402l1.414 1.414zm-.624.146c.037.018.118.07.235.17.108.093.205.19.284.27l1.414-1.415c-.125-.125-.576-.591-1.065-.827l-.868 1.802zm.526.446l.006.006 1.402-1.427-.007-.006-1.401 1.427zm.007.007a.344.344 0 01-.073-.133.453.453 0 01-.015-.226c.01-.05.025-.067.014-.048a.658.658 0 01-.089.104l1.415 1.414c.238-.239.522-.598.619-1.064.114-.549-.066-1.078-.471-1.476l-1.4 1.43z" mask="url(#b)"/></g><g clip-path="url(#clip3_143_9162)" fill="#fff"><mask id="c"><path d="M117.753 10.59a1.038 1.038 0 00-.824-.371 1.62 1.62 0 00-.576.114l-13.543 5.17c-.719.275-.816.686-.81.907.006.221.126.627.86.86l.013.004 2.809.804 1.519 4.344c.208.593.673.96 1.214.96.341 0 .677-.143.971-.413l1.738-1.6 2.52 2.03h.001l.024.02.007.005c.28.217.586.332.884.332h.001c.583 0 1.048-.432 1.183-1.1l2.219-10.958c.09-.44.015-.834-.21-1.109zm-11.131 7.335l5.42-2.769-3.375 3.586a.48.48 0 00-.114.21l-.65 2.635-1.281-3.662zm2.129 4.354a.743.743 0 01-.068.056l.604-2.445 1.099.884-1.635 1.505zm8.294-10.768l-2.22 10.958c-.021.105-.089.35-.265.35-.086 0-.195-.048-.307-.134l-2.856-2.3h-.001l-1.699-1.369 4.88-5.186a.468.468 0 00-.554-.739l-8.027 4.101-2.848-.814 13.54-5.169a.685.685 0 01.241-.053c.028 0 .079.004.098.027.025.03.057.134.018.329z"/></mask><path d="M117.753 10.59a1.038 1.038 0 00-.824-.371 1.62 1.62 0 00-.576.114l-13.543 5.17c-.719.275-.816.686-.81.907.006.221.126.627.86.86l.013.004 2.809.804 1.519 4.344c.208.593.673.96 1.214.96.341 0 .677-.143.971-.413l1.738-1.6 2.52 2.03h.001l.024.02.007.005c.28.217.586.332.884.332h.001c.583 0 1.048-.432 1.183-1.1l2.219-10.958c.09-.44.015-.834-.21-1.109zm-11.131 7.335l5.42-2.769-3.375 3.586a.48.48 0 00-.114.21l-.65 2.635-1.281-3.662zm2.129 4.354a.743.743 0 01-.068.056l.604-2.445 1.099.884-1.635 1.505zm8.294-10.768l-2.22 10.958c-.021.105-.089.35-.265.35-.086 0-.195-.048-.307-.134l-2.856-2.3h-.001l-1.699-1.369 4.88-5.186a.468.468 0 00-.554-.739l-8.027 4.101-2.848-.814 13.54-5.169a.685.685 0 01.241-.053c.028 0 .079.004.098.027.025.03.057.134.018.329z"/><path d="M116.353 10.333l.357.935-.357-.935zm-13.543 5.17l.356.935-.356-.935zm.05 1.767l-.304.953.011.003.293-.956zm.013.004l.275-.962-.008-.002-.267.964zm2.809.804l.944-.33-.171-.49-.498-.142-.275.962zm1.519 4.344l-.944.33h.001l.943-.33zm2.185.547l.677.736h.001l-.678-.736zm1.738-1.6l.627-.779-.671-.54-.633.583.677.736zm2.52 2.03l.707-.708-.038-.038-.042-.034-.627.78zm.001 0l-.707.707.038.038.042.034.627-.779zm.024.02l-.628.778.007.005.007.006.614-.79zm.007.005l-.614.789h.001l.613-.79zm.884.332v1-1zm1.184-1.1l.98.198-.98-.199zm2.219-10.958l-.98-.199.98.199zm-11.341 6.227l-.455-.89-.777.397.288.823.944-.33zm5.42-2.769l.728.685-1.183-1.575.455.89zm-3.375 3.586l.728.686-.728-.686zm-.114.21l.971.239-.971-.24zm-.65 2.635l-.944.33 1.109 3.172.805-3.262-.97-.24zm.848.692l.677.737v-.001l-.677-.736zm-.068.056l-.97-.24-.673 2.726 2.244-1.686-.601-.8zm.604-2.445l.627-.779-1.222-.984-.376 1.523.971.24zm1.099.884l.677.736.854-.786-.904-.729-.627.78zm4.439 1.695l.98.2.001-.001-.981-.199zm-.572.216l-.627.779.009.007.008.006.61-.792zm-2.856-2.3l-.707.707.038.039.042.033.627-.779zm-.001 0l-.627.778.084.068.096.048.447-.895zm-1.699-1.369l-.728-.685-.741.786.842.678.627-.779zm4.88-5.186l-.728-.685.728.685zm.034-.603l.8-.6h-.001l-.799.6zm-.588-.136l.455.891-.455-.89zm-8.027 4.101l-.275.962.379.108.351-.18-.455-.89zm-2.848-.814l-.357-.935-2.803 1.07 2.885.826.275-.961zm13.54-5.169l.356.934h.001l-.357-.934zm.339-.026l-.776.63.003.004.773-.634zm1.5-1.227a2.038 2.038 0 00-1.598-.737v2c.037 0 .053.007.055.008l-.002-.002c-.002 0-.003-.002-.003-.003l1.548-1.266zm-1.598-.737c-.323 0-.638.068-.933.18l.714 1.868a.63.63 0 01.219-.048v-2zm-.932.18l-13.544 5.17.713 1.869 13.544-5.17-.713-1.869zm-13.544 5.17c-.502.191-.89.472-1.144.841a1.72 1.72 0 00-.308 1.028l1.999-.056a.297.297 0 01-.043.161c-.027.04-.008-.023.209-.105l-.713-1.869zm-1.452 1.87c.008.278.089.651.366 1.009.274.354.678.612 1.189.775l.607-1.906c-.222-.07-.244-.132-.215-.094a.306.306 0 01.052.159l-1.999.056zm1.566 1.787l.038.011.535-1.927.012.004c.002 0 .003 0 0 0l-.585 1.912zm.031.01l2.809.803.55-1.923-2.809-.803-.55 1.922zm2.14.172l1.519 4.344 1.888-.66-1.519-4.344-1.888.66zm1.52 4.344c.318.91 1.108 1.63 2.157 1.63v-2a.17.17 0 01-.112-.042.548.548 0 01-.158-.248l-1.887.66zm2.157 1.63c.635 0 1.203-.268 1.648-.677l-1.354-1.472c-.143.132-.246.15-.294.15v2zm1.649-.677l1.737-1.6-1.354-1.472-1.738 1.6 1.355 1.472zm.433-1.557l2.52 2.03 1.254-1.559-2.52-2.029-1.254 1.558zm2.44 1.957a1.123 1.123 0 00.143.119l.038.024.009.006.002.002h.001l-.003-.002-.009-.005-.038-.025a1.16 1.16 0 01-.142-.118l1.414-1.414a.944.944 0 00-.142-.119l-.038-.024-.01-.006-.002-.001h-.001l.003.001.01.006a.924.924 0 01.037.024c.016.011.038.026.061.046a.939.939 0 01.081.072l-1.414 1.415zm.081.072l.023.02 1.256-1.557-.024-.02-1.255 1.557zm.037.03l.001.001.006.005 1.228-1.579h-.001l-.006-.005-1.228 1.579zm.008.007c.422.327.937.541 1.497.542l.001-2c-.038 0-.134-.015-.272-.123l-1.226 1.58zm1.497.542h.001v-2h-.001v2zm.001 0c1.164 0 1.956-.879 2.163-1.902l-1.96-.397a.496.496 0 01-.124.267.103.103 0 01-.079.032v2zm2.163-1.902l2.22-10.958-1.961-.397-2.219 10.958 1.96.397zm2.219-10.958c.132-.65.047-1.373-.416-1.94l-1.548 1.267c-.014-.017.051.046.004.276l1.96.397zm-11.866 6.92l5.42-2.77-.91-1.78-5.42 2.769.91 1.78zm4.237-4.345l-3.375 3.586 1.456 1.37 3.375-3.585-1.456-1.371zm-3.375 3.586a1.468 1.468 0 00-.357.655l1.942.478a.526.526 0 01-.129.238l-1.456-1.371zm-.356.654l-.651 2.636 1.941.48.651-2.636-1.941-.48zm1.264 2.546l-1.281-3.662-1.888.66 1.281 3.662 1.888-.66zm-.772.286a.063.063 0 01.008-.007l1.201 1.599c.045-.034.094-.073.144-.12l-1.353-1.472zm1.579 1.032l.604-2.445-1.942-.48-.603 2.446 1.941.479zm-.994-1.906l1.098.884 1.255-1.558-1.099-.884-1.254 1.558zm1.048-.63l-1.634 1.505 1.354 1.47 1.635-1.504-1.355-1.471zm6.356-8.726l-2.219 10.958 1.961.397 2.219-10.958-1.961-.397zm-2.218 10.957v-.002l.002-.007a.39.39 0 01.031-.068.688.688 0 01.178-.203.825.825 0 01.503-.172v2c.632 0 .956-.456 1.062-.645a1.74 1.74 0 00.183-.504l-1.959-.4zm.714-.452a.64.64 0 01.254.048c.038.017.053.03.05.027l-1.221 1.584c.186.143.51.341.917.341v-2zm.321.088l-2.856-2.3-1.255 1.558 2.856 2.3 1.255-1.558zm-2.776-2.228a1.011 1.011 0 00-.262-.188l-.894 1.789a.975.975 0 01-.259-.186l1.415-1.415zm-.082-.072l-1.699-1.369-1.254 1.558 1.699 1.368 1.254-1.557zm-1.598.095l4.881-5.186-1.457-1.37-4.88 5.186 1.456 1.37zm4.88-5.186a1.47 1.47 0 00.106-1.888l-1.6 1.2a.531.531 0 01.038-.682l1.456 1.37zm.105-1.888a1.467 1.467 0 00-1.842-.426l.91 1.78a.532.532 0 01-.667-.153l1.599-1.201zm-1.842-.426l-8.027 4.1.91 1.782 8.027-4.101-.91-1.781zm-7.297 4.03l-2.848-.815-.55 1.923 2.848.815.55-1.923zm-2.766 1.08l13.539-5.168-.713-1.868-13.54 5.168.714 1.869zm13.54-5.168c.011-.004-.03.013-.116.013v-2c-.18 0-.381.036-.598.119l.714 1.868zm-.116.013c-.016 0-.07 0-.145-.015a.94.94 0 01-.533-.328l1.553-1.26c-.243-.299-.565-.36-.625-.372a1.275 1.275 0 00-.25-.025v2zm-.675-.34a.912.912 0 01-.154-.27.728.728 0 01-.034-.147c-.007-.068.001-.1-.002-.086l1.961.397c.036-.18.049-.36.029-.537a1.199 1.199 0 00-.253-.624l-1.547 1.268z" mask="url(#c)"/></g><path d="M151.401 16.464c0-3.275-3.283-5.94-7.319-5.94s-7.32 2.665-7.32 5.94c0 2.936 2.604 5.395 6.122 5.86.238.052.562.157.644.361.074.185.049.475.024.662l-.104.627c-.032.185-.147.723.634.394.781-.329 4.215-2.482 5.751-4.25 1.061-1.163 1.568-2.343 1.568-3.654z" stroke="#fff" stroke-width=".5"/><path d="M181.333 13L180 10.333h-4L174.667 13M182 13h-8a2.675 2.675 0 00-2.667 2.667V21c0 1.467 1.2 2.667 2.667 2.667h8c1.467 0 2.667-1.2 2.667-2.667v-5.333c0-1.467-1.2-2.667-2.667-2.667zm-4 8a2.675 2.675 0 01-2.667-2.667c0-1.466 1.2-2.666 2.667-2.666 1.467 0 2.667 1.2 2.667 2.666 0 1.467-1.2 2.667-2.667 2.667z" stroke="#fff" stroke-linecap="round"/><path d="M212.334 23.667H207c-.733 0-1.333-.6-1.333-1.334V17c0-3.667 3-6.667 6.667-6.667 3.666 0 6.666 3 6.666 6.667 0 3.733-2.933 6.667-6.666 6.667z" stroke="#fff" stroke-miterlimit="10" stroke-linecap="round" stroke-linejoin="round"/><path d="M209.167 17a.166.166 0 11-.333 0 .166.166 0 11.333 0zm6.666 0a.166.166 0 11-.333 0 .166.166 0 11.333 0zm-3.333 0a.166.166 0 11-.333 0 .166.166 0 11.333 0z" fill="#fff" stroke="#fff"/><path d="M248.174 21.173l1.621-1.62a1.332 1.332 0 011.705-.152l1.762 1.229c.68.475.767 1.45.18 2.036l-.177.177a1.216 1.216 0 01-1.195.33c-1.399-.402-4.663-1.561-7.316-4.215-2.653-2.653-3.813-5.916-4.214-7.315-.123-.43.014-.88.33-1.196l.176-.176a1.334 1.334 0 012.037.18l1.228 1.761c.37.53.306 1.25-.151 1.706l-1.62 1.62" stroke="#fff"/><path clip-rule="evenodd" d="M280.894 23.459s4.894-3.916 4.894-8.565a4.894 4.894 0 10-9.788 0c0 4.65 4.894 8.565 4.894 8.565z" stroke="#fff"/><path clip-rule="evenodd" d="M280.894 17.341a2.447 2.447 0 100-4.894 2.447 2.447 0 000 4.894z" stroke="#fff"/><defs><clipPath id="clip0_143_9162"><path fill="#fff" transform="translate(0 9)" d="M0 0h16v16H0z"/></clipPath><clipPath id="clip1_143_9162"><path fill="#fff" transform="translate(34 9)" d="M0 0h16v16H0z"/></clipPath><clipPath id="clip2_143_9162"><path fill="#fff" transform="translate(68 9)" d="M0 0h16v16H0z"/></clipPath><clipPath id="clip3_143_9162"><path fill="#fff" transform="translate(102 9)" d="M0 0h16v16H0z"/></clipPath></defs></svg>