<svg width="48" height="32" viewBox="0 0 48 32" fill="none" xmlns="http://www.w3.org/2000/svg"><g clip-path="url(#clip0_89_11572)"><path d="M0 4a4 4 0 014-4h40a4 4 0 014 4v24a4 4 0 01-4 4H4a4 4 0 01-4-4V4z" fill="#EFF2F6"/><path d="M40 23.35a4.977 4.977 0 01-4.977 4.977H8V8.652a4.977 4.977 0 014.978-4.978H40v19.675z" fill="#fff"/><path d="M31.19 16.432c.772.017 1.549-.034 2.317.027.779.145.966 1.323.275 1.71-.472.254-1.033.094-1.544.14H31.19v-1.877zm2.763-2.123c.172.605-.412 1.149-.994 1.066H31.19c.013-.571-.024-1.19.018-1.732.709.02 1.424-.04 2.128.032a.842.842 0 01.617.634zm4.256-8.976c.033 1.156.005 2.373.014 3.552-.002 4.795.005 9.59-.004 14.385-.03 1.797-1.623 3.359-3.408 3.395-1.786.007-3.573 0-5.36.003v-7.25c1.947-.01 3.895.021 5.84-.014.903-.057 1.892-.653 1.934-1.646.106-.998-.835-1.688-1.728-1.797-.343-.008-.333-.1 0-.14.852-.184 1.52-1.065 1.27-1.948-.213-.928-1.24-1.288-2.093-1.286-1.74-.012-3.482-.002-5.222-.005.011-1.353-.024-2.708.019-4.06.138-1.765 1.77-3.22 3.53-3.188h5.208z" fill="url(#paint0_linear_89_11572)"/><path d="M9.782 8.704c.045-1.794 1.644-3.343 3.427-3.37 1.78-.005 3.56 0 5.339-.002-.005 6.003.01 12.007-.007 18.01-.07 1.772-1.651 3.29-3.414 3.322-1.783.007-3.566.001-5.35.003v-7.493c1.733.409 3.549.583 5.316.312 1.056-.17 2.212-.689 2.57-1.785.262-.937.114-1.924.154-2.886v-2.234h-3.058c-.014 1.478.028 2.958-.023 4.434-.082.907-.98 1.483-1.836 1.453-1.06.01-3.163-.77-3.163-.77-.006-2.768.03-6.235.045-8.994z" fill="url(#paint1_linear_89_11572)"/><path d="M19.688 13.483c-.16.034-.032-.548-.073-.77.01-1.396-.023-2.795.019-4.19.137-1.773 1.782-3.232 3.549-3.19h5.202c-.005 6.003.01 12.006-.007 18.009-.069 1.772-1.65 3.291-3.413 3.323-1.784.007-3.567 0-5.35.003v-8.21c1.218.999 2.873 1.154 4.39 1.157 1.144 0 2.281-.177 3.392-.44V17.67c-1.252.624-2.723 1.02-4.111.662-.968-.24-1.67-1.176-1.655-2.175-.112-1.04.497-2.136 1.518-2.445 1.267-.397 2.649-.093 3.837.423.254.133.513.298.41-.127v-1.182c-1.986-.473-4.101-.647-6.097-.133-.578.163-1.141.41-1.61.79z" fill="url(#paint2_linear_89_11572)"/></g><defs><linearGradient id="paint0_linear_89_11572" x1="29.392" y1="15.544" x2="38.168" y2="15.544" gradientUnits="userSpaceOnUse"><stop stop-color="#007B40"/><stop offset="1" stop-color="#55B330"/></linearGradient><linearGradient id="paint1_linear_89_11572" x1="9.591" y1="16.204" x2="18.404" y2="16.204" gradientUnits="userSpaceOnUse"><stop stop-color="#1D2970"/><stop offset="1" stop-color="#006DBA"/></linearGradient><linearGradient id="paint2_linear_89_11572" x1="19.602" y1="15.751" x2="28.384" y2="15.751" gradientUnits="userSpaceOnUse"><stop stop-color="#6E2B2F"/><stop offset="1" stop-color="#E30138"/></linearGradient><clipPath id="clip0_89_11572"><path fill="#fff" d="M0 0h48v32H0z"/></clipPath></defs></svg>