<?xml version="1.0" encoding="UTF-8"?>
<!DOCTYPE svg PUBLIC "-//W3C//DTD SVG 1.1//EN" "http://www.w3.org/Graphics/SVG/1.1/DTD/svg11.dtd">
<svg xmlns="http://www.w3.org/2000/svg" version="1.1" width="231px" height="140px" style="shape-rendering:geometricPrecision; text-rendering:geometricPrecision; image-rendering:optimizeQuality; fill-rule:evenodd; clip-rule:evenodd" xmlns:xlink="http://www.w3.org/1999/xlink">
<g><path style="opacity:0.745" fill="#f2b600" d="M 107.5,37.5 C 109.167,37.5 110.833,37.5 112.5,37.5C 112.66,39.1992 112.494,40.8659 112,42.5C 110.667,43.8333 109.333,43.8333 108,42.5C 107.506,40.8659 107.34,39.1992 107.5,37.5 Z"/></g>
<g><path style="opacity:0.693" fill="#f1b600" d="M 136.5,38.5 C 140.637,38.1463 144.637,38.6463 148.5,40C 151.443,43.9492 150.443,46.1159 145.5,46.5C 145.037,41.6227 142.704,40.456 138.5,43C 137.134,45.3818 137.467,47.5485 139.5,49.5C 143.507,50.6639 147.007,52.6639 150,55.5C 153.014,61.9725 151.181,66.4725 144.5,69C 140.219,70.0105 136.386,69.1772 133,66.5C 132.333,64.5 132.333,62.5 133,60.5C 134.011,59.6634 135.178,59.33 136.5,59.5C 136.329,64.4943 138.662,66.3276 143.5,65C 145.725,62.975 146.059,60.6417 144.5,58C 139.731,56.7669 135.898,54.2669 133,50.5C 131.593,45.5994 132.76,41.5994 136.5,38.5 Z"/></g>
<g><path style="opacity:0.69" fill="#f1b500" d="M 35.5,38.5 C 39.8333,38.5 44.1667,38.5 48.5,38.5C 48.5391,40.3588 47.7058,41.6921 46,42.5C 45.5003,50.1594 45.3336,57.8261 45.5,65.5C 52.0459,67.3292 55.3792,64.9959 55.5,58.5C 56.8333,58.5 58.1667,58.5 59.5,58.5C 59.7839,61.7766 59.4505,64.9433 58.5,68C 50.8406,68.4997 43.1739,68.6664 35.5,68.5C 35.5,67.5 35.5,66.5 35.5,65.5C 36.8221,65.67 37.9887,65.3366 39,64.5C 39.6667,57.1667 39.6667,49.8333 39,42.5C 37.9887,41.6634 36.8221,41.33 35.5,41.5C 35.5,40.5 35.5,39.5 35.5,38.5 Z"/></g>
<g><path style="opacity:0.748" fill="#f2b500" d="M 121.5,40.5 C 122.5,40.5 123.5,40.5 124.5,40.5C 124.5,42.1667 124.5,43.8333 124.5,45.5C 126.5,45.5 128.5,45.5 130.5,45.5C 130.5,46.8333 130.5,48.1667 130.5,49.5C 128.5,49.5 126.5,49.5 124.5,49.5C 124.334,54.1785 124.501,58.8452 125,63.5C 126.401,65.1922 128.234,65.8588 130.5,65.5C 130.67,66.8221 130.337,67.9887 129.5,69C 126.412,69.8467 123.579,69.3467 121,67.5C 119.59,61.6208 119.09,55.6208 119.5,49.5C 118.5,49.5 117.5,49.5 116.5,49.5C 118.878,47.0578 120.545,44.0578 121.5,40.5 Z"/></g>
<g><path style="opacity:0.708" fill="#f1b600" d="M 98.5,44.5 C 103.159,44.0146 104.492,45.848 102.5,50C 101.551,50.6172 100.718,50.4506 100,49.5C 99.8198,52.9555 99.1532,56.2889 98,59.5C 94.8008,60.6683 91.6341,61.8349 88.5,63C 92.6192,63.1432 96.6192,63.8099 100.5,65C 104.258,71.5074 102.592,75.8407 95.5,78C 90.8481,79.1931 86.6814,78.3597 83,75.5C 82.8333,74.3333 82.6667,73.1667 82.5,72C 85.0566,68.2192 86.3899,64.2192 86.5,60C 82.5,54.6667 83.1667,50 88.5,46C 91.0991,45.231 93.5991,45.3977 96,46.5C 96.9947,45.9341 97.828,45.2674 98.5,44.5 Z M 89.5,49.5 C 91.1667,49.5 92.8333,49.5 94.5,49.5C 94.6633,51.8568 94.4966,54.1902 94,56.5C 90.9917,58.0318 89.1583,57.0318 88.5,53.5C 89.2458,52.2638 89.5792,50.9305 89.5,49.5 Z M 88.5,68.5 C 91.1873,68.3359 93.854,68.5026 96.5,69C 98.1397,71.7758 97.473,73.7758 94.5,75C 87.7613,76.4466 85.7613,74.2799 88.5,68.5 Z"/></g>
<g><path style="opacity:0.679" fill="#f2b500" d="M 67.5,45.5 C 77.1667,44.5 81.5,48.8333 80.5,58.5C 76.1667,58.5 71.8333,58.5 67.5,58.5C 67.1857,62.1935 68.8523,64.5268 72.5,65.5C 74.5,64.5 76.5,63.5 78.5,62.5C 79.8485,64.6114 79.5152,66.4447 77.5,68C 64.5463,71.0184 59.3796,65.8517 62,52.5C 62.9383,49.4025 64.7716,47.0691 67.5,45.5 Z M 69.5,49.5 C 73.1507,49.1617 74.8174,50.8284 74.5,54.5C 72.1667,54.5 69.8333,54.5 67.5,54.5C 67.3915,52.4862 68.0582,50.8195 69.5,49.5 Z"/></g>
<g><path style="opacity:0.741" fill="#f2b600" d="M 152.5,45.5 C 155.788,45.073 158.788,45.7397 161.5,47.5C 170.828,43.5067 175.828,46.6733 176.5,57C 175.851,60.1948 175.018,63.3614 174,66.5C 170.221,69.8587 166.221,70.192 162,67.5C 161.333,69.8333 161.333,72.1667 162,74.5C 163.011,75.3366 164.178,75.67 165.5,75.5C 165.5,76.5 165.5,77.5 165.5,78.5C 161.167,78.5 156.833,78.5 152.5,78.5C 152.5,77.5 152.5,76.5 152.5,75.5C 153.822,75.67 154.989,75.3366 156,74.5C 156.5,66.1733 156.666,57.84 156.5,49.5C 155.167,49.5 153.833,49.5 152.5,49.5C 152.5,48.1667 152.5,46.8333 152.5,45.5 Z M 164.5,49.5 C 167.86,48.7904 169.693,50.1238 170,53.5C 171.407,58.367 170.24,62.367 166.5,65.5C 164.259,64.9682 162.759,63.6349 162,61.5C 160.89,56.9672 161.724,52.9672 164.5,49.5 Z"/></g>
<g><path style="opacity:0.7" fill="#f2b600" d="M 176.5,45.5 C 180.167,45.5 183.833,45.5 187.5,45.5C 187.5,46.8333 187.5,48.1667 187.5,49.5C 186.325,49.281 185.325,49.6143 184.5,50.5C 186.489,53.9655 187.989,57.6322 189,61.5C 190.793,57.954 192.293,54.2873 193.5,50.5C 192.675,49.6143 191.675,49.281 190.5,49.5C 190.5,48.1667 190.5,46.8333 190.5,45.5C 193.833,45.5 197.167,45.5 200.5,45.5C 200.5,46.8333 200.5,48.1667 200.5,49.5C 198.876,49.3601 197.71,50.0267 197,51.5C 194.59,59.7326 191.59,67.7326 188,75.5C 184.922,77.931 181.422,78.931 177.5,78.5C 177.5,77.5 177.5,76.5 177.5,75.5C 181.933,75.0723 184.933,72.739 186.5,68.5C 183.519,60.5136 180.185,52.8469 176.5,45.5 Z"/></g>
<g><path style="opacity:0.804" fill="#f1b500" d="M 104.5,45.5 C 107.167,45.5 109.833,45.5 112.5,45.5C 112.334,51.8421 112.5,58.1754 113,64.5C 114.011,65.3366 115.178,65.67 116.5,65.5C 116.5,66.5 116.5,67.5 116.5,68.5C 112.167,68.5 107.833,68.5 103.5,68.5C 103.5,67.5 103.5,66.5 103.5,65.5C 104.833,65.5 106.167,65.5 107.5,65.5C 107.5,60.1667 107.5,54.8333 107.5,49.5C 106.5,49.5 105.5,49.5 104.5,49.5C 104.5,48.1667 104.5,46.8333 104.5,45.5 Z"/></g>
<g><path style="opacity:0.605" fill="#f2b500" d="M 121.5,83.5 C 124.167,83.8333 126.833,84.1667 129.5,84.5C 129.5,85.5 129.5,86.5 129.5,87.5C 127.326,87.0798 125.326,87.0798 123.5,87.5C 125.396,88.4656 127.396,88.7989 129.5,88.5C 129.5,91.8333 129.5,95.1667 129.5,98.5C 128.167,98.5 126.833,98.5 125.5,98.5C 124.833,89.1667 124.167,89.1667 123.5,98.5C 122.5,98.5 121.5,98.5 120.5,98.5C 119.188,93.3157 119.521,88.3157 121.5,83.5 Z"/></g>
<g><path style="opacity:0.566" fill="#f2b600" d="M 146.5,83.5 C 147.833,83.5 149.167,83.5 150.5,83.5C 150.5,88.5 150.5,93.5 150.5,98.5C 143.136,100.813 139.969,98.1463 141,90.5C 142.444,88.8446 144.278,88.178 146.5,88.5C 146.5,86.8333 146.5,85.1667 146.5,83.5 Z M 144.5,91.5 C 145.586,91.62 146.253,92.2867 146.5,93.5C 146.167,94.1667 145.833,94.8333 145.5,95.5C 144.571,94.3112 144.238,92.9778 144.5,91.5 Z"/></g>
<g><path style="opacity:0.566" fill="#f1b600" d="M 162.5,83.5 C 163.5,83.5 164.5,83.5 165.5,83.5C 165.5,85.1667 165.5,86.8333 165.5,88.5C 167.467,88.2606 169.301,88.5939 171,89.5C 171.498,92.4816 171.665,95.4816 171.5,98.5C 170.5,98.5 169.5,98.5 168.5,98.5C 168.808,96.076 168.474,93.7427 167.5,91.5C 166.914,91.7093 166.414,92.0426 166,92.5C 165.505,94.4727 165.338,96.4727 165.5,98.5C 164.5,98.5 163.5,98.5 162.5,98.5C 161.833,89.1667 161.167,89.1667 160.5,98.5C 159.5,98.5 158.5,98.5 157.5,98.5C 156.908,94.0944 156.908,89.7611 157.5,85.5C 158.5,85.5 159.5,85.5 160.5,85.5C 160.281,86.675 160.614,87.675 161.5,88.5C 162.452,86.9547 162.785,85.288 162.5,83.5 Z"/></g>
<g><path style="opacity:0.545" fill="#f2b600" d="M 216.5,83.5 C 217.5,83.5 218.5,83.5 219.5,83.5C 219.5,85.1667 219.5,86.8333 219.5,88.5C 222.044,88.1043 224.211,88.771 226,90.5C 226.497,93.146 226.664,95.8127 226.5,98.5C 225.167,98.5 223.833,98.5 222.5,98.5C 222.808,96.076 222.474,93.7427 221.5,91.5C 220.914,91.7093 220.414,92.0426 220,92.5C 219.505,94.4727 219.338,96.4727 219.5,98.5C 218.5,98.5 217.5,98.5 216.5,98.5C 216.167,89.1667 215.833,89.1667 215.5,98.5C 214.167,98.5 212.833,98.5 211.5,98.5C 210.908,94.0944 210.908,89.7611 211.5,85.5C 212.833,85.5 214.167,85.5 215.5,85.5C 215.351,86.552 215.517,87.552 216,88.5C 216.494,86.8659 216.66,85.1992 216.5,83.5 Z"/></g>
<g><path style="opacity:0.536" fill="#f2b600" d="M 32.5,90.5 C 32.5,88.5 32.5,86.5 32.5,84.5C 33.5,84.5 34.5,84.5 35.5,84.5C 35.6219,88.8383 35.9553,89.1716 36.5,85.5C 37.5,85.5 38.5,85.5 39.5,85.5C 39.6261,87.1998 40.2927,88.6998 41.5,90C 39.8542,92.595 39.1875,95.4284 39.5,98.5C 38.5,98.5 37.5,98.5 36.5,98.5C 36.6633,96.1432 36.4966,93.8098 36,91.5C 34.9887,90.6634 33.8221,90.33 32.5,90.5 Z"/></g>
<g><path style="opacity:0.519" fill="#f2b600" d="M 188.5,85.5 C 189.833,85.5 191.167,85.5 192.5,85.5C 192.312,87.1033 192.812,88.4366 194,89.5C 197.073,88.3832 200.24,88.2165 203.5,89C 205.227,97.684 206.227,97.5174 206.5,88.5C 207.5,88.5 208.5,88.5 209.5,88.5C 209.665,91.5184 209.498,94.5184 209,97.5C 203.073,100.325 200.24,98.3248 200.5,91.5C 199.5,91.5 198.5,91.5 197.5,91.5C 197.5,93.8333 197.5,96.1667 197.5,98.5C 196.167,98.5 194.833,98.5 193.5,98.5C 193.167,89.1667 192.833,89.1667 192.5,98.5C 191.167,98.5 189.833,98.5 188.5,98.5C 187.908,94.0944 187.908,89.7611 188.5,85.5 Z"/></g>
<g><path style="opacity:0.553" fill="#f1b500" d="M -0.5,84.5 C 5.48877,83.0652 9.65543,85.0652 12,90.5C 16.1179,87.4079 19.4512,88.0745 22,92.5C 22.49,91.2068 22.6567,89.8734 22.5,88.5C 26.162,88.0339 29.4954,88.7006 32.5,90.5C 32.5,93.1667 32.5,95.8333 32.5,98.5C 31.1667,98.5 29.8333,98.5 28.5,98.5C 28.8076,96.076 28.4742,93.7427 27.5,91.5C 26.914,91.7093 26.414,92.0426 26,92.5C 25.5045,94.4727 25.3379,96.4727 25.5,98.5C 24.5,98.5 23.5,98.5 22.5,98.5C 22.5408,94.7566 21.8741,94.5899 20.5,98C 16.2268,100.122 13.0601,98.955 11,94.5C 10.5,96.3333 9.33333,97.5 7.5,98C 4.85397,98.4974 2.1873,98.6641 -0.5,98.5C -0.5,93.8333 -0.5,89.1667 -0.5,84.5 Z M 2.5,87.5 C 7.66767,88.3385 8.66767,90.8385 5.5,95C 4.55198,95.4828 3.55198,95.6495 2.5,95.5C 2.5,92.8333 2.5,90.1667 2.5,87.5 Z M 15.5,91.5 C 18.8606,92.2032 19.1939,93.5365 16.5,95.5C 14.3576,94.5629 14.0243,93.2296 15.5,91.5 Z"/></g>
<g><path style="opacity:0.525" fill="#f1b600" d="M 48.5,88.5 C 51.1667,88.5 53.8333,88.5 56.5,88.5C 56.3367,90.8568 56.5034,93.1902 57,95.5C 57.5,95 58,94.5 58.5,94C 57.1667,92.3333 57.1667,90.6667 58.5,89C 61.8965,89.222 65.2298,89.0554 68.5,88.5C 69.9945,88.7092 71.1612,89.3759 72,90.5C 72.6891,89.6433 73.5224,88.9767 74.5,88.5C 76.0245,90.4825 77.0245,92.8159 77.5,95.5C 78.3078,93.5767 78.8078,91.5767 79,89.5C 80.0113,88.6634 81.1779,88.33 82.5,88.5C 82.6641,91.1873 82.4974,93.854 82,96.5C 79,100.5 76,100.5 73,96.5C 70.3154,100.019 67.3154,100.352 64,97.5C 61.6667,100.167 59.3333,100.167 57,97.5C 47.5906,100.779 44.7573,97.7788 48.5,88.5 Z M 50.5,91.5 C 51.5862,91.62 52.2528,92.2867 52.5,93.5C 51.6964,95.9573 50.6964,95.9573 49.5,93.5C 49.8627,92.8165 50.1961,92.1499 50.5,91.5 Z M 64.5,93.5 C 63.7109,93.2172 63.0442,92.7172 62.5,92C 63.816,91.4719 64.4827,91.9719 64.5,93.5 Z M 70.5,92.5 C 71.0768,91.2267 71.7435,91.2267 72.5,92.5C 72.0302,93.463 71.3635,93.463 70.5,92.5 Z"/></g>
<g><path style="opacity:0.61" fill="#f2b500" d="M 83.5,88.5 C 88.0063,88.787 92.3397,88.9537 96.5,89C 97.4505,92.0567 97.7839,95.2234 97.5,98.5C 96.5,98.5 95.5,98.5 94.5,98.5C 94.2971,89.3646 93.6304,89.3646 92.5,98.5C 91.5,98.5 90.5,98.5 89.5,98.5C 88.4216,89.2468 87.4216,89.2468 86.5,98.5C 85.5,98.5 84.5,98.5 83.5,98.5C 83.5,95.1667 83.5,91.8333 83.5,88.5 Z"/></g>
<g><path style="opacity:0.571" fill="#f2b600" d="M 100.5,88.5 C 107.993,87.8288 110.326,90.9954 107.5,98C 100.691,100.196 97.8574,97.6959 99,90.5C 99.7172,89.9558 100.217,89.2891 100.5,88.5 Z"/></g>
<g><path style="opacity:0.588" fill="#f2b600" d="M 130.5,88.5 C 133.448,88.2229 136.281,88.5562 139,89.5C 139.498,92.4816 139.665,95.4816 139.5,98.5C 138.5,98.5 137.5,98.5 136.5,98.5C 136.808,96.076 136.474,93.7427 135.5,91.5C 134.914,91.7093 134.414,92.0426 134,92.5C 133.505,94.4727 133.338,96.4727 133.5,98.5C 132.5,98.5 131.5,98.5 130.5,98.5C 130.5,95.1667 130.5,91.8333 130.5,88.5 Z"/></g>
<g><path style="opacity:0.57" fill="#f2b600" d="M 174.5,88.5 C 181,87.4987 183.5,90.1653 182,96.5C 179.508,99.8324 176.674,100.166 173.5,97.5C 171.992,94.2313 172.325,91.2313 174.5,88.5 Z"/></g>
<g><path style="opacity:0.439" fill="#f1b600" d="M 110.5,95.5 C 111.5,95.5 112.5,95.5 113.5,95.5C 113.553,98.0606 112.553,100.061 110.5,101.5C 109.692,101.192 109.025,100.692 108.5,100C 109.267,98.5295 109.933,97.0295 110.5,95.5 Z"/></g>
<g><path style="opacity:0.463" fill="#f2b601" d="M 230.5,95.5 C 230.5,96.5 230.5,97.5 230.5,98.5C 229.5,98.5 228.5,98.5 227.5,98.5C 227.5,97.5 227.5,96.5 227.5,95.5C 228.5,95.5 229.5,95.5 230.5,95.5 Z"/></g>
</svg>
