<?xml version="1.0" encoding="UTF-8"?>
<!DOCTYPE svg PUBLIC "-//W3C//DTD SVG 1.1//EN" "http://www.w3.org/Graphics/SVG/1.1/DTD/svg11.dtd">
<svg xmlns="http://www.w3.org/2000/svg" version="1.1" width="3500px" height="1440px" style="shape-rendering:geometricPrecision; text-rendering:geometricPrecision; image-rendering:optimizeQuality; fill-rule:evenodd; clip-rule:evenodd" xmlns:xlink="http://www.w3.org/1999/xlink">
<g><path style="opacity:1" fill="#f1ecec" d="M -0.5,-0.5 C 1166.17,-0.5 2332.83,-0.5 3499.5,-0.5C 3499.5,479.5 3499.5,959.5 3499.5,1439.5C 2332.83,1439.5 1166.17,1439.5 -0.5,1439.5C -0.5,959.5 -0.5,479.5 -0.5,-0.5 Z"/></g>
<g><path style="opacity:1" fill="#7b4143" d="M 1081.5,148.5 C 1018.87,209.633 956.033,270.633 893,331.5C 892.601,331.272 892.435,330.938 892.5,330.5C 909.877,283.397 933.71,240.064 964,200.5C 977.697,183.795 993.53,169.629 1011.5,158C 1033.46,144.998 1056.8,141.832 1081.5,148.5 Z"/></g>
<g><path style="opacity:1" fill="#8b5a56" d="M 1228.5,146.5 C 1242.25,144.646 1255.92,145.646 1269.5,149.5C 1264.1,156.41 1258.1,162.91 1251.5,169C 1179.96,238.037 1108.3,306.87 1036.5,375.5C 1024.76,374.063 1013.43,371.396 1002.5,367.5C 1007.94,363.234 1013.27,358.734 1018.5,354C 1089.53,284.636 1160.86,215.636 1232.5,147C 1231.21,146.51 1229.87,146.343 1228.5,146.5 Z"/></g>
<g><path style="opacity:1" fill="#885652" d="M 1228.5,146.5 C 1229.87,146.343 1231.21,146.51 1232.5,147C 1160.86,215.636 1089.53,284.636 1018.5,354C 1013.27,358.734 1007.94,363.234 1002.5,367.5C 996.085,366.473 990.085,364.473 984.5,361.5C 1056.3,292.87 1127.96,224.037 1199.5,155C 1198.91,154.536 1198.24,154.369 1197.5,154.5C 1207.28,150.137 1217.62,147.47 1228.5,146.5 Z"/></g>
<g><path style="opacity:1" fill="#7e4747" d="M 1081.5,148.5 C 1092.99,150.774 1103.99,154.44 1114.5,159.5C 1107.76,167.745 1100.43,175.578 1092.5,183C 1039.3,234.034 986.301,285.2 933.5,336.5C 920.583,338.418 912.917,345.751 910.5,358.5C 856.398,409.766 802.732,461.6 749.5,514C 745.939,517.073 742.272,519.906 738.5,522.5C 727.903,518.535 717.903,513.535 708.5,507.5C 711.268,505.913 713.935,504.08 716.5,502C 762.833,457 809.167,412 855.5,367C 854.906,366.536 854.239,366.369 853.5,366.5C 862.601,364.233 871.934,362.567 881.5,361.5C 884.368,350.789 888.034,340.456 892.5,330.5C 892.435,330.938 892.601,331.272 893,331.5C 956.033,270.633 1018.87,209.633 1081.5,148.5 Z"/></g>
<g><path style="opacity:1" fill="#8e5f59" d="M 1269.5,149.5 C 1276.48,152.323 1283.15,155.657 1289.5,159.5C 1288.12,162.394 1286.12,164.894 1283.5,167C 1209.97,237.7 1136.63,308.534 1063.5,379.5C 1054.26,378.886 1045.26,377.552 1036.5,375.5C 1108.3,306.87 1179.96,238.037 1251.5,169C 1258.1,162.91 1264.1,156.41 1269.5,149.5 Z"/></g>
<g><path style="opacity:1" fill="#865350" d="M 1197.5,154.5 C 1198.24,154.369 1198.91,154.536 1199.5,155C 1127.96,224.037 1056.3,292.87 984.5,361.5C 977.97,359.899 971.97,357.233 966.5,353.5C 972.608,348.566 978.608,343.399 984.5,338C 1038.4,285.27 1092.4,232.77 1146.5,180.5C 1147.6,181.8 1148.93,182.3 1150.5,182C 1164.33,169.751 1179.99,160.584 1197.5,154.5 Z"/></g>
<g><path style="opacity:1" fill="#824d4c" d="M 1114.5,159.5 C 1126.23,165.022 1136.9,172.022 1146.5,180.5C 1092.4,232.77 1038.4,285.27 984.5,338C 978.608,343.399 972.608,348.566 966.5,353.5C 959.186,350.03 952.52,345.53 946.5,340C 942.371,338.051 938.037,336.884 933.5,336.5C 986.301,285.2 1039.3,234.034 1092.5,183C 1100.43,175.578 1107.76,167.745 1114.5,159.5 Z"/></g>
<g><path style="opacity:1" fill="#90635c" d="M 1289.5,159.5 C 1295.07,162.446 1300.07,166.112 1304.5,170.5C 1298.76,177.744 1292.43,184.577 1285.5,191C 1219.53,253.969 1153.86,317.303 1088.5,381C 1087.21,381.49 1085.87,381.657 1084.5,381.5C 1077.41,381.659 1070.41,380.993 1063.5,379.5C 1136.63,308.534 1209.97,237.7 1283.5,167C 1286.12,164.894 1288.12,162.394 1289.5,159.5 Z"/></g>
<g><path style="opacity:1" fill="#93675f" d="M 1304.5,170.5 C 1308.96,173.787 1313.29,177.287 1317.5,181C 1320.75,183.747 1323.42,186.914 1325.5,190.5C 1323.78,193.731 1321.45,196.564 1318.5,199C 1254.53,259.969 1190.86,321.303 1127.5,383C 1123.85,383.499 1120.18,383.665 1116.5,383.5C 1105.62,383.758 1094.96,383.091 1084.5,381.5C 1085.87,381.657 1087.21,381.49 1088.5,381C 1153.86,317.303 1219.53,253.969 1285.5,191C 1292.43,184.577 1298.76,177.744 1304.5,170.5 Z"/></g>
<g><path style="opacity:1" fill="#976d64" d="M 1325.5,190.5 C 1333.11,197.721 1339.78,205.721 1345.5,214.5C 1338.76,222.745 1331.43,230.578 1323.5,238C 1272.97,286.367 1222.63,334.867 1172.5,383.5C 1153.74,384.825 1135.07,384.825 1116.5,383.5C 1120.18,383.665 1123.85,383.499 1127.5,383C 1190.86,321.303 1254.53,259.969 1318.5,199C 1321.45,196.564 1323.78,193.731 1325.5,190.5 Z"/></g>
<g><path style="opacity:1" fill="#9a7368" d="M 1345.5,214.5 C 1352.58,223.645 1358.91,233.312 1364.5,243.5C 1323.67,282.828 1282.67,321.994 1241.5,361C 1234.57,367.423 1228.24,374.256 1222.5,381.5C 1205.86,382.831 1189.2,383.498 1172.5,383.5C 1222.63,334.867 1272.97,286.367 1323.5,238C 1331.43,230.578 1338.76,222.745 1345.5,214.5 Z"/></g>
<g><path style="opacity:1" fill="#9e796c" d="M 1364.5,243.5 C 1370.26,252.009 1375.26,261.009 1379.5,270.5C 1374.43,277.076 1368.76,283.243 1362.5,289C 1333.33,316.337 1304.66,344.171 1276.5,372.5C 1258.7,376.525 1240.7,379.525 1222.5,381.5C 1228.24,374.256 1234.57,367.423 1241.5,361C 1282.67,321.994 1323.67,282.828 1364.5,243.5 Z"/></g>
<g><path style="opacity:1" fill="#a38071" d="M 1379.5,270.5 C 1382.48,274.443 1384.98,278.777 1387,283.5C 1390.45,290.738 1393.62,298.072 1396.5,305.5C 1387.08,315.417 1377.42,325.251 1367.5,335C 1365.39,335.845 1363.39,336.678 1361.5,337.5C 1357.89,337.799 1354.56,338.965 1351.5,341C 1336.12,353.357 1318.79,362.024 1299.5,367C 1291.92,369.311 1284.26,371.144 1276.5,372.5C 1304.66,344.171 1333.33,316.337 1362.5,289C 1368.76,283.243 1374.43,277.076 1379.5,270.5 Z"/></g>
<g><path style="opacity:1" fill="#a78676" d="M 1396.5,305.5 C 1401.6,315.77 1405.93,326.436 1409.5,337.5C 1402.53,344.139 1395.53,350.806 1388.5,357.5C 1385.21,343.336 1376.21,336.669 1361.5,337.5C 1363.39,336.678 1365.39,335.845 1367.5,335C 1377.42,325.251 1387.08,315.417 1396.5,305.5 Z"/></g>
<g><path style="opacity:1" fill="#f1ecec" d="M 933.5,336.5 C 938.037,336.884 942.371,338.051 946.5,340C 952.52,345.53 959.186,350.03 966.5,353.5C 971.97,357.233 977.97,359.899 984.5,361.5C 990.085,364.473 996.085,366.473 1002.5,367.5C 1013.43,371.396 1024.76,374.063 1036.5,375.5C 1045.26,377.552 1054.26,378.886 1063.5,379.5C 1070.41,380.993 1077.41,381.659 1084.5,381.5C 1094.96,383.091 1105.62,383.758 1116.5,383.5C 1135.07,384.825 1153.74,384.825 1172.5,383.5C 1189.2,383.498 1205.86,382.831 1222.5,381.5C 1240.7,379.525 1258.7,376.525 1276.5,372.5C 1284.26,371.144 1291.92,369.311 1299.5,367C 1318.79,362.024 1336.12,353.357 1351.5,341C 1354.56,338.965 1357.89,337.799 1361.5,337.5C 1376.21,336.669 1385.21,343.336 1388.5,357.5C 1389.07,367.531 1385.4,375.698 1377.5,382C 1365.39,391.057 1352.39,398.557 1338.5,404.5C 1317.75,411.754 1296.75,417.754 1275.5,422.5C 1254.41,425.594 1233.41,428.261 1212.5,430.5C 1197.49,431 1182.49,431.667 1167.5,432.5C 1151.83,432.5 1136.17,432.5 1120.5,432.5C 1106.47,431.919 1092.47,430.919 1078.5,429.5C 1066.16,428.233 1053.83,426.899 1041.5,425.5C 1025.7,422.939 1010.03,419.606 994.5,415.5C 984.301,412.767 974.301,409.434 964.5,405.5C 958.26,403.38 952.26,400.713 946.5,397.5C 936.966,392.573 927.966,386.906 919.5,380.5C 913.386,374.504 910.386,367.17 910.5,358.5C 912.917,345.751 920.583,338.418 933.5,336.5 Z"/></g>
<g><path style="opacity:1" fill="#aa8c7a" d="M 1409.5,337.5 C 1412.8,344.875 1415.63,352.542 1418,360.5C 1419.9,362.016 1422.06,362.683 1424.5,362.5C 1351.53,432.804 1278.86,503.47 1206.5,574.5C 1205.83,574.5 1205.5,574.833 1205.5,575.5C 1191.5,575.5 1177.5,575.5 1163.5,575.5C 1221.97,518.534 1280.63,461.7 1339.5,405C 1339.27,404.601 1338.94,404.435 1338.5,404.5C 1352.39,398.557 1365.39,391.057 1377.5,382C 1385.4,375.698 1389.07,367.531 1388.5,357.5C 1395.53,350.806 1402.53,344.139 1409.5,337.5 Z"/></g>
<g><path style="opacity:1" fill="#ad907d" d="M 1424.5,362.5 C 1431.31,363.728 1437.97,365.061 1444.5,366.5C 1373.37,435.466 1302.03,504.3 1230.5,573C 1231.79,573.49 1233.13,573.657 1234.5,573.5C 1234.5,573.833 1234.5,574.167 1234.5,574.5C 1225.17,574.5 1215.83,574.5 1206.5,574.5C 1278.86,503.47 1351.53,432.804 1424.5,362.5 Z"/></g>
<g><path style="opacity:1" fill="#824c4b" d="M 910.5,358.5 C 910.386,367.17 913.386,374.504 919.5,380.5C 867.473,430.861 815.473,481.194 763.5,531.5C 754.722,529.465 746.389,526.465 738.5,522.5C 742.272,519.906 745.939,517.073 749.5,514C 802.732,461.6 856.398,409.766 910.5,358.5 Z"/></g>
<g><path style="opacity:1" fill="#af9380" d="M 1444.5,366.5 C 1451.86,367.705 1459.19,369.038 1466.5,370.5C 1397.47,438.197 1328.14,505.53 1258.5,572.5C 1256.59,572.216 1254.92,572.549 1253.5,573.5C 1247.17,573.5 1240.83,573.5 1234.5,573.5C 1233.13,573.657 1231.79,573.49 1230.5,573C 1302.03,504.3 1373.37,435.466 1444.5,366.5 Z"/></g>
<g><path style="opacity:1" fill="#7b4143" d="M 853.5,366.5 C 854.239,366.369 854.906,366.536 855.5,367C 809.167,412 762.833,457 716.5,502C 713.935,504.08 711.268,505.913 708.5,507.5C 698.988,502.323 690.655,495.656 683.5,487.5C 721.551,452.62 758.884,416.787 795.5,380C 794.906,379.536 794.239,379.369 793.5,379.5C 813.109,373.978 833.109,369.645 853.5,366.5 Z"/></g>
<g><path style="opacity:1" fill="#b29883" d="M 1466.5,370.5 C 1504.48,377.486 1541.48,387.986 1577.5,402C 1589.32,407.07 1600.32,413.403 1610.5,421C 1627.89,435.506 1632.39,453.339 1624,474.5C 1615.83,489.333 1604.33,500.833 1589.5,509C 1567.11,520.685 1543.78,530.019 1519.5,537C 1498.69,542.662 1477.69,547.496 1456.5,551.5C 1454.59,551.216 1452.92,551.549 1451.5,552.5C 1430.33,555.606 1409.33,558.94 1388.5,562.5C 1379.07,562.622 1369.74,563.622 1360.5,565.5C 1363.66,571.807 1365.49,578.474 1366,585.5C 1366.45,604.871 1365.79,624.205 1364,643.5C 1355.2,689.631 1327.37,714.798 1280.5,719C 1270.99,719.824 1261.66,719.658 1252.5,718.5C 1257.43,718.803 1262.26,718.469 1267,717.5C 1276.83,701 1286.67,684.5 1296.5,668C 1293.59,667.894 1290.75,668.394 1288,669.5C 1286.83,669.167 1285.67,668.833 1284.5,668.5C 1295.53,651.3 1306.36,633.966 1317,616.5C 1318.03,620.773 1318.7,625.106 1319,629.5C 1330.91,608.669 1343.08,588.002 1355.5,567.5C 1349.68,566.184 1344.01,566.184 1338.5,567.5C 1326.63,567.795 1314.96,568.795 1303.5,570.5C 1302.5,570.5 1301.5,570.5 1300.5,570.5C 1296.3,570.183 1292.3,570.517 1288.5,571.5C 1278.49,571.612 1268.49,571.945 1258.5,572.5C 1328.14,505.53 1397.47,438.197 1466.5,370.5 Z"/></g>
<g><path style="opacity:1" fill="#85524f" d="M 919.5,380.5 C 927.966,386.906 936.966,392.573 946.5,397.5C 941.43,404.076 935.763,410.243 929.5,416C 885.661,457.673 841.995,499.506 798.5,541.5C 786.443,539.239 774.777,535.905 763.5,531.5C 815.473,481.194 867.473,430.861 919.5,380.5 Z"/></g>
<g><path style="opacity:1" fill="#773b3e" d="M 793.5,379.5 C 794.239,379.369 794.906,379.536 795.5,380C 758.884,416.787 721.551,452.62 683.5,487.5C 669.3,469.892 667.8,451.226 679,431.5C 685.947,423.221 694.114,416.387 703.5,411C 732.009,396.246 762.009,385.746 793.5,379.5 Z"/></g>
<g><path style="opacity:1" fill="#885652" d="M 946.5,397.5 C 952.26,400.713 958.26,403.38 964.5,405.5C 915.862,452.137 867.529,499.137 819.5,546.5C 812.267,545.357 805.267,543.691 798.5,541.5C 841.995,499.506 885.661,457.673 929.5,416C 935.763,410.243 941.43,404.076 946.5,397.5 Z"/></g>
<g><path style="opacity:1" fill="#8b5a56" d="M 964.5,405.5 C 974.301,409.434 984.301,412.767 994.5,415.5C 948.274,460.89 901.774,506.223 855,551.5C 854.536,552.094 854.369,552.761 854.5,553.5C 850.476,552.962 846.476,552.295 842.5,551.5C 834.739,550.215 827.073,548.548 819.5,546.5C 867.529,499.137 915.862,452.137 964.5,405.5 Z"/></g>
<g><path style="opacity:1" fill="#8e605a" d="M 994.5,415.5 C 1010.03,419.606 1025.7,422.939 1041.5,425.5C 995.471,470.863 949.138,515.863 902.5,560.5C 897.103,560.011 891.769,559.344 886.5,558.5C 875.8,557.05 865.133,555.383 854.5,553.5C 854.369,552.761 854.536,552.094 855,551.5C 901.774,506.223 948.274,460.89 994.5,415.5 Z"/></g>
<g><path style="opacity:1" fill="#a68676" d="M 1338.5,404.5 C 1338.94,404.435 1339.27,404.601 1339.5,405C 1280.63,461.7 1221.97,518.534 1163.5,575.5C 1151.83,575.5 1140.17,575.5 1128.5,575.5C 1125.15,575.665 1121.82,575.498 1118.5,575C 1171.34,524.663 1223.67,473.829 1275.5,422.5C 1296.75,417.754 1317.75,411.754 1338.5,404.5 Z"/></g>
<g><path style="opacity:1" fill="#a38071" d="M 1275.5,422.5 C 1223.67,473.829 1171.34,524.663 1118.5,575C 1121.82,575.498 1125.15,575.665 1128.5,575.5C 1128.5,575.833 1128.5,576.167 1128.5,576.5C 1127.93,578.952 1127.27,581.285 1126.5,583.5C 1126.57,583.062 1126.4,582.728 1126,582.5C 1123.95,585.989 1121.29,586.323 1118,583.5C 1100.71,610.582 1083.54,637.749 1066.5,665C 1070.55,664.982 1074.55,664.649 1078.5,664C 1067.24,681.696 1056.91,699.863 1047.5,718.5C 1041.86,719.22 1036.2,719.553 1030.5,719.5C 1032.99,718.238 1034.83,716.238 1036,713.5C 1044.7,698.963 1053.2,684.296 1061.5,669.5C 1058.89,668.682 1056.23,668.182 1053.5,668C 1071.79,639.251 1089.96,610.418 1108,581.5C 1109.72,581.038 1111.55,580.872 1113.5,581C 1114.26,579.488 1115.26,578.154 1116.5,577C 1112.97,575.663 1109.31,575.163 1105.5,575.5C 1101.5,575.5 1097.5,575.5 1093.5,575.5C 1087.86,574.78 1082.2,574.447 1076.5,574.5C 1075.17,574.5 1073.83,574.5 1072.5,574.5C 1071.05,573.698 1069.38,573.198 1067.5,573C 1116.8,526.03 1165.8,478.697 1214.5,431C 1213.91,430.536 1213.24,430.369 1212.5,430.5C 1233.41,428.261 1254.41,425.594 1275.5,422.5 Z"/></g>
<g><path style="opacity:1" fill="#93675f" d="M 1041.5,425.5 C 1053.83,426.899 1066.16,428.233 1078.5,429.5C 1032.47,474.863 986.138,519.863 939.5,564.5C 930.167,563.833 920.833,563.167 911.5,562.5C 908.61,561.755 905.61,561.088 902.5,560.5C 949.138,515.863 995.471,470.863 1041.5,425.5 Z"/></g>
<g><path style="opacity:1" fill="#9e796c" d="M 1212.5,430.5 C 1213.24,430.369 1213.91,430.536 1214.5,431C 1165.8,478.697 1116.8,526.03 1067.5,573C 1069.38,573.198 1071.05,573.698 1072.5,574.5C 1066.46,574.64 1060.46,574.307 1054.5,573.5C 1047.14,573.582 1039.81,573.248 1032.5,572.5C 1031.5,572.5 1030.5,572.5 1029.5,572.5C 1028.05,571.698 1026.38,571.198 1024.5,571C 1072.06,524.603 1119.73,478.436 1167.5,432.5C 1182.49,431.667 1197.49,431 1212.5,430.5 Z"/></g>
<g><path style="opacity:1" fill="#976d64" d="M 1078.5,429.5 C 1092.47,430.919 1106.47,431.919 1120.5,432.5C 1074.37,477.799 1028.03,522.966 981.5,568C 983.058,568.21 984.391,568.71 985.5,569.5C 982.098,569.658 978.764,569.324 975.5,568.5C 970.155,568.313 964.822,567.98 959.5,567.5C 952.885,566.365 946.218,565.698 939.5,565.5C 939.5,565.167 939.5,564.833 939.5,564.5C 986.138,519.863 1032.47,474.863 1078.5,429.5 Z"/></g>
<g><path style="opacity:1" fill="#9a7368" d="M 1120.5,432.5 C 1136.17,432.5 1151.83,432.5 1167.5,432.5C 1119.73,478.436 1072.06,524.603 1024.5,571C 1026.38,571.198 1028.05,571.698 1029.5,572.5C 1024.85,572.002 1020.18,571.669 1015.5,571.5C 1014.17,571.5 1012.83,571.5 1011.5,571.5C 1004.18,570.962 996.845,570.629 989.5,570.5C 988.292,569.766 986.959,569.433 985.5,569.5C 984.391,568.71 983.058,568.21 981.5,568C 1028.03,522.966 1074.37,477.799 1120.5,432.5 Z"/></g>
<g><path style="opacity:1" fill="#372221" d="M 2554.5,534.5 C 2572.4,532.891 2588.73,537.057 2603.5,547C 2615.01,558.364 2620.35,572.197 2619.5,588.5C 2610.38,590.362 2601.38,592.696 2592.5,595.5C 2590.82,570.329 2577.49,559.829 2552.5,564C 2534.29,572.304 2527.79,586.138 2533,605.5C 2535.45,609.615 2538.28,613.448 2541.5,617C 2556.67,627.086 2571.67,637.42 2586.5,648C 2604.12,667.273 2608.62,689.439 2600,714.5C 2591.02,743.48 2571.52,760.314 2541.5,765C 2518.53,768.454 2499.03,761.954 2483,745.5C 2473.54,732.307 2469.7,717.64 2471.5,701.5C 2481.23,698.985 2490.89,696.319 2500.5,693.5C 2500.74,704.818 2503.91,715.151 2510,724.5C 2519.9,734.601 2531.73,737.768 2545.5,734C 2558.05,729.114 2565.55,719.947 2568,706.5C 2571.74,693.557 2569.4,681.89 2561,671.5C 2550.61,661.78 2539.11,653.613 2526.5,647C 2500.43,630.475 2491.93,607.308 2501,577.5C 2505.77,561.452 2515.61,549.618 2530.5,542C 2538.37,538.673 2546.37,536.173 2554.5,534.5 Z"/></g>
<g><path style="opacity:1" fill="#564343" d="M 1915.5,538.5 C 1926.99,537.505 1938.65,537.172 1950.5,537.5C 1950.74,538.791 1950.4,539.791 1949.5,540.5C 1938.55,538.522 1927.22,537.856 1915.5,538.5 Z"/></g>
<g><path style="opacity:1" fill="#594646" d="M 2379.5,538.5 C 2368.5,538.5 2357.5,538.5 2346.5,538.5C 2346.74,539.791 2346.4,540.791 2345.5,541.5C 2345.5,540.167 2345.5,538.833 2345.5,537.5C 2357.01,537.172 2368.35,537.505 2379.5,538.5 Z"/></g>
<g><path style="opacity:1" fill="#362120" d="M 1915.5,538.5 C 1927.22,537.856 1938.55,538.522 1949.5,540.5C 1938.51,603.453 1927.84,666.453 1917.5,729.5C 1916.6,730.209 1916.26,731.209 1916.5,732.5C 1940.19,731.843 1963.52,732.51 1986.5,734.5C 1984.65,743.791 1982.98,753.125 1981.5,762.5C 1946.5,762.5 1911.5,762.5 1876.5,762.5C 1876.5,761.5 1876.5,760.5 1876.5,759.5C 1889.05,685.626 1902.05,611.96 1915.5,538.5 Z"/></g>
<g><path style="opacity:1" fill="#362120" d="M 2379.5,538.5 C 2377.83,549.167 2376.17,559.833 2374.5,570.5C 2363.5,570.5 2352.5,570.5 2341.5,570.5C 2341.5,569.167 2341.5,567.833 2341.5,566.5C 2342.29,558.074 2343.63,549.741 2345.5,541.5C 2346.4,540.791 2346.74,539.791 2346.5,538.5C 2357.5,538.5 2368.5,538.5 2379.5,538.5 Z"/></g>
<g><path style="opacity:1" fill="#ab8c7a" d="M 1451.5,552.5 C 1452.92,551.549 1454.59,551.216 1456.5,551.5C 1461.85,558.202 1466.19,565.535 1469.5,573.5C 1458.91,591.684 1447.58,609.351 1435.5,626.5C 1433.97,615.536 1431.31,604.87 1427.5,594.5C 1436.72,581.07 1445.72,567.403 1454.5,553.5C 1453.68,552.614 1452.68,552.281 1451.5,552.5 Z"/></g>
<g><path style="opacity:1" fill="#a78676" d="M 1451.5,552.5 C 1452.68,552.281 1453.68,552.614 1454.5,553.5C 1445.72,567.403 1436.72,581.07 1427.5,594.5C 1424.63,587.951 1420.63,582.118 1415.5,577C 1403.28,577.891 1394.28,573.058 1388.5,562.5C 1409.33,558.94 1430.33,555.606 1451.5,552.5 Z"/></g>
<g><path style="opacity:1" fill="#631d28" d="M 842.5,551.5 C 846.476,552.295 850.476,552.962 854.5,553.5C 865.133,555.383 875.8,557.05 886.5,558.5C 886.649,559.552 886.483,560.552 886,561.5C 863.333,596.167 840.667,630.833 818,665.5C 817.329,666.252 816.496,666.586 815.5,666.5C 811.406,629.807 817.906,595.14 835,562.5C 837.51,558.805 840.01,555.138 842.5,551.5 Z"/></g>
<g><path style="opacity:1" fill="#372221" d="M 2425.5,557.5 C 2433.83,557.5 2442.17,557.5 2450.5,557.5C 2448.5,570.167 2446.5,582.833 2444.5,595.5C 2455.17,595.5 2465.83,595.5 2476.5,595.5C 2475.07,603.443 2474.07,611.443 2473.5,619.5C 2462.17,619.5 2450.83,619.5 2439.5,619.5C 2434.66,649.548 2429.49,679.548 2424,709.5C 2423.33,716.167 2423.33,722.833 2424,729.5C 2424.78,731.286 2425.95,732.786 2427.5,734C 2435.11,735.066 2442.78,735.899 2450.5,736.5C 2448.3,745.03 2446.97,753.696 2446.5,762.5C 2434.5,762.667 2422.5,762.5 2410.5,762C 2398.23,759.392 2391.06,751.892 2389,739.5C 2388.33,731.833 2388.33,724.167 2389,716.5C 2394.65,684.257 2400.49,652.09 2406.5,620C 2400.18,619.5 2393.84,619.334 2387.5,619.5C 2388.62,611.46 2389.95,603.46 2391.5,595.5C 2398.53,595.83 2405.53,595.497 2412.5,594.5C 2416.65,582.063 2420.98,569.73 2425.5,557.5 Z"/></g>
<g><path style="opacity:1" fill="#f1ecec" d="M 911.5,562.5 C 920.833,563.167 930.167,563.833 939.5,564.5C 939.5,564.833 939.5,565.167 939.5,565.5C 936.833,570.51 935,575.844 934,581.5C 933.5,590.16 933.334,598.827 933.5,607.5C 934.383,616.467 934.716,625.467 934.5,634.5C 935.404,641.923 936.737,649.257 938.5,656.5C 940.579,663.406 943.246,670.072 946.5,676.5C 948.445,680.736 951.112,684.403 954.5,687.5C 957.5,692.5 961.5,696.5 966.5,699.5C 969.803,703.156 973.803,705.822 978.5,707.5C 981.74,709.951 985.407,711.618 989.5,712.5C 992.799,714.483 996.466,715.483 1000.5,715.5C 1002.6,716.612 1004.93,717.279 1007.5,717.5C 1009.61,718.468 1011.94,718.802 1014.5,718.5C 1019.64,719.488 1024.97,719.821 1030.5,719.5C 1036.2,719.553 1041.86,719.22 1047.5,718.5C 1055.51,717.165 1063.51,715.832 1071.5,714.5C 1076.73,713.282 1081.73,711.615 1086.5,709.5C 1110.47,702.851 1131.8,691.518 1150.5,675.5C 1151.5,676.167 1152.5,676.833 1153.5,677.5C 1155.95,680.556 1158.95,682.889 1162.5,684.5C 1166.95,688.61 1171.95,691.944 1177.5,694.5C 1180.91,697.54 1184.91,699.54 1189.5,700.5C 1195.28,704.32 1201.61,706.987 1208.5,708.5C 1210.21,709.738 1212.21,710.405 1214.5,710.5C 1218.01,711.733 1221.67,712.733 1225.5,713.5C 1231.92,715.463 1238.59,716.797 1245.5,717.5C 1247.61,718.468 1249.94,718.802 1252.5,718.5C 1261.66,719.658 1270.99,719.824 1280.5,719C 1327.37,714.798 1355.2,689.631 1364,643.5C 1365.79,624.205 1366.45,604.871 1366,585.5C 1365.49,578.474 1363.66,571.807 1360.5,565.5C 1369.74,563.622 1379.07,562.622 1388.5,562.5C 1394.28,573.058 1403.28,577.891 1415.5,577C 1420.63,582.118 1424.63,587.951 1427.5,594.5C 1431.31,604.87 1433.97,615.536 1435.5,626.5C 1437.9,647.774 1436.4,668.774 1431,689.5C 1428.92,696.078 1426.25,702.411 1423,708.5C 1420.5,712.333 1417.33,715.5 1413.5,718C 1410.76,717.981 1408.09,717.314 1405.5,716C 1391.69,712.989 1381.86,717.822 1376,730.5C 1362.69,789.129 1336.69,841.129 1298,886.5C 1291.5,893 1285,899.5 1278.5,906C 1271.64,911.364 1264.98,916.864 1258.5,922.5C 1248.05,928.896 1237.39,935.062 1226.5,941C 1215.38,946.071 1204.05,950.237 1192.5,953.5C 1177.36,956.846 1162.03,958.513 1146.5,958.5C 1138.37,958.826 1130.37,958.159 1122.5,956.5C 1113.01,954.794 1103.68,952.461 1094.5,949.5C 1085.85,946.95 1077.51,943.616 1069.5,939.5C 1061.97,934.902 1054.3,930.568 1046.5,926.5C 1040.2,921.016 1033.53,916.016 1026.5,911.5C 1018.17,903.833 1010.17,895.833 1002.5,887.5C 997.137,881.142 991.804,874.808 986.5,868.5C 979.908,859.638 973.575,850.638 967.5,841.5C 962.163,831.492 956.83,821.492 951.5,811.5C 947.148,801.423 942.815,791.423 938.5,781.5C 935.006,770.353 931.34,759.353 927.5,748.5C 926.027,740.975 923.861,733.642 921,726.5C 918.963,724.294 916.797,722.294 914.5,720.5C 905.651,714.378 896.651,714.045 887.5,719.5C 884.041,718.564 881.207,716.564 879,713.5C 869.616,696.94 864.116,679.274 862.5,660.5C 860.215,634.537 864.715,609.87 876,586.5C 878.139,583.061 880.639,579.894 883.5,577C 895.835,577.668 905.168,572.835 911.5,562.5 Z"/></g>
<g><path style="opacity:1" fill="#68252e" d="M 939.5,565.5 C 946.218,565.698 952.885,566.365 959.5,567.5C 951.426,580.641 943.593,593.975 936,607.5C 935.23,608.598 934.397,608.598 933.5,607.5C 933.334,598.827 933.5,590.16 934,581.5C 935,575.844 936.833,570.51 939.5,565.5 Z"/></g>
<g><path style="opacity:1" fill="#6e2d34" d="M 959.5,567.5 C 964.822,567.98 970.155,568.313 975.5,568.5C 963.033,591.825 949.866,614.825 936,637.5C 935.768,636.263 935.268,635.263 934.5,634.5C 934.716,625.467 934.383,616.467 933.5,607.5C 934.397,608.598 935.23,608.598 936,607.5C 943.593,593.975 951.426,580.641 959.5,567.5 Z"/></g>
<g><path style="opacity:1" fill="#a48273" d="M 1338.5,567.5 C 1332.61,578.275 1326.44,588.942 1320,599.5C 1319.44,595.814 1318.77,592.147 1318,588.5C 1317.33,587.167 1316.67,587.167 1316,588.5C 1299.08,616.002 1281.92,643.335 1264.5,670.5C 1268.8,671.328 1273.13,671.828 1277.5,672C 1268.63,686.704 1259.97,701.537 1251.5,716.5C 1249.6,717.466 1247.6,717.799 1245.5,717.5C 1238.59,716.797 1231.92,715.463 1225.5,713.5C 1228.29,713.548 1230.13,712.215 1231,709.5C 1238.37,696.585 1245.87,683.751 1253.5,671C 1250.99,670.624 1248.66,669.79 1246.5,668.5C 1264.14,639.701 1281.97,611.034 1300,582.5C 1301.73,580.398 1303.73,580.065 1306,581.5C 1308.04,577.916 1310.21,574.416 1312.5,571C 1309.52,570.502 1306.52,570.335 1303.5,570.5C 1314.96,568.795 1326.63,567.795 1338.5,567.5 Z"/></g>
<g><path style="opacity:1" fill="#73353a" d="M 975.5,568.5 C 978.764,569.324 982.098,569.658 985.5,569.5C 986.959,569.433 988.292,569.766 989.5,570.5C 972.989,599.532 955.989,628.199 938.5,656.5C 936.737,649.257 935.404,641.923 934.5,634.5C 935.268,635.263 935.768,636.263 936,637.5C 949.866,614.825 963.033,591.825 975.5,568.5 Z"/></g>
<g><path style="opacity:1" fill="#783c3f" d="M 989.5,570.5 C 996.845,570.629 1004.18,570.962 1011.5,571.5C 1010.59,573.951 1009.76,576.285 1009,578.5C 1014.08,577.363 1019.25,577.196 1024.5,578C 1011.79,598.584 998.958,619.084 986,639.5C 985.333,640.833 984.667,640.833 984,639.5C 983,634.5 982,629.5 981,624.5C 971.337,641.831 961.17,658.831 950.5,675.5C 949.264,676.246 947.93,676.579 946.5,676.5C 943.246,670.072 940.579,663.406 938.5,656.5C 955.989,628.199 972.989,599.532 989.5,570.5 Z"/></g>
<g><path style="opacity:1" fill="#9e796c" d="M 1300.5,570.5 C 1301.5,570.5 1302.5,570.5 1303.5,570.5C 1306.52,570.335 1309.52,570.502 1312.5,571C 1310.21,574.416 1308.04,577.916 1306,581.5C 1303.73,580.065 1301.73,580.398 1300,582.5C 1281.97,611.034 1264.14,639.701 1246.5,668.5C 1248.66,669.79 1250.99,670.624 1253.5,671C 1245.87,683.751 1238.37,696.585 1231,709.5C 1230.13,712.215 1228.29,713.548 1225.5,713.5C 1221.67,712.733 1218.01,711.733 1214.5,710.5C 1216.58,710.528 1218.42,709.861 1220,708.5C 1227.5,695.5 1235,682.5 1242.5,669.5C 1240.89,668.573 1239.22,667.739 1237.5,667C 1255.79,638.251 1273.96,609.418 1292,580.5C 1296.46,578.604 1299.29,575.27 1300.5,570.5 Z"/></g>
<g><path style="opacity:1" fill="#5f4e4d" d="M 2341.5,566.5 C 2341.5,567.833 2341.5,569.167 2341.5,570.5C 2352.5,570.5 2363.5,570.5 2374.5,570.5C 2363.35,571.495 2352.01,571.828 2340.5,571.5C 2340.22,569.585 2340.55,567.919 2341.5,566.5 Z"/></g>
<g><path style="opacity:1" fill="#7e4747" d="M 1011.5,571.5 C 1012.83,571.5 1014.17,571.5 1015.5,571.5C 1017.7,572.165 1020.03,572.832 1022.5,573.5C 1022.02,574.478 1021.36,575.311 1020.5,576C 1025.17,576.333 1029.83,576.667 1034.5,577C 1019.21,601.082 1004.04,625.249 989,649.5C 988.333,650.833 987.667,650.833 987,649.5C 985.472,646.583 984.139,643.583 983,640.5C 973.977,656.563 964.477,672.23 954.5,687.5C 951.112,684.403 948.445,680.736 946.5,676.5C 947.93,676.579 949.264,676.246 950.5,675.5C 961.17,658.831 971.337,641.831 981,624.5C 982,629.5 983,634.5 984,639.5C 984.667,640.833 985.333,640.833 986,639.5C 998.958,619.084 1011.79,598.584 1024.5,578C 1019.25,577.196 1014.08,577.363 1009,578.5C 1009.76,576.285 1010.59,573.951 1011.5,571.5 Z"/></g>
<g><path style="opacity:1" fill="#9b7368" d="M 1300.5,570.5 C 1299.29,575.27 1296.46,578.604 1292,580.5C 1273.96,609.418 1255.79,638.251 1237.5,667C 1239.22,667.739 1240.89,668.573 1242.5,669.5C 1235,682.5 1227.5,695.5 1220,708.5C 1218.42,709.861 1216.58,710.528 1214.5,710.5C 1212.21,710.405 1210.21,709.738 1208.5,708.5C 1216.24,694.697 1224.24,681.03 1232.5,667.5C 1231.91,666.201 1230.91,665.368 1229.5,665C 1249.3,633.89 1268.97,602.723 1288.5,571.5C 1292.3,570.517 1296.3,570.183 1300.5,570.5 Z"/></g>
<g><path style="opacity:1" fill="#956b62" d="M 1288.5,571.5 C 1268.97,602.723 1249.3,633.89 1229.5,665C 1230.91,665.368 1231.91,666.201 1232.5,667.5C 1224.24,681.03 1216.24,694.697 1208.5,708.5C 1201.61,706.987 1195.28,704.32 1189.5,700.5C 1215.58,659.547 1241.58,618.38 1267.5,577C 1265.11,576.716 1264.45,575.716 1265.5,574C 1261.51,573.501 1257.51,573.334 1253.5,573.5C 1254.92,572.549 1256.59,572.216 1258.5,572.5C 1268.49,571.945 1278.49,571.612 1288.5,571.5 Z"/></g>
<g><path style="opacity:1" fill="#8a5954" d="M 1032.5,572.5 C 1039.81,573.248 1047.14,573.582 1054.5,573.5C 1057.28,574.933 1060.28,576.1 1063.5,577C 1044.87,606.416 1026.37,635.916 1008,665.5C 1006.56,666.87 1004.89,667.87 1003,668.5C 996,680.5 989,692.5 982,704.5C 981.241,706.063 980.074,707.063 978.5,707.5C 973.803,705.822 969.803,703.156 966.5,699.5C 967.496,699.586 968.329,699.252 969,698.5C 976.521,684.104 985.021,670.437 994.5,657.5C 1011.17,630.833 1027.83,604.167 1044.5,577.5C 1041.2,576.56 1037.86,575.727 1034.5,575C 1034.83,574.667 1035.17,574.333 1035.5,574C 1034.26,573.768 1033.26,573.268 1032.5,572.5 Z"/></g>
<g><path style="opacity:1" fill="#93675f" d="M 1072.5,574.5 C 1073.83,574.5 1075.17,574.5 1076.5,574.5C 1078.83,575.124 1081.17,575.957 1083.5,577C 1064,607.833 1044.5,638.667 1025,669.5C 1025,670.833 1025,672.167 1025,673.5C 1016.56,687.391 1008.39,701.391 1000.5,715.5C 996.466,715.483 992.799,714.483 989.5,712.5C 991.624,711.969 993.124,710.635 994,708.5C 1020.24,664.437 1047.07,620.77 1074.5,577.5C 1073.62,576.749 1072.62,576.249 1071.5,576C 1072.06,575.617 1072.39,575.117 1072.5,574.5 Z"/></g>
<g><path style="opacity:1" fill="#976d64" d="M 1076.5,574.5 C 1082.2,574.447 1087.86,574.78 1093.5,575.5C 1073.33,607.183 1053.33,639.016 1033.5,671C 1034.83,671.333 1036.17,671.667 1037.5,672C 1028.54,686.751 1019.71,701.584 1011,716.5C 1009.99,717.337 1008.82,717.67 1007.5,717.5C 1004.93,717.279 1002.6,716.612 1000.5,715.5C 1008.39,701.391 1016.56,687.391 1025,673.5C 1025,672.167 1025,670.833 1025,669.5C 1044.5,638.667 1064,607.833 1083.5,577C 1081.17,575.957 1078.83,575.124 1076.5,574.5 Z"/></g>
<g><path style="opacity:1" fill="#9b7368" d="M 1093.5,575.5 C 1097.5,575.5 1101.5,575.5 1105.5,575.5C 1104.35,578.089 1102.35,579.755 1099.5,580.5C 1080.96,610.417 1062.29,640.251 1043.5,670C 1045.5,670.333 1047.5,670.667 1049.5,671C 1040.17,686.667 1030.83,702.333 1021.5,718C 1019.19,718.497 1016.86,718.663 1014.5,718.5C 1011.94,718.802 1009.61,718.468 1007.5,717.5C 1008.82,717.67 1009.99,717.337 1011,716.5C 1019.71,701.584 1028.54,686.751 1037.5,672C 1036.17,671.667 1034.83,671.333 1033.5,671C 1053.33,639.016 1073.33,607.183 1093.5,575.5 Z"/></g>
<g><path style="opacity:1" fill="#9f796d" d="M 1105.5,575.5 C 1109.31,575.163 1112.97,575.663 1116.5,577C 1115.26,578.154 1114.26,579.488 1113.5,581C 1111.55,580.872 1109.72,581.038 1108,581.5C 1089.96,610.418 1071.79,639.251 1053.5,668C 1056.23,668.182 1058.89,668.682 1061.5,669.5C 1053.2,684.296 1044.7,698.963 1036,713.5C 1034.83,716.238 1032.99,718.238 1030.5,719.5C 1024.97,719.821 1019.64,719.488 1014.5,718.5C 1016.86,718.663 1019.19,718.497 1021.5,718C 1030.83,702.333 1040.17,686.667 1049.5,671C 1047.5,670.667 1045.5,670.333 1043.5,670C 1062.29,640.251 1080.96,610.417 1099.5,580.5C 1102.35,579.755 1104.35,578.089 1105.5,575.5 Z"/></g>
<g><path style="opacity:1" fill="#7d4545" d="M 1128.5,576.5 C 1128.5,576.167 1128.5,575.833 1128.5,575.5C 1140.17,575.5 1151.83,575.5 1163.5,575.5C 1177.5,575.5 1191.5,575.5 1205.5,575.5C 1212.53,575.377 1219.53,575.71 1226.5,576.5C 1213.27,598.611 1199.77,620.611 1186,642.5C 1184.26,640.717 1182.43,639.05 1180.5,637.5C 1179.39,636.41 1178.39,636.41 1177.5,637.5C 1169.47,650.897 1161.47,664.23 1153.5,677.5C 1152.5,676.833 1151.5,676.167 1150.5,675.5C 1146.05,671.388 1142.38,666.722 1139.5,661.5C 1150.89,643.062 1162.06,624.396 1173,605.5C 1173.45,613.212 1174.28,620.879 1175.5,628.5C 1186.04,611.915 1196.71,595.415 1207.5,579C 1202.06,578.363 1196.73,578.863 1191.5,580.5C 1187.41,580.996 1186.75,579.996 1189.5,577.5C 1182.53,576.503 1175.53,576.17 1168.5,576.5C 1155.17,576.5 1141.83,576.5 1128.5,576.5 Z"/></g>
<g><path style="opacity:1" fill="#90625b" d="M 1054.5,573.5 C 1060.46,574.307 1066.46,574.64 1072.5,574.5C 1072.39,575.117 1072.06,575.617 1071.5,576C 1072.62,576.249 1073.62,576.749 1074.5,577.5C 1047.07,620.77 1020.24,664.437 994,708.5C 993.124,710.635 991.624,711.969 989.5,712.5C 985.407,711.618 981.74,709.951 978.5,707.5C 980.074,707.063 981.241,706.063 982,704.5C 989,692.5 996,680.5 1003,668.5C 1004.89,667.87 1006.56,666.87 1008,665.5C 1026.37,635.916 1044.87,606.416 1063.5,577C 1060.28,576.1 1057.28,574.933 1054.5,573.5 Z"/></g>
<g><path style="opacity:1" fill="#6e2d34" d="M 1128.5,576.5 C 1141.83,576.5 1155.17,576.5 1168.5,576.5C 1155.74,598.368 1142.74,620.035 1129.5,641.5C 1129.5,640.833 1129.17,640.5 1128.5,640.5C 1126.93,626.887 1125.93,613.22 1125.5,599.5C 1125.39,594.13 1125.73,588.797 1126.5,583.5C 1127.27,581.285 1127.93,578.952 1128.5,576.5 Z"/></g>
<g><path style="opacity:1" fill="#90625b" d="M 1234.5,574.5 C 1234.5,574.167 1234.5,573.833 1234.5,573.5C 1240.83,573.5 1247.17,573.5 1253.5,573.5C 1257.51,573.334 1261.51,573.501 1265.5,574C 1264.45,575.716 1265.11,576.716 1267.5,577C 1241.58,618.38 1215.58,659.547 1189.5,700.5C 1184.91,699.54 1180.91,697.54 1177.5,694.5C 1178.82,694.67 1179.99,694.337 1181,693.5C 1188.17,681.167 1195.33,668.833 1202.5,656.5C 1204.17,655.833 1205.83,655.167 1207.5,654.5C 1223.64,628.533 1239.97,602.7 1256.5,577C 1249.34,574.822 1242.01,573.988 1234.5,574.5 Z"/></g>
<g><path style="opacity:1" fill="#372221" d="M 2075.5,592.5 C 2115.37,589.532 2135.7,608.032 2136.5,648C 2136.5,661.811 2134.5,675.311 2130.5,688.5C 2099.6,689.17 2068.77,689.837 2038,690.5C 2037.22,699.874 2037.56,709.207 2039,718.5C 2044.94,734.722 2056.44,740.888 2073.5,737C 2083.89,734.095 2092.55,728.595 2099.5,720.5C 2106.64,725.138 2113.64,729.972 2120.5,735C 2104.32,758.402 2081.99,768.736 2053.5,766C 2035.99,763.503 2022.82,754.67 2014,739.5C 2005.96,721.988 2003.29,703.655 2006,684.5C 2008.98,659.884 2017.65,637.55 2032,617.5C 2043.53,603.824 2058.03,595.491 2075.5,592.5 Z"/></g>
<g><path style="opacity:1" fill="#372221" d="M 2266.5,597.5 C 2276.75,596.525 2287.08,596.192 2297.5,596.5C 2287.55,653.534 2277.38,710.534 2267,767.5C 2257.72,799.117 2236.89,817.617 2204.5,823C 2184.52,826.086 2166.19,822.086 2149.5,811C 2145.3,807.133 2141.47,802.967 2138,798.5C 2136.37,795.942 2135.37,793.275 2135,790.5C 2141.33,785.167 2147.67,779.833 2154,774.5C 2163.54,793.019 2178.71,800.519 2199.5,797C 2215.86,793.069 2227.03,783.236 2233,767.5C 2236.04,757.623 2238.04,747.623 2239,737.5C 2219.51,760.5 2196.35,765.334 2169.5,752C 2160.21,744.605 2154.04,735.105 2151,723.5C 2143.62,683.408 2151.95,647.075 2176,614.5C 2196.67,591.939 2220.83,587.106 2248.5,600C 2254.06,604.314 2257.73,609.814 2259.5,616.5C 2261.12,616.64 2262.29,615.973 2263,614.5C 2264.28,608.841 2265.44,603.175 2266.5,597.5 Z"/></g>
<g><path style="opacity:1" fill="#372221" d="M 2644.5,820.5 C 2633.12,821.144 2622.12,820.477 2611.5,818.5C 2624.39,744.146 2637.39,669.813 2650.5,595.5C 2660.5,595.5 2670.5,595.5 2680.5,595.5C 2679.83,603.035 2678.83,610.535 2677.5,618C 2677.83,619.167 2678.17,620.333 2678.5,621.5C 2695.61,594.187 2719.27,586.354 2749.5,598C 2763.33,607.807 2770.83,621.307 2772,638.5C 2773.69,672.743 2766.69,705.076 2751,735.5C 2734.05,762.927 2710.22,771.76 2679.5,762C 2670.76,757.051 2664.42,749.885 2660.5,740.5C 2659.83,739.167 2659.17,739.167 2658.5,740.5C 2653.74,767.15 2649.07,793.817 2644.5,820.5 Z"/></g>
<g><path style="opacity:1" fill="#76393d" d="M 1168.5,576.5 C 1175.53,576.17 1182.53,576.503 1189.5,577.5C 1186.75,579.996 1187.41,580.996 1191.5,580.5C 1196.73,578.863 1202.06,578.363 1207.5,579C 1196.71,595.415 1186.04,611.915 1175.5,628.5C 1174.28,620.879 1173.45,613.212 1173,605.5C 1162.06,624.396 1150.89,643.062 1139.5,661.5C 1134.6,655.699 1131.27,649.032 1129.5,641.5C 1142.74,620.035 1155.74,598.368 1168.5,576.5 Z"/></g>
<g><path style="opacity:1" fill="#584545" d="M 2297.5,596.5 C 2287.08,596.192 2276.75,596.525 2266.5,597.5C 2271.29,596.172 2276.45,595.505 2282,595.5C 2287.34,595.501 2292.51,595.834 2297.5,596.5 Z"/></g>
<g><path style="opacity:1" fill="#5d4b4b" d="M 2831.5,611.5 C 2830.51,606.695 2830.18,601.695 2830.5,596.5C 2818.78,595.856 2807.45,596.522 2796.5,598.5C 2795.6,597.791 2795.26,596.791 2795.5,595.5C 2807.5,595.5 2819.5,595.5 2831.5,595.5C 2831.5,600.833 2831.5,606.167 2831.5,611.5 Z"/></g>
<g><path style="opacity:1" fill="#372221" d="M 2335.5,595.5 C 2346.83,595.5 2358.17,595.5 2369.5,595.5C 2360.11,651.21 2350.45,706.877 2340.5,762.5C 2329.17,762.5 2317.83,762.5 2306.5,762.5C 2315.89,706.789 2325.55,651.122 2335.5,595.5 Z"/></g>
<g><path style="opacity:1" fill="#372221" d="M 2796.5,598.5 C 2807.45,596.522 2818.78,595.856 2830.5,596.5C 2830.18,601.695 2830.51,606.695 2831.5,611.5C 2832.68,652.83 2833.85,694.164 2835,735.5C 2851.62,688.817 2869.12,642.483 2887.5,596.5C 2899.49,595.334 2911.49,595.167 2923.5,596C 2898.87,652.76 2874.37,709.593 2850,766.5C 2842.83,784.019 2832.33,799.186 2818.5,812C 2805.5,821.039 2791.17,824.039 2775.5,821C 2771.21,820.181 2767.21,818.681 2763.5,816.5C 2766.17,809.174 2769.33,802.174 2773,795.5C 2791.1,800.277 2804.77,794.61 2814,778.5C 2817.02,773.475 2819.18,768.142 2820.5,762.5C 2816.5,762.5 2812.5,762.5 2808.5,762.5C 2804.46,707.84 2800.46,653.173 2796.5,598.5 Z"/></g>
<g><path style="opacity:1" fill="#ac8f7c" d="M 1252.5,718.5 C 1249.94,718.802 1247.61,718.468 1245.5,717.5C 1247.6,717.799 1249.6,717.466 1251.5,716.5C 1259.97,701.537 1268.63,686.704 1277.5,672C 1273.13,671.828 1268.8,671.328 1264.5,670.5C 1281.92,643.335 1299.08,616.002 1316,588.5C 1316.67,587.167 1317.33,587.167 1318,588.5C 1318.77,592.147 1319.44,595.814 1320,599.5C 1326.44,588.942 1332.61,578.275 1338.5,567.5C 1344.01,566.184 1349.68,566.184 1355.5,567.5C 1343.08,588.002 1330.91,608.669 1319,629.5C 1318.7,625.106 1318.03,620.773 1317,616.5C 1306.36,633.966 1295.53,651.3 1284.5,668.5C 1285.67,668.833 1286.83,669.167 1288,669.5C 1290.75,668.394 1293.59,667.894 1296.5,668C 1286.67,684.5 1276.83,701 1267,717.5C 1262.26,718.469 1257.43,718.803 1252.5,718.5 Z"/></g>
<g><path style="opacity:1" fill="#67232d" d="M 886.5,558.5 C 891.769,559.344 897.103,560.011 902.5,560.5C 905.61,561.088 908.61,561.755 911.5,562.5C 905.168,572.835 895.835,577.668 883.5,577C 880.639,579.894 878.139,583.061 876,586.5C 864.715,609.87 860.215,634.537 862.5,660.5C 862.702,662.989 862.202,665.323 861,667.5C 850.058,684.405 838.891,701.071 827.5,717.5C 821.212,701.066 817.212,684.066 815.5,666.5C 816.496,666.586 817.329,666.252 818,665.5C 840.667,630.833 863.333,596.167 886,561.5C 886.483,560.552 886.649,559.552 886.5,558.5 Z"/></g>
<g><path style="opacity:1" fill="#b19581" d="M 1469.5,573.5 C 1477.7,590.123 1482.36,607.789 1483.5,626.5C 1483.7,628.989 1483.2,631.323 1482,633.5C 1406.65,748.216 1331.81,863.216 1257.5,978.5C 1242.85,986.494 1227.51,992.828 1211.5,997.5C 1211.35,996.448 1211.52,995.448 1212,994.5C 1228.14,970.868 1243.64,946.868 1258.5,922.5C 1264.98,916.864 1271.64,911.364 1278.5,906C 1285,899.5 1291.5,893 1298,886.5C 1336.69,841.129 1362.69,789.129 1376,730.5C 1381.86,717.822 1391.69,712.989 1405.5,716C 1408.09,717.314 1410.76,717.981 1413.5,718C 1417.33,715.5 1420.5,712.333 1423,708.5C 1426.25,702.411 1428.92,696.078 1431,689.5C 1436.4,668.774 1437.9,647.774 1435.5,626.5C 1447.58,609.351 1458.91,591.684 1469.5,573.5 Z"/></g>
<g><path style="opacity:1" fill="#f0ebeb" d="M 2077.5,619.5 C 2098.38,616.736 2108.72,625.736 2108.5,646.5C 2108.53,652.924 2107.86,659.257 2106.5,665.5C 2085.5,665.5 2064.5,665.5 2043.5,665.5C 2045.76,649.133 2053.1,635.633 2065.5,625C 2069.48,622.838 2073.48,621.005 2077.5,619.5 Z"/></g>
<g><path style="opacity:1" fill="#f0ebeb" d="M 2222.5,620.5 C 2240.64,617.976 2251.47,625.643 2255,643.5C 2256.8,667.046 2252.47,689.38 2242,710.5C 2232.59,727.123 2218.42,733.957 2199.5,731C 2189.98,727.118 2184.48,719.951 2183,709.5C 2180.22,682.64 2186.22,657.973 2201,635.5C 2206.82,628.359 2213.98,623.359 2222.5,620.5 Z"/></g>
<g><path style="opacity:1" fill="#f0ebeb" d="M 2705.5,621.5 C 2723.24,618.105 2734.07,625.105 2738,642.5C 2739.36,665.355 2735.7,687.355 2727,708.5C 2721.29,722.878 2711.13,732.378 2696.5,737C 2679.9,739.948 2670.07,733.115 2667,716.5C 2663.8,689.854 2668.8,664.854 2682,641.5C 2687.6,632.058 2695.43,625.391 2705.5,621.5 Z"/></g>
<g><path style="opacity:1" fill="#ae927f" d="M 1125.5,599.5 C 1125.93,613.22 1126.93,626.887 1128.5,640.5C 1127.88,640.389 1127.38,640.056 1127,639.5C 1113.22,662.725 1099.72,686.058 1086.5,709.5C 1081.73,711.615 1076.73,713.282 1071.5,714.5C 1083.74,692.187 1096.41,670.021 1109.5,648C 1103.15,650.779 1096.82,653.945 1090.5,657.5C 1089.83,657.333 1089.17,657.167 1088.5,657C 1100.98,637.854 1113.32,618.687 1125.5,599.5 Z"/></g>
<g><path style="opacity:1" fill="#b39984" d="M 1483.5,626.5 C 1487.52,663.979 1481.02,699.645 1464,733.5C 1453.32,752.665 1437.16,764.332 1415.5,768.5C 1397.67,828.859 1367.5,881.859 1325,927.5C 1304.89,947.79 1282.39,964.79 1257.5,978.5C 1331.81,863.216 1406.65,748.216 1482,633.5C 1483.2,631.323 1483.7,628.989 1483.5,626.5 Z"/></g>
<g><path style="opacity:1" fill="#834e4c" d="M 1226.5,576.5 C 1230.18,576.335 1233.85,576.501 1237.5,577C 1222.66,600.657 1207.66,624.157 1192.5,647.5C 1190.57,645.422 1188.41,644.755 1186,645.5C 1178.3,658.671 1170.47,671.671 1162.5,684.5C 1158.95,682.889 1155.95,680.556 1153.5,677.5C 1161.47,664.23 1169.47,650.897 1177.5,637.5C 1178.39,636.41 1179.39,636.41 1180.5,637.5C 1182.43,639.05 1184.26,640.717 1186,642.5C 1199.77,620.611 1213.27,598.611 1226.5,576.5 Z"/></g>
<g><path style="opacity:1" fill="#b29883" d="M 1128.5,640.5 C 1129.17,640.5 1129.5,640.833 1129.5,641.5C 1131.27,649.032 1134.6,655.699 1139.5,661.5C 1142.38,666.722 1146.05,671.388 1150.5,675.5C 1131.8,691.518 1110.47,702.851 1086.5,709.5C 1099.72,686.058 1113.22,662.725 1127,639.5C 1127.38,640.056 1127.88,640.389 1128.5,640.5 Z"/></g>
<g><path style="opacity:1" fill="#885753" d="M 1205.5,575.5 C 1205.5,574.833 1205.83,574.5 1206.5,574.5C 1215.83,574.5 1225.17,574.5 1234.5,574.5C 1242.01,573.988 1249.34,574.822 1256.5,577C 1239.97,602.7 1223.64,628.533 1207.5,654.5C 1205.83,655.167 1204.17,655.833 1202.5,656.5C 1195.33,668.833 1188.17,681.167 1181,693.5C 1179.99,694.337 1178.82,694.67 1177.5,694.5C 1171.95,691.944 1166.95,688.61 1162.5,684.5C 1170.47,671.671 1178.3,658.671 1186,645.5C 1188.41,644.755 1190.57,645.422 1192.5,647.5C 1207.66,624.157 1222.66,600.657 1237.5,577C 1233.85,576.501 1230.18,576.335 1226.5,576.5C 1219.53,575.71 1212.53,575.377 1205.5,575.5 Z"/></g>
<g><path style="opacity:1" fill="#844f4d" d="M 1015.5,571.5 C 1020.18,571.669 1024.85,572.002 1029.5,572.5C 1030.5,572.5 1031.5,572.5 1032.5,572.5C 1033.26,573.268 1034.26,573.768 1035.5,574C 1035.17,574.333 1034.83,574.667 1034.5,575C 1037.86,575.727 1041.2,576.56 1044.5,577.5C 1027.83,604.167 1011.17,630.833 994.5,657.5C 985.021,670.437 976.521,684.104 969,698.5C 968.329,699.252 967.496,699.586 966.5,699.5C 961.5,696.5 957.5,692.5 954.5,687.5C 964.477,672.23 973.977,656.563 983,640.5C 984.139,643.583 985.472,646.583 987,649.5C 987.667,650.833 988.333,650.833 989,649.5C 1004.04,625.249 1019.21,601.082 1034.5,577C 1029.83,576.667 1025.17,576.333 1020.5,576C 1021.36,575.311 1022.02,574.478 1022.5,573.5C 1020.03,572.832 1017.7,572.165 1015.5,571.5 Z"/></g>
<g><path style="opacity:1" fill="#a88877" d="M 1126.5,583.5 C 1125.73,588.797 1125.39,594.13 1125.5,599.5C 1113.32,618.687 1100.98,637.854 1088.5,657C 1089.17,657.167 1089.83,657.333 1090.5,657.5C 1096.82,653.945 1103.15,650.779 1109.5,648C 1096.41,670.021 1083.74,692.187 1071.5,714.5C 1063.51,715.832 1055.51,717.165 1047.5,718.5C 1056.91,699.863 1067.24,681.696 1078.5,664C 1074.55,664.649 1070.55,664.982 1066.5,665C 1083.54,637.749 1100.71,610.582 1118,583.5C 1121.29,586.323 1123.95,585.989 1126,582.5C 1126.4,582.728 1126.57,583.062 1126.5,583.5 Z"/></g>
<g><path style="opacity:1" fill="#6e2e35" d="M 862.5,660.5 C 864.116,679.274 869.616,696.94 879,713.5C 881.207,716.564 884.041,718.564 887.5,719.5C 878.982,733.216 869.982,746.549 860.5,759.5C 845.05,749.044 834.05,735.044 827.5,717.5C 838.891,701.071 850.058,684.405 861,667.5C 862.202,665.323 862.702,662.989 862.5,660.5 Z"/></g>
<g><path style="opacity:1" fill="#74363b" d="M 914.5,720.5 C 905.104,735.613 895.437,750.613 885.5,765.5C 883.257,766.474 880.924,766.808 878.5,766.5C 871.823,765.722 865.823,763.389 860.5,759.5C 869.982,746.549 878.982,733.216 887.5,719.5C 896.651,714.045 905.651,714.378 914.5,720.5 Z"/></g>
<g><path style="opacity:1" fill="#773c3f" d="M 914.5,720.5 C 916.797,722.294 918.963,724.294 921,726.5C 923.861,733.642 926.027,740.975 927.5,748.5C 919.523,762.446 911.023,776.113 902,789.5C 899.939,793.012 897.439,796.012 894.5,798.5C 890.713,788.641 887.213,778.641 884,768.5C 882.052,767.891 880.218,767.224 878.5,766.5C 880.924,766.808 883.257,766.474 885.5,765.5C 895.437,750.613 905.104,735.613 914.5,720.5 Z"/></g>
<g><path style="opacity:1" fill="#8d7f7f" d="M 1917.5,729.5 C 1940.48,731.49 1963.81,732.157 1987.5,731.5C 1987.74,732.791 1987.4,733.791 1986.5,734.5C 1963.52,732.51 1940.19,731.843 1916.5,732.5C 1916.26,731.209 1916.6,730.209 1917.5,729.5 Z"/></g>
<g><path style="opacity:1" fill="#7b4243" d="M 927.5,748.5 C 931.34,759.353 935.006,770.353 938.5,781.5C 928.947,798.043 918.614,814.043 907.5,829.5C 902.893,819.286 898.56,808.953 894.5,798.5C 897.439,796.012 899.939,793.012 902,789.5C 911.023,776.113 919.523,762.446 927.5,748.5 Z"/></g>
<g><path style="opacity:1" fill="#cbc3c3" d="M 1876.5,759.5 C 1876.5,760.5 1876.5,761.5 1876.5,762.5C 1911.5,762.5 1946.5,762.5 1981.5,762.5C 1946.34,763.498 1911,763.832 1875.5,763.5C 1875.23,761.901 1875.57,760.568 1876.5,759.5 Z"/></g>
<g><path style="opacity:1" fill="#7f4848" d="M 938.5,781.5 C 942.815,791.423 947.148,801.423 951.5,811.5C 942.677,825.138 933.844,838.805 925,852.5C 924.241,854.063 923.074,855.063 921.5,855.5C 916.341,847.187 911.674,838.52 907.5,829.5C 918.614,814.043 928.947,798.043 938.5,781.5 Z"/></g>
<g><path style="opacity:1" fill="#cac2c2" d="M 2611.5,818.5 C 2622.12,820.477 2633.12,821.144 2644.5,820.5C 2633.35,821.495 2622.01,821.828 2610.5,821.5C 2610.26,820.209 2610.6,819.209 2611.5,818.5 Z"/></g>
<g><path style="opacity:1" fill="#844f4d" d="M 951.5,811.5 C 956.83,821.492 962.163,831.492 967.5,841.5C 966.648,844.223 965.481,846.89 964,849.5C 956.607,859.896 949.607,870.563 943,881.5C 942.241,883.063 941.074,884.063 939.5,884.5C 932.737,875.309 926.737,865.642 921.5,855.5C 923.074,855.063 924.241,854.063 925,852.5C 933.844,838.805 942.677,825.138 951.5,811.5 Z"/></g>
<g><path style="opacity:1" fill="#885552" d="M 967.5,841.5 C 973.575,850.638 979.908,859.638 986.5,868.5C 978.163,881.015 969.996,893.681 962,906.5C 961.241,908.063 960.074,909.063 958.5,909.5C 951.783,901.451 945.45,893.117 939.5,884.5C 941.074,884.063 942.241,883.063 943,881.5C 949.607,870.563 956.607,859.896 964,849.5C 965.481,846.89 966.648,844.223 967.5,841.5 Z"/></g>
<g><path style="opacity:1" fill="#6f2f36" d="M 903.5,870.5 C 903.586,871.496 903.252,872.329 902.5,873C 856.651,909.427 810.984,946.093 765.5,983C 763.922,984.094 762.255,984.928 760.5,985.5C 749.833,975.5 739.5,965.167 729.5,954.5C 730.922,954.291 732.255,953.791 733.5,953C 760.833,931 788.167,909 815.5,887C 814.906,886.536 814.239,886.369 813.5,886.5C 835.291,878.736 857.291,871.236 879.5,864C 888.818,861.835 896.818,864.002 903.5,870.5 Z"/></g>
<g><path style="opacity:1" fill="#4c3837" d="M 2047.5,864.5 C 2048.68,864.281 2049.68,864.614 2050.5,865.5C 2044.14,879.031 2043.14,878.698 2047.5,864.5 Z"/></g>
<g><path style="opacity:1" fill="#b2a8a8" d="M 1893.5,867.5 C 1887.82,867.334 1882.16,867.501 1876.5,868C 1877.74,868.232 1878.74,868.732 1879.5,869.5C 1878.17,869.5 1876.83,869.5 1875.5,869.5C 1875.5,868.5 1875.5,867.5 1875.5,866.5C 1881.69,866.177 1887.69,866.51 1893.5,867.5 Z"/></g>
<g><path style="opacity:1" fill="#b4aaaa" d="M 2076.5,867.5 C 2084.98,866.507 2093.65,866.174 2102.5,866.5C 2102.78,868.415 2102.45,870.081 2101.5,871.5C 2101.5,870.167 2101.5,868.833 2101.5,867.5C 2093.17,867.5 2084.83,867.5 2076.5,867.5 Z"/></g>
<g><path style="opacity:1" fill="#a79c9c" d="M 2415.5,867.5 C 2422.98,866.508 2430.65,866.175 2438.5,866.5C 2438.81,869.247 2438.48,871.914 2437.5,874.5C 2436.89,874.376 2436.56,874.043 2436.5,873.5C 2437.46,871.735 2437.79,869.735 2437.5,867.5C 2430.17,867.5 2422.83,867.5 2415.5,867.5 Z"/></g>
<g><path style="opacity:1" fill="#b3a9a9" d="M 2685.5,867.5 C 2679.82,867.334 2674.16,867.501 2668.5,868C 2669.74,868.232 2670.74,868.732 2671.5,869.5C 2670.17,869.5 2668.83,869.5 2667.5,869.5C 2667.5,868.5 2667.5,867.5 2667.5,866.5C 2673.69,866.177 2679.69,866.51 2685.5,867.5 Z"/></g>
<g><path style="opacity:1" fill="#aca1a1" d="M 2811.5,867.5 C 2814.96,866.518 2818.63,866.185 2822.5,866.5C 2822.5,867.5 2822.5,868.5 2822.5,869.5C 2821.17,869.5 2819.83,869.5 2818.5,869.5C 2819.26,868.732 2820.26,868.232 2821.5,868C 2818.18,867.502 2814.85,867.335 2811.5,867.5 Z"/></g>
<g><path style="opacity:1" fill="#aba0a0" d="M 2865.5,867.5 C 2873.98,866.507 2882.65,866.174 2891.5,866.5C 2891.81,869.385 2891.47,872.052 2890.5,874.5C 2890.5,872.167 2890.5,869.833 2890.5,867.5C 2882.17,867.5 2873.83,867.5 2865.5,867.5 Z"/></g>
<g><path style="opacity:1" fill="#3d2827" d="M 1893.5,867.5 C 1903.55,869.405 1907.38,875.405 1905,885.5C 1903.39,891.447 1899.55,894.947 1893.5,896C 1887.83,896.667 1882.17,896.667 1876.5,896C 1877.77,895.691 1878.93,895.191 1880,894.5C 1880.82,885.99 1880.66,877.656 1879.5,869.5C 1878.74,868.732 1877.74,868.232 1876.5,868C 1882.16,867.501 1887.82,867.334 1893.5,867.5 Z"/></g>
<g><path style="opacity:1" fill="#44302f" d="M 1942.5,866.5 C 1954.27,864.948 1961.27,869.948 1963.5,881.5C 1960.58,895.961 1952.25,900.461 1938.5,895C 1931.96,888.402 1930.79,880.902 1935,872.5C 1937.48,870.361 1939.98,868.361 1942.5,866.5 Z"/></g>
<g><path style="opacity:1" fill="#473332" d="M 1996.5,874.5 C 1996.22,873.711 1995.72,873.044 1995,872.5C 1994.18,880.012 1994.34,887.345 1995.5,894.5C 1996.26,895.268 1997.26,895.768 1998.5,896C 1993.71,897.007 1991.71,896.84 1992.5,895.5C 1992.5,886.5 1992.5,877.5 1992.5,868.5C 1990.77,867.206 1992.27,867.206 1997,868.5C 2002.28,876.119 2007.95,883.452 2014,890.5C 2014.67,883.5 2014.67,876.5 2014,869.5C 2012.93,868.809 2011.77,868.309 2010.5,868C 2015.29,866.993 2017.29,867.16 2016.5,868.5C 2016.83,878.19 2016.5,887.856 2015.5,897.5C 2008.77,890.105 2002.43,882.439 1996.5,874.5 Z"/></g>
<g><path style="opacity:1" fill="#453130" d="M 2076.5,867.5 C 2084.83,867.5 2093.17,867.5 2101.5,867.5C 2101.5,868.833 2101.5,870.167 2101.5,871.5C 2101.65,872.552 2101.48,873.552 2101,874.5C 2100.51,872.866 2100.34,871.199 2100.5,869.5C 2097.17,869.5 2093.83,869.5 2090.5,869.5C 2090.5,878.167 2090.5,886.833 2090.5,895.5C 2089.98,896.827 2088.65,896.827 2086.5,895.5C 2086.5,886.833 2086.5,878.167 2086.5,869.5C 2083.5,869.5 2080.5,869.5 2077.5,869.5C 2077.5,870.833 2077.5,872.167 2077.5,873.5C 2076.54,871.735 2076.21,869.735 2076.5,867.5 Z"/></g>
<g><path style="opacity:1" fill="#442f2e" d="M 2186.5,895.5 C 2183.7,896.638 2180.7,896.805 2177.5,896C 2178.62,895.751 2179.62,895.251 2180.5,894.5C 2180.38,893.893 2180.04,893.56 2179.5,893.5C 2179.45,887.663 2176.62,884.996 2171,885.5C 2165.19,886.032 2162.36,889.365 2162.5,895.5C 2163.97,896.812 2162.3,896.812 2157.5,895.5C 2158.24,894.713 2159.08,894.047 2160,893.5C 2164.08,884.423 2168.24,875.423 2172.5,866.5C 2176.49,874.62 2179.99,882.954 2183,891.5C 2183.69,893.35 2184.86,894.684 2186.5,895.5 Z"/></g>
<g><path style="opacity:1" fill="#3e2a29" d="M 2302.5,868.5 C 2305.64,867.359 2308.97,867.192 2312.5,868C 2311.23,868.309 2310.07,868.809 2309,869.5C 2308.33,876.167 2308.33,882.833 2309,889.5C 2310.56,893.722 2313.56,895.389 2318,894.5C 2322.59,895.38 2325.59,893.713 2327,889.5C 2327.67,882.833 2327.67,876.167 2327,869.5C 2325.93,868.809 2324.77,868.309 2323.5,868C 2326.17,867.333 2328.83,867.333 2331.5,868C 2329.72,874.894 2328.89,882.06 2329,889.5C 2328.48,892.034 2327.32,894.2 2325.5,896C 2320.92,897.476 2316.26,897.81 2311.5,897C 2309.71,896.215 2308.21,895.049 2307,893.5C 2305.73,885.603 2305.06,877.603 2305,869.5C 2304.33,868.748 2303.5,868.414 2302.5,868.5 Z"/></g>
<g><path style="opacity:1" fill="#3d2827" d="M 2356.5,868.5 C 2358.9,867.186 2361.4,867.186 2364,868.5C 2367.34,875.868 2370.67,883.201 2374,890.5C 2377,883.167 2380,875.833 2383,868.5C 2385.4,867.398 2387.9,867.231 2390.5,868C 2389.23,868.309 2388.07,868.809 2387,869.5C 2386.33,877.833 2386.33,886.167 2387,894.5C 2388.07,895.191 2389.23,895.691 2390.5,896C 2386.83,896.667 2383.17,896.667 2379.5,896C 2380.77,895.691 2381.93,895.191 2383,894.5C 2383.67,887.5 2383.67,880.5 2383,873.5C 2379.86,881.249 2376.53,888.916 2373,896.5C 2369.29,889.746 2366.12,882.746 2363.5,875.5C 2363.22,874.711 2362.72,874.044 2362,873.5C 2361.18,880.679 2361.35,887.679 2362.5,894.5C 2363.61,895.29 2364.94,895.79 2366.5,896C 2363.17,896.667 2359.83,896.667 2356.5,896C 2357.74,895.768 2358.74,895.268 2359.5,894.5C 2360.49,886.016 2360.83,877.349 2360.5,868.5C 2359.17,868.5 2357.83,868.5 2356.5,868.5 Z"/></g>
<g><path style="opacity:1" fill="#493534" d="M 2415.5,867.5 C 2422.83,867.5 2430.17,867.5 2437.5,867.5C 2437.79,869.735 2437.46,871.735 2436.5,873.5C 2436.5,872.167 2436.5,870.833 2436.5,869.5C 2432.17,869.5 2427.83,869.5 2423.5,869.5C 2423.5,872.833 2423.5,876.167 2423.5,879.5C 2426.52,879.665 2429.52,879.498 2432.5,879C 2433.19,877.933 2433.69,876.766 2434,875.5C 2434.86,881.978 2434.69,883.978 2433.5,881.5C 2430.17,881.5 2426.83,881.5 2423.5,881.5C 2423.5,885.833 2423.5,890.167 2423.5,894.5C 2428.17,894.5 2432.83,894.5 2437.5,894.5C 2437.21,892.712 2437.55,891.045 2438.5,889.5C 2439.71,891.859 2439.71,894.192 2438.5,896.5C 2430.98,896.825 2423.65,896.492 2416.5,895.5C 2417.5,895.5 2418.5,895.5 2419.5,895.5C 2419.5,886.833 2419.5,878.167 2419.5,869.5C 2417.52,869.843 2416.18,869.176 2415.5,867.5 Z"/></g>
<g><path style="opacity:1" fill="#463231" d="M 2527.5,868.5 C 2534.98,867.508 2542.65,867.175 2550.5,867.5C 2550.81,869.924 2550.47,872.257 2549.5,874.5C 2548.55,872.955 2548.21,871.288 2548.5,869.5C 2544.17,869.5 2539.83,869.5 2535.5,869.5C 2535.5,872.833 2535.5,876.167 2535.5,879.5C 2538.52,879.665 2541.52,879.498 2544.5,879C 2545.19,877.933 2545.69,876.766 2546,875.5C 2546.86,881.978 2546.69,883.978 2545.5,881.5C 2542.17,881.5 2538.83,881.5 2535.5,881.5C 2535.5,886.167 2535.5,890.833 2535.5,895.5C 2534.98,896.827 2533.65,896.827 2531.5,895.5C 2531.5,886.5 2531.5,877.5 2531.5,868.5C 2530.17,868.5 2528.83,868.5 2527.5,868.5 Z"/></g>
<g><path style="opacity:1" fill="#372221" d="M 2576.5,868.5 C 2579.98,867.357 2583.64,867.19 2587.5,868C 2586.23,868.309 2585.07,868.809 2584,869.5C 2583.33,877.833 2583.33,886.167 2584,894.5C 2585.07,895.191 2586.23,895.691 2587.5,896C 2583.83,896.667 2580.17,896.667 2576.5,896C 2577.77,895.691 2578.93,895.191 2580,894.5C 2580.67,886.167 2580.67,877.833 2580,869.5C 2578.99,868.663 2577.82,868.33 2576.5,868.5 Z"/></g>
<g><path style="opacity:1" fill="#402b2a" d="M 2612.5,868.5 C 2615.02,867.2 2617.69,867.2 2620.5,868.5C 2625.81,875.644 2631.31,882.644 2637,889.5C 2637.5,882.508 2637.67,875.508 2637.5,868.5C 2635.02,867.306 2637.02,867.139 2643.5,868C 2642.23,868.309 2641.07,868.809 2640,869.5C 2639.83,878.851 2639.33,888.184 2638.5,897.5C 2631.81,889.31 2625.31,880.977 2619,872.5C 2618.33,879.833 2618.33,887.167 2619,894.5C 2620.07,895.191 2621.23,895.691 2622.5,896C 2617.71,897.007 2615.71,896.84 2616.5,895.5C 2616.5,886.5 2616.5,877.5 2616.5,868.5C 2615.17,868.5 2613.83,868.5 2612.5,868.5 Z"/></g>
<g><path style="opacity:1" fill="#3e2928" d="M 2685.5,867.5 C 2693.31,868.313 2697.31,872.646 2697.5,880.5C 2697.81,888.051 2694.48,893.217 2687.5,896C 2681.17,896.667 2674.83,896.667 2668.5,896C 2669.77,895.691 2670.93,895.191 2672,894.5C 2672.82,885.99 2672.66,877.656 2671.5,869.5C 2670.74,868.732 2669.74,868.232 2668.5,868C 2674.16,867.501 2679.82,867.334 2685.5,867.5 Z"/></g>
<g><path style="opacity:1" fill="#422d2c" d="M 2811.5,867.5 C 2814.85,867.335 2818.18,867.502 2821.5,868C 2820.26,868.232 2819.26,868.732 2818.5,869.5C 2818.33,876.508 2818.5,883.508 2819,890.5C 2822.78,895.553 2827.62,896.72 2833.5,894C 2834.7,893.097 2835.53,891.931 2836,890.5C 2836.5,883.174 2836.67,875.841 2836.5,868.5C 2832.83,867.535 2834.17,867.368 2840.5,868C 2840,868.5 2839.5,869 2839,869.5C 2838.67,876.833 2838.33,884.167 2838,891.5C 2835.58,896.039 2831.75,898.039 2826.5,897.5C 2820.96,897.82 2817.13,895.486 2815,890.5C 2814.5,883.174 2814.33,875.841 2814.5,868.5C 2813.21,868.737 2812.21,868.404 2811.5,867.5 Z"/></g>
<g><path style="opacity:1" fill="#3e2928" d="M 2865.5,867.5 C 2873.83,867.5 2882.17,867.5 2890.5,867.5C 2890.5,869.833 2890.5,872.167 2890.5,874.5C 2889.55,873.081 2889.22,871.415 2889.5,869.5C 2886.17,869.5 2882.83,869.5 2879.5,869.5C 2879.33,877.84 2879.5,886.173 2880,894.5C 2881.4,895.227 2882.9,895.727 2884.5,896C 2880.5,896.667 2876.5,896.667 2872.5,896C 2873.77,895.691 2874.93,895.191 2876,894.5C 2876.5,886.173 2876.67,877.84 2876.5,869.5C 2873.17,869.5 2869.83,869.5 2866.5,869.5C 2866.66,871.199 2866.49,872.866 2866,874.5C 2865.5,872.19 2865.34,869.857 2865.5,867.5 Z"/></g>
<g><path style="opacity:1" fill="#eee9e9" d="M 1943.5,868.5 C 1956.59,869.462 1961.42,876.462 1958,889.5C 1954.25,895.542 1949.09,897.042 1942.5,894C 1935.96,887.402 1934.79,879.902 1939,871.5C 1940.65,870.601 1942.15,869.601 1943.5,868.5 Z"/></g>
<g><path style="opacity:1" fill="#4b3736" d="M 2920.5,868.5 C 2922.37,870.635 2923.04,873.302 2922.5,876.5C 2922.83,880.884 2922.49,885.217 2921.5,889.5C 2919.65,882.403 2919.32,875.403 2920.5,868.5 Z"/></g>
<g><path style="opacity:1" fill="#8b5b56" d="M 986.5,868.5 C 991.804,874.808 997.137,881.142 1002.5,887.5C 994.584,900.598 986.418,913.598 978,926.5C 977.329,927.252 976.496,927.586 975.5,927.5C 969.13,922.131 963.463,916.131 958.5,909.5C 960.074,909.063 961.241,908.063 962,906.5C 969.996,893.681 978.163,881.015 986.5,868.5 Z"/></g>
<g><path style="opacity:1" fill="#976e64" d="M 1455.5,876.5 C 1408.73,914.09 1362.07,951.924 1315.5,990C 1314.56,990.692 1313.9,990.525 1313.5,989.5C 1340.79,949.101 1368.45,908.935 1396.5,869C 1402.99,863.853 1410.32,862.186 1418.5,864C 1430.9,868.077 1443.23,872.244 1455.5,876.5 Z"/></g>
<g><path style="opacity:1" fill="#ece7e7" d="M 1883.5,869.5 C 1896.51,868.012 1902.34,873.679 1901,886.5C 1898.63,892.484 1894.13,895.484 1887.5,895.5C 1886.23,895.43 1885.06,895.097 1884,894.5C 1883.5,886.173 1883.33,877.84 1883.5,869.5 Z"/></g>
<g><path style="opacity:1" fill="#463231" d="M 2219.5,866.5 C 2222.58,867.066 2225.58,867.066 2228.5,866.5C 2229.83,869.167 2229.83,871.833 2228.5,874.5C 2228.3,870.635 2226.3,868.968 2222.5,869.5C 2216.36,870.041 2215.02,872.874 2218.5,878C 2222.59,880.127 2226.42,882.627 2230,885.5C 2231.67,891.495 2229.51,895.328 2223.5,897C 2220.06,897.178 2216.73,897.345 2213.5,897.5C 2212.73,895.187 2212.06,892.854 2211.5,890.5C 2211.83,890.167 2212.17,889.833 2212.5,889.5C 2215,895.578 2219.34,897.078 2225.5,894C 2228.1,891.541 2228.1,889.041 2225.5,886.5C 2222.63,884.468 2219.63,882.635 2216.5,881C 2211.86,874.986 2212.86,870.153 2219.5,866.5 Z"/></g>
<g><path style="opacity:1" fill="#ebe6e6" d="M 2675.5,869.5 C 2689.01,868.173 2694.84,874.173 2693,887.5C 2689.05,894.068 2683.39,896.401 2676,894.5C 2675.5,886.173 2675.33,877.84 2675.5,869.5 Z"/></g>
<g><path style="opacity:1" fill="#453130" d="M 2264.5,866.5 C 2267.58,867.066 2270.58,867.066 2273.5,866.5C 2274.65,869.106 2274.82,871.773 2274,874.5C 2273.64,870.562 2271.47,868.895 2267.5,869.5C 2260.34,870.984 2259.67,874.151 2265.5,879C 2268.94,880.776 2272.11,882.943 2275,885.5C 2276.82,891.702 2274.65,895.535 2268.5,897C 2265.23,897.07 2262.06,897.237 2259,897.5C 2257.75,894.923 2257.42,892.257 2258,889.5C 2259.01,891.025 2259.51,892.692 2259.5,894.5C 2262.8,895.376 2266.13,895.543 2269.5,895C 2272.98,892.294 2273.31,889.294 2270.5,886C 2266.01,884.008 2262.17,881.175 2259,877.5C 2258.33,875.5 2258.33,873.5 2259,871.5C 2260.73,869.598 2262.56,867.931 2264.5,866.5 Z"/></g>
<g><path style="opacity:1" fill="#432e2d" d="M 2765.5,866.5 C 2781.86,866.021 2788.02,873.687 2784,889.5C 2779.3,896.313 2772.8,898.813 2764.5,897C 2756.19,892.078 2753.36,884.912 2756,875.5C 2758.41,871.592 2761.57,868.592 2765.5,866.5 Z"/></g>
<g><path style="opacity:1" fill="#ede7e7" d="M 2765.5,868.5 C 2778.52,868.817 2783.69,875.483 2781,888.5C 2776.73,895.876 2770.9,897.376 2763.5,893C 2756.16,883.948 2756.83,875.781 2765.5,868.5 Z"/></g>
<g><path style="opacity:1" fill="#73353a" d="M 903.5,870.5 C 909.646,878.111 915.312,886.111 920.5,894.5C 920.607,896.903 919.607,898.736 917.5,900C 872.47,935.842 827.47,971.675 782.5,1007.5C 774.833,1000.5 767.5,993.167 760.5,985.5C 762.255,984.928 763.922,984.094 765.5,983C 810.984,946.093 856.651,909.427 902.5,873C 903.252,872.329 903.586,871.496 903.5,870.5 Z"/></g>
<g><path style="opacity:1" fill="#aea3a3" d="M 2356.5,868.5 C 2357.83,868.5 2359.17,868.5 2360.5,868.5C 2360.83,877.349 2360.49,886.016 2359.5,894.5C 2359.5,886.167 2359.5,877.833 2359.5,869.5C 2358.21,869.737 2357.21,869.404 2356.5,868.5 Z"/></g>
<g><path style="opacity:1" fill="#857776" d="M 2076.5,867.5 C 2076.21,869.735 2076.54,871.735 2077.5,873.5C 2077.44,874.043 2077.11,874.376 2076.5,874.5C 2075.2,872.027 2075.2,869.693 2076.5,867.5 Z"/></g>
<g><path style="opacity:1" fill="#dcd5d5" d="M 2170.5,873.5 C 2172.88,875.912 2174.55,878.912 2175.5,882.5C 2172.91,883.48 2170.25,883.813 2167.5,883.5C 2168.49,880.177 2169.49,876.844 2170.5,873.5 Z"/></g>
<g><path style="opacity:1" fill="#9b8f8e" d="M 2920.5,868.5 C 2921.21,867.596 2922.21,867.263 2923.5,867.5C 2923.81,870.713 2923.48,873.713 2922.5,876.5C 2923.04,873.302 2922.37,870.635 2920.5,868.5 Z"/></g>
<g><path style="opacity:1" fill="#9b7368" d="M 1455.5,876.5 C 1468.82,880.829 1482.16,885.163 1495.5,889.5C 1411.9,956.59 1328.4,1023.92 1245,1091.5C 1244.6,1091.27 1244.43,1090.94 1244.5,1090.5C 1267.12,1056.55 1290.12,1022.89 1313.5,989.5C 1313.9,990.525 1314.56,990.692 1315.5,990C 1362.07,951.924 1408.73,914.09 1455.5,876.5 Z"/></g>
<g><path style="opacity:1" fill="#9f796c" d="M 1495.5,889.5 C 1508.17,893.835 1520.84,898.168 1533.5,902.5C 1415.75,997.887 1297.75,1093.05 1179.5,1188C 1178.56,1188.69 1177.9,1188.53 1177.5,1187.5C 1199.48,1154.87 1221.81,1122.53 1244.5,1090.5C 1244.43,1090.94 1244.6,1091.27 1245,1091.5C 1328.4,1023.92 1411.9,956.59 1495.5,889.5 Z"/></g>
<g><path style="opacity:1" fill="#8f8281" d="M 2363.5,875.5 C 2362.51,881.645 2362.18,887.978 2362.5,894.5C 2361.35,887.679 2361.18,880.679 2362,873.5C 2362.72,874.044 2363.22,874.711 2363.5,875.5 Z"/></g>
<g><path style="opacity:1" fill="#a79c9c" d="M 1996.5,874.5 C 1995.51,880.979 1995.18,887.646 1995.5,894.5C 1994.34,887.345 1994.18,880.012 1995,872.5C 1995.72,873.044 1996.22,873.711 1996.5,874.5 Z"/></g>
<g><path style="opacity:1" fill="#412c2b" d="M 2467.5,893.5 C 2469.89,893.685 2470.89,895.018 2470.5,897.5C 2470.39,900.281 2469.06,902.281 2466.5,903.5C 2466.17,903.167 2465.83,902.833 2465.5,902.5C 2468.9,900.58 2469.23,898.247 2466.5,895.5C 2466.86,894.817 2467.2,894.15 2467.5,893.5 Z"/></g>
<g><path style="opacity:1" fill="#544140" d="M 2920.5,893.5 C 2923.86,894.203 2924.19,895.537 2921.5,897.5C 2919.36,896.563 2919.02,895.23 2920.5,893.5 Z"/></g>
<g><path style="opacity:1" fill="#6c2a32" d="M 813.5,886.5 C 814.239,886.369 814.906,886.536 815.5,887C 788.167,909 760.833,931 733.5,953C 732.255,953.791 730.922,954.291 729.5,954.5C 720.691,947.649 717.525,938.649 720,927.5C 722.5,919.667 727.667,914.5 735.5,912C 761.425,903.191 787.425,894.691 813.5,886.5 Z"/></g>
<g><path style="opacity:1" fill="#aca1a1" d="M 2179.5,893.5 C 2180.04,893.56 2180.38,893.893 2180.5,894.5C 2179.62,895.251 2178.62,895.751 2177.5,896C 2180.7,896.805 2183.7,896.638 2186.5,895.5C 2187.04,895.56 2187.38,895.893 2187.5,896.5C 2183.89,897.489 2180.23,897.823 2176.5,897.5C 2176.5,896.5 2176.5,895.5 2176.5,894.5C 2177.79,894.737 2178.79,894.404 2179.5,893.5 Z"/></g>
<g><path style="opacity:1" fill="#b2a7a7" d="M 2416.5,895.5 C 2423.65,896.492 2430.98,896.825 2438.5,896.5C 2430.99,897.82 2423.32,897.82 2415.5,896.5C 2415.62,895.893 2415.96,895.56 2416.5,895.5 Z"/></g>
<g><path style="opacity:1" fill="#a17e6f" d="M 1533.5,902.5 C 1539.58,904.304 1545.58,906.304 1551.5,908.5C 1402.75,1028.92 1253.42,1148.59 1103.5,1267.5C 1098.87,1264.86 1094.53,1261.86 1090.5,1258.5C 1108.24,1245.3 1125.57,1231.64 1142.5,1217.5C 1144.75,1220.93 1147.25,1224.27 1150,1227.5C 1158.94,1213.93 1168.11,1200.59 1177.5,1187.5C 1177.9,1188.53 1178.56,1188.69 1179.5,1188C 1297.75,1093.05 1415.75,997.887 1533.5,902.5 Z"/></g>
<g><path style="opacity:1" fill="#90625b" d="M 1002.5,887.5 C 1010.17,895.833 1018.17,903.833 1026.5,911.5C 1019.92,922.598 1013.08,933.598 1006,944.5C 1004.62,947.043 1002.78,949.043 1000.5,950.5C 991.24,943.91 982.907,936.243 975.5,927.5C 976.496,927.586 977.329,927.252 978,926.5C 986.418,913.598 994.584,900.598 1002.5,887.5 Z"/></g>
<g><path style="opacity:1" fill="#773b3f" d="M 920.5,894.5 C 927.551,904.223 934.218,914.223 940.5,924.5C 896.416,960.92 851.749,996.587 806.5,1031.5C 798.167,1023.83 790.167,1015.83 782.5,1007.5C 827.47,971.675 872.47,935.842 917.5,900C 919.607,898.736 920.607,896.903 920.5,894.5 Z"/></g>
<g><path style="opacity:1" fill="#a38172" d="M 1551.5,908.5 C 1557.17,910.222 1562.83,912.056 1568.5,914C 1571,915.331 1573,917.164 1574.5,919.5C 1574.14,921.371 1573.14,922.871 1571.5,924C 1423.88,1041.95 1276.54,1160.29 1129.5,1279C 1127.92,1280.09 1126.26,1280.93 1124.5,1281.5C 1117.29,1277.07 1110.29,1272.4 1103.5,1267.5C 1253.42,1148.59 1402.75,1028.92 1551.5,908.5 Z"/></g>
<g><path style="opacity:1" fill="#936860" d="M 1026.5,911.5 C 1033.53,916.016 1040.2,921.016 1046.5,926.5C 1037.8,939.523 1029.13,952.523 1020.5,965.5C 1013.24,961.238 1006.58,956.238 1000.5,950.5C 1002.78,949.043 1004.62,947.043 1006,944.5C 1013.08,933.598 1019.92,922.598 1026.5,911.5 Z"/></g>
<g><path style="opacity:1" fill="#a68575" d="M 1574.5,919.5 C 1581.88,928.673 1582.38,938.34 1576,948.5C 1534.17,990.333 1492.33,1032.17 1450.5,1074C 1430.07,1081.86 1409.41,1089.03 1388.5,1095.5C 1307.2,1159.84 1226.2,1224.67 1145.5,1290C 1143.98,1291.01 1142.31,1291.51 1140.5,1291.5C 1134.82,1288.66 1129.49,1285.33 1124.5,1281.5C 1126.26,1280.93 1127.92,1280.09 1129.5,1279C 1276.54,1160.29 1423.88,1041.95 1571.5,924C 1573.14,922.871 1574.14,921.371 1574.5,919.5 Z"/></g>
<g><path style="opacity:1" fill="#7b4143" d="M 940.5,924.5 C 947.904,933.636 954.571,943.303 960.5,953.5C 917.813,988.183 874.813,1022.52 831.5,1056.5C 822.833,1048.5 814.5,1040.17 806.5,1031.5C 851.749,996.587 896.416,960.92 940.5,924.5 Z"/></g>
<g><path style="opacity:1" fill="#976e64" d="M 1046.5,926.5 C 1054.3,930.568 1061.97,934.902 1069.5,939.5C 1061.16,952.015 1053,964.681 1045,977.5C 1044.33,978.252 1043.5,978.586 1042.5,978.5C 1034.64,974.956 1027.31,970.622 1020.5,965.5C 1029.13,952.523 1037.8,939.523 1046.5,926.5 Z"/></g>
<g><path style="opacity:1" fill="#9b7368" d="M 1069.5,939.5 C 1077.51,943.616 1085.85,946.95 1094.5,949.5C 1086.6,963.637 1077.93,977.304 1068.5,990.5C 1059.3,987.563 1050.63,983.563 1042.5,978.5C 1043.5,978.586 1044.33,978.252 1045,977.5C 1053,964.681 1061.16,952.015 1069.5,939.5 Z"/></g>
<g><path style="opacity:1" fill="#ac8e7c" d="M 1258.5,922.5 C 1243.64,946.868 1228.14,970.868 1212,994.5C 1211.52,995.448 1211.35,996.448 1211.5,997.5C 1193.26,1002.87 1174.59,1005.87 1155.5,1006.5C 1157.45,1005.87 1159.28,1004.87 1161,1003.5C 1171.46,986.743 1182.29,970.243 1193.5,954C 1193.27,953.601 1192.94,953.435 1192.5,953.5C 1204.05,950.237 1215.38,946.071 1226.5,941C 1237.39,935.062 1248.05,928.896 1258.5,922.5 Z"/></g>
<g><path style="opacity:1" fill="#9f7a6d" d="M 1094.5,949.5 C 1103.68,952.461 1113.01,954.794 1122.5,956.5C 1113.24,970.693 1104.24,985.026 1095.5,999.5C 1086.09,997.475 1077.09,994.475 1068.5,990.5C 1077.93,977.304 1086.6,963.637 1094.5,949.5 Z"/></g>
<g><path style="opacity:1" fill="#7e4747" d="M 960.5,953.5 C 967.904,962.636 974.571,972.303 980.5,982.5C 940.126,1014.02 900.126,1046.02 860.5,1078.5C 856.203,1077.85 852.203,1076.35 848.5,1074C 842.63,1068.3 836.964,1062.46 831.5,1056.5C 874.813,1022.52 917.813,988.183 960.5,953.5 Z"/></g>
<g><path style="opacity:1" fill="#a78676" d="M 1192.5,953.5 C 1192.94,953.435 1193.27,953.601 1193.5,954C 1182.29,970.243 1171.46,986.743 1161,1003.5C 1159.28,1004.87 1157.45,1005.87 1155.5,1006.5C 1145.27,1006.92 1135.27,1006.25 1125.5,1004.5C 1126.82,1004.67 1127.99,1004.34 1129,1003.5C 1138.62,989.085 1148.12,974.585 1157.5,960C 1153.64,959.823 1149.98,959.323 1146.5,958.5C 1162.03,958.513 1177.36,956.846 1192.5,953.5 Z"/></g>
<g><path style="opacity:1" fill="#a38072" d="M 1122.5,956.5 C 1130.37,958.159 1138.37,958.826 1146.5,958.5C 1149.98,959.323 1153.64,959.823 1157.5,960C 1148.12,974.585 1138.62,989.085 1129,1003.5C 1127.99,1004.34 1126.82,1004.67 1125.5,1004.5C 1115.17,1004.11 1105.17,1002.44 1095.5,999.5C 1104.24,985.026 1113.24,970.693 1122.5,956.5 Z"/></g>
<g><path style="opacity:1" fill="#834f4d" d="M 980.5,982.5 C 988.324,992.811 995.658,1003.48 1002.5,1014.5C 970.732,1039.76 939.066,1065.26 907.5,1091C 905.975,1092.01 904.308,1092.51 902.5,1092.5C 888.216,1088.41 874.216,1083.74 860.5,1078.5C 900.126,1046.02 940.126,1014.02 980.5,982.5 Z"/></g>
<g><path style="opacity:1" fill="#74363b" d="M 743.5,1037.5 C 743.631,1038.24 743.464,1038.91 743,1039.5C 696.258,1077.45 649.425,1115.29 602.5,1153C 601.563,1153.69 600.897,1153.53 600.5,1152.5C 624.831,1098 662.498,1055.17 713.5,1024C 726.331,1022.25 736.331,1026.75 743.5,1037.5 Z"/></g>
<g><path style="opacity:1" fill="#875552" d="M 1002.5,1014.5 C 1010.32,1024.81 1017.66,1035.48 1024.5,1046.5C 987.136,1075.84 949.803,1105.18 912.5,1134.5C 911.732,1133.74 911.232,1132.74 911,1131.5C 910.833,1119.49 910.333,1107.49 909.5,1095.5C 906.984,1094.67 904.65,1093.67 902.5,1092.5C 904.308,1092.51 905.975,1092.01 907.5,1091C 939.066,1065.26 970.732,1039.76 1002.5,1014.5 Z"/></g>
<g><path style="opacity:1" fill="#b19682" d="M 1612.5,1042.5 C 1607.41,1047.42 1602.07,1052.25 1596.5,1057C 1500.02,1133.65 1404.02,1210.82 1308.5,1288.5C 1303.27,1285.4 1300.1,1280.73 1299,1274.5C 1297.05,1264.35 1300.22,1256.18 1308.5,1250C 1342.5,1227.33 1376.5,1204.67 1410.5,1182C 1417.13,1176.38 1422.63,1169.88 1427,1162.5C 1431.31,1152.89 1435.31,1143.23 1439,1133.5C 1441.2,1130.96 1443.7,1128.79 1446.5,1127C 1459.59,1123.45 1471.59,1117.79 1482.5,1110C 1509.5,1083 1536.5,1056 1563.5,1029C 1573.22,1022.03 1583.22,1021.69 1593.5,1028C 1600.26,1032.37 1606.6,1037.2 1612.5,1042.5 Z"/></g>
<g><path style="opacity:1" fill="#b39984" d="M 1612.5,1042.5 C 1678.3,1094.41 1715.13,1162.41 1723,1246.5C 1723.67,1256.5 1723.67,1266.5 1723,1276.5C 1720.07,1285.1 1714.24,1290.6 1705.5,1293C 1575.5,1293.67 1445.5,1293.67 1315.5,1293C 1312.76,1291.97 1310.43,1290.47 1308.5,1288.5C 1404.02,1210.82 1500.02,1133.65 1596.5,1057C 1602.07,1052.25 1607.41,1047.42 1612.5,1042.5 Z"/></g>
<g><path style="opacity:1" fill="#8b5a56" d="M 1024.5,1046.5 C 1030.65,1054.11 1036.31,1062.11 1041.5,1070.5C 1041.49,1072.02 1040.82,1073.18 1039.5,1074C 1006.32,1100.09 973.318,1126.43 940.5,1153C 938.922,1154.09 937.255,1154.93 935.5,1155.5C 928.075,1151.36 921.242,1146.36 915,1140.5C 913.878,1138.59 913.045,1136.59 912.5,1134.5C 949.803,1105.18 987.136,1075.84 1024.5,1046.5 Z"/></g>
<g><path style="opacity:1" fill="#773c3f" d="M 743.5,1037.5 C 752.167,1045.5 760.5,1053.83 768.5,1062.5C 707.022,1112.47 645.355,1162.3 583.5,1212C 582.563,1212.69 581.897,1212.53 581.5,1211.5C 585.256,1190.9 591.589,1171.24 600.5,1152.5C 600.897,1153.53 601.563,1153.69 602.5,1153C 649.425,1115.29 696.258,1077.45 743,1039.5C 743.464,1038.91 743.631,1038.24 743.5,1037.5 Z"/></g>
<g><path style="opacity:1" fill="#7b4143" d="M 768.5,1062.5 C 777.167,1070.5 785.5,1078.83 793.5,1087.5C 721.81,1146.02 649.644,1204.02 577,1261.5C 576.501,1257.85 576.335,1254.18 576.5,1250.5C 576.794,1237.19 578.461,1224.19 581.5,1211.5C 581.897,1212.53 582.563,1212.69 583.5,1212C 645.355,1162.3 707.022,1112.47 768.5,1062.5 Z"/></g>
<g><path style="opacity:1" fill="#8e5f59" d="M 1041.5,1070.5 C 1046.07,1076.62 1050.4,1082.96 1054.5,1089.5C 1022.06,1116.55 989.056,1142.89 955.5,1168.5C 948.484,1164.66 941.817,1160.33 935.5,1155.5C 937.255,1154.93 938.922,1154.09 940.5,1153C 973.318,1126.43 1006.32,1100.09 1039.5,1074C 1040.82,1073.18 1041.49,1072.02 1041.5,1070.5 Z"/></g>
<g><path style="opacity:1" fill="#7e4747" d="M 793.5,1087.5 C 801.86,1095.53 810.193,1103.53 818.5,1111.5C 743.571,1172.3 668.238,1232.64 592.5,1292.5C 583.588,1289.71 578.088,1283.71 576,1274.5C 575.177,1266.32 575.344,1258.32 576.5,1250.5C 576.335,1254.18 576.501,1257.85 577,1261.5C 649.644,1204.02 721.81,1146.02 793.5,1087.5 Z"/></g>
<g><path style="opacity:1" fill="#a88878" d="M 1388.5,1095.5 C 1388.67,1107.5 1388.5,1119.5 1388,1131.5C 1386.87,1137.64 1383.7,1142.47 1378.5,1146C 1306.5,1194 1234.5,1242 1162.5,1290C 1155.26,1293.94 1147.93,1294.44 1140.5,1291.5C 1142.31,1291.51 1143.98,1291.01 1145.5,1290C 1226.2,1224.67 1307.2,1159.84 1388.5,1095.5 Z"/></g>
<g><path style="opacity:1" fill="#91635c" d="M 1054.5,1089.5 C 1058.15,1094.8 1061.82,1100.13 1065.5,1105.5C 1065.63,1106.24 1065.46,1106.91 1065,1107.5C 1034.63,1132.05 1004.13,1156.38 973.5,1180.5C 967.148,1176.99 961.148,1172.99 955.5,1168.5C 989.056,1142.89 1022.06,1116.55 1054.5,1089.5 Z"/></g>
<g><path style="opacity:1" fill="#93685f" d="M 1065.5,1105.5 C 1072.24,1113.98 1078.24,1122.98 1083.5,1132.5C 1056.05,1154.73 1028.39,1176.73 1000.5,1198.5C 990.976,1193.24 981.976,1187.24 973.5,1180.5C 1004.13,1156.38 1034.63,1132.05 1065,1107.5C 1065.46,1106.91 1065.63,1106.24 1065.5,1105.5 Z"/></g>
<g><path style="opacity:1" fill="#824c4b" d="M 818.5,1111.5 C 825.726,1116.28 833.392,1120.28 841.5,1123.5C 771.79,1180.55 701.79,1237.21 631.5,1293.5C 618.323,1293.83 605.323,1293.5 592.5,1292.5C 668.238,1232.64 743.571,1172.3 818.5,1111.5 Z"/></g>
<g><path style="opacity:1" fill="#84504e" d="M 841.5,1123.5 C 845.18,1124.56 848.846,1125.73 852.5,1127C 854.324,1127.66 855.657,1128.83 856.5,1130.5C 856.141,1132.37 855.141,1133.87 853.5,1135C 787.356,1187.32 721.69,1240.15 656.5,1293.5C 648.167,1293.5 639.833,1293.5 631.5,1293.5C 701.79,1237.21 771.79,1180.55 841.5,1123.5 Z"/></g>
<g><path style="opacity:1" fill="#865451" d="M 856.5,1130.5 C 858.129,1131.63 859.629,1132.96 861,1134.5C 864.631,1145.57 869.131,1156.24 874.5,1166.5C 821.833,1208.83 769.167,1251.17 716.5,1293.5C 696.5,1293.5 676.5,1293.5 656.5,1293.5C 721.69,1240.15 787.356,1187.32 853.5,1135C 855.141,1133.87 856.141,1132.37 856.5,1130.5 Z"/></g>
<g><path style="opacity:1" fill="#976e64" d="M 1083.5,1132.5 C 1090.19,1141.2 1096.52,1150.2 1102.5,1159.5C 1102.14,1161.37 1101.14,1162.87 1099.5,1164C 1076.62,1182.38 1053.62,1200.55 1030.5,1218.5C 1020.15,1212.33 1010.15,1205.66 1000.5,1198.5C 1028.39,1176.73 1056.05,1154.73 1083.5,1132.5 Z"/></g>
<g><path style="opacity:1" fill="#9b7368" d="M 1102.5,1159.5 C 1109.4,1168.96 1116.07,1178.62 1122.5,1188.5C 1122.59,1189.5 1122.25,1190.33 1121.5,1191C 1101.47,1207.33 1081.14,1223.17 1060.5,1238.5C 1050.15,1232.33 1040.15,1225.66 1030.5,1218.5C 1053.62,1200.55 1076.62,1182.38 1099.5,1164C 1101.14,1162.87 1102.14,1161.37 1102.5,1159.5 Z"/></g>
<g><path style="opacity:1" fill="#8b5a55" d="M 874.5,1166.5 C 880.542,1174.88 887.876,1181.88 896.5,1187.5C 896.586,1188.5 896.252,1189.33 895.5,1190C 852.312,1224.36 809.312,1258.86 766.5,1293.5C 749.833,1293.5 733.167,1293.5 716.5,1293.5C 769.167,1251.17 821.833,1208.83 874.5,1166.5 Z"/></g>
<g><path style="opacity:1" fill="#8e5f59" d="M 896.5,1187.5 C 903.167,1191.83 909.833,1196.17 916.5,1200.5C 914.756,1202.75 912.756,1204.92 910.5,1207C 874.312,1235.7 838.312,1264.53 802.5,1293.5C 790.5,1293.5 778.5,1293.5 766.5,1293.5C 809.312,1258.86 852.312,1224.36 895.5,1190C 896.252,1189.33 896.586,1188.5 896.5,1187.5 Z"/></g>
<g><path style="opacity:1" fill="#9f796d" d="M 1122.5,1188.5 C 1129.4,1197.96 1136.07,1207.62 1142.5,1217.5C 1125.57,1231.64 1108.24,1245.3 1090.5,1258.5C 1080.15,1252.33 1070.15,1245.66 1060.5,1238.5C 1081.14,1223.17 1101.47,1207.33 1121.5,1191C 1122.25,1190.33 1122.59,1189.5 1122.5,1188.5 Z"/></g>
<g><path style="opacity:1" fill="#90635c" d="M 916.5,1200.5 C 922.5,1204.5 928.5,1208.5 934.5,1212.5C 901.167,1239.5 867.833,1266.5 834.5,1293.5C 823.833,1293.5 813.167,1293.5 802.5,1293.5C 838.312,1264.53 874.312,1235.7 910.5,1207C 912.756,1204.92 914.756,1202.75 916.5,1200.5 Z"/></g>
<g><path style="opacity:1" fill="#93675f" d="M 934.5,1212.5 C 943.5,1218.5 952.5,1224.5 961.5,1230.5C 936.124,1251.88 910.457,1272.88 884.5,1293.5C 867.833,1293.5 851.167,1293.5 834.5,1293.5C 867.833,1266.5 901.167,1239.5 934.5,1212.5 Z"/></g>
<g><path style="opacity:1" fill="#986f65" d="M 961.5,1230.5 C 971.805,1237.32 982.138,1244.16 992.5,1251C 1000.11,1257.89 1002.61,1266.39 1000,1276.5C 996.985,1285.51 990.818,1291.01 981.5,1293C 949.168,1293.5 916.835,1293.67 884.5,1293.5C 910.457,1272.88 936.124,1251.88 961.5,1230.5 Z"/></g>
</svg>
