<?xml version="1.0" encoding="UTF-8"?>
<!DOCTYPE svg PUBLIC "-//W3C//DTD SVG 1.1//EN" "http://www.w3.org/Graphics/SVG/1.1/DTD/svg11.dtd">
<svg xmlns="http://www.w3.org/2000/svg" version="1.1" width="311px" height="115px" style="shape-rendering:geometricPrecision; text-rendering:geometricPrecision; image-rendering:optimizeQuality; fill-rule:evenodd; clip-rule:evenodd" xmlns:xlink="http://www.w3.org/1999/xlink">
<g><path style="opacity:1" fill="#000000" d="M -0.5,-0.5 C 4.5,-0.5 9.5,-0.5 14.5,-0.5C 14.5,0.166667 14.1667,0.5 13.5,0.5C 8.89694,1.38331 4.23027,1.71664 -0.5,1.5C -0.5,0.833333 -0.5,0.166667 -0.5,-0.5 Z"/></g>
<g><path style="opacity:1" fill="#2a2929" d="M 14.5,-0.5 C 57.8333,-0.5 101.167,-0.5 144.5,-0.5C 143.595,0.964302 143.595,2.29764 144.5,3.5C 80.5419,4.82796 80.5419,5.49462 144.5,5.5C 144.5,5.83333 144.5,6.16667 144.5,6.5C 100.5,6.5 56.5,6.5 12.5,6.5C 12.8039,5.85013 13.1373,5.18346 13.5,4.5C 19.3108,3.95772 24.9775,3.12439 30.5,2C 24.6835,0.656733 19.0168,0.156733 13.5,0.5C 14.1667,0.5 14.5,0.166667 14.5,-0.5 Z"/></g>
<g><path style="opacity:1" fill="#393638" d="M 144.5,-0.5 C 199.833,-0.5 255.167,-0.5 310.5,-0.5C 310.5,1.5 310.5,3.5 310.5,5.5C 308.405,4.58798 306.405,3.42132 304.5,2C 282.685,1.01275 261.018,1.34609 239.5,3C 261.164,3.49996 282.831,3.66663 304.5,3.5C 304.5,4.5 304.5,5.5 304.5,6.5C 251.167,6.5 197.833,6.5 144.5,6.5C 144.5,6.16667 144.5,5.83333 144.5,5.5C 160.5,5.5 176.5,5.5 192.5,5.5C 192.5,4.16667 192.5,2.83333 192.5,1.5C 176.26,0.872037 160.26,1.5387 144.5,3.5C 143.595,2.29764 143.595,0.964302 144.5,-0.5 Z"/></g>
<g><path style="opacity:1" fill="#2c3332" d="M 144.5,5.5 C 80.5419,5.49462 80.5419,4.82796 144.5,3.5C 160.26,1.5387 176.26,0.872037 192.5,1.5C 192.5,2.83333 192.5,4.16667 192.5,5.5C 176.5,5.5 160.5,5.5 144.5,5.5 Z"/></g>
<g><path style="opacity:1" fill="#e5cb6e" d="M 96.5,7.5 C 128.5,7.5 160.5,7.5 192.5,7.5C 207.798,9.48443 223.464,10.1511 239.5,9.5C 260.673,9.16941 281.673,9.50274 302.5,10.5C 226.5,10.5 150.5,10.5 74.5,10.5C 52.1667,10.5 29.8333,10.5 7.5,10.5C 37.1803,9.93412 66.847,8.93412 96.5,7.5 Z"/></g>
<g><path style="opacity:1" fill="#efec68" d="M 239.5,9.5 C 260.994,8.50265 282.66,8.16932 304.5,8.5C 304.667,22.1707 304.5,35.8374 304,49.5C 303.831,36.3269 303.331,23.3269 302.5,10.5C 281.673,9.50274 260.673,9.16941 239.5,9.5 Z"/></g>
<g><path style="opacity:1" fill="#3a3a34" d="M 310.5,5.5 C 310.5,38.8333 310.5,72.1667 310.5,105.5C 309.926,107.788 308.926,109.955 307.5,112C 303.347,112.04 299.347,111.54 295.5,110.5C 299.555,110.824 303.555,110.491 307.5,109.5C 307.931,108.707 308.265,107.873 308.5,107C 307.173,73.958 307.173,40.958 308.5,8C 307.437,6.81181 306.103,6.31181 304.5,6.5C 304.5,5.5 304.5,4.5 304.5,3.5C 282.831,3.66663 261.164,3.49996 239.5,3C 261.018,1.34609 282.685,1.01275 304.5,2C 306.405,3.42132 308.405,4.58798 310.5,5.5 Z"/></g>
<g><path style="opacity:1" fill="#3f380a" d="M 74.5,11.5 C 74.5,11.1667 74.5,10.8333 74.5,10.5C 150.5,10.5 226.5,10.5 302.5,10.5C 302.5,11.1667 302.5,11.8333 302.5,12.5C 302.167,12.5 301.833,12.5 301.5,12.5C 228.002,11.5008 154.335,11.1674 80.5,11.5C 78.5,11.5 76.5,11.5 74.5,11.5 Z"/></g>
<g><path style="opacity:1" fill="#22221f" d="M 13.5,0.5 C 19.0168,0.156733 24.6835,0.656733 30.5,2C 24.9775,3.12439 19.3108,3.95772 13.5,4.5C 13.1373,5.18346 12.8039,5.85013 12.5,6.5C 10.2646,6.20528 8.26465,6.53862 6.5,7.5C 5.83333,7.5 5.16667,7.5 4.5,7.5C 4.16667,7.5 3.83333,7.5 3.5,7.5C 2.32496,7.28099 1.32496,7.61432 0.5,8.5C 1.09826,9.79457 1.59826,11.1279 2,12.5C 2.16757,44.6693 2.66757,76.6693 3.5,108.5C 4.0483,111.084 5.71497,112.084 8.5,111.5C 8.5,112.5 8.5,113.5 8.5,114.5C 5.5,114.5 2.5,114.5 -0.5,114.5C -0.5,76.8333 -0.5,39.1667 -0.5,1.5C 4.23027,1.71664 8.89694,1.38331 13.5,0.5 Z"/></g>
<g><path style="opacity:1" fill="#38363b" d="M 169.5,12.5 C 210.501,12.3333 251.501,12.5 292.5,13C 296.19,13.4244 296.357,14.2577 293,15.5C 292.833,16.8333 292.667,18.1667 292.5,19.5C 293.358,27.1424 293.692,34.809 293.5,42.5C 291.473,42.6621 289.473,42.4955 287.5,42C 288.416,41.6258 289.25,41.1258 290,40.5C 290.5,34.1754 290.666,27.8421 290.5,21.5C 275.5,21.5 260.5,21.5 245.5,21.5C 234.966,20.5627 225.299,20.5627 216.5,21.5C 207.606,22.2599 199.772,22.5932 193,22.5C 168.887,21.8586 144.72,21.0253 120.5,20C 134.328,19.3474 148.161,18.8474 162,18.5C 193.492,19.0689 224.992,19.0689 256.5,18.5C 267.172,18.6665 277.839,18.4998 288.5,18C 289.308,17.6924 289.975,17.1924 290.5,16.5C 240.504,15.5001 190.504,15.1667 140.5,15.5C 178.998,14.6674 217.665,14.1674 256.5,14C 227.33,13.8323 198.33,13.3323 169.5,12.5 Z"/></g>
<g><path style="opacity:1" fill="#2f2e36" d="M 112.5,12.5 C 131.5,12.5 150.5,12.5 169.5,12.5C 198.33,13.3323 227.33,13.8323 256.5,14C 217.665,14.1674 178.998,14.6674 140.5,15.5C 136.5,15.5 132.5,15.5 128.5,15.5C 112.497,15.6666 96.4965,15.4999 80.5,15C 79.944,14.6174 79.6107,14.1174 79.5,13.5C 90.6794,13.8279 101.679,13.4946 112.5,12.5 Z"/></g>
<g><path style="opacity:1" fill="#272529" d="M 64.5,13.5 C 64.4148,14.9953 65.0815,15.9953 66.5,16.5C 70.2389,15.0924 73.9056,15.2591 77.5,17C 74.7485,18.7508 71.7485,19.5842 68.5,19.5C 66.7376,19.3573 65.0709,19.6906 63.5,20.5C 62.5481,18.9547 62.2148,17.288 62.5,15.5C 55.7943,15.4477 49.1276,15.9477 42.5,17C 41.6634,18.0113 41.33,19.1779 41.5,20.5C 41.5,21.1667 41.1667,21.5 40.5,21.5C 34.5891,22.7921 28.5891,23.6254 22.5,24C 21.0611,24.9906 20.0611,26.324 19.5,28C 18.552,28.4828 17.552,28.6495 16.5,28.5C 14.3954,24.4302 14.0621,20.0969 15.5,15.5C 16.4287,16.6888 16.762,18.0222 16.5,19.5C 24.0465,19.9735 31.3799,18.9735 38.5,16.5C 32.5,15.8333 26.5,15.1667 20.5,14.5C 35.199,12.4021 49.8656,12.0688 64.5,13.5 Z"/></g>
<g><path style="opacity:1" fill="#33372f" d="M 128.5,15.5 C 132.5,15.5 136.5,15.5 140.5,15.5C 190.504,15.1667 240.504,15.5001 290.5,16.5C 289.975,17.1924 289.308,17.6924 288.5,18C 277.839,18.4998 267.172,18.6665 256.5,18.5C 211.67,17.5013 166.67,17.1679 121.5,17.5C 123.833,16.8333 126.167,16.1667 128.5,15.5 Z"/></g>
<g><path style="opacity:1" fill="#312a1a" d="M 68.5,19.5 C 70.6223,22.6333 73.289,24.9666 76.5,26.5C 68.4262,24.031 60.4262,21.3643 52.5,18.5C 52.2648,17.9033 51.7648,17.5699 51,17.5C 48.0829,19.1895 44.9162,20.1895 41.5,20.5C 41.33,19.1779 41.6634,18.0113 42.5,17C 49.1276,15.9477 55.7943,15.4477 62.5,15.5C 62.2148,17.288 62.5481,18.9547 63.5,20.5C 65.0709,19.6906 66.7376,19.3573 68.5,19.5 Z"/></g>
<g><path style="opacity:1" fill="#363534" d="M 245.5,21.5 C 244.391,22.29 243.058,22.79 241.5,23C 246.677,24.6254 251.844,24.7921 257,23.5C 259.106,25.291 261.606,25.9577 264.5,25.5C 264.5,28.1667 264.5,30.8333 264.5,33.5C 267.167,33.5 269.833,33.5 272.5,33.5C 272.5,35.8333 272.5,38.1667 272.5,40.5C 271.209,40.2627 270.209,40.596 269.5,41.5C 267.656,42.1603 265.99,43.1603 264.5,44.5C 260.733,42.9483 256.733,42.2816 252.5,42.5C 249.314,42.502 246.314,42.8353 243.5,43.5C 243.167,43.5 242.833,43.5 242.5,43.5C 240.492,44.3007 239.992,45.634 241,47.5C 239.309,44.6411 236.809,43.3077 233.5,43.5C 232.922,41.6198 231.588,40.6198 229.5,40.5C 226.215,41.7065 222.882,42.7065 219.5,43.5C 217.216,42.584 216.049,43.584 216,46.5C 215.617,45.944 215.117,45.6107 214.5,45.5C 214.672,44.5084 214.338,43.8417 213.5,43.5C 206.167,43.5 198.833,43.5 191.5,43.5C 191.167,43.5 190.833,43.5 190.5,43.5C 189.5,43.5 188.5,43.5 187.5,43.5C 185.5,43.5 183.5,43.5 181.5,43.5C 181.5,53.1667 181.5,62.8333 181.5,72.5C 180.671,65.3448 180.171,58.0115 180,50.5C 178.844,51.9928 178.01,51.8261 177.5,50C 178.606,48.1178 178.606,46.2844 177.5,44.5C 176.824,45.6016 176.158,46.6016 175.5,47.5C 174.263,46.0351 173.263,44.3684 172.5,42.5C 173.467,41.1938 174.801,40.5271 176.5,40.5C 176.5,38.1667 176.5,35.8333 176.5,33.5C 175.5,33.5 174.5,33.5 173.5,33.5C 173.5,30.1667 173.5,26.8333 173.5,23.5C 188.206,24.1495 202.539,23.4828 216.5,21.5C 225.299,20.5627 234.966,20.5627 245.5,21.5 Z"/></g>
<g><path style="opacity:1" fill="#2f2e2e" d="M 121.5,17.5 C 166.67,17.1679 211.67,17.5013 256.5,18.5C 224.992,19.0689 193.492,19.0689 162,18.5C 148.161,18.8474 134.328,19.3474 120.5,20C 144.72,21.0253 168.887,21.8586 193,22.5C 199.772,22.5932 207.606,22.2599 216.5,21.5C 202.539,23.4828 188.206,24.1495 173.5,23.5C 173.5,26.8333 173.5,30.1667 173.5,33.5C 174.5,33.5 175.5,33.5 176.5,33.5C 176.5,35.8333 176.5,38.1667 176.5,40.5C 174.801,40.5271 173.467,41.1938 172.5,42.5C 166.407,42.1392 160.407,42.6392 154.5,44C 153.177,44.8159 152.511,45.9826 152.5,47.5C 151.167,47.5 149.833,47.5 148.5,47.5C 148.715,45.8212 148.048,44.8212 146.5,44.5C 139.687,43.5088 132.687,43.1755 125.5,43.5C 125.167,43.5 124.833,43.5 124.5,43.5C 123.778,43.9175 123.278,44.5842 123,45.5C 122.667,48.8333 122.333,52.1667 122,55.5C 118.882,58.0704 117.715,61.4037 118.5,65.5C 115.5,65.5 112.5,65.5 109.5,65.5C 109.666,58.4921 109.5,51.4921 109,44.5C 108.617,43.944 108.117,43.6107 107.5,43.5C 107.167,43.5 106.833,43.5 106.5,43.5C 105.924,37.4721 105.424,31.4721 105,25.5C 106.667,25.8333 108.333,26.1667 110,26.5C 110.75,25.8742 111.584,25.3742 112.5,25C 102.266,23.3828 91.9325,23.0495 81.5,24C 80.1667,27.3333 78.8333,27.3333 77.5,24C 75.6161,23.7837 73.9494,23.117 72.5,22C 89.8151,20.9242 106.148,19.4242 121.5,17.5 Z"/></g>
<g><path style="opacity:1" fill="#3a3834" d="M 80.5,11.5 C 154.335,11.1674 228.002,11.5008 301.5,12.5C 301.5,14.1667 301.5,15.8333 301.5,17.5C 299.41,17.4501 298.077,18.4501 297.5,20.5C 297.385,23.3917 297.719,26.3917 298.5,29.5C 298.366,35.5939 297.366,41.2606 295.5,46.5C 295.737,45.209 295.404,44.209 294.5,43.5C 291.753,43.1866 289.086,43.52 286.5,44.5C 285.408,47.0237 284.074,49.357 282.5,51.5C 282.189,52.4778 281.522,53.1445 280.5,53.5C 279.237,51.9713 278.237,50.3046 277.5,48.5C 277.66,46.8008 277.494,45.1341 277,43.5C 276.667,43.8333 276.333,44.1667 276,44.5C 274.174,42.8346 272.007,41.8346 269.5,41.5C 270.209,40.596 271.209,40.2627 272.5,40.5C 272.5,38.1667 272.5,35.8333 272.5,33.5C 269.833,33.5 267.167,33.5 264.5,33.5C 264.5,30.8333 264.5,28.1667 264.5,25.5C 261.606,25.9577 259.106,25.291 257,23.5C 251.844,24.7921 246.677,24.6254 241.5,23C 243.058,22.79 244.391,22.29 245.5,21.5C 260.5,21.5 275.5,21.5 290.5,21.5C 290.666,27.8421 290.5,34.1754 290,40.5C 289.25,41.1258 288.416,41.6258 287.5,42C 289.473,42.4955 291.473,42.6621 293.5,42.5C 293.692,34.809 293.358,27.1424 292.5,19.5C 292.667,18.1667 292.833,16.8333 293,15.5C 296.357,14.2577 296.19,13.4244 292.5,13C 251.501,12.5 210.501,12.3333 169.5,12.5C 150.5,12.5 131.5,12.5 112.5,12.5C 101.654,12.8278 90.9869,12.4944 80.5,11.5 Z"/></g>
<g><path style="opacity:1" fill="#2c2013" d="M 3.5,7.5 C 3.5,41.1667 3.5,74.8333 3.5,108.5C 2.66757,76.6693 2.16757,44.6693 2,12.5C 1.59826,11.1279 1.09826,9.79457 0.5,8.5C 1.32496,7.61432 2.32496,7.28099 3.5,7.5 Z"/></g>
<g><path style="opacity:1" fill="#26231f" d="M 74.5,11.5 C 76.5,11.5 78.5,11.5 80.5,11.5C 90.9869,12.4944 101.654,12.8278 112.5,12.5C 101.679,13.4946 90.6794,13.8279 79.5,13.5C 74.5,13.5 69.5,13.5 64.5,13.5C 49.8656,12.0688 35.199,12.4021 20.5,14.5C 26.5,15.1667 32.5,15.8333 38.5,16.5C 31.3799,18.9735 24.0465,19.9735 16.5,19.5C 16.762,18.0222 16.4287,16.6888 15.5,15.5C 14.0621,20.0969 14.3954,24.4302 16.5,28.5C 14.9864,38.5763 15.4864,48.5763 18,58.5C 18.3826,59.056 18.8826,59.3893 19.5,59.5C 20.2474,62.8994 21.2474,66.2328 22.5,69.5C 20.295,73.4097 17.9617,77.243 15.5,81C 15.8333,82.1667 16.1667,83.3333 16.5,84.5C 18.5902,83.2092 19.9236,83.8758 20.5,86.5C 19.147,87.6853 17.9803,89.0186 17,90.5C 16.5008,95.1548 16.3342,99.8215 16.5,104.5C 15.1667,104.5 13.8333,104.5 12.5,104.5C 12.6666,78.4979 12.5,52.4979 12,26.5C 11.586,26.0426 11.086,25.7093 10.5,25.5C 9.50021,51.8249 9.16688,78.1582 9.5,104.5C 8.17119,73.9607 8.17119,43.2941 9.5,12.5C 31.1984,11.702 52.8651,11.3687 74.5,11.5 Z"/></g>
<g><path style="opacity:1" fill="#443211" d="M 50.5,20.5 C 50.5,25.8333 50.5,31.1667 50.5,36.5C 50.1667,36.5 49.8333,36.5 49.5,36.5C 49.5,31.8333 49.5,27.1667 49.5,22.5C 44.1965,24.0475 38.8632,25.3808 33.5,26.5C 38.9416,24.1289 44.6082,22.1289 50.5,20.5 Z"/></g>
<g><path style="opacity:1" fill="#27272c" d="M 77.5,31.5 C 78.4916,31.3284 79.1583,31.6618 79.5,32.5C 76.642,34.6706 73.3086,36.0039 69.5,36.5C 72.5456,37.3753 75.5456,38.3753 78.5,39.5C 79.1667,39.1667 79.8333,38.8333 80.5,38.5C 79.1667,37.8333 77.8333,37.1667 76.5,36.5C 78.9542,35.1135 80.9542,35.6135 82.5,38C 81.8729,40.1351 81.3729,42.3018 81,44.5C 80.8287,43.1057 80.3287,42.2723 79.5,42C 79.3379,46.095 77.5046,49.2616 74,51.5C 72.8799,48.0006 73.7132,45.1672 76.5,43C 73.2373,41.7741 69.904,40.6075 66.5,39.5C 65.3279,39.9186 64.3279,40.5853 63.5,41.5C 61.2778,37.288 60.1112,37.6213 60,42.5C 59.5006,36.8431 59.3339,31.1764 59.5,25.5C 60.5,25.5 61.5,25.5 62.5,25.5C 62.0949,29.0479 62.5949,32.3812 64,35.5C 68.3859,33.9134 72.8859,32.5801 77.5,31.5 Z"/></g>
<g><path style="opacity:1" fill="#332814" d="M 40.5,21.5 C 32.5717,24.1132 24.7384,27.1132 17,30.5C 16.3333,35.8333 16.3333,41.1667 17,46.5C 18.2645,50.7543 19.0978,55.0876 19.5,59.5C 18.8826,59.3893 18.3826,59.056 18,58.5C 15.4864,48.5763 14.9864,38.5763 16.5,28.5C 17.552,28.6495 18.552,28.4828 19.5,28C 20.0611,26.324 21.0611,24.9906 22.5,24C 28.5891,23.6254 34.5891,22.7921 40.5,21.5 Z"/></g>
<g><path style="opacity:1" fill="#262424" d="M 49.5,36.5 C 49.5,36.8333 49.5,37.1667 49.5,37.5C 46.4546,38.5452 44.4546,40.5452 43.5,43.5C 41.396,43.2011 39.396,43.5344 37.5,44.5C 38.2427,45.1818 38.9094,45.8485 39.5,46.5C 36.2516,46.2382 33.2516,46.2382 30.5,46.5C 29.1751,47.9526 28.3418,47.6192 28,45.5C 27.5,47 27,48.5 26.5,50C 28.4593,52.2936 28.7926,54.7936 27.5,57.5C 26.0994,52.5613 24.7661,47.5613 23.5,42.5C 22.8332,47.6511 22.1665,52.6511 21.5,57.5C 21.366,51.8249 21.0326,46.1582 20.5,40.5C 20.3186,36.9349 20.9852,33.6016 22.5,30.5C 25.9385,28.7957 29.6052,27.4624 33.5,26.5C 38.8632,25.3808 44.1965,24.0475 49.5,22.5C 49.5,27.1667 49.5,31.8333 49.5,36.5 Z"/></g>
<g><path style="opacity:1" fill="#383114" d="M 84.5,29.5 C 85.5,29.5 86.5,29.5 87.5,29.5C 88.0276,41.3395 86.8609,53.0061 84,64.5C 83.3292,65.2524 82.4959,65.5858 81.5,65.5C 85.5032,53.5427 86.5032,41.5427 84.5,29.5 Z"/></g>
<g><path style="opacity:1" fill="#e3dc6f" d="M 192.5,7.5 C 230.167,7.5 267.833,7.5 305.5,7.5C 305.832,40.6709 305.498,73.6709 304.5,106.5C 304.667,88.8302 304.5,71.1635 304,53.5C 303.832,71.0048 303.332,88.3382 302.5,105.5C 302.5,74.5 302.5,43.5 302.5,12.5C 302.5,11.8333 302.5,11.1667 302.5,10.5C 303.331,23.3269 303.831,36.3269 304,49.5C 304.5,35.8374 304.667,22.1707 304.5,8.5C 282.66,8.16932 260.994,8.50265 239.5,9.5C 223.464,10.1511 207.798,9.48443 192.5,7.5 Z"/></g>
<g><path style="opacity:1" fill="#c8b670" d="M 49.5,36.5 C 49.8333,36.5 50.1667,36.5 50.5,36.5C 51.1667,37.8333 51.8333,37.8333 52.5,36.5C 53.7368,37.9649 54.7368,39.6316 55.5,41.5C 56.7401,42.973 57.7401,44.6396 58.5,46.5C 63.0458,47.3366 67.3791,48.67 71.5,50.5C 69.1833,53.3174 66.6833,55.9841 64,58.5C 63.1901,62.3575 63.3567,66.0242 64.5,69.5C 64.5,70.8333 64.5,72.1667 64.5,73.5C 61.2084,73.3531 58.2084,72.3531 55.5,70.5C 55.5,69.8333 55.1667,69.5 54.5,69.5C 54.5,68.8333 54.8333,68.5 55.5,68.5C 57.1379,69.1589 58.8045,69.8256 60.5,70.5C 61.4909,66.5546 61.8242,62.5546 61.5,58.5C 63.967,56.1971 66.3003,53.6971 68.5,51C 64.4207,50.0618 60.4207,48.8952 56.5,47.5C 52.4301,36.8451 49.0968,37.1784 46.5,48.5C 42.494,49.2221 38.494,50.0555 34.5,51C 36.2932,53.7953 38.4598,56.2953 41,58.5C 41.8007,61.367 41.6341,64.0336 40.5,66.5C 40.5,65.8333 40.1667,65.5 39.5,65.5C 39.7947,63.2646 39.4614,61.2646 38.5,59.5C 36.5967,56.2515 34.2634,53.2515 31.5,50.5C 32.714,48.9309 34.3807,48.0976 36.5,48C 39.146,47.5026 41.8127,47.3359 44.5,47.5C 45.6205,43.9256 47.2872,40.5922 49.5,37.5C 49.5,37.1667 49.5,36.8333 49.5,36.5 Z"/></g>
<g><path style="opacity:1" fill="#352b19" d="M 49.5,37.5 C 47.2872,40.5922 45.6205,43.9256 44.5,47.5C 41.8127,47.3359 39.146,47.5026 36.5,48C 34.3807,48.0976 32.714,48.9309 31.5,50.5C 34.2634,53.2515 36.5967,56.2515 38.5,59.5C 38.1667,59.5 37.8333,59.5 37.5,59.5C 36.5,59.5 35.5,59.5 34.5,59.5C 34.5499,57.4099 33.5499,56.0766 31.5,55.5C 30.5159,52.5719 30.1826,49.5719 30.5,46.5C 33.2516,46.2382 36.2516,46.2382 39.5,46.5C 40.8333,46.5 42.1667,46.5 43.5,46.5C 43.5,45.5 43.5,44.5 43.5,43.5C 44.4546,40.5452 46.4546,38.5452 49.5,37.5 Z"/></g>
<g><path style="opacity:1" fill="#e1af60" d="M 4.5,7.5 C 5.16667,7.5 5.83333,7.5 6.5,7.5C 36.5,7.5 66.5,7.5 96.5,7.5C 66.847,8.93412 37.1803,9.93412 7.5,10.5C 7.5,42.1667 7.5,73.8333 7.5,105.5C 37.1667,105.5 66.8333,105.5 96.5,105.5C 96.5,106.167 96.5,106.833 96.5,107.5C 65.6094,108.147 34.9427,107.48 4.5,105.5C 4.5,72.8333 4.5,40.1667 4.5,7.5 Z"/></g>
<g><path style="opacity:1" fill="#3c3a14" d="M 75.5,28.5 C 78.1381,29.4916 80.8048,30.4916 83.5,31.5C 84.4673,39.7314 83.8006,47.7314 81.5,55.5C 81.3426,49.5745 82.0092,43.7411 83.5,38C 82.401,35.9639 81.0677,34.1305 79.5,32.5C 79.1583,31.6618 78.4916,31.3284 77.5,31.5C 76.4489,30.7777 75.7822,29.7777 75.5,28.5 Z"/></g>
<g><path style="opacity:1" fill="#433a23" d="M 233.5,43.5 C 228.63,43.0316 223.964,43.6982 219.5,45.5C 215.884,49.1595 215.551,53.1595 218.5,57.5C 216.386,56.216 215.386,54.216 215.5,51.5C 215.672,50.5084 215.338,49.8417 214.5,49.5C 214.5,48.1667 214.5,46.8333 214.5,45.5C 215.117,45.6107 215.617,45.944 216,46.5C 216.049,43.584 217.216,42.584 219.5,43.5C 222.882,42.7065 226.215,41.7065 229.5,40.5C 231.588,40.6198 232.922,41.6198 233.5,43.5 Z"/></g>
<g><path style="opacity:1" fill="#452b15" d="M 22.5,30.5 C 20.9852,33.6016 20.3186,36.9349 20.5,40.5C 21.0326,46.1582 21.366,51.8249 21.5,57.5C 19.3637,49.0409 18.697,40.3743 19.5,31.5C 20.4168,30.8728 21.4168,30.5394 22.5,30.5 Z"/></g>
<g><path style="opacity:1" fill="#2e1d31" d="M 43.5,43.5 C 43.5,44.5 43.5,45.5 43.5,46.5C 42.1667,46.5 40.8333,46.5 39.5,46.5C 38.9094,45.8485 38.2427,45.1818 37.5,44.5C 39.396,43.5344 41.396,43.2011 43.5,43.5 Z"/></g>
<g><path style="opacity:1" fill="#352b17" d="M 61.5,58.5 C 61.2155,56.5853 61.5489,54.9187 62.5,53.5C 63.9953,53.5852 64.9953,52.9185 65.5,51.5C 59.5441,51.2623 54.3774,49.2623 50,45.5C 49.5,46.6667 48.6667,47.5 47.5,48C 48.448,48.4828 49.448,48.6495 50.5,48.5C 50.5,50.1667 50.5,51.8333 50.5,53.5C 49.5,53.5 48.5,53.5 47.5,53.5C 47.5,52.1667 47.5,50.8333 47.5,49.5C 44.0949,49.5119 41.9283,51.1785 41,54.5C 40.8119,56.0613 41.6453,56.728 43.5,56.5C 43.5,57.5 43.5,58.5 43.5,59.5C 43.5,62.1667 43.5,64.8333 43.5,67.5C 44.8333,67.5 46.1667,67.5 47.5,67.5C 45.6048,69.0983 43.4381,70.4316 41,71.5C 40.5065,69.8659 40.3398,68.1992 40.5,66.5C 41.6341,64.0336 41.8007,61.367 41,58.5C 38.4598,56.2953 36.2932,53.7953 34.5,51C 38.494,50.0555 42.494,49.2221 46.5,48.5C 49.0968,37.1784 52.4301,36.8451 56.5,47.5C 60.4207,48.8952 64.4207,50.0618 68.5,51C 66.3003,53.6971 63.967,56.1971 61.5,58.5 Z"/></g>
<g><path style="opacity:1" fill="#453d1c" d="M 269.5,41.5 C 272.007,41.8346 274.174,42.8346 276,44.5C 276.333,44.1667 276.667,43.8333 277,43.5C 277.494,45.1341 277.66,46.8008 277.5,48.5C 276.512,47.205 275.512,45.8717 274.5,44.5C 272.307,43.2031 269.973,43.2031 267.5,44.5C 268.035,46.261 269.035,47.5943 270.5,48.5C 270.5,49.1667 270.5,49.8333 270.5,50.5C 269.518,49.8592 268.518,49.1925 267.5,48.5C 266.702,48.9569 266.369,49.6236 266.5,50.5C 265.407,48.6508 264.074,46.9842 262.5,45.5C 261.609,44.8902 260.609,44.5569 259.5,44.5C 254.36,43.5119 249.026,43.1786 243.5,43.5C 246.314,42.8353 249.314,42.502 252.5,42.5C 256.733,42.2816 260.733,42.9483 264.5,44.5C 265.99,43.1603 267.656,42.1603 269.5,41.5 Z"/></g>
<g><path style="opacity:1" fill="#ccc676" d="M 274.5,44.5 C 273.167,44.5 271.833,44.5 270.5,44.5C 270.5,45.8333 270.5,47.1667 270.5,48.5C 269.035,47.5943 268.035,46.261 267.5,44.5C 269.973,43.2031 272.307,43.2031 274.5,44.5 Z"/></g>
<g><path style="opacity:1" fill="#3b3311" d="M 55.5,41.5 C 57.922,42.0852 59.5887,43.5852 60.5,46C 62.235,46.6514 63.9017,46.4847 65.5,45.5C 67.5225,47.1733 69.8559,47.8399 72.5,47.5C 72.5,49.8333 72.5,52.1667 72.5,54.5C 65.0537,56.6888 62.387,61.6888 64.5,69.5C 63.3567,66.0242 63.1901,62.3575 64,58.5C 66.6833,55.9841 69.1833,53.3174 71.5,50.5C 67.3791,48.67 63.0458,47.3366 58.5,46.5C 57.7401,44.6396 56.7401,42.973 55.5,41.5 Z"/></g>
<g><path style="opacity:1" fill="#eacb65" d="M 191.5,43.5 C 198.833,43.5 206.167,43.5 213.5,43.5C 213.5,43.8333 213.5,44.1667 213.5,44.5C 209.154,44.3343 204.821,44.501 200.5,45C 198.627,45.9529 198.294,47.1196 199.5,48.5C 196.833,48.5 194.167,48.5 191.5,48.5C 191.5,46.8333 191.5,45.1667 191.5,43.5 Z"/></g>
<g><path style="opacity:1" fill="#f8d759" d="M 213.5,44.5 C 213.5,45.8333 213.5,47.1667 213.5,48.5C 210.615,48.1936 207.948,48.5269 205.5,49.5C 203.5,49.5 201.5,49.5 199.5,49.5C 199.5,49.1667 199.5,48.8333 199.5,48.5C 198.294,47.1196 198.627,45.9529 200.5,45C 204.821,44.501 209.154,44.3343 213.5,44.5 Z"/></g>
<g><path style="opacity:1" fill="#eff157" d="M 292.5,46.5 C 292.167,47.5 291.5,48.1667 290.5,48.5C 289.5,48.5 288.5,48.5 287.5,48.5C 287.5,47.1667 287.5,45.8333 287.5,44.5C 289.781,44.0773 291.448,44.744 292.5,46.5 Z"/></g>
<g><path style="opacity:1" fill="#4d471e" d="M 294.5,43.5 C 295.404,44.209 295.737,45.209 295.5,46.5C 294.5,46.8333 293.833,47.5 293.5,48.5C 292.333,50.0414 291,51.3748 289.5,52.5C 289.833,51.1667 290.167,49.8333 290.5,48.5C 291.5,48.1667 292.167,47.5 292.5,46.5C 293.401,45.7095 294.068,44.7095 294.5,43.5 Z"/></g>
<g><path style="opacity:1" fill="#e5cc76" d="M 187.5,43.5 C 187.5,53.1667 187.5,62.8333 187.5,72.5C 185.5,72.5 183.5,72.5 181.5,72.5C 181.5,62.8333 181.5,53.1667 181.5,43.5C 183.5,43.5 185.5,43.5 187.5,43.5 Z"/></g>
<g><path style="opacity:1" fill="#ddd76a" d="M 294.5,43.5 C 294.068,44.7095 293.401,45.7095 292.5,46.5C 291.448,44.744 289.781,44.0773 287.5,44.5C 287.5,45.8333 287.5,47.1667 287.5,48.5C 288.5,48.5 289.5,48.5 290.5,48.5C 290.167,49.8333 289.833,51.1667 289.5,52.5C 288.833,53.1667 288.167,53.8333 287.5,54.5C 287.819,52.2495 287.319,50.2495 286,48.5C 285.578,50.4257 284.411,51.4257 282.5,51.5C 284.074,49.357 285.408,47.0237 286.5,44.5C 289.086,43.52 291.753,43.1866 294.5,43.5 Z"/></g>
<g><path style="opacity:1" fill="#817332" d="M 190.5,43.5 C 190.833,43.5 191.167,43.5 191.5,43.5C 191.5,45.1667 191.5,46.8333 191.5,48.5C 194.167,48.5 196.833,48.5 199.5,48.5C 199.5,48.8333 199.5,49.1667 199.5,49.5C 199.5,57.1667 199.5,64.8333 199.5,72.5C 198.508,65.0182 198.175,57.3516 198.5,49.5C 195.833,49.5 193.167,49.5 190.5,49.5C 190.5,47.5 190.5,45.5 190.5,43.5 Z"/></g>
<g><path style="opacity:1" fill="#8b793b" d="M 213.5,43.5 C 214.338,43.8417 214.672,44.5084 214.5,45.5C 214.5,46.8333 214.5,48.1667 214.5,49.5C 211.833,49.5 209.167,49.5 206.5,49.5C 206.825,57.3516 206.492,65.0182 205.5,72.5C 205.5,64.8333 205.5,57.1667 205.5,49.5C 207.948,48.5269 210.615,48.1936 213.5,48.5C 213.5,47.1667 213.5,45.8333 213.5,44.5C 213.5,44.1667 213.5,43.8333 213.5,43.5 Z"/></g>
<g><path style="opacity:1" fill="#221f29" d="M 12.5,104.5 C 11.5,104.5 10.5,104.5 9.5,104.5C 9.16688,78.1582 9.50021,51.8249 10.5,25.5C 11.086,25.7093 11.586,26.0426 12,26.5C 12.5,52.4979 12.6666,78.4979 12.5,104.5 Z"/></g>
<g><path style="opacity:1" fill="#27232c" d="M 62.5,53.5 C 61.6661,52.2521 60.3328,51.5854 58.5,51.5C 53.2709,51.3848 52.4376,53.0515 56,56.5C 56.7494,57.635 56.5827,58.635 55.5,59.5C 54.452,58.6171 53.2853,57.9504 52,57.5C 49.3612,58.9944 46.5279,59.6611 43.5,59.5C 43.5,58.5 43.5,57.5 43.5,56.5C 41.6453,56.728 40.8119,56.0613 41,54.5C 41.9283,51.1785 44.0949,49.5119 47.5,49.5C 47.5,50.8333 47.5,52.1667 47.5,53.5C 48.5,53.5 49.5,53.5 50.5,53.5C 50.5,51.8333 50.5,50.1667 50.5,48.5C 49.448,48.6495 48.448,48.4828 47.5,48C 48.6667,47.5 49.5,46.6667 50,45.5C 54.3774,49.2623 59.5441,51.2623 65.5,51.5C 64.9953,52.9185 63.9953,53.5852 62.5,53.5 Z"/></g>
<g><path style="opacity:1" fill="#24251e" d="M 30.5,46.5 C 30.1826,49.5719 30.5159,52.5719 31.5,55.5C 33.5499,56.0766 34.5499,57.4099 34.5,59.5C 35.5,59.5 36.5,59.5 37.5,59.5C 36.6091,60.2613 35.9424,61.2613 35.5,62.5C 36.3464,66.1178 36.6797,69.7845 36.5,73.5C 35.325,73.719 34.325,73.3857 33.5,72.5C 34.3742,70.2534 34.7076,67.9201 34.5,65.5C 33.1779,65.33 32.0113,65.6634 31,66.5C 30.6667,64.1667 30.3333,61.8333 30,59.5C 29.1072,58.2888 28.2739,58.2888 27.5,59.5C 26.2606,61.3115 25.5939,63.3115 25.5,65.5C 27.1823,67.1703 27.849,69.837 27.5,73.5C 24.14,68.7628 22.14,63.4295 21.5,57.5C 22.1665,52.6511 22.8332,47.6511 23.5,42.5C 24.7661,47.5613 26.0994,52.5613 27.5,57.5C 28.7926,54.7936 28.4593,52.2936 26.5,50C 27,48.5 27.5,47 28,45.5C 28.3418,47.6192 29.1751,47.9526 30.5,46.5 Z"/></g>
<g><path style="opacity:1" fill="#d1af68" d="M 125.5,43.5 C 132.687,43.1755 139.687,43.5088 146.5,44.5C 146.5,46.1667 146.5,47.8333 146.5,49.5C 141.5,49.5 136.5,49.5 131.5,49.5C 131.918,48.7784 132.584,48.2784 133.5,48C 137.152,47.5014 140.818,47.3347 144.5,47.5C 144.5,46.5 144.5,45.5 144.5,44.5C 138.824,44.3339 133.157,44.5006 127.5,45C 126.167,53.6667 126.167,62.3333 127.5,71C 133.491,71.4995 139.491,71.6662 145.5,71.5C 145.5,70.1667 145.5,68.8333 145.5,67.5C 140.637,67.8195 135.97,67.4861 131.5,66.5C 136.5,66.5 141.5,66.5 146.5,66.5C 146.5,68.5 146.5,70.5 146.5,72.5C 139.5,72.5 132.5,72.5 125.5,72.5C 125.5,62.8333 125.5,53.1667 125.5,43.5 Z"/></g>
<g><path style="opacity:1" fill="#4a4118" d="M 232.5,51.5 C 230.844,50.8535 229.177,50.1869 227.5,49.5C 226.263,49.5565 225.263,50.0565 224.5,51C 227.099,52.795 229.766,54.295 232.5,55.5C 228.306,55.6141 224.973,54.1141 222.5,51C 222.645,50.228 222.978,49.5613 223.5,49C 226.167,48.3333 228.833,48.3333 231.5,49C 232.252,49.6708 232.586,50.5041 232.5,51.5 Z"/></g>
<g><path style="opacity:1" fill="#bfb374" d="M 237.5,48.5 C 238.434,49.5676 238.768,50.901 238.5,52.5C 236.265,52.7947 234.265,52.4614 232.5,51.5C 234.167,51.5 235.833,51.5 237.5,51.5C 237.5,50.5 237.5,49.5 237.5,48.5 Z"/></g>
<g><path style="opacity:1" fill="#cac873" d="M 52.5,18.5 C 60.4262,21.3643 68.4262,24.031 76.5,26.5C 78.936,27.871 81.6027,28.871 84.5,29.5C 86.5032,41.5427 85.5032,53.5427 81.5,65.5C 81.5,66.1667 81.5,66.8333 81.5,67.5C 79.1384,71.2303 77.1384,75.2303 75.5,79.5C 72.5285,82.8076 69.5285,86.141 66.5,89.5C 62.326,92.0877 57.9926,94.421 53.5,96.5C 53.5,96.1667 53.5,95.8333 53.5,95.5C 54.3065,94.2719 55.3065,93.2719 56.5,92.5C 62.264,90.2783 66.9307,86.6116 70.5,81.5C 75.0756,76.3489 78.0756,70.3489 79.5,63.5C 81.2227,61.22 81.8893,58.5533 81.5,55.5C 83.8006,47.7314 84.4673,39.7314 83.5,31.5C 80.8048,30.4916 78.1381,29.4916 75.5,28.5C 68.1137,26.0373 60.7804,23.3707 53.5,20.5C 52.5052,25.7921 52.1718,31.1254 52.5,36.5C 51.8333,37.8333 51.1667,37.8333 50.5,36.5C 50.5,31.1667 50.5,25.8333 50.5,20.5C 50.5,19.1667 51.1667,18.5 52.5,18.5 Z"/></g>
<g><path style="opacity:1" fill="#3e331b" d="M 172.5,42.5 C 173.263,44.3684 174.263,46.0351 175.5,47.5C 177.524,55.8792 177.858,64.2125 176.5,72.5C 176.5,67.1667 176.5,61.8333 176.5,56.5C 172.5,56.5 168.5,56.5 164.5,56.5C 164.5,58.1667 164.5,59.8333 164.5,61.5C 166.5,61.5 168.5,61.5 170.5,61.5C 169.151,66.6785 165.818,68.5118 160.5,67C 156.695,62.9089 155.528,58.0755 157,52.5C 160.267,48.0663 164.267,47.3997 169,50.5C 169.483,51.448 169.649,52.448 169.5,53.5C 171.5,53.5 173.5,53.5 175.5,53.5C 175.156,49.3158 173.156,46.1491 169.5,44C 163.206,42.5778 157.539,43.7445 152.5,47.5C 152.511,45.9826 153.177,44.8159 154.5,44C 160.407,42.6392 166.407,42.1392 172.5,42.5 Z"/></g>
<g><path style="opacity:1" fill="#e0d476" d="M 262.5,45.5 C 264.074,46.9842 265.407,48.6508 266.5,50.5C 266.5,52.1667 266.5,53.8333 266.5,55.5C 265.51,57.7897 263.843,59.4563 261.5,60.5C 262.537,57.8143 263.537,55.1477 264.5,52.5C 264.114,50.0678 263.447,47.7345 262.5,45.5 Z"/></g>
<g><path style="opacity:1" fill="#edd761" d="M 233.5,43.5 C 235.555,44.5588 236.889,46.2254 237.5,48.5C 237.5,49.5 237.5,50.5 237.5,51.5C 235.833,51.5 234.167,51.5 232.5,51.5C 232.586,50.5041 232.252,49.6708 231.5,49C 228.833,48.3333 226.167,48.3333 223.5,49C 222.978,49.5613 222.645,50.228 222.5,51C 224.973,54.1141 228.306,55.6141 232.5,55.5C 241.482,60.451 241.816,66.1176 233.5,72.5C 233.167,72.5 232.833,72.5 232.5,72.5C 228.119,72.6282 223.785,72.2949 219.5,71.5C 217.975,69.7837 216.975,67.7837 216.5,65.5C 218.318,62.9847 220.318,62.9847 222.5,65.5C 222.611,66.1174 222.944,66.6174 223.5,67C 226.76,67.7835 229.927,67.6168 233,66.5C 233.72,64.8876 233.554,63.3876 232.5,62C 229.883,61.1785 227.216,60.6785 224.5,60.5C 222.819,58.9925 220.819,57.9925 218.5,57.5C 215.551,53.1595 215.884,49.1595 219.5,45.5C 223.964,43.6982 228.63,43.0316 233.5,43.5 Z"/></g>
<g><path style="opacity:1" fill="#f3e65e" d="M 274.5,44.5 C 275.512,45.8717 276.512,47.205 277.5,48.5C 278.237,50.3046 279.237,51.9713 280.5,53.5C 281.522,53.1445 282.189,52.4778 282.5,51.5C 284.411,51.4257 285.578,50.4257 286,48.5C 287.319,50.2495 287.819,52.2495 287.5,54.5C 286.471,56.5168 285.471,58.5168 284.5,60.5C 284.167,60.5 283.833,60.5 283.5,60.5C 282.523,63.2869 282.19,66.2869 282.5,69.5C 281.167,69.5 279.833,69.5 278.5,69.5C 278.665,66.1501 278.498,62.8168 278,59.5C 276.953,57.2925 275.453,55.6258 273.5,54.5C 272.488,53.1283 271.488,51.795 270.5,50.5C 270.5,49.8333 270.5,49.1667 270.5,48.5C 270.5,47.1667 270.5,45.8333 270.5,44.5C 271.833,44.5 273.167,44.5 274.5,44.5 Z"/></g>
<g><path style="opacity:1" fill="#272622" d="M 62.5,53.5 C 61.5489,54.9187 61.2155,56.5853 61.5,58.5C 60.7463,61.0227 60.0796,63.6894 59.5,66.5C 59.7093,67.086 60.0426,67.586 60.5,68C 57.9671,67.3889 55.3004,66.8889 52.5,66.5C 50.7839,66.6287 49.1172,66.962 47.5,67.5C 46.1667,67.5 44.8333,67.5 43.5,67.5C 43.5,64.8333 43.5,62.1667 43.5,59.5C 46.5279,59.6611 49.3612,58.9944 52,57.5C 53.2853,57.9504 54.452,58.6171 55.5,59.5C 56.5827,58.635 56.7494,57.635 56,56.5C 52.4376,53.0515 53.2709,51.3848 58.5,51.5C 60.3328,51.5854 61.6661,52.2521 62.5,53.5 Z"/></g>
<g><path style="opacity:1" fill="#292724" d="M 75.5,28.5 C 75.7822,29.7777 76.4489,30.7777 77.5,31.5C 72.8859,32.5801 68.3859,33.9134 64,35.5C 62.5949,32.3812 62.0949,29.0479 62.5,25.5C 61.5,25.5 60.5,25.5 59.5,25.5C 59.3339,31.1764 59.5006,36.8431 60,42.5C 60.1112,37.6213 61.2778,37.288 63.5,41.5C 64.3279,40.5853 65.3279,39.9186 66.5,39.5C 69.904,40.6075 73.2373,41.7741 76.5,43C 73.7132,45.1672 72.8799,48.0006 74,51.5C 77.5046,49.2616 79.3379,46.095 79.5,42C 80.3287,42.2723 80.8287,43.1057 81,44.5C 81.3729,42.3018 81.8729,40.1351 82.5,38C 80.9542,35.6135 78.9542,35.1135 76.5,36.5C 77.8333,37.1667 79.1667,37.8333 80.5,38.5C 79.8333,38.8333 79.1667,39.1667 78.5,39.5C 75.5456,38.3753 72.5456,37.3753 69.5,36.5C 73.3086,36.0039 76.642,34.6706 79.5,32.5C 81.0677,34.1305 82.401,35.9639 83.5,38C 82.0092,43.7411 81.3426,49.5745 81.5,55.5C 81.8893,58.5533 81.2227,61.22 79.5,63.5C 78.596,62.791 78.2627,61.791 78.5,60.5C 77.5,60.5 76.5,60.5 75.5,60.5C 75.8493,63.4629 74.8493,65.7962 72.5,67.5C 74.0688,69.6524 74.5688,71.9857 74,74.5C 71.7988,76.2739 70.6322,78.6072 70.5,81.5C 66.9307,86.6116 62.264,90.2783 56.5,92.5C 59.2316,86.5255 59.0649,80.5255 56,74.5C 54.7614,80.4348 54.2614,86.4348 54.5,92.5C 53.8346,89.0159 53.5013,85.3492 53.5,81.5C 53.5112,77.4348 54.1778,73.7681 55.5,70.5C 58.2084,72.3531 61.2084,73.3531 64.5,73.5C 64.5,72.1667 64.5,70.8333 64.5,69.5C 62.387,61.6888 65.0537,56.6888 72.5,54.5C 72.5,52.1667 72.5,49.8333 72.5,47.5C 69.8559,47.8399 67.5225,47.1733 65.5,45.5C 63.9017,46.4847 62.235,46.6514 60.5,46C 59.5887,43.5852 57.922,42.0852 55.5,41.5C 54.7368,39.6316 53.7368,37.9649 52.5,36.5C 52.1718,31.1254 52.5052,25.7921 53.5,20.5C 60.7804,23.3707 68.1137,26.0373 75.5,28.5 Z"/></g>
<g><path style="opacity:1" fill="#dfd078" d="M 243.5,43.5 C 249.026,43.1786 254.36,43.5119 259.5,44.5C 254.5,44.5 249.5,44.5 244.5,44.5C 244.5,53.5 244.5,62.5 244.5,71.5C 245.833,71.5 247.167,71.5 248.5,71.5C 248.187,67.9581 248.521,64.6248 249.5,61.5C 249.5,65.1667 249.5,68.8333 249.5,72.5C 247.833,72.5 246.167,72.5 244.5,72.5C 243.833,72.5 243.5,72.1667 243.5,71.5C 243.5,62.1667 243.5,52.8333 243.5,43.5 Z"/></g>
<g><path style="opacity:1" fill="#333333" d="M 215.5,51.5 C 215.386,54.216 216.386,56.216 218.5,57.5C 220.819,57.9925 222.819,58.9925 224.5,60.5C 226.277,61.6005 228.277,62.4338 230.5,63C 231.337,64.0113 231.67,65.1779 231.5,66.5C 228.43,66.6323 225.43,66.299 222.5,65.5C 222.5,64.5 222.5,63.5 222.5,62.5C 220.167,62.5 217.833,62.5 215.5,62.5C 214.566,63.5676 214.232,64.901 214.5,66.5C 215.101,70.909 213.434,72.2424 209.5,70.5C 211.121,66.2952 210.788,62.2952 208.5,58.5C 210.173,56.4775 210.84,54.1441 210.5,51.5C 212.167,51.5 213.833,51.5 215.5,51.5 Z"/></g>
<g><path style="opacity:1" fill="#f5e15e" d="M 259.5,44.5 C 260.609,44.5569 261.609,44.8902 262.5,45.5C 263.447,47.7345 264.114,50.0678 264.5,52.5C 263.537,55.1477 262.537,57.8143 261.5,60.5C 260.432,61.4345 259.099,61.7678 257.5,61.5C 254.833,61.5 252.167,61.5 249.5,61.5C 248.521,64.6248 248.187,67.9581 248.5,71.5C 247.167,71.5 245.833,71.5 244.5,71.5C 244.5,62.5 244.5,53.5 244.5,44.5C 249.5,44.5 254.5,44.5 259.5,44.5 Z"/></g>
<g><path style="opacity:1" fill="#7a6a2f" d="M 250.5,48.5 C 250.5,51.1667 250.5,53.8333 250.5,56.5C 252.5,56.5 254.5,56.5 256.5,56.5C 254.393,57.4682 252.059,57.8016 249.5,57.5C 249.19,54.2869 249.523,51.2869 250.5,48.5 Z"/></g>
<g><path style="opacity:1" fill="#3c3726" d="M 250.5,48.5 C 253.249,48.2739 255.916,48.6072 258.5,49.5C 259.641,51.4213 259.808,53.4213 259,55.5C 258.329,56.2524 257.496,56.5858 256.5,56.5C 254.5,56.5 252.5,56.5 250.5,56.5C 250.5,53.8333 250.5,51.1667 250.5,48.5 Z"/></g>
<g><path style="opacity:1" fill="#393a2f" d="M 293.5,48.5 C 292.829,49.8471 292.829,51.0138 293.5,52C 295.488,52.1805 297.488,52.0138 299.5,51.5C 299.649,52.552 299.483,53.552 299,54.5C 297.013,55.218 295.179,56.218 293.5,57.5C 292.833,56.1667 292.167,54.8333 291.5,53.5C 290.508,57.7828 290.174,62.1161 290.5,66.5C 289.732,67.2625 289.232,68.2625 289,69.5C 288.667,69.1667 288.333,68.8333 288,68.5C 287.666,66.1527 287.833,63.8194 288.5,61.5C 287.5,61.5 286.5,61.5 285.5,61.5C 285.817,65.7016 285.483,69.7016 284.5,73.5C 284.5,69.1667 284.5,64.8333 284.5,60.5C 285.471,58.5168 286.471,56.5168 287.5,54.5C 288.167,53.8333 288.833,53.1667 289.5,52.5C 291,51.3748 292.333,50.0414 293.5,48.5 Z"/></g>
<g><path style="opacity:1" fill="#3a3525" d="M 187.5,43.5 C 188.5,43.5 189.5,43.5 190.5,43.5C 190.5,45.5 190.5,47.5 190.5,49.5C 193.167,49.5 195.833,49.5 198.5,49.5C 198.175,57.3516 198.508,65.0182 199.5,72.5C 201.5,72.5 203.5,72.5 205.5,72.5C 206.492,65.0182 206.825,57.3516 206.5,49.5C 209.167,49.5 211.833,49.5 214.5,49.5C 215.338,49.8417 215.672,50.5084 215.5,51.5C 213.833,51.5 212.167,51.5 210.5,51.5C 210.84,54.1441 210.173,56.4775 208.5,58.5C 210.788,62.2952 211.121,66.2952 209.5,70.5C 213.434,72.2424 215.101,70.909 214.5,66.5C 215.233,68.2944 216.233,69.9611 217.5,71.5C 216.5,71.5 215.5,71.5 214.5,71.5C 214.5,72.5 214.5,73.5 214.5,74.5C 213.167,74.5 211.833,74.5 210.5,74.5C 207.071,74.4543 203.404,74.2877 199.5,74C 198.572,73.6121 197.905,72.9454 197.5,72C 197.135,64.8874 197.135,57.7208 197.5,50.5C 194.833,50.5 192.167,50.5 189.5,50.5C 190.13,58.2428 189.463,65.5762 187.5,72.5C 187.5,62.8333 187.5,53.1667 187.5,43.5 Z"/></g>
<g><path style="opacity:1" fill="#e9d07b" d="M 199.5,49.5 C 201.5,49.5 203.5,49.5 205.5,49.5C 205.5,57.1667 205.5,64.8333 205.5,72.5C 203.5,72.5 201.5,72.5 199.5,72.5C 199.5,64.8333 199.5,57.1667 199.5,49.5 Z"/></g>
<g><path style="opacity:1" fill="#3f3827" d="M 233.5,43.5 C 236.809,43.3077 239.309,44.6411 241,47.5C 239.992,45.634 240.492,44.3007 242.5,43.5C 242.752,52.8734 242.418,62.2067 241.5,71.5C 240.778,71.0825 240.278,70.4158 240,69.5C 238.254,71.4567 236.088,72.4567 233.5,72.5C 241.816,66.1176 241.482,60.451 232.5,55.5C 229.766,54.295 227.099,52.795 224.5,51C 225.263,50.0565 226.263,49.5565 227.5,49.5C 229.177,50.1869 230.844,50.8535 232.5,51.5C 234.265,52.4614 236.265,52.7947 238.5,52.5C 238.768,50.901 238.434,49.5676 237.5,48.5C 236.889,46.2254 235.555,44.5588 233.5,43.5 Z"/></g>
<g><path style="opacity:1" fill="#38363a" d="M 301.5,17.5 C 301.5,46.5 301.5,75.5 301.5,104.5C 300.5,104.5 299.5,104.5 298.5,104.5C 298.38,88.9027 298.38,73.2361 298.5,57.5C 297.5,57.5 296.5,57.5 295.5,57.5C 293.777,73.0981 293.111,88.7648 293.5,104.5C 292.5,104.5 291.5,104.5 290.5,104.5C 290.5,91.8333 290.5,79.1667 290.5,66.5C 290.174,62.1161 290.508,57.7828 291.5,53.5C 292.167,54.8333 292.833,56.1667 293.5,57.5C 295.179,56.218 297.013,55.218 299,54.5C 299.483,53.552 299.649,52.552 299.5,51.5C 297.488,52.0138 295.488,52.1805 293.5,52C 292.829,51.0138 292.829,49.8471 293.5,48.5C 293.833,47.5 294.5,46.8333 295.5,46.5C 297.366,41.2606 298.366,35.5939 298.5,29.5C 297.719,26.3917 297.385,23.3917 297.5,20.5C 298.077,18.4501 299.41,17.4501 301.5,17.5 Z"/></g>
<g><path style="opacity:1" fill="#2c3032" d="M 161.5,50.5 C 163.199,50.3398 164.866,50.5065 166.5,51C 168.009,54.6693 166.676,56.1693 162.5,55.5C 162.682,57.5914 162.348,59.5914 161.5,61.5C 168.314,64.4083 167.981,65.575 160.5,65C 160,64.5 159.5,64 159,63.5C 158.501,59.5138 158.334,55.5138 158.5,51.5C 159.791,51.7373 160.791,51.404 161.5,50.5 Z"/></g>
<g><path style="opacity:1" fill="#544b14" d="M 242.5,43.5 C 242.833,43.5 243.167,43.5 243.5,43.5C 243.5,52.8333 243.5,62.1667 243.5,71.5C 242.833,71.5 242.167,71.5 241.5,71.5C 242.418,62.2067 242.752,52.8734 242.5,43.5 Z"/></g>
<g><path style="opacity:1" fill="#37382d" d="M 270.5,50.5 C 271.488,51.795 272.488,53.1283 273.5,54.5C 274.11,55.391 274.443,56.391 274.5,57.5C 274.833,58.8333 275.167,60.1667 275.5,61.5C 274.527,63.9479 274.194,66.6146 274.5,69.5C 272.029,69.767 270.362,68.767 269.5,66.5C 270.302,63.5514 270.636,60.5514 270.5,57.5C 269.167,57.5 267.833,57.5 266.5,57.5C 266.5,56.8333 266.5,56.1667 266.5,55.5C 266.5,53.8333 266.5,52.1667 266.5,50.5C 266.369,49.6236 266.702,48.9569 267.5,48.5C 268.518,49.1925 269.518,49.8592 270.5,50.5 Z"/></g>
<g><path style="opacity:1" fill="#a89c5d" d="M 215.5,62.5 C 217.833,62.5 220.167,62.5 222.5,62.5C 222.5,63.5 222.5,64.5 222.5,65.5C 220.318,62.9847 218.318,62.9847 216.5,65.5C 215.596,64.791 215.263,63.791 215.5,62.5 Z"/></g>
<g><path style="opacity:1" fill="#f8d65a" d="M 200.5,52.5 C 201.833,52.5 203.167,52.5 204.5,52.5C 204.5,58.1667 204.5,63.8333 204.5,69.5C 203.178,69.67 202.011,69.3366 201,68.5C 200.501,63.1771 200.334,57.8437 200.5,52.5 Z"/></g>
<g><path style="opacity:1" fill="#fad05e" d="M 182.5,45.5 C 183.833,45.5 185.167,45.5 186.5,45.5C 186.666,53.1739 186.5,60.8406 186,68.5C 185,69.8333 184,69.8333 183,68.5C 182.5,60.8406 182.334,53.1739 182.5,45.5 Z"/></g>
<g><path style="opacity:1" fill="#292928" d="M 64.5,13.5 C 69.5,13.5 74.5,13.5 79.5,13.5C 79.6107,14.1174 79.944,14.6174 80.5,15C 96.4965,15.4999 112.497,15.6666 128.5,15.5C 126.167,16.1667 123.833,16.8333 121.5,17.5C 106.148,19.4242 89.8151,20.9242 72.5,22C 73.9494,23.117 75.6161,23.7837 77.5,24C 78.8333,27.3333 80.1667,27.3333 81.5,24C 91.9325,23.0495 102.266,23.3828 112.5,25C 111.584,25.3742 110.75,25.8742 110,26.5C 108.333,26.1667 106.667,25.8333 105,25.5C 105.424,31.4721 105.924,37.4721 106.5,43.5C 104.833,43.5 103.167,43.5 101.5,43.5C 99.9328,44.6808 99.0995,46.3474 99,48.5C 98.5007,53.4889 98.3341,58.4889 98.5,63.5C 95.2657,63.2366 93.9324,64.7366 94.5,68C 94.0525,70.9515 95.2191,72.7849 98,73.5C 102.308,74.0863 106.641,74.4196 111,74.5C 114.902,74.4877 118.402,73.821 121.5,72.5C 121.5,72.1667 121.5,71.8333 121.5,71.5C 121.5,69.8333 121.5,68.1667 121.5,66.5C 120.791,65.596 119.791,65.2627 118.5,65.5C 117.715,61.4037 118.882,58.0704 122,55.5C 122.333,52.1667 122.667,48.8333 123,45.5C 123.278,44.5842 123.778,43.9175 124.5,43.5C 124.5,53.8333 124.5,64.1667 124.5,74.5C 127.5,74.5 130.5,74.5 133.5,74.5C 133.5,76.8333 133.5,79.1667 133.5,81.5C 134.5,81.5 135.5,81.5 136.5,81.5C 136.5,84.1667 136.5,86.8333 136.5,89.5C 139.167,89.5 141.833,89.5 144.5,89.5C 144.5,92.1667 144.5,94.8333 144.5,97.5C 147.167,97.5 149.833,97.5 152.5,97.5C 152.5,99.8333 152.5,102.167 152.5,104.5C 138.833,104.5 125.167,104.5 111.5,104.5C 94.8333,104.5 78.1667,104.5 61.5,104.5C 62.5676,103.566 63.901,103.232 65.5,103.5C 65.5,102.5 65.5,101.5 65.5,100.5C 62.4116,101.068 59.4116,101.068 56.5,100.5C 58.5357,98.0162 61.2023,97.0162 64.5,97.5C 64.7678,95.901 64.4345,94.5676 63.5,93.5C 64.5,92.1667 65.5,90.8333 66.5,89.5C 69.5285,86.141 72.5285,82.8076 75.5,79.5C 76.7498,79.4226 77.5831,78.756 78,77.5C 78.4186,78.6721 79.0853,79.6721 80,80.5C 80.9225,76.2099 81.4225,71.8766 81.5,67.5C 81.5,66.8333 81.5,66.1667 81.5,65.5C 82.4959,65.5858 83.3292,65.2524 84,64.5C 86.8609,53.0061 88.0276,41.3395 87.5,29.5C 86.5,29.5 85.5,29.5 84.5,29.5C 81.6027,28.871 78.936,27.871 76.5,26.5C 73.289,24.9666 70.6223,22.6333 68.5,19.5C 71.7485,19.5842 74.7485,18.7508 77.5,17C 73.9056,15.2591 70.2389,15.0924 66.5,16.5C 65.0815,15.9953 64.4148,14.9953 64.5,13.5 Z"/></g>
<g><path style="opacity:1" fill="#dcb578" d="M 101.5,43.5 C 103.167,43.5 104.833,43.5 106.5,43.5C 106.833,43.5 107.167,43.5 107.5,43.5C 107.5,50.8333 107.5,58.1667 107.5,65.5C 106.509,59.021 106.176,52.3543 106.5,45.5C 105.167,45.5 103.833,45.5 102.5,45.5C 102.334,53.84 102.5,62.1733 103,70.5C 109.076,71.4764 115.242,71.8097 121.5,71.5C 121.5,71.8333 121.5,72.1667 121.5,72.5C 114.833,72.5 108.167,72.5 101.5,72.5C 101.5,62.8333 101.5,53.1667 101.5,43.5 Z"/></g>
<g><path style="opacity:1" fill="#3e2f14" d="M 107.5,43.5 C 108.117,43.6107 108.617,43.944 109,44.5C 109.5,51.4921 109.666,58.4921 109.5,65.5C 112.5,65.5 115.5,65.5 118.5,65.5C 119.791,65.2627 120.791,65.596 121.5,66.5C 116.637,66.8195 111.97,66.4861 107.5,65.5C 107.5,58.1667 107.5,50.8333 107.5,43.5 Z"/></g>
<g><path style="opacity:1" fill="#332c1d" d="M 101.5,43.5 C 101.5,53.1667 101.5,62.8333 101.5,72.5C 108.167,72.5 114.833,72.5 121.5,72.5C 118.402,73.821 114.902,74.4877 111,74.5C 106.641,74.4196 102.308,74.0863 98,73.5C 95.2191,72.7849 94.0525,70.9515 94.5,68C 93.9324,64.7366 95.2657,63.2366 98.5,63.5C 98.3341,58.4889 98.5007,53.4889 99,48.5C 99.0995,46.3474 99.9328,44.6808 101.5,43.5 Z"/></g>
<g><path style="opacity:1" fill="#3e3120" d="M 124.5,43.5 C 124.833,43.5 125.167,43.5 125.5,43.5C 125.5,53.1667 125.5,62.8333 125.5,72.5C 132.5,72.5 139.5,72.5 146.5,72.5C 146.5,70.5 146.5,68.5 146.5,66.5C 141.5,66.5 136.5,66.5 131.5,66.5C 131.5,64.5 131.5,62.5 131.5,60.5C 136.167,60.5 140.833,60.5 145.5,60.5C 145.5,58.8333 145.5,57.1667 145.5,55.5C 148.779,54.9694 150.113,52.9694 149.5,49.5C 148.5,49.5 147.5,49.5 146.5,49.5C 146.5,47.8333 146.5,46.1667 146.5,44.5C 148.048,44.8212 148.715,45.8212 148.5,47.5C 149.833,47.5 151.167,47.5 152.5,47.5C 151,50.8355 150,54.3355 149.5,58C 150,61.6645 151,65.1645 152.5,68.5C 151.325,68.281 150.325,68.6143 149.5,69.5C 149.099,71.4342 148.099,72.9342 146.5,74C 142.179,74.499 137.846,74.6657 133.5,74.5C 130.5,74.5 127.5,74.5 124.5,74.5C 124.5,64.1667 124.5,53.8333 124.5,43.5 Z"/></g>
<g><path style="opacity:1" fill="#8b774b" d="M 144.5,55.5 C 144.833,55.5 145.167,55.5 145.5,55.5C 145.5,57.1667 145.5,58.8333 145.5,60.5C 140.833,60.5 136.167,60.5 131.5,60.5C 135.634,59.5151 139.968,59.1818 144.5,59.5C 144.5,58.1667 144.5,56.8333 144.5,55.5 Z"/></g>
<g><path style="opacity:1" fill="#403820" d="M 131.5,49.5 C 136.5,49.5 141.5,49.5 146.5,49.5C 142.702,50.4834 138.702,50.8168 134.5,50.5C 134.5,51.5 134.5,52.5 134.5,53.5C 137.983,53.3094 141.316,52.6427 144.5,51.5C 144.5,52.8333 144.5,54.1667 144.5,55.5C 140.167,55.5 135.833,55.5 131.5,55.5C 131.5,53.5 131.5,51.5 131.5,49.5 Z"/></g>
<g><path style="opacity:1" fill="#2d2c2f" d="M 146.5,49.5 C 147.5,49.5 148.5,49.5 149.5,49.5C 150.113,52.9694 148.779,54.9694 145.5,55.5C 145.167,55.5 144.833,55.5 144.5,55.5C 144.5,54.1667 144.5,52.8333 144.5,51.5C 141.316,52.6427 137.983,53.3094 134.5,53.5C 134.5,52.5 134.5,51.5 134.5,50.5C 138.702,50.8168 142.702,50.4834 146.5,49.5 Z"/></g>
<g><path style="opacity:1" fill="#f5c25e" d="M 131.5,49.5 C 131.5,51.5 131.5,53.5 131.5,55.5C 135.833,55.5 140.167,55.5 144.5,55.5C 144.5,56.8333 144.5,58.1667 144.5,59.5C 139.968,59.1818 135.634,59.5151 131.5,60.5C 131.5,62.5 131.5,64.5 131.5,66.5C 135.97,67.4861 140.637,67.8195 145.5,67.5C 145.5,68.8333 145.5,70.1667 145.5,71.5C 139.491,71.6662 133.491,71.4995 127.5,71C 126.167,62.3333 126.167,53.6667 127.5,45C 133.157,44.5006 138.824,44.3339 144.5,44.5C 144.5,45.5 144.5,46.5 144.5,47.5C 140.818,47.3347 137.152,47.5014 133.5,48C 132.584,48.2784 131.918,48.7784 131.5,49.5 Z"/></g>
<g><path style="opacity:1" fill="#333333" d="M 266.5,57.5 C 267.833,57.5 269.167,57.5 270.5,57.5C 270.636,60.5514 270.302,63.5514 269.5,66.5C 270.362,68.767 272.029,69.767 274.5,69.5C 274.194,66.6146 274.527,63.9479 275.5,61.5C 276.483,65.2984 276.817,69.2984 276.5,73.5C 279.167,73.5 281.833,73.5 284.5,73.5C 285.483,69.7016 285.817,65.7016 285.5,61.5C 286.5,61.5 287.5,61.5 288.5,61.5C 287.833,63.8194 287.666,66.1527 288,68.5C 288.333,68.8333 288.667,69.1667 289,69.5C 289.232,68.2625 289.732,67.2625 290.5,66.5C 290.5,79.1667 290.5,91.8333 290.5,104.5C 273.833,104.5 257.167,104.5 240.5,104.5C 240.5,103.167 240.5,101.833 240.5,100.5C 237.833,100.5 235.167,100.5 232.5,100.5C 232.5,97.8333 232.5,95.1667 232.5,92.5C 229.833,92.5 227.167,92.5 224.5,92.5C 224.5,89.8333 224.5,87.1667 224.5,84.5C 221.833,84.5 219.167,84.5 216.5,84.5C 216.5,83.5 216.5,82.5 216.5,81.5C 214.5,81.5 212.5,81.5 210.5,81.5C 210.5,79.1667 210.5,76.8333 210.5,74.5C 211.833,74.5 213.167,74.5 214.5,74.5C 214.5,73.5 214.5,72.5 214.5,71.5C 215.5,71.5 216.5,71.5 217.5,71.5C 218.167,71.5 218.833,71.5 219.5,71.5C 222.897,74.3924 226.897,75.2258 231.5,74C 232.056,73.6174 232.389,73.1174 232.5,72.5C 232.833,72.5 233.167,72.5 233.5,72.5C 236.088,72.4567 238.254,71.4567 240,69.5C 240.278,70.4158 240.778,71.0825 241.5,71.5C 242.167,71.5 242.833,71.5 243.5,71.5C 243.5,72.1667 243.833,72.5 244.5,72.5C 246.693,73.7969 249.027,73.7969 251.5,72.5C 251.872,69.6169 251.872,66.6169 251.5,63.5C 254.85,63.665 258.183,63.4983 261.5,63C 264.056,61.9455 265.723,60.1122 266.5,57.5 Z"/></g>
<g><path style="opacity:1" fill="#353633" d="M 298.5,104.5 C 296.833,104.5 295.167,104.5 293.5,104.5C 293.111,88.7648 293.777,73.0981 295.5,57.5C 296.5,57.5 297.5,57.5 298.5,57.5C 298.38,73.2361 298.38,88.9027 298.5,104.5 Z"/></g>
<g><path style="opacity:1" fill="#3c330f" d="M 61.5,58.5 C 61.8242,62.5546 61.4909,66.5546 60.5,70.5C 58.8045,69.8256 57.1379,69.1589 55.5,68.5C 54.5,67.8333 53.5,67.1667 52.5,66.5C 55.3004,66.8889 57.9671,67.3889 60.5,68C 60.0426,67.586 59.7093,67.086 59.5,66.5C 60.0796,63.6894 60.7463,61.0227 61.5,58.5 Z"/></g>
<g><path style="opacity:1" fill="#2e2c18" d="M 79.5,63.5 C 78.0756,70.3489 75.0756,76.3489 70.5,81.5C 70.6322,78.6072 71.7988,76.2739 74,74.5C 74.5688,71.9857 74.0688,69.6524 72.5,67.5C 74.8493,65.7962 75.8493,63.4629 75.5,60.5C 76.5,60.5 77.5,60.5 78.5,60.5C 78.2627,61.791 78.596,62.791 79.5,63.5 Z"/></g>
<g><path style="opacity:1" fill="#c1a95e" d="M 176.5,72.5 C 175.167,72.5 173.833,72.5 172.5,72.5C 172.5,72.1667 172.5,71.8333 172.5,71.5C 173.5,71.5 174.5,71.5 175.5,71.5C 175.5,66.8333 175.5,62.1667 175.5,57.5C 172.167,57.5 168.833,57.5 165.5,57.5C 165.5,58.5 165.5,59.5 165.5,60.5C 167.415,60.2155 169.081,60.5489 170.5,61.5C 168.5,61.5 166.5,61.5 164.5,61.5C 164.5,59.8333 164.5,58.1667 164.5,56.5C 168.5,56.5 172.5,56.5 176.5,56.5C 176.5,61.8333 176.5,67.1667 176.5,72.5 Z"/></g>
<g><path style="opacity:1" fill="#493a18" d="M 224.5,60.5 C 227.216,60.6785 229.883,61.1785 232.5,62C 233.554,63.3876 233.72,64.8876 233,66.5C 229.927,67.6168 226.76,67.7835 223.5,67C 222.944,66.6174 222.611,66.1174 222.5,65.5C 225.43,66.299 228.43,66.6323 231.5,66.5C 231.67,65.1779 231.337,64.0113 230.5,63C 228.277,62.4338 226.277,61.6005 224.5,60.5 Z"/></g>
<g><path style="opacity:1" fill="#756c2f" d="M 249.5,61.5 C 252.167,61.5 254.833,61.5 257.5,61.5C 255.393,62.4682 253.059,62.8016 250.5,62.5C 250.813,66.0419 250.479,69.3752 249.5,72.5C 249.5,68.8333 249.5,65.1667 249.5,61.5 Z"/></g>
<g><path style="opacity:1" fill="#f1b55d" d="M 107.5,65.5 C 111.97,66.4861 116.637,66.8195 121.5,66.5C 121.5,68.1667 121.5,69.8333 121.5,71.5C 115.242,71.8097 109.076,71.4764 103,70.5C 102.5,62.1733 102.334,53.84 102.5,45.5C 103.833,45.5 105.167,45.5 106.5,45.5C 106.176,52.3543 106.509,59.021 107.5,65.5 Z"/></g>
<g><path style="opacity:1" fill="#ebc362" d="M 170.5,61.5 C 169.081,60.5489 167.415,60.2155 165.5,60.5C 165.5,59.5 165.5,58.5 165.5,57.5C 168.833,57.5 172.167,57.5 175.5,57.5C 175.5,62.1667 175.5,66.8333 175.5,71.5C 174.5,71.5 173.5,71.5 172.5,71.5C 171.258,69.1082 169.925,69.2749 168.5,72C 163.939,72.9449 159.606,72.4449 155.5,70.5C 154.5,69.8333 153.5,69.1667 152.5,68.5C 151,65.1645 150,61.6645 149.5,58C 150,54.3355 151,50.8355 152.5,47.5C 157.539,43.7445 163.206,42.5778 169.5,44C 173.156,46.1491 175.156,49.3158 175.5,53.5C 173.5,53.5 171.5,53.5 169.5,53.5C 169.649,52.448 169.483,51.448 169,50.5C 164.267,47.3997 160.267,48.0663 157,52.5C 155.528,58.0755 156.695,62.9089 160.5,67C 165.818,68.5118 169.151,66.6785 170.5,61.5 Z"/></g>
<g><path style="opacity:1" fill="#433a1b" d="M 266.5,55.5 C 266.5,56.1667 266.5,56.8333 266.5,57.5C 265.723,60.1122 264.056,61.9455 261.5,63C 258.183,63.4983 254.85,63.665 251.5,63.5C 251.872,66.6169 251.872,69.6169 251.5,72.5C 249.027,73.7969 246.693,73.7969 244.5,72.5C 246.167,72.5 247.833,72.5 249.5,72.5C 250.479,69.3752 250.813,66.0419 250.5,62.5C 253.059,62.8016 255.393,62.4682 257.5,61.5C 259.099,61.7678 260.432,61.4345 261.5,60.5C 263.843,59.4563 265.51,57.7897 266.5,55.5 Z"/></g>
<g><path style="opacity:1" fill="#453b15" d="M 215.5,62.5 C 215.263,63.791 215.596,64.791 216.5,65.5C 216.975,67.7837 217.975,69.7837 219.5,71.5C 218.833,71.5 218.167,71.5 217.5,71.5C 216.233,69.9611 215.233,68.2944 214.5,66.5C 214.232,64.901 214.566,63.5676 215.5,62.5 Z"/></g>
<g><path style="opacity:1" fill="#e4db7e" d="M 273.5,54.5 C 275.453,55.6258 276.953,57.2925 278,59.5C 278.498,62.8168 278.665,66.1501 278.5,69.5C 279.833,69.5 281.167,69.5 282.5,69.5C 282.19,66.2869 282.523,63.2869 283.5,60.5C 283.5,64.5 283.5,68.5 283.5,72.5C 281.5,72.5 279.5,72.5 277.5,72.5C 277.666,68.4862 277.499,64.4862 277,60.5C 276.623,59.0577 275.79,58.0577 274.5,57.5C 274.443,56.391 274.11,55.391 273.5,54.5 Z"/></g>
<g><path style="opacity:1" fill="#2f2e2e" d="M 181.5,72.5 C 183.5,72.5 185.5,72.5 187.5,72.5C 189.463,65.5762 190.13,58.2428 189.5,50.5C 192.167,50.5 194.833,50.5 197.5,50.5C 197.135,57.7208 197.135,64.8874 197.5,72C 197.905,72.9454 198.572,73.6121 199.5,74C 203.404,74.2877 207.071,74.4543 210.5,74.5C 210.5,76.8333 210.5,79.1667 210.5,81.5C 212.5,81.5 214.5,81.5 216.5,81.5C 216.5,82.5 216.5,83.5 216.5,84.5C 219.167,84.5 221.833,84.5 224.5,84.5C 224.5,87.1667 224.5,89.8333 224.5,92.5C 227.167,92.5 229.833,92.5 232.5,92.5C 232.5,95.1667 232.5,97.8333 232.5,100.5C 235.167,100.5 237.833,100.5 240.5,100.5C 240.5,101.833 240.5,103.167 240.5,104.5C 211.167,104.5 181.833,104.5 152.5,104.5C 152.5,102.167 152.5,99.8333 152.5,97.5C 149.833,97.5 147.167,97.5 144.5,97.5C 144.5,94.8333 144.5,92.1667 144.5,89.5C 141.833,89.5 139.167,89.5 136.5,89.5C 136.5,86.8333 136.5,84.1667 136.5,81.5C 135.5,81.5 134.5,81.5 133.5,81.5C 133.5,79.1667 133.5,76.8333 133.5,74.5C 137.846,74.6657 142.179,74.499 146.5,74C 148.099,72.9342 149.099,71.4342 149.5,69.5C 150.325,68.6143 151.325,68.281 152.5,68.5C 153.5,69.1667 154.5,69.8333 155.5,70.5C 155.511,72.0174 156.177,73.1841 157.5,74C 162.663,74.817 167.663,74.317 172.5,72.5C 173.833,72.5 175.167,72.5 176.5,72.5C 177.858,64.2125 177.524,55.8792 175.5,47.5C 176.158,46.6016 176.824,45.6016 177.5,44.5C 178.606,46.2844 178.606,48.1178 177.5,50C 178.01,51.8261 178.844,51.9928 180,50.5C 180.171,58.0115 180.671,65.3448 181.5,72.5 Z"/></g>
<g><path style="opacity:1" fill="#4a430f" d="M 274.5,57.5 C 275.79,58.0577 276.623,59.0577 277,60.5C 277.499,64.4862 277.666,68.4862 277.5,72.5C 279.5,72.5 281.5,72.5 283.5,72.5C 283.5,68.5 283.5,64.5 283.5,60.5C 283.833,60.5 284.167,60.5 284.5,60.5C 284.5,64.8333 284.5,69.1667 284.5,73.5C 281.833,73.5 279.167,73.5 276.5,73.5C 276.817,69.2984 276.483,65.2984 275.5,61.5C 275.167,60.1667 274.833,58.8333 274.5,57.5 Z"/></g>
<g><path style="opacity:1" fill="#44391d" d="M 172.5,71.5 C 172.5,71.8333 172.5,72.1667 172.5,72.5C 167.663,74.317 162.663,74.817 157.5,74C 156.177,73.1841 155.511,72.0174 155.5,70.5C 159.606,72.4449 163.939,72.9449 168.5,72C 169.925,69.2749 171.258,69.1082 172.5,71.5 Z"/></g>
<g><path style="opacity:1" fill="#4e4021" d="M 219.5,71.5 C 223.785,72.2949 228.119,72.6282 232.5,72.5C 232.389,73.1174 232.056,73.6174 231.5,74C 226.897,75.2258 222.897,74.3924 219.5,71.5 Z"/></g>
<g><path style="opacity:1" fill="#392910" d="M 27.5,74.5 C 30.917,76.592 33.2503,79.592 34.5,83.5C 31.4531,81.0819 29.1198,78.0819 27.5,74.5 Z"/></g>
<g><path style="opacity:1" fill="#d8be63" d="M 39.5,65.5 C 40.1667,65.5 40.5,65.8333 40.5,66.5C 40.3398,68.1992 40.5065,69.8659 41,71.5C 43.4381,70.4316 45.6048,69.0983 47.5,67.5C 49.1172,66.962 50.7839,66.6287 52.5,66.5C 53.5,67.1667 54.5,67.8333 55.5,68.5C 54.8333,68.5 54.5,68.8333 54.5,69.5C 53.1745,73.4451 52.5079,77.7784 52.5,82.5C 52.5009,87.0134 52.8343,91.3467 53.5,95.5C 53.5,95.8333 53.5,96.1667 53.5,96.5C 53.0269,97.9063 52.0269,98.573 50.5,98.5C 50.5,98.1667 50.5,97.8333 50.5,97.5C 50.5,96.8333 50.5,96.1667 50.5,95.5C 50.5,86.8333 50.5,78.1667 50.5,69.5C 48.4471,69.4021 46.7804,70.0687 45.5,71.5C 43.2543,72.4552 40.921,73.1218 38.5,73.5C 38.1936,70.6146 38.5269,67.9479 39.5,65.5 Z"/></g>
<g><path style="opacity:1" fill="#bea86c" d="M 52.5,18.5 C 51.1667,18.5 50.5,19.1667 50.5,20.5C 44.6082,22.1289 38.9416,24.1289 33.5,26.5C 29.6052,27.4624 25.9385,28.7957 22.5,30.5C 21.4168,30.5394 20.4168,30.8728 19.5,31.5C 18.697,40.3743 19.3637,49.0409 21.5,57.5C 22.14,63.4295 24.14,68.7628 27.5,73.5C 27.5,73.8333 27.5,74.1667 27.5,74.5C 29.1198,78.0819 31.4531,81.0819 34.5,83.5C 37.0948,87.1257 40.4281,89.7924 44.5,91.5C 46.1184,93.316 48.1184,94.6493 50.5,95.5C 50.5,96.1667 50.5,96.8333 50.5,97.5C 50.1667,97.5 49.8333,97.5 49.5,97.5C 42.6279,93.637 36.2946,88.9703 30.5,83.5C 27.3651,79.0486 24.6984,74.3819 22.5,69.5C 21.2474,66.2328 20.2474,62.8994 19.5,59.5C 19.0978,55.0876 18.2645,50.7543 17,46.5C 16.3333,41.1667 16.3333,35.8333 17,30.5C 24.7384,27.1132 32.5717,24.1132 40.5,21.5C 41.1667,21.5 41.5,21.1667 41.5,20.5C 44.9162,20.1895 48.0829,19.1895 51,17.5C 51.7648,17.5699 52.2648,17.9033 52.5,18.5 Z"/></g>
<g><path style="opacity:1" fill="#332e19" d="M 81.5,67.5 C 81.4225,71.8766 80.9225,76.2099 80,80.5C 79.0853,79.6721 78.4186,78.6721 78,77.5C 77.5831,78.756 76.7498,79.4226 75.5,79.5C 77.1384,75.2303 79.1384,71.2303 81.5,67.5 Z"/></g>
<g><path style="opacity:1" fill="#433310" d="M 50.5,95.5 C 48.1184,94.6493 46.1184,93.316 44.5,91.5C 45.9305,91.4208 47.2638,91.7542 48.5,92.5C 49.3857,91.675 49.719,90.675 49.5,89.5C 49.5,83.5 49.5,77.5 49.5,71.5C 48.1667,71.5 46.8333,71.5 45.5,71.5C 46.7804,70.0687 48.4471,69.4021 50.5,69.5C 50.5,78.1667 50.5,86.8333 50.5,95.5 Z"/></g>
<g><path style="opacity:1" fill="#342905" d="M 54.5,69.5 C 55.1667,69.5 55.5,69.8333 55.5,70.5C 54.1778,73.7681 53.5112,77.4348 53.5,81.5C 53.5013,85.3492 53.8346,89.0159 54.5,92.5C 55.1667,92.5 55.8333,92.5 56.5,92.5C 55.3065,93.2719 54.3065,94.2719 53.5,95.5C 52.8343,91.3467 52.5009,87.0134 52.5,82.5C 52.5079,77.7784 53.1745,73.4451 54.5,69.5 Z"/></g>
<g><path style="opacity:1" fill="#272224" d="M 37.5,59.5 C 37.8333,59.5 38.1667,59.5 38.5,59.5C 38.1858,65.8259 37.1858,71.9926 35.5,78C 36.9437,78.7805 38.277,78.6139 39.5,77.5C 39.2907,76.914 38.9574,76.414 38.5,76C 43.6339,74.6449 46.9672,76.4782 48.5,81.5C 48.1667,82.1667 47.8333,82.8333 47.5,83.5C 46.1585,81.9951 44.4918,81.3285 42.5,81.5C 42.3433,82.8734 42.51,84.2068 43,85.5C 45.3392,86.7301 47.5058,88.0634 49.5,89.5C 49.719,90.675 49.3857,91.675 48.5,92.5C 47.2638,91.7542 45.9305,91.4208 44.5,91.5C 40.4281,89.7924 37.0948,87.1257 34.5,83.5C 33.2503,79.592 30.917,76.592 27.5,74.5C 27.5,74.1667 27.5,73.8333 27.5,73.5C 27.849,69.837 27.1823,67.1703 25.5,65.5C 25.5939,63.3115 26.2606,61.3115 27.5,59.5C 28.2739,58.2888 29.1072,58.2888 30,59.5C 30.3333,61.8333 30.6667,64.1667 31,66.5C 32.0113,65.6634 33.1779,65.33 34.5,65.5C 34.7076,67.9201 34.3742,70.2534 33.5,72.5C 34.325,73.3857 35.325,73.719 36.5,73.5C 36.6797,69.7845 36.3464,66.1178 35.5,62.5C 35.9424,61.2613 36.6091,60.2613 37.5,59.5 Z"/></g>
<g><path style="opacity:1" fill="#25232a" d="M 56.5,92.5 C 55.8333,92.5 55.1667,92.5 54.5,92.5C 54.2614,86.4348 54.7614,80.4348 56,74.5C 59.0649,80.5255 59.2316,86.5255 56.5,92.5 Z"/></g>
<g><path style="opacity:1" fill="#27261d" d="M 38.5,59.5 C 39.4614,61.2646 39.7947,63.2646 39.5,65.5C 38.5269,67.9479 38.1936,70.6146 38.5,73.5C 40.921,73.1218 43.2543,72.4552 45.5,71.5C 46.8333,71.5 48.1667,71.5 49.5,71.5C 49.5,77.5 49.5,83.5 49.5,89.5C 47.5058,88.0634 45.3392,86.7301 43,85.5C 42.51,84.2068 42.3433,82.8734 42.5,81.5C 44.4918,81.3285 46.1585,81.9951 47.5,83.5C 47.8333,82.8333 48.1667,82.1667 48.5,81.5C 46.9672,76.4782 43.6339,74.6449 38.5,76C 38.9574,76.414 39.2907,76.914 39.5,77.5C 38.277,78.6139 36.9437,78.7805 35.5,78C 37.1858,71.9926 38.1858,65.8259 38.5,59.5 Z"/></g>
<g><path style="opacity:1" fill="#36280c" d="M 30.5,83.5 C 36.2946,88.9703 42.6279,93.637 49.5,97.5C 44.5358,96.0515 39.8692,93.8848 35.5,91C 33.5854,88.6004 31.9188,86.1004 30.5,83.5 Z"/></g>
<g><path style="opacity:1" fill="#232222" d="M 22.5,69.5 C 24.6984,74.3819 27.3651,79.0486 30.5,83.5C 31.9188,86.1004 33.5854,88.6004 35.5,91C 39.8692,93.8848 44.5358,96.0515 49.5,97.5C 49.8333,97.5 50.1667,97.5 50.5,97.5C 50.5,97.8333 50.5,98.1667 50.5,98.5C 51.2506,99.5735 52.2506,99.7401 53.5,99C 56.7234,96.9377 60.0568,95.1044 63.5,93.5C 64.4345,94.5676 64.7678,95.901 64.5,97.5C 61.2023,97.0162 58.5357,98.0162 56.5,100.5C 59.4116,101.068 62.4116,101.068 65.5,100.5C 65.5,101.5 65.5,102.5 65.5,103.5C 63.901,103.232 62.5676,103.566 61.5,104.5C 46.5,104.5 31.5,104.5 16.5,104.5C 16.3342,99.8215 16.5008,95.1548 17,90.5C 17.9803,89.0186 19.147,87.6853 20.5,86.5C 19.9236,83.8758 18.5902,83.2092 16.5,84.5C 16.1667,83.3333 15.8333,82.1667 15.5,81C 17.9617,77.243 20.295,73.4097 22.5,69.5 Z"/></g>
<g><path style="opacity:1" fill="#362f0f" d="M 66.5,89.5 C 65.5,90.8333 64.5,92.1667 63.5,93.5C 60.0568,95.1044 56.7234,96.9377 53.5,99C 52.2506,99.7401 51.2506,99.5735 50.5,98.5C 52.0269,98.573 53.0269,97.9063 53.5,96.5C 57.9926,94.421 62.326,92.0877 66.5,89.5 Z"/></g>
<g><path style="opacity:1" fill="#312307" d="M 7.5,10.5 C 29.8333,10.5 52.1667,10.5 74.5,10.5C 74.5,10.8333 74.5,11.1667 74.5,11.5C 52.8651,11.3687 31.1984,11.702 9.5,12.5C 8.17119,43.2941 8.17119,73.9607 9.5,104.5C 10.5,104.5 11.5,104.5 12.5,104.5C 13.8333,104.5 15.1667,104.5 16.5,104.5C 31.5,104.5 46.5,104.5 61.5,104.5C 78.1667,104.5 94.8333,104.5 111.5,104.5C 111.5,104.833 111.5,105.167 111.5,105.5C 106.5,105.5 101.5,105.5 96.5,105.5C 66.8333,105.5 37.1667,105.5 7.5,105.5C 7.5,73.8333 7.5,42.1667 7.5,10.5 Z"/></g>
<g><path style="opacity:1" fill="#393311" d="M 301.5,12.5 C 301.833,12.5 302.167,12.5 302.5,12.5C 302.5,43.5 302.5,74.5 302.5,105.5C 238.833,105.5 175.167,105.5 111.5,105.5C 111.5,105.167 111.5,104.833 111.5,104.5C 125.167,104.5 138.833,104.5 152.5,104.5C 181.833,104.5 211.167,104.5 240.5,104.5C 257.167,104.5 273.833,104.5 290.5,104.5C 291.5,104.5 292.5,104.5 293.5,104.5C 295.167,104.5 296.833,104.5 298.5,104.5C 299.5,104.5 300.5,104.5 301.5,104.5C 301.5,75.5 301.5,46.5 301.5,17.5C 301.5,15.8333 301.5,14.1667 301.5,12.5 Z"/></g>
<g><path style="opacity:1" fill="#e3cd5e" d="M 96.5,105.5 C 101.5,105.5 106.5,105.5 111.5,105.5C 175.167,105.5 238.833,105.5 302.5,105.5C 281.5,106.167 260.5,106.833 239.5,107.5C 204.167,107.5 168.833,107.5 133.5,107.5C 121.167,107.5 108.833,107.5 96.5,107.5C 96.5,106.833 96.5,106.167 96.5,105.5 Z"/></g>
<g><path style="opacity:1" fill="#f2ea69" d="M 304.5,106.5 C 283.006,107.497 261.34,107.831 239.5,107.5C 260.5,106.833 281.5,106.167 302.5,105.5C 303.332,88.3382 303.832,71.0048 304,53.5C 304.5,71.1635 304.667,88.8302 304.5,106.5 Z"/></g>
<g><path style="opacity:1" fill="#e8c67e" d="M 4.5,105.5 C 34.9427,107.48 65.6094,108.147 96.5,107.5C 108.833,107.5 121.167,107.5 133.5,107.5C 133.5,107.833 133.5,108.167 133.5,108.5C 90.5,108.5 47.5,108.5 4.5,108.5C 4.5,107.5 4.5,106.5 4.5,105.5 Z"/></g>
<g><path style="opacity:1" fill="#cfc06e" d="M 305.5,7.5 C 306.498,40.9959 306.832,74.6625 306.5,108.5C 248.833,108.5 191.167,108.5 133.5,108.5C 133.5,108.167 133.5,107.833 133.5,107.5C 168.833,107.5 204.167,107.5 239.5,107.5C 261.34,107.831 283.006,107.497 304.5,106.5C 305.498,73.6709 305.832,40.6709 305.5,7.5 Z"/></g>
<g><path style="opacity:1" fill="#44321b" d="M 3.5,7.5 C 3.83333,7.5 4.16667,7.5 4.5,7.5C 4.5,40.1667 4.5,72.8333 4.5,105.5C 4.5,106.5 4.5,107.5 4.5,108.5C 67.1667,109.167 129.833,109.833 192.5,110.5C 165.167,110.5 137.833,110.5 110.5,110.5C 79.1667,110.5 47.8333,110.5 16.5,110.5C 13.6146,110.194 10.9479,110.527 8.5,111.5C 5.71497,112.084 4.0483,111.084 3.5,108.5C 3.5,74.8333 3.5,41.1667 3.5,7.5 Z"/></g>
<g><path style="opacity:1" fill="#453a19" d="M 6.5,7.5 C 8.26465,6.53862 10.2646,6.20528 12.5,6.5C 56.5,6.5 100.5,6.5 144.5,6.5C 197.833,6.5 251.167,6.5 304.5,6.5C 306.103,6.31181 307.437,6.81181 308.5,8C 307.173,40.958 307.173,73.958 308.5,107C 308.265,107.873 307.931,108.707 307.5,109.5C 303.555,110.491 299.555,110.824 295.5,110.5C 261.167,110.5 226.833,110.5 192.5,110.5C 129.833,109.833 67.1667,109.167 4.5,108.5C 47.5,108.5 90.5,108.5 133.5,108.5C 191.167,108.5 248.833,108.5 306.5,108.5C 306.832,74.6625 306.498,40.9959 305.5,7.5C 267.833,7.5 230.167,7.5 192.5,7.5C 160.5,7.5 128.5,7.5 96.5,7.5C 66.5,7.5 36.5,7.5 6.5,7.5 Z"/></g>
<g><path style="opacity:1" fill="#252724" d="M 16.5,110.5 C 47.8333,110.5 79.1667,110.5 110.5,110.5C 133.546,111.009 156.546,112.342 179.5,114.5C 135.833,114.5 92.1667,114.5 48.5,114.5C 48.5858,113.504 48.2524,112.671 47.5,112C 36.9919,111.83 26.6585,111.33 16.5,110.5 Z"/></g>
<g><path style="opacity:1" fill="#1e2027" d="M 16.5,110.5 C 26.6585,111.33 36.9919,111.83 47.5,112C 48.2524,112.671 48.5858,113.504 48.5,114.5C 35.1667,114.5 21.8333,114.5 8.5,114.5C 8.5,113.5 8.5,112.5 8.5,111.5C 10.9479,110.527 13.6146,110.194 16.5,110.5 Z"/></g>
<g><path style="opacity:1" fill="#30302f" d="M 310.5,105.5 C 310.5,108.5 310.5,111.5 310.5,114.5C 266.833,114.5 223.167,114.5 179.5,114.5C 156.546,112.342 133.546,111.009 110.5,110.5C 137.833,110.5 165.167,110.5 192.5,110.5C 226.833,110.5 261.167,110.5 295.5,110.5C 299.347,111.54 303.347,112.04 307.5,112C 308.926,109.955 309.926,107.788 310.5,105.5 Z"/></g>
</svg>
