<?xml version="1.0" encoding="UTF-8"?>
<!DOCTYPE svg PUBLIC "-//W3C//DTD SVG 1.1//EN" "http://www.w3.org/Graphics/SVG/1.1/DTD/svg11.dtd">
<svg xmlns="http://www.w3.org/2000/svg" version="1.1" width="3500px" height="1440px" style="shape-rendering:geometricPrecision; text-rendering:geometricPrecision; image-rendering:optimizeQuality; fill-rule:evenodd; clip-rule:evenodd" xmlns:xlink="http://www.w3.org/1999/xlink">
<g><path style="opacity:1" fill="#7b4143" d="M 1081.5,148.5 C 1018.87,209.633 956.033,270.633 893,331.5C 892.601,331.272 892.435,330.938 892.5,330.5C 909.456,283.131 933.289,239.797 964,200.5C 978.792,182.03 996.292,166.863 1016.5,155C 1037.48,144.951 1059.14,142.784 1081.5,148.5 Z"/></g>
<g><path style="opacity:1" fill="#8b5a56" d="M 1231.5,146.5 C 1244.27,144.61 1256.94,145.61 1269.5,149.5C 1264.1,156.41 1258.1,162.91 1251.5,169C 1179.97,237.7 1108.63,306.534 1037.5,375.5C 1025.47,373.907 1013.8,371.241 1002.5,367.5C 1007.94,363.234 1013.27,358.734 1018.5,354C 1089.53,284.636 1160.86,215.636 1232.5,147C 1232.27,146.601 1231.94,146.435 1231.5,146.5 Z"/></g>
<g><path style="opacity:1" fill="#885652" d="M 1231.5,146.5 C 1231.94,146.435 1232.27,146.601 1232.5,147C 1160.86,215.636 1089.53,284.636 1018.5,354C 1013.27,358.734 1007.94,363.234 1002.5,367.5C 996.079,366.471 990.079,364.471 984.5,361.5C 1056.3,292.87 1127.96,224.037 1199.5,155C 1198.91,154.536 1198.24,154.369 1197.5,154.5C 1208.22,149.685 1219.56,147.019 1231.5,146.5 Z"/></g>
<g><path style="opacity:1" fill="#7f4747" d="M 1081.5,148.5 C 1093.12,150.373 1104.12,154.039 1114.5,159.5C 1107.76,167.745 1100.43,175.578 1092.5,183C 1039.3,234.034 986.301,285.2 933.5,336.5C 920.627,338.373 912.96,345.706 910.5,358.5C 856.398,409.766 802.732,461.6 749.5,514C 745.939,517.073 742.272,519.906 738.5,522.5C 727.903,518.535 717.903,513.535 708.5,507.5C 711.268,505.913 713.935,504.08 716.5,502C 762.833,457 809.167,412 855.5,367C 855.272,366.601 854.938,366.435 854.5,366.5C 863.239,364.097 872.239,362.43 881.5,361.5C 884.368,350.789 888.034,340.456 892.5,330.5C 892.435,330.938 892.601,331.272 893,331.5C 956.033,270.633 1018.87,209.633 1081.5,148.5 Z"/></g>
<g><path style="opacity:1" fill="#8e5f59" d="M 1269.5,149.5 C 1276.76,151.796 1283.43,155.129 1289.5,159.5C 1288.12,162.394 1286.12,164.894 1283.5,167C 1209.97,237.7 1136.63,308.534 1063.5,379.5C 1054.6,378.802 1045.94,377.469 1037.5,375.5C 1108.63,306.534 1179.97,237.7 1251.5,169C 1258.1,162.91 1264.1,156.41 1269.5,149.5 Z"/></g>
<g><path style="opacity:1" fill="#865350" d="M 1197.5,154.5 C 1198.24,154.369 1198.91,154.536 1199.5,155C 1127.96,224.037 1056.3,292.87 984.5,361.5C 977.97,359.899 971.97,357.233 966.5,353.5C 972.608,348.566 978.608,343.399 984.5,338C 1038.4,285.27 1092.4,232.77 1146.5,180.5C 1147.6,181.8 1148.93,182.3 1150.5,182C 1164.33,169.751 1179.99,160.584 1197.5,154.5 Z"/></g>
<g><path style="opacity:1" fill="#824c4b" d="M 1114.5,159.5 C 1121.53,163.012 1128.2,167.012 1134.5,171.5C 1131.77,175.737 1128.44,179.571 1124.5,183C 1067.96,237.703 1011.3,292.203 954.5,346.5C 948.96,340.231 941.96,336.898 933.5,336.5C 986.301,285.2 1039.3,234.034 1092.5,183C 1100.43,175.578 1107.76,167.745 1114.5,159.5 Z"/></g>
<g><path style="opacity:1" fill="#90635c" d="M 1289.5,159.5 C 1295.07,162.446 1300.07,166.112 1304.5,170.5C 1298.76,177.744 1292.43,184.577 1285.5,191C 1219.53,253.969 1153.86,317.303 1088.5,381C 1087.21,381.49 1085.87,381.657 1084.5,381.5C 1077.42,381.417 1070.42,380.751 1063.5,379.5C 1136.63,308.534 1209.97,237.7 1283.5,167C 1286.12,164.894 1288.12,162.394 1289.5,159.5 Z"/></g>
<g><path style="opacity:1" fill="#93675f" d="M 1304.5,170.5 C 1308.96,173.787 1313.29,177.287 1317.5,181C 1320.75,183.747 1323.42,186.914 1325.5,190.5C 1323.78,193.731 1321.45,196.564 1318.5,199C 1254.53,259.969 1190.86,321.303 1127.5,383C 1124.85,383.497 1122.19,383.664 1119.5,383.5C 1107.63,383.714 1095.96,383.047 1084.5,381.5C 1085.87,381.657 1087.21,381.49 1088.5,381C 1153.86,317.303 1219.53,253.969 1285.5,191C 1292.43,184.577 1298.76,177.744 1304.5,170.5 Z"/></g>
<g><path style="opacity:1" fill="#84504e" d="M 1134.5,171.5 C 1138.9,174.025 1142.9,177.025 1146.5,180.5C 1092.4,232.77 1038.4,285.27 984.5,338C 978.608,343.399 972.608,348.566 966.5,353.5C 961.976,351.957 957.976,349.623 954.5,346.5C 1011.3,292.203 1067.96,237.703 1124.5,183C 1128.44,179.571 1131.77,175.737 1134.5,171.5 Z"/></g>
<g><path style="opacity:1" fill="#966c62" d="M 1325.5,190.5 C 1329.52,193.558 1332.86,197.225 1335.5,201.5C 1272.8,262.863 1209.8,323.863 1146.5,384.5C 1137.32,384.827 1128.32,384.493 1119.5,383.5C 1122.19,383.664 1124.85,383.497 1127.5,383C 1190.86,321.303 1254.53,259.969 1318.5,199C 1321.45,196.564 1323.78,193.731 1325.5,190.5 Z"/></g>
<g><path style="opacity:1" fill="#986e64" d="M 1335.5,201.5 C 1339.06,205.614 1342.4,209.948 1345.5,214.5C 1338.76,222.745 1331.43,230.578 1323.5,238C 1272.63,286.7 1221.97,335.534 1171.5,384.5C 1163.17,384.5 1154.83,384.5 1146.5,384.5C 1209.8,323.863 1272.8,262.863 1335.5,201.5 Z"/></g>
<g><path style="opacity:1" fill="#9b7368" d="M 1345.5,214.5 C 1352.58,223.645 1358.91,233.312 1364.5,243.5C 1323.67,282.828 1282.67,321.994 1241.5,361C 1234.57,367.423 1228.24,374.256 1222.5,381.5C 1205.51,382.666 1188.51,383.666 1171.5,384.5C 1221.97,335.534 1272.63,286.7 1323.5,238C 1331.43,230.578 1338.76,222.745 1345.5,214.5 Z"/></g>
<g><path style="opacity:1" fill="#9e796c" d="M 1364.5,243.5 C 1370.26,252.009 1375.26,261.009 1379.5,270.5C 1374.43,277.076 1368.76,283.243 1362.5,289C 1333.33,316.337 1304.66,344.171 1276.5,372.5C 1258.79,376.563 1240.79,379.563 1222.5,381.5C 1228.24,374.256 1234.57,367.423 1241.5,361C 1282.67,321.994 1323.67,282.828 1364.5,243.5 Z"/></g>
<g><path style="opacity:1" fill="#a38071" d="M 1379.5,270.5 C 1386.23,281.958 1391.89,293.958 1396.5,306.5C 1386.73,315.771 1377.06,325.271 1367.5,335C 1365.39,335.845 1363.39,336.678 1361.5,337.5C 1357.94,337.965 1354.61,339.132 1351.5,341C 1335.23,353.968 1316.9,362.968 1296.5,368C 1289.89,369.82 1283.22,371.32 1276.5,372.5C 1304.66,344.171 1333.33,316.337 1362.5,289C 1368.76,283.243 1374.43,277.076 1379.5,270.5 Z"/></g>
<g><path style="opacity:1" fill="#a78676" d="M 1396.5,306.5 C 1401.91,316.656 1406.24,327.322 1409.5,338.5C 1402.2,344.464 1395.2,350.797 1388.5,357.5C 1385.13,343.308 1376.13,336.641 1361.5,337.5C 1363.39,336.678 1365.39,335.845 1367.5,335C 1377.06,325.271 1386.73,315.771 1396.5,306.5 Z"/></g>
<g><path style="opacity:1" fill="#aa8c7a" d="M 1409.5,338.5 C 1412.94,345.803 1415.6,353.47 1417.5,361.5C 1419.86,361.674 1422.19,362.007 1424.5,362.5C 1351.53,432.804 1278.86,503.47 1206.5,574.5C 1205.83,574.5 1205.5,574.833 1205.5,575.5C 1191.5,575.5 1177.5,575.5 1163.5,575.5C 1222.17,518.5 1280.83,461.5 1339.5,404.5C 1352.39,398.384 1364.73,391.217 1376.5,383C 1380.75,379.419 1384.25,375.252 1387,370.5C 1388.29,366.27 1388.79,361.936 1388.5,357.5C 1395.2,350.797 1402.2,344.464 1409.5,338.5 Z"/></g>
<g><path style="opacity:1" fill="#ad907d" d="M 1424.5,362.5 C 1431.22,363.71 1437.88,365.043 1444.5,366.5C 1373.37,435.466 1302.03,504.3 1230.5,573C 1231.79,573.49 1233.13,573.657 1234.5,573.5C 1234.5,573.833 1234.5,574.167 1234.5,574.5C 1225.17,574.5 1215.83,574.5 1206.5,574.5C 1278.86,503.47 1351.53,432.804 1424.5,362.5 Z"/></g>
<g><path style="opacity:1" fill="#824c4b" d="M 910.5,358.5 C 910.386,367.17 913.386,374.504 919.5,380.5C 867.473,430.861 815.473,481.194 763.5,531.5C 754.787,529.299 746.454,526.299 738.5,522.5C 742.272,519.906 745.939,517.073 749.5,514C 802.732,461.6 856.398,409.766 910.5,358.5 Z"/></g>
<g><path style="opacity:1" fill="#af9380" d="M 1444.5,366.5 C 1451.86,367.705 1459.19,369.038 1466.5,370.5C 1397.47,438.197 1328.14,505.53 1258.5,572.5C 1256.59,572.216 1254.92,572.549 1253.5,573.5C 1247.17,573.5 1240.83,573.5 1234.5,573.5C 1233.13,573.657 1231.79,573.49 1230.5,573C 1302.03,504.3 1373.37,435.466 1444.5,366.5 Z"/></g>
<g><path style="opacity:1" fill="#7b4143" d="M 854.5,366.5 C 854.938,366.435 855.272,366.601 855.5,367C 809.167,412 762.833,457 716.5,502C 713.935,504.08 711.268,505.913 708.5,507.5C 699.007,502.346 690.674,495.68 683.5,487.5C 721.551,452.62 758.884,416.787 795.5,380C 794.906,379.536 794.239,379.369 793.5,379.5C 813.479,374.036 833.812,369.703 854.5,366.5 Z"/></g>
<g><path style="opacity:1" fill="#b19782" d="M 1466.5,370.5 C 1472.5,371.833 1478.5,373.167 1484.5,374.5C 1416.64,439.937 1348.97,505.604 1281.5,571.5C 1277.63,571.185 1273.96,571.518 1270.5,572.5C 1266.5,572.5 1262.5,572.5 1258.5,572.5C 1328.14,505.53 1397.47,438.197 1466.5,370.5 Z"/></g>
<g><path style="opacity:1" fill="#b39984" d="M 1484.5,374.5 C 1517.74,381.392 1550.07,391.226 1581.5,404C 1597.75,410.689 1611.25,420.855 1622,434.5C 1631.43,454.569 1628.76,472.903 1614,489.5C 1598.19,504.329 1580.03,515.496 1559.5,523C 1525.88,535.486 1491.55,544.986 1456.5,551.5C 1454.59,551.216 1452.92,551.549 1451.5,552.5C 1430.56,555.888 1409.56,558.888 1388.5,561.5C 1380.35,562.536 1372.18,563.536 1364,564.5C 1362.32,564.608 1361.15,565.275 1360.5,566.5C 1356.83,565.167 1353.17,565.167 1349.5,566.5C 1345.63,566.185 1341.96,566.518 1338.5,567.5C 1334.3,567.183 1330.3,567.517 1326.5,568.5C 1318.63,568.461 1310.96,569.128 1303.5,570.5C 1302.5,570.5 1301.5,570.5 1300.5,570.5C 1296.3,570.183 1292.3,570.517 1288.5,571.5C 1286.17,571.5 1283.83,571.5 1281.5,571.5C 1348.97,505.604 1416.64,439.937 1484.5,374.5 Z"/></g>
<g><path style="opacity:1" fill="#773c3f" d="M 793.5,379.5 C 794.239,379.369 794.906,379.536 795.5,380C 758.884,416.787 721.551,452.62 683.5,487.5C 669.678,470.457 667.845,452.123 678,432.5C 684.723,424.389 692.556,417.556 701.5,412C 730.725,397.092 761.391,386.258 793.5,379.5 Z"/></g>
<g><path style="opacity:1" fill="#84504e" d="M 919.5,380.5 C 923.352,382.925 927.019,385.591 930.5,388.5C 880.744,437.753 830.411,486.587 779.5,535C 778.552,535.483 777.552,535.649 776.5,535.5C 771.835,534.922 767.501,533.589 763.5,531.5C 815.473,481.194 867.473,430.861 919.5,380.5 Z"/></g>
<g><path style="opacity:1" fill="#865350" d="M 930.5,388.5 C 935.833,391.5 941.167,394.5 946.5,397.5C 941.43,404.076 935.763,410.243 929.5,416C 885.664,457.337 842.33,499.17 799.5,541.5C 791.527,540.258 783.86,538.258 776.5,535.5C 777.552,535.649 778.552,535.483 779.5,535C 830.411,486.587 880.744,437.753 930.5,388.5 Z"/></g>
<g><path style="opacity:1" fill="#885652" d="M 946.5,397.5 C 952.417,400.361 958.417,403.028 964.5,405.5C 915.862,452.137 867.529,499.137 819.5,546.5C 812.572,545.435 805.905,543.768 799.5,541.5C 842.33,499.17 885.664,457.337 929.5,416C 935.763,410.243 941.43,404.076 946.5,397.5 Z"/></g>
<g><path style="opacity:1" fill="#8b5a56" d="M 964.5,405.5 C 974.311,409.406 984.311,412.739 994.5,415.5C 948.274,460.89 901.774,506.223 855,551.5C 854.536,552.094 854.369,552.761 854.5,553.5C 850.476,552.962 846.476,552.295 842.5,551.5C 834.784,549.957 827.117,548.29 819.5,546.5C 867.529,499.137 915.862,452.137 964.5,405.5 Z"/></g>
<g><path style="opacity:1" fill="#a88877" d="M 1339.5,404.5 C 1280.83,461.5 1222.17,518.5 1163.5,575.5C 1156.83,575.5 1150.17,575.5 1143.5,575.5C 1190,529.504 1237,484.004 1284.5,439C 1292.72,431.302 1300.06,423.469 1306.5,415.5C 1317.35,411.66 1328.35,407.994 1339.5,404.5 Z"/></g>
<g><path style="opacity:1" fill="#8e5f59" d="M 994.5,415.5 C 1002.69,417.213 1010.69,419.213 1018.5,421.5C 973.336,466.163 927.67,510.33 881.5,554C 880.177,554.816 879.511,555.983 879.5,557.5C 871.147,556.274 862.814,554.941 854.5,553.5C 854.369,552.761 854.536,552.094 855,551.5C 901.774,506.223 948.274,460.89 994.5,415.5 Z"/></g>
<g><path style="opacity:1" fill="#a68575" d="M 1306.5,415.5 C 1300.06,423.469 1292.72,431.302 1284.5,439C 1237,484.004 1190,529.504 1143.5,575.5C 1138.5,575.5 1133.5,575.5 1128.5,575.5C 1125.15,575.665 1121.82,575.498 1118.5,575C 1171.34,524.663 1223.67,473.829 1275.5,422.5C 1285.77,420.015 1296.11,417.682 1306.5,415.5 Z"/></g>
<g><path style="opacity:1" fill="#90635c" d="M 1018.5,421.5 C 1026.38,422.346 1034.05,423.679 1041.5,425.5C 995.471,470.863 949.138,515.863 902.5,560.5C 897.103,560.011 891.769,559.344 886.5,558.5C 884.05,558.702 881.717,558.369 879.5,557.5C 879.511,555.983 880.177,554.816 881.5,554C 927.67,510.33 973.336,466.163 1018.5,421.5 Z"/></g>
<g><path style="opacity:1" fill="#a38172" d="M 1275.5,422.5 C 1223.67,473.829 1171.34,524.663 1118.5,575C 1121.82,575.498 1125.15,575.665 1128.5,575.5C 1128.5,575.833 1128.5,576.167 1128.5,576.5C 1127.93,578.952 1127.27,581.285 1126.5,583.5C 1126.57,583.062 1126.4,582.728 1126,582.5C 1123.95,585.989 1121.29,586.323 1118,583.5C 1100.71,610.582 1083.54,637.749 1066.5,665C 1070.55,664.982 1074.55,664.649 1078.5,664C 1067.24,681.696 1056.91,699.863 1047.5,718.5C 1041.85,719.032 1036.18,719.365 1030.5,719.5C 1032.99,718.238 1034.83,716.238 1036,713.5C 1044.7,698.963 1053.2,684.296 1061.5,669.5C 1058.89,668.682 1056.23,668.182 1053.5,668C 1071.79,639.251 1089.96,610.418 1108,581.5C 1109.72,581.038 1111.55,580.872 1113.5,581C 1114.26,579.488 1115.26,578.154 1116.5,577C 1112.97,575.663 1109.31,575.163 1105.5,575.5C 1101.5,575.5 1097.5,575.5 1093.5,575.5C 1091.38,575.675 1089.38,575.341 1087.5,574.5C 1137,525.504 1187,477.004 1237.5,429C 1237.27,428.601 1236.94,428.435 1236.5,428.5C 1249.35,426.415 1262.35,424.415 1275.5,422.5 Z"/></g>
<g><path style="opacity:1" fill="#93675f" d="M 1041.5,425.5 C 1053.82,426.916 1066.16,428.249 1078.5,429.5C 1032.47,475.2 985.801,520.2 938.5,564.5C 929.5,563.833 920.5,563.167 911.5,562.5C 908.61,561.755 905.61,561.088 902.5,560.5C 949.138,515.863 995.471,470.863 1041.5,425.5 Z"/></g>
<g><path style="opacity:1" fill="#a17d6f" d="M 1236.5,428.5 C 1236.94,428.435 1237.27,428.601 1237.5,429C 1187,477.004 1137,525.504 1087.5,574.5C 1083.83,574.5 1080.17,574.5 1076.5,574.5C 1075.17,574.5 1073.83,574.5 1072.5,574.5C 1071.05,573.698 1069.38,573.198 1067.5,573C 1117,525.996 1166,478.496 1214.5,430.5C 1221.74,429.297 1229.07,428.63 1236.5,428.5 Z"/></g>
<g><path style="opacity:1" fill="#966b62" d="M 1078.5,429.5 C 1083.48,430.053 1088.48,430.387 1093.5,430.5C 1094.61,431.29 1095.94,431.79 1097.5,432C 1050.86,476.303 1004.53,520.969 958.5,566C 959.056,566.383 959.389,566.883 959.5,567.5C 952.885,566.365 946.218,565.698 939.5,565.5C 938.833,565.5 938.5,565.167 938.5,564.5C 985.801,520.2 1032.47,475.2 1078.5,429.5 Z"/></g>
<g><path style="opacity:1" fill="#9e796c" d="M 1214.5,430.5 C 1166,478.496 1117,525.996 1067.5,573C 1069.38,573.198 1071.05,573.698 1072.5,574.5C 1066.46,574.64 1060.46,574.307 1054.5,573.5C 1052.5,573.5 1050.5,573.5 1048.5,573.5C 1043.15,573.431 1037.81,573.098 1032.5,572.5C 1031.5,572.5 1030.5,572.5 1029.5,572.5C 1028.05,571.698 1026.38,571.198 1024.5,571C 1072.06,524.603 1119.73,478.436 1167.5,432.5C 1183.16,431.743 1198.83,431.076 1214.5,430.5 Z"/></g>
<g><path style="opacity:1" fill="#976e64" d="M 1093.5,430.5 C 1099.81,431.19 1106.14,431.524 1112.5,431.5C 1114.97,432.317 1117.64,432.817 1120.5,433C 1074.17,478 1027.83,523 981.5,568C 983.058,568.21 984.391,568.71 985.5,569.5C 982.098,569.658 978.764,569.324 975.5,568.5C 970.155,568.313 964.822,567.98 959.5,567.5C 959.389,566.883 959.056,566.383 958.5,566C 1004.53,520.969 1050.86,476.303 1097.5,432C 1095.94,431.79 1094.61,431.29 1093.5,430.5 Z"/></g>
<g><path style="opacity:1" fill="#9a7368" d="M 1112.5,431.5 C 1130.82,432.369 1149.15,432.703 1167.5,432.5C 1119.73,478.436 1072.06,524.603 1024.5,571C 1026.38,571.198 1028.05,571.698 1029.5,572.5C 1024.85,572.002 1020.18,571.669 1015.5,571.5C 1014.17,571.5 1012.83,571.5 1011.5,571.5C 1004.18,570.962 996.845,570.629 989.5,570.5C 988.292,569.766 986.959,569.433 985.5,569.5C 984.391,568.71 983.058,568.21 981.5,568C 1027.83,523 1074.17,478 1120.5,433C 1117.64,432.817 1114.97,432.317 1112.5,431.5 Z"/></g>
<g><path style="opacity:1" fill="#382322" d="M 2499.5,694.5 C 2500.17,696.5 2500.83,698.5 2501.5,700.5C 2505.11,727.948 2520.45,738.782 2547.5,733C 2555.89,729.737 2561.72,723.904 2565,715.5C 2573.75,694.461 2569.25,676.961 2551.5,663C 2539.66,655.582 2528,647.915 2516.5,640C 2499.86,625.4 2494.02,607.233 2499,585.5C 2504.83,558.333 2521.33,541.833 2548.5,536C 2567.94,532.107 2585.94,535.44 2602.5,546C 2615.16,557.64 2620.49,571.974 2618.5,589C 2609.52,591.328 2600.52,593.494 2591.5,595.5C 2590.3,568.877 2576.63,558.711 2550.5,565C 2534.15,573.872 2528.32,587.372 2533,605.5C 2534.75,608.672 2536.75,611.672 2539,614.5C 2554.17,625 2569.33,635.5 2584.5,646C 2601.44,662.007 2607.44,681.507 2602.5,704.5C 2596.87,735.631 2578.87,755.464 2548.5,764C 2529.98,767.778 2512.31,765.445 2495.5,757C 2476.74,743.252 2468.74,724.752 2471.5,701.5C 2480.77,698.85 2490.1,696.516 2499.5,694.5 Z"/></g>
<g><path style="opacity:1" fill="#594746" d="M 1915.5,538.5 C 1926.99,537.505 1938.65,537.172 1950.5,537.5C 1950.78,539.415 1950.45,541.081 1949.5,542.5C 1949.5,541.167 1949.5,539.833 1949.5,538.5C 1938.17,538.5 1926.83,538.5 1915.5,538.5 Z"/></g>
<g><path style="opacity:1" fill="#5b4949" d="M 2379.5,539.5 C 2368.68,538.505 2357.68,538.172 2346.5,538.5C 2346.74,539.791 2346.4,540.791 2345.5,541.5C 2345.5,540.167 2345.5,538.833 2345.5,537.5C 2357.19,537.168 2368.85,537.501 2380.5,538.5C 2380.38,539.107 2380.04,539.44 2379.5,539.5 Z"/></g>
<g><path style="opacity:1" fill="#382322" d="M 1915.5,538.5 C 1926.83,538.5 1938.17,538.5 1949.5,538.5C 1949.5,539.833 1949.5,541.167 1949.5,542.5C 1939.09,605.467 1928.09,668.301 1916.5,731C 1939.83,731.333 1963.17,731.667 1986.5,732C 1986.83,732.333 1987.17,732.667 1987.5,733C 1985.4,742.408 1983.57,751.908 1982,761.5C 1946.57,762.829 1911.07,762.829 1875.5,761.5C 1888.74,687.027 1902.08,612.693 1915.5,538.5 Z"/></g>
<g><path style="opacity:1" fill="#372221" d="M 2379.5,539.5 C 2378.37,549.954 2376.7,560.287 2374.5,570.5C 2363.5,570.5 2352.5,570.5 2341.5,570.5C 2341.5,569.167 2341.5,567.833 2341.5,566.5C 2342.51,558.105 2343.84,549.771 2345.5,541.5C 2346.4,540.791 2346.74,539.791 2346.5,538.5C 2357.68,538.172 2368.68,538.505 2379.5,539.5 Z"/></g>
<g><path style="opacity:1" fill="#aa8c7a" d="M 1451.5,552.5 C 1452.92,551.549 1454.59,551.216 1456.5,551.5C 1461.85,558.202 1466.19,565.535 1469.5,573.5C 1458.91,591.684 1447.58,609.351 1435.5,626.5C 1434.08,615.504 1431.42,604.837 1427.5,594.5C 1436.72,581.07 1445.72,567.403 1454.5,553.5C 1453.68,552.614 1452.68,552.281 1451.5,552.5 Z"/></g>
<g><path style="opacity:1" fill="#a78676" d="M 1451.5,552.5 C 1452.68,552.281 1453.68,552.614 1454.5,553.5C 1445.72,567.403 1436.72,581.07 1427.5,594.5C 1424.65,587.986 1420.65,582.152 1415.5,577C 1403.1,577.472 1394.1,572.306 1388.5,561.5C 1409.56,558.888 1430.56,555.888 1451.5,552.5 Z"/></g>
<g><path style="opacity:1" fill="#631d28" d="M 842.5,551.5 C 846.476,552.295 850.476,552.962 854.5,553.5C 862.814,554.941 871.147,556.274 879.5,557.5C 881.717,558.369 884.05,558.702 886.5,558.5C 886.649,559.552 886.483,560.552 886,561.5C 863.333,596.167 840.667,630.833 818,665.5C 817.329,666.252 816.496,666.586 815.5,666.5C 812.181,633.564 817.014,601.898 830,571.5C 833.427,564.301 837.593,557.634 842.5,551.5 Z"/></g>
<g><path style="opacity:1" fill="#372321" d="M 2444.5,595.5 C 2455.17,596.167 2465.83,596.833 2476.5,597.5C 2475.5,604.836 2474.5,612.169 2473.5,619.5C 2462.08,618.869 2450.91,619.536 2440,621.5C 2435.11,649.853 2430.11,678.186 2425,706.5C 2423.63,714.125 2423.29,721.792 2424,729.5C 2425.73,732.953 2428.56,734.786 2432.5,735C 2438.49,735.499 2444.49,735.666 2450.5,735.5C 2449.06,744.485 2447.72,753.485 2446.5,762.5C 2433.44,762.922 2420.44,762.422 2407.5,761C 2397.59,758.093 2391.43,751.593 2389,741.5C 2388.33,733.5 2388.33,725.5 2389,717.5C 2394.59,684.913 2400.42,652.413 2406.5,620C 2400.18,619.5 2393.84,619.334 2387.5,619.5C 2388.83,611.499 2390.17,603.499 2391.5,595.5C 2398.53,595.83 2405.53,595.497 2412.5,594.5C 2416.57,582.462 2420.73,570.462 2425,558.5C 2433.76,557.35 2442.59,557.184 2451.5,558C 2448.9,570.422 2446.57,582.922 2444.5,595.5 Z"/></g>
<g><path style="opacity:1" fill="#68242e" d="M 939.5,565.5 C 946.218,565.698 952.885,566.365 959.5,567.5C 951.426,580.641 943.593,593.975 936,607.5C 935.23,608.598 934.397,608.598 933.5,607.5C 933.334,599.16 933.5,590.827 934,582.5C 935.141,576.577 936.975,570.91 939.5,565.5 Z"/></g>
<g><path style="opacity:1" fill="#aa8c7a" d="M 1349.5,566.5 C 1339.61,583.943 1329.44,601.276 1319,618.5C 1318.67,611.833 1318.33,605.167 1318,598.5C 1302.82,622.861 1287.66,647.195 1272.5,671.5C 1270.17,671.5 1267.83,671.5 1265.5,671.5C 1265.17,671.5 1264.83,671.5 1264.5,671.5C 1281.64,643.889 1298.81,616.223 1316,588.5C 1316.67,587.167 1317.33,587.167 1318,588.5C 1318.77,592.147 1319.44,595.814 1320,599.5C 1326.44,588.942 1332.61,578.275 1338.5,567.5C 1341.96,566.518 1345.63,566.185 1349.5,566.5 Z"/></g>
<g><path style="opacity:1" fill="#6e2e34" d="M 959.5,567.5 C 964.822,567.98 970.155,568.313 975.5,568.5C 963.033,591.825 949.866,614.825 936,637.5C 935.768,636.263 935.268,635.263 934.5,634.5C 934.499,625.485 934.166,616.485 933.5,607.5C 934.397,608.598 935.23,608.598 936,607.5C 943.593,593.975 951.426,580.641 959.5,567.5 Z"/></g>
<g><path style="opacity:1" fill="#a38071" d="M 1326.5,568.5 C 1323.44,574.276 1320.11,579.943 1316.5,585.5C 1313.1,582.805 1310.26,583.138 1308,586.5C 1290.88,614.586 1273.38,642.419 1255.5,670C 1258.39,671.149 1261.39,671.649 1264.5,671.5C 1264.83,671.5 1265.17,671.5 1265.5,671.5C 1257.42,686.661 1249.09,701.661 1240.5,716.5C 1235.61,715.99 1230.94,714.99 1226.5,713.5C 1228.62,712.969 1230.12,711.635 1231,709.5C 1238.37,696.585 1245.87,683.751 1253.5,671C 1250.99,670.624 1248.66,669.79 1246.5,668.5C 1264.14,639.701 1281.97,611.034 1300,582.5C 1301.73,580.398 1303.73,580.065 1306,581.5C 1308.04,577.916 1310.21,574.416 1312.5,571C 1309.52,570.502 1306.52,570.335 1303.5,570.5C 1310.96,569.128 1318.63,568.461 1326.5,568.5 Z"/></g>
<g><path style="opacity:1" fill="#73353a" d="M 975.5,568.5 C 978.764,569.324 982.098,569.658 985.5,569.5C 986.959,569.433 988.292,569.766 989.5,570.5C 972.989,599.532 955.989,628.199 938.5,656.5C 936.53,649.314 935.197,641.981 934.5,634.5C 935.268,635.263 935.768,636.263 936,637.5C 949.866,614.825 963.033,591.825 975.5,568.5 Z"/></g>
<g><path style="opacity:1" fill="#763a3e" d="M 989.5,570.5 C 996.845,570.629 1004.18,570.962 1011.5,571.5C 1011.04,573.757 1010.04,575.757 1008.5,577.5C 1008.62,578.107 1008.96,578.44 1009.5,578.5C 1011.2,578.34 1012.87,578.506 1014.5,579C 1003.93,595.982 993.267,612.816 982.5,629.5C 982.5,629.167 982.5,628.833 982.5,628.5C 982.495,621.107 981.828,613.773 980.5,606.5C 968.763,625.632 957.263,644.966 946,664.5C 945.241,666.063 944.074,667.063 942.5,667.5C 940.796,664.061 939.462,660.395 938.5,656.5C 955.989,628.199 972.989,599.532 989.5,570.5 Z"/></g>
<g><path style="opacity:1" fill="#9e796c" d="M 1300.5,570.5 C 1301.5,570.5 1302.5,570.5 1303.5,570.5C 1306.52,570.335 1309.52,570.502 1312.5,571C 1310.21,574.416 1308.04,577.916 1306,581.5C 1303.73,580.065 1301.73,580.398 1300,582.5C 1281.97,611.034 1264.14,639.701 1246.5,668.5C 1248.66,669.79 1250.99,670.624 1253.5,671C 1245.87,683.751 1238.37,696.585 1231,709.5C 1230.12,711.635 1228.62,712.969 1226.5,713.5C 1223.57,713.435 1220.91,712.768 1218.5,711.5C 1226.48,697.555 1234.48,683.555 1242.5,669.5C 1240.89,668.573 1239.22,667.739 1237.5,667C 1255.79,638.251 1273.96,609.418 1292,580.5C 1296.46,578.604 1299.29,575.27 1300.5,570.5 Z"/></g>
<g><path style="opacity:1" fill="#5f4e4d" d="M 2341.5,566.5 C 2341.5,567.833 2341.5,569.167 2341.5,570.5C 2352.5,570.5 2363.5,570.5 2374.5,570.5C 2363.35,571.495 2352.01,571.828 2340.5,571.5C 2340.22,569.585 2340.55,567.919 2341.5,566.5 Z"/></g>
<g><path style="opacity:1" fill="#7e4747" d="M 1011.5,571.5 C 1012.83,571.5 1014.17,571.5 1015.5,571.5C 1017.7,572.165 1020.03,572.832 1022.5,573.5C 1022.02,574.478 1021.36,575.311 1020.5,576C 1025.17,576.333 1029.83,576.667 1034.5,577C 1019.21,601.082 1004.04,625.249 989,649.5C 988.333,650.833 987.667,650.833 987,649.5C 985.472,646.583 984.139,643.583 983,640.5C 973.977,656.563 964.477,672.23 954.5,687.5C 951.112,684.403 948.445,680.736 946.5,676.5C 949.522,676.572 951.688,675.238 953,672.5C 962.333,656.5 971.667,640.5 981,624.5C 981.21,626.058 981.71,627.391 982.5,628.5C 982.5,628.833 982.5,629.167 982.5,629.5C 982.457,632.91 982.957,636.243 984,639.5C 984.667,640.833 985.333,640.833 986,639.5C 998.958,619.084 1011.79,598.584 1024.5,578C 1019.32,577.184 1014.32,577.35 1009.5,578.5C 1008.96,578.44 1008.62,578.107 1008.5,577.5C 1010.04,575.757 1011.04,573.757 1011.5,571.5 Z"/></g>
<g><path style="opacity:1" fill="#9b7368" d="M 1300.5,570.5 C 1299.29,575.27 1296.46,578.604 1292,580.5C 1273.96,609.418 1255.79,638.251 1237.5,667C 1239.22,667.739 1240.89,668.573 1242.5,669.5C 1234.48,683.555 1226.48,697.555 1218.5,711.5C 1215.03,710.899 1211.7,709.899 1208.5,708.5C 1216.24,694.697 1224.24,681.03 1232.5,667.5C 1231.91,666.201 1230.91,665.368 1229.5,665C 1249.3,633.89 1268.97,602.723 1288.5,571.5C 1292.3,570.517 1296.3,570.183 1300.5,570.5 Z"/></g>
<g><path style="opacity:1" fill="#93685f" d="M 1253.5,573.5 C 1254.92,572.549 1256.59,572.216 1258.5,572.5C 1262.5,572.5 1266.5,572.5 1270.5,572.5C 1272.53,572.338 1274.53,572.505 1276.5,573C 1274.71,574.681 1274.21,576.514 1275,578.5C 1258.58,605.002 1241.92,631.336 1225,657.5C 1217.18,673.803 1208.35,689.469 1198.5,704.5C 1195.09,703.958 1192.09,702.625 1189.5,700.5C 1215.58,659.547 1241.58,618.38 1267.5,577C 1265.11,576.716 1264.45,575.716 1265.5,574C 1261.51,573.501 1257.51,573.334 1253.5,573.5 Z"/></g>
<g><path style="opacity:1" fill="#966d63" d="M 1270.5,572.5 C 1273.96,571.518 1277.63,571.185 1281.5,571.5C 1283.83,571.5 1286.17,571.5 1288.5,571.5C 1268.97,602.723 1249.3,633.89 1229.5,665C 1230.91,665.368 1231.91,666.201 1232.5,667.5C 1224.24,681.03 1216.24,694.697 1208.5,708.5C 1204.85,707.733 1201.52,706.4 1198.5,704.5C 1208.35,689.469 1217.18,673.803 1225,657.5C 1241.92,631.336 1258.58,605.002 1275,578.5C 1274.21,576.514 1274.71,574.681 1276.5,573C 1274.53,572.505 1272.53,572.338 1270.5,572.5 Z"/></g>
<g><path style="opacity:1" fill="#875552" d="M 1032.5,572.5 C 1037.81,573.098 1043.15,573.431 1048.5,573.5C 1048.39,574.117 1048.06,574.617 1047.5,575C 1050.23,575.413 1052.9,576.08 1055.5,577C 1037,606.323 1018.33,635.49 999.5,664.5C 998.252,663.96 997.085,663.293 996,662.5C 988.667,675.167 981.333,687.833 974,700.5C 972.887,701.305 971.721,701.972 970.5,702.5C 968.596,702.262 967.262,701.262 966.5,699.5C 967.496,699.586 968.329,699.252 969,698.5C 976.521,684.104 985.021,670.437 994.5,657.5C 1011.17,630.833 1027.83,604.167 1044.5,577.5C 1041.2,576.56 1037.86,575.727 1034.5,575C 1034.83,574.667 1035.17,574.333 1035.5,574C 1034.26,573.768 1033.26,573.268 1032.5,572.5 Z"/></g>
<g><path style="opacity:1" fill="#8b5a56" d="M 1048.5,573.5 C 1050.5,573.5 1052.5,573.5 1054.5,573.5C 1057.28,574.933 1060.28,576.1 1063.5,577C 1044.87,606.416 1026.37,635.916 1008,665.5C 1006.56,666.87 1004.89,667.87 1003,668.5C 996,680.5 989,692.5 982,704.5C 981.241,706.063 980.074,707.063 978.5,707.5C 975.489,706.331 972.822,704.664 970.5,702.5C 971.721,701.972 972.887,701.305 974,700.5C 981.333,687.833 988.667,675.167 996,662.5C 997.085,663.293 998.252,663.96 999.5,664.5C 1018.33,635.49 1037,606.323 1055.5,577C 1052.9,576.08 1050.23,575.413 1047.5,575C 1048.06,574.617 1048.39,574.117 1048.5,573.5 Z"/></g>
<g><path style="opacity:1" fill="#93675f" d="M 1072.5,574.5 C 1073.83,574.5 1075.17,574.5 1076.5,574.5C 1078.83,575.124 1081.17,575.957 1083.5,577C 1064,607.833 1044.5,638.667 1025,669.5C 1025,670.833 1025,672.167 1025,673.5C 1016.73,687.73 1008.23,701.73 999.5,715.5C 995.884,715.101 992.55,714.101 989.5,712.5C 991.624,711.969 993.124,710.635 994,708.5C 1020.24,664.437 1047.07,620.77 1074.5,577.5C 1073.62,576.749 1072.62,576.249 1071.5,576C 1072.06,575.617 1072.39,575.117 1072.5,574.5 Z"/></g>
<g><path style="opacity:1" fill="#8b5a56" d="M 1240.5,574.5 C 1246.01,574.205 1251.34,575.038 1256.5,577C 1239.97,602.7 1223.64,628.533 1207.5,654.5C 1205.83,655.167 1204.17,655.833 1202.5,656.5C 1195.33,668.833 1188.17,681.167 1181,693.5C 1179.99,694.337 1178.82,694.67 1177.5,694.5C 1174.67,693.921 1172.34,692.588 1170.5,690.5C 1171.5,690.586 1172.33,690.252 1173,689.5C 1180.33,676.833 1187.67,664.167 1195,651.5C 1197,651.5 1199,651.5 1201,651.5C 1216.08,626.998 1231.42,602.665 1247,578.5C 1247.69,577.668 1247.52,577.002 1246.5,576.5C 1244.34,575.95 1242.34,575.283 1240.5,574.5 Z"/></g>
<g><path style="opacity:1" fill="#976e64" d="M 1076.5,574.5 C 1080.17,574.5 1083.83,574.5 1087.5,574.5C 1089.38,575.341 1091.38,575.675 1093.5,575.5C 1073.33,607.183 1053.33,639.016 1033.5,671C 1034.83,671.333 1036.17,671.667 1037.5,672C 1028.27,687.053 1019.27,702.22 1010.5,717.5C 1006.58,717.57 1002.91,716.903 999.5,715.5C 1008.23,701.73 1016.73,687.73 1025,673.5C 1025,672.167 1025,670.833 1025,669.5C 1044.5,638.667 1064,607.833 1083.5,577C 1081.17,575.957 1078.83,575.124 1076.5,574.5 Z"/></g>
<g><path style="opacity:1" fill="#9b7368" d="M 1093.5,575.5 C 1097.5,575.5 1101.5,575.5 1105.5,575.5C 1104.35,578.089 1102.35,579.755 1099.5,580.5C 1080.96,610.417 1062.29,640.251 1043.5,670C 1045.5,670.333 1047.5,670.667 1049.5,671C 1041,685.5 1032.5,700 1024,714.5C 1023.12,716.635 1021.62,717.969 1019.5,718.5C 1016.29,718.81 1013.29,718.477 1010.5,717.5C 1019.27,702.22 1028.27,687.053 1037.5,672C 1036.17,671.667 1034.83,671.333 1033.5,671C 1053.33,639.016 1073.33,607.183 1093.5,575.5 Z"/></g>
<g><path style="opacity:1" fill="#9e796c" d="M 1105.5,575.5 C 1109.31,575.163 1112.97,575.663 1116.5,577C 1115.26,578.154 1114.26,579.488 1113.5,581C 1111.55,580.872 1109.72,581.038 1108,581.5C 1089.96,610.418 1071.79,639.251 1053.5,668C 1056.23,668.182 1058.89,668.682 1061.5,669.5C 1053.2,684.296 1044.7,698.963 1036,713.5C 1034.83,716.238 1032.99,718.238 1030.5,719.5C 1026.63,719.815 1022.96,719.482 1019.5,718.5C 1021.62,717.969 1023.12,716.635 1024,714.5C 1032.5,700 1041,685.5 1049.5,671C 1047.5,670.667 1045.5,670.333 1043.5,670C 1062.29,640.251 1080.96,610.417 1099.5,580.5C 1102.35,579.755 1104.35,578.089 1105.5,575.5 Z"/></g>
<g><path style="opacity:1" fill="#7e4747" d="M 1128.5,576.5 C 1128.5,576.167 1128.5,575.833 1128.5,575.5C 1133.5,575.5 1138.5,575.5 1143.5,575.5C 1150.17,575.5 1156.83,575.5 1163.5,575.5C 1177.5,575.5 1191.5,575.5 1205.5,575.5C 1212.53,575.377 1219.53,575.71 1226.5,576.5C 1213.27,598.611 1199.77,620.611 1186,642.5C 1184.26,640.717 1182.43,639.05 1180.5,637.5C 1179.39,636.41 1178.39,636.41 1177.5,637.5C 1169.47,650.897 1161.47,664.23 1153.5,677.5C 1152.17,676.5 1150.83,675.5 1149.5,674.5C 1147.83,672.5 1146.17,670.5 1144.5,668.5C 1145.82,667.047 1146.66,667.381 1147,669.5C 1155.58,654.667 1164.42,640.001 1173.5,625.5C 1174.86,629.561 1177.19,632.895 1180.5,635.5C 1192.71,616.248 1205.04,597.082 1217.5,578C 1210.68,577.129 1204.02,577.629 1197.5,579.5C 1194.22,580.492 1190.89,580.659 1187.5,580C 1188.36,579.311 1189.02,578.478 1189.5,577.5C 1182.53,576.503 1175.53,576.17 1168.5,576.5C 1163.5,576.5 1158.5,576.5 1153.5,576.5C 1145.17,576.5 1136.83,576.5 1128.5,576.5 Z"/></g>
<g><path style="opacity:1" fill="#b29883" d="M 1361.5,569.5 C 1365.2,578.336 1366.86,587.67 1366.5,597.5C 1366.03,612.523 1365.19,627.523 1364,642.5C 1356.74,686.095 1331.24,711.261 1287.5,718C 1278.35,719.392 1269.35,719.558 1260.5,718.5C 1262.79,718.756 1264.96,718.423 1267,717.5C 1276.83,701 1286.67,684.5 1296.5,668C 1293.59,667.894 1290.75,668.394 1288,669.5C 1286.83,669.167 1285.67,668.833 1284.5,668.5C 1295.53,651.3 1306.36,633.966 1317,616.5C 1317.69,626.262 1317.36,635.929 1316,645.5C 1330.94,619.938 1346.11,594.604 1361.5,569.5 Z"/></g>
<g><path style="opacity:1" fill="#90625b" d="M 1054.5,573.5 C 1060.46,574.307 1066.46,574.64 1072.5,574.5C 1072.39,575.117 1072.06,575.617 1071.5,576C 1072.62,576.249 1073.62,576.749 1074.5,577.5C 1047.07,620.77 1020.24,664.437 994,708.5C 993.124,710.635 991.624,711.969 989.5,712.5C 985.407,711.618 981.74,709.951 978.5,707.5C 980.074,707.063 981.241,706.063 982,704.5C 989,692.5 996,680.5 1003,668.5C 1004.89,667.87 1006.56,666.87 1008,665.5C 1026.37,635.916 1044.87,606.416 1063.5,577C 1060.28,576.1 1057.28,574.933 1054.5,573.5 Z"/></g>
<g><path style="opacity:1" fill="#6a2830" d="M 1128.5,576.5 C 1136.83,576.5 1145.17,576.5 1153.5,576.5C 1145,592.17 1136,607.503 1126.5,622.5C 1126.48,614.817 1126.14,607.15 1125.5,599.5C 1125.5,595.833 1125.5,592.167 1125.5,588.5C 1126.3,586.958 1126.63,585.292 1126.5,583.5C 1127.27,581.285 1127.93,578.952 1128.5,576.5 Z"/></g>
<g><path style="opacity:1" fill="#6f2f35" d="M 1153.5,576.5 C 1158.5,576.5 1163.5,576.5 1168.5,576.5C 1155.74,598.368 1142.74,620.035 1129.5,641.5C 1129.5,640.833 1129.17,640.5 1128.5,640.5C 1127.55,634.534 1126.89,628.534 1126.5,622.5C 1136,607.503 1145,592.17 1153.5,576.5 Z"/></g>
<g><path style="opacity:1" fill="#90625b" d="M 1234.5,574.5 C 1234.5,574.167 1234.5,573.833 1234.5,573.5C 1240.83,573.5 1247.17,573.5 1253.5,573.5C 1257.51,573.334 1261.51,573.501 1265.5,574C 1264.45,575.716 1265.11,576.716 1267.5,577C 1241.58,618.38 1215.58,659.547 1189.5,700.5C 1185.22,699.029 1181.22,697.029 1177.5,694.5C 1178.82,694.67 1179.99,694.337 1181,693.5C 1188.17,681.167 1195.33,668.833 1202.5,656.5C 1204.17,655.833 1205.83,655.167 1207.5,654.5C 1223.64,628.533 1239.97,602.7 1256.5,577C 1251.34,575.038 1246.01,574.205 1240.5,574.5C 1238.5,574.5 1236.5,574.5 1234.5,574.5 Z"/></g>
<g><path style="opacity:1" fill="#7a4143" d="M 1009.5,578.5 C 1014.32,577.35 1019.32,577.184 1024.5,578C 1011.79,598.584 998.958,619.084 986,639.5C 985.333,640.833 984.667,640.833 984,639.5C 982.957,636.243 982.457,632.91 982.5,629.5C 993.267,612.816 1003.93,595.982 1014.5,579C 1012.87,578.506 1011.2,578.34 1009.5,578.5 Z"/></g>
<g><path style="opacity:1" fill="#a78676" d="M 1338.5,567.5 C 1332.61,578.275 1326.44,588.942 1320,599.5C 1319.44,595.814 1318.77,592.147 1318,588.5C 1317.33,587.167 1316.67,587.167 1316,588.5C 1298.81,616.223 1281.64,643.889 1264.5,671.5C 1261.39,671.649 1258.39,671.149 1255.5,670C 1273.38,642.419 1290.88,614.586 1308,586.5C 1310.26,583.138 1313.1,582.805 1316.5,585.5C 1320.11,579.943 1323.44,574.276 1326.5,568.5C 1330.3,567.517 1334.3,567.183 1338.5,567.5 Z"/></g>
<g><path style="opacity:1" fill="#aa8c7a" d="M 1125.5,588.5 C 1125.5,592.167 1125.5,595.833 1125.5,599.5C 1113.32,618.687 1100.98,637.854 1088.5,657C 1089.09,657.464 1089.76,657.631 1090.5,657.5C 1086.88,660.155 1082.88,661.155 1078.5,660.5C 1093.67,636.167 1108.83,611.833 1124,587.5C 1124.38,588.056 1124.88,588.389 1125.5,588.5 Z"/></g>
<g><path style="opacity:1" fill="#af937f" d="M 1469.5,573.5 C 1475.28,585.507 1479.28,598.174 1481.5,611.5C 1465.5,635.5 1449.5,659.5 1433.5,683.5C 1436.55,664.583 1437.22,645.583 1435.5,626.5C 1447.58,609.351 1458.91,591.684 1469.5,573.5 Z"/></g>
<g><path style="opacity:1" fill="#382322" d="M 2075.5,592.5 C 2116.49,588.984 2136.82,607.817 2136.5,649C 2136.25,662.391 2134.42,675.557 2131,688.5C 2100.24,689.496 2069.41,689.829 2038.5,689.5C 2035.84,703.183 2037.67,716.183 2044,728.5C 2051.8,736.765 2061.3,739.599 2072.5,737C 2083.39,734.555 2092.39,729.055 2099.5,720.5C 2106.67,724.919 2113.67,729.585 2120.5,734.5C 2105.17,757.83 2083.5,768.33 2055.5,766C 2030.37,762.875 2014.54,749.041 2008,724.5C 2001.49,686.028 2009.16,650.694 2031,618.5C 2042.72,604.234 2057.55,595.568 2075.5,592.5 Z M 2081.5,619.5 C 2099.87,618.698 2108.87,627.531 2108.5,646C 2107.93,652.52 2107.26,659.02 2106.5,665.5C 2085.5,665.5 2064.5,665.5 2043.5,665.5C 2046.24,648.511 2054.24,634.677 2067.5,624C 2072.13,621.956 2076.79,620.456 2081.5,619.5 Z"/></g>
<g><path style="opacity:1" fill="#382322" d="M 2266.5,597.5 C 2276.75,596.525 2287.08,596.192 2297.5,596.5C 2288.2,653.645 2278.03,710.645 2267,767.5C 2255.87,804.172 2231.04,823.172 2192.5,824.5C 2172.9,824.581 2156.06,817.915 2142,804.5C 2139.09,800.585 2136.59,796.419 2134.5,792C 2140.34,785.496 2146.84,779.663 2154,774.5C 2161.6,789.895 2174.1,797.562 2191.5,797.5C 2216.3,794.873 2231.13,781.207 2236,756.5C 2237.34,750.134 2238.34,743.8 2239,737.5C 2220.06,759.888 2197.22,765.055 2170.5,753C 2157.75,743.007 2150.58,729.84 2149,713.5C 2145.52,679.863 2152.86,648.863 2171,620.5C 2187,598.249 2208.5,589.416 2235.5,594C 2247.59,597.257 2255.59,604.757 2259.5,616.5C 2260.5,616.5 2261.5,616.5 2262.5,616.5C 2263.68,610.128 2265.01,603.795 2266.5,597.5 Z M 2225.5,620.5 C 2243.41,619.236 2253.24,627.569 2255,645.5C 2256.52,667.563 2252.52,688.563 2243,708.5C 2231.9,728.974 2215.4,735.474 2193.5,728C 2184.8,719.737 2181.13,709.57 2182.5,697.5C 2182.87,676.356 2188.37,656.69 2199,638.5C 2205.6,629.036 2214.44,623.036 2225.5,620.5 Z"/></g>
<g><path style="opacity:1" fill="#382322" d="M 2650.5,596.5 C 2660.89,595.859 2670.89,596.526 2680.5,598.5C 2679.97,605.575 2678.97,612.575 2677.5,619.5C 2677.83,619.833 2678.17,620.167 2678.5,620.5C 2696.84,593.221 2721.17,586.055 2751.5,599C 2763.97,609.111 2770.81,622.277 2772,638.5C 2773.6,667.557 2768.93,695.557 2758,722.5C 2749.72,743.115 2735.22,757.282 2714.5,765C 2689.17,770.969 2670.84,762.469 2659.5,739.5C 2654.13,766.051 2649.3,792.718 2645,819.5C 2633.58,820.654 2622.08,820.82 2610.5,820C 2623.89,745.507 2637.22,671.007 2650.5,596.5 Z M 2707.5,621.5 C 2723.34,618.883 2733.17,625.217 2737,640.5C 2739.11,662.063 2736.44,683.063 2729,703.5C 2724.25,717.527 2715.42,728.027 2702.5,735C 2685.36,741.707 2673.86,736.54 2668,719.5C 2663.95,692.745 2668.28,667.411 2681,643.5C 2687.26,632.968 2696.09,625.635 2707.5,621.5 Z"/></g>
<g><path style="opacity:1" fill="#75393c" d="M 1168.5,576.5 C 1175.53,576.17 1182.53,576.503 1189.5,577.5C 1189.02,578.478 1188.36,579.311 1187.5,580C 1190.89,580.659 1194.22,580.492 1197.5,579.5C 1189.83,591.35 1182.33,603.35 1175,615.5C 1174.7,612.086 1174.04,608.753 1173,605.5C 1162.06,624.396 1150.89,643.062 1139.5,661.5C 1134.6,655.699 1131.27,649.032 1129.5,641.5C 1142.74,620.035 1155.74,598.368 1168.5,576.5 Z"/></g>
<g><path style="opacity:1" fill="#5a4747" d="M 2297.5,596.5 C 2287.08,596.192 2276.75,596.525 2266.5,597.5C 2271.46,596.172 2276.79,595.505 2282.5,595.5C 2288.25,595.475 2293.25,595.808 2297.5,596.5 Z"/></g>
<g><path style="opacity:1" fill="#5a4747" d="M 2444.5,595.5 C 2455.52,595.168 2466.52,595.501 2477.5,596.5C 2477.38,597.107 2477.04,597.44 2476.5,597.5C 2465.83,596.833 2455.17,596.167 2444.5,595.5 Z"/></g>
<g><path style="opacity:1" fill="#5a4848" d="M 2650.5,596.5 C 2660.65,595.506 2670.99,595.172 2681.5,595.5C 2681.74,596.791 2681.4,597.791 2680.5,598.5C 2670.89,596.526 2660.89,595.859 2650.5,596.5 Z"/></g>
<g><path style="opacity:1" fill="#5c4a4a" d="M 2830.5,596.5 C 2819.17,596.5 2807.83,596.5 2796.5,596.5C 2796.5,598.5 2796.5,600.5 2796.5,602.5C 2795.53,600.393 2795.2,598.059 2795.5,595.5C 2807.35,595.172 2819.01,595.505 2830.5,596.5 Z"/></g>
<g><path style="opacity:1" fill="#594646" d="M 2887.5,596.5 C 2899.34,595.175 2911.34,595.175 2923.5,596.5C 2923.38,597.107 2923.04,597.44 2922.5,597.5C 2911.01,596.505 2899.35,596.172 2887.5,596.5 Z"/></g>
<g><path style="opacity:1" fill="#382322" d="M 2335.5,595.5 C 2346.83,595.5 2358.17,595.5 2369.5,595.5C 2360.45,650.897 2350.95,706.231 2341,761.5C 2329.58,762.488 2318.08,762.821 2306.5,762.5C 2315.84,706.776 2325.51,651.109 2335.5,595.5 Z"/></g>
<g><path style="opacity:1" fill="#382322" d="M 2830.5,596.5 C 2832.46,642.324 2833.96,688.324 2835,734.5C 2851.82,688.198 2869.32,642.198 2887.5,596.5C 2899.35,596.172 2911.01,596.505 2922.5,597.5C 2898.29,654.928 2873.79,712.261 2849,769.5C 2842.61,783.793 2834.11,796.626 2823.5,808C 2808.41,821.399 2791.08,825.399 2771.5,820C 2768.38,819.415 2765.71,818.081 2763.5,816C 2766.09,808.55 2769.26,801.383 2773,794.5C 2792.04,800.316 2806.04,794.316 2815,776.5C 2817.53,772.074 2819.36,767.408 2820.5,762.5C 2816.5,762.5 2812.5,762.5 2808.5,762.5C 2804.14,709.193 2800.14,655.86 2796.5,602.5C 2796.5,600.5 2796.5,598.5 2796.5,596.5C 2807.83,596.5 2819.17,596.5 2830.5,596.5 Z"/></g>
<g><path style="opacity:1" fill="#7a4042" d="M 1144.5,668.5 C 1142.45,666.45 1140.79,664.117 1139.5,661.5C 1150.89,643.062 1162.06,624.396 1173,605.5C 1174.04,608.753 1174.7,612.086 1175,615.5C 1182.33,603.35 1189.83,591.35 1197.5,579.5C 1204.02,577.629 1210.68,577.129 1217.5,578C 1205.04,597.082 1192.71,616.248 1180.5,635.5C 1177.19,632.895 1174.86,629.561 1173.5,625.5C 1164.42,640.001 1155.58,654.667 1147,669.5C 1146.66,667.381 1145.82,667.047 1144.5,668.5 Z"/></g>
<g><path style="opacity:1" fill="#7b4143" d="M 982.5,628.5 C 981.71,627.391 981.21,626.058 981,624.5C 971.667,640.5 962.333,656.5 953,672.5C 951.688,675.238 949.522,676.572 946.5,676.5C 944.895,673.622 943.561,670.622 942.5,667.5C 944.074,667.063 945.241,666.063 946,664.5C 957.263,644.966 968.763,625.632 980.5,606.5C 981.828,613.773 982.495,621.107 982.5,628.5 Z"/></g>
<g><path style="opacity:1" fill="#ae927e" d="M 1360.5,566.5 C 1361.11,567.391 1361.44,568.391 1361.5,569.5C 1346.11,594.604 1330.94,619.938 1316,645.5C 1317.36,635.929 1317.69,626.262 1317,616.5C 1306.36,633.966 1295.53,651.3 1284.5,668.5C 1285.67,668.833 1286.83,669.167 1288,669.5C 1290.75,668.394 1293.59,667.894 1296.5,668C 1286.67,684.5 1276.83,701 1267,717.5C 1264.96,718.423 1262.79,718.756 1260.5,718.5C 1269.7,702.612 1279.03,686.779 1288.5,671C 1284.81,670.55 1281.15,670.717 1277.5,671.5C 1275.83,671.5 1274.17,671.5 1272.5,671.5C 1287.66,647.195 1302.82,622.861 1318,598.5C 1318.33,605.167 1318.67,611.833 1319,618.5C 1329.44,601.276 1339.61,583.943 1349.5,566.5C 1353.17,565.167 1356.83,565.167 1360.5,566.5 Z"/></g>
<g><path style="opacity:1" fill="#68242e" d="M 886.5,558.5 C 891.769,559.344 897.103,560.011 902.5,560.5C 905.61,561.088 908.61,561.755 911.5,562.5C 908.8,568.711 904.133,572.878 897.5,575C 893.227,576.03 888.894,576.697 884.5,577C 878.751,581.968 874.584,588.134 872,595.5C 865.82,611.92 862.654,628.92 862.5,646.5C 849.863,665.324 837.363,684.324 825,703.5C 824.329,704.252 823.496,704.586 822.5,704.5C 818.883,692.08 816.549,679.413 815.5,666.5C 816.496,666.586 817.329,666.252 818,665.5C 840.667,630.833 863.333,596.167 886,561.5C 886.483,560.552 886.649,559.552 886.5,558.5 Z"/></g>
<g><path style="opacity:1" fill="#b19681" d="M 1481.5,611.5 C 1482.5,618.13 1483.16,624.797 1483.5,631.5C 1407.42,746.647 1332.09,862.313 1257.5,978.5C 1242.8,986.399 1227.47,992.732 1211.5,997.5C 1211.35,996.448 1211.52,995.448 1212,994.5C 1228.14,970.868 1243.64,946.868 1258.5,922.5C 1302.47,888.338 1334.97,845.338 1356,793.5C 1364.67,771.161 1372.34,748.494 1379,725.5C 1388.18,714.99 1399.18,712.657 1412,718.5C 1417.65,715.513 1421.99,711.179 1425,705.5C 1428.35,698.253 1431.19,690.919 1433.5,683.5C 1449.5,659.5 1465.5,635.5 1481.5,611.5 Z"/></g>
<g><path style="opacity:1" fill="#ae927f" d="M 1125.5,599.5 C 1126.14,607.15 1126.48,614.817 1126.5,622.5C 1126.89,628.534 1127.55,634.534 1128.5,640.5C 1127.88,640.389 1127.38,640.056 1127,639.5C 1113.22,662.725 1099.72,686.058 1086.5,709.5C 1081.64,711.341 1076.64,713.008 1071.5,714.5C 1083.74,692.187 1096.41,670.021 1109.5,648C 1103.61,650.279 1097.94,653.113 1092.5,656.5C 1092.16,657.338 1091.49,657.672 1090.5,657.5C 1089.76,657.631 1089.09,657.464 1088.5,657C 1100.98,637.854 1113.32,618.687 1125.5,599.5 Z"/></g>
<g><path style="opacity:1" fill="#b39984" d="M 1483.5,631.5 C 1485.92,658.821 1482.75,685.488 1474,711.5C 1466.75,734.075 1452.91,751.242 1432.5,763C 1426.95,764.97 1421.29,766.47 1415.5,767.5C 1394.88,838.63 1357.21,898.797 1302.5,948C 1288.17,959.171 1273.17,969.337 1257.5,978.5C 1332.09,862.313 1407.42,746.647 1483.5,631.5 Z"/></g>
<g><path style="opacity:1" fill="#834e4c" d="M 1226.5,576.5 C 1230.18,576.335 1233.85,576.501 1237.5,577C 1222.66,600.657 1207.66,624.157 1192.5,647.5C 1190.57,645.422 1188.41,644.755 1186,645.5C 1179,657.5 1172,669.5 1165,681.5C 1164.24,683.063 1163.07,684.063 1161.5,684.5C 1158.42,682.628 1155.75,680.295 1153.5,677.5C 1161.47,664.23 1169.47,650.897 1177.5,637.5C 1178.39,636.41 1179.39,636.41 1180.5,637.5C 1182.43,639.05 1184.26,640.717 1186,642.5C 1199.77,620.611 1213.27,598.611 1226.5,576.5 Z"/></g>
<g><path style="opacity:1" fill="#b29883" d="M 1128.5,640.5 C 1129.17,640.5 1129.5,640.833 1129.5,641.5C 1131.27,649.032 1134.6,655.699 1139.5,661.5C 1140.79,664.117 1142.45,666.45 1144.5,668.5C 1146.17,670.5 1147.83,672.5 1149.5,674.5C 1131.37,691.072 1110.37,702.738 1086.5,709.5C 1099.72,686.058 1113.22,662.725 1127,639.5C 1127.38,640.056 1127.88,640.389 1128.5,640.5 Z"/></g>
<g><path style="opacity:1" fill="#aa8c7a" d="M 1071.5,714.5 C 1067.5,715.167 1063.5,715.833 1059.5,716.5C 1070.39,697.058 1081.56,677.725 1093,658.5C 1093.69,657.563 1093.53,656.897 1092.5,656.5C 1097.94,653.113 1103.61,650.279 1109.5,648C 1096.41,670.021 1083.74,692.187 1071.5,714.5 Z"/></g>
<g><path style="opacity:1" fill="#875552" d="M 1205.5,575.5 C 1205.5,574.833 1205.83,574.5 1206.5,574.5C 1215.83,574.5 1225.17,574.5 1234.5,574.5C 1236.5,574.5 1238.5,574.5 1240.5,574.5C 1242.34,575.283 1244.34,575.95 1246.5,576.5C 1247.52,577.002 1247.69,577.668 1247,578.5C 1231.42,602.665 1216.08,626.998 1201,651.5C 1199,651.5 1197,651.5 1195,651.5C 1187.67,664.167 1180.33,676.833 1173,689.5C 1172.33,690.252 1171.5,690.586 1170.5,690.5C 1167.29,688.735 1164.29,686.735 1161.5,684.5C 1163.07,684.063 1164.24,683.063 1165,681.5C 1172,669.5 1179,657.5 1186,645.5C 1188.41,644.755 1190.57,645.422 1192.5,647.5C 1207.66,624.157 1222.66,600.657 1237.5,577C 1233.85,576.501 1230.18,576.335 1226.5,576.5C 1219.53,575.71 1212.53,575.377 1205.5,575.5 Z"/></g>
<g><path style="opacity:1" fill="#844f4d" d="M 1015.5,571.5 C 1020.18,571.669 1024.85,572.002 1029.5,572.5C 1030.5,572.5 1031.5,572.5 1032.5,572.5C 1033.26,573.268 1034.26,573.768 1035.5,574C 1035.17,574.333 1034.83,574.667 1034.5,575C 1037.86,575.727 1041.2,576.56 1044.5,577.5C 1027.83,604.167 1011.17,630.833 994.5,657.5C 985.021,670.437 976.521,684.104 969,698.5C 968.329,699.252 967.496,699.586 966.5,699.5C 961.5,696.5 957.5,692.5 954.5,687.5C 964.477,672.23 973.977,656.563 983,640.5C 984.139,643.583 985.472,646.583 987,649.5C 987.667,650.833 988.333,650.833 989,649.5C 1004.04,625.249 1019.21,601.082 1034.5,577C 1029.83,576.667 1025.17,576.333 1020.5,576C 1021.36,575.311 1022.02,574.478 1022.5,573.5C 1020.03,572.832 1017.7,572.165 1015.5,571.5 Z"/></g>
<g><path style="opacity:1" fill="#a78676" d="M 1126.5,583.5 C 1126.63,585.292 1126.3,586.958 1125.5,588.5C 1124.88,588.389 1124.38,588.056 1124,587.5C 1108.83,611.833 1093.67,636.167 1078.5,660.5C 1082.88,661.155 1086.88,660.155 1090.5,657.5C 1091.49,657.672 1092.16,657.338 1092.5,656.5C 1093.53,656.897 1093.69,657.563 1093,658.5C 1081.56,677.725 1070.39,697.058 1059.5,716.5C 1055.52,717.259 1051.52,717.925 1047.5,718.5C 1056.91,699.863 1067.24,681.696 1078.5,664C 1074.55,664.649 1070.55,664.982 1066.5,665C 1083.54,637.749 1100.71,610.582 1118,583.5C 1121.29,586.323 1123.95,585.989 1126,582.5C 1126.4,582.728 1126.57,583.062 1126.5,583.5 Z"/></g>
<g><path style="opacity:1" fill="#6b2931" d="M 862.5,646.5 C 862.728,660.684 864.395,674.684 867.5,688.5C 857.167,703.833 846.833,719.167 836.5,734.5C 830.244,725.318 825.577,715.318 822.5,704.5C 823.496,704.586 824.329,704.252 825,703.5C 837.363,684.324 849.863,665.324 862.5,646.5 Z"/></g>
<g><path style="opacity:1" fill="#aa8c7a" d="M 1260.5,718.5 C 1256.3,718.817 1252.3,718.483 1248.5,717.5C 1249.68,717.719 1250.68,717.386 1251.5,716.5C 1260.19,701.483 1268.86,686.483 1277.5,671.5C 1281.15,670.717 1284.81,670.55 1288.5,671C 1279.03,686.779 1269.7,702.612 1260.5,718.5 Z"/></g>
<g><path style="opacity:1" fill="#a68676" d="M 1265.5,671.5 C 1267.83,671.5 1270.17,671.5 1272.5,671.5C 1274.17,671.5 1275.83,671.5 1277.5,671.5C 1268.86,686.483 1260.19,701.483 1251.5,716.5C 1250.68,717.386 1249.68,717.719 1248.5,717.5C 1245.72,717.721 1243.05,717.388 1240.5,716.5C 1249.09,701.661 1257.42,686.661 1265.5,671.5 Z"/></g>
<g><path style="opacity:1" fill="#6f2f36" d="M 867.5,688.5 C 870.531,697.582 874.531,706.248 879.5,714.5C 871.193,728.126 862.527,741.459 853.5,754.5C 846.339,749.013 840.672,742.347 836.5,734.5C 846.833,719.167 857.167,703.833 867.5,688.5 Z"/></g>
<g><path style="opacity:1" fill="#6e5e5d" d="M 2499.5,694.5 C 2499.56,693.957 2499.89,693.624 2500.5,693.5C 2501.47,695.743 2501.81,698.076 2501.5,700.5C 2500.83,698.5 2500.17,696.5 2499.5,694.5 Z"/></g>
<g><path style="opacity:1" fill="#73363b" d="M 879.5,714.5 C 881.537,716.53 883.87,718.196 886.5,719.5C 894.531,714.817 902.864,714.317 911.5,718C 912.942,718.377 913.942,719.21 914.5,720.5C 905.104,735.613 895.437,750.613 885.5,765.5C 883.604,766.466 881.604,766.799 879.5,766.5C 869.518,765.173 860.851,761.173 853.5,754.5C 862.527,741.459 871.193,728.126 879.5,714.5 Z"/></g>
<g><path style="opacity:1" fill="#783d40" d="M 914.5,720.5 C 918.189,723.029 921.022,726.362 923,730.5C 924.819,736.441 926.319,742.441 927.5,748.5C 919.523,762.446 911.023,776.113 902,789.5C 899.939,793.012 897.439,796.012 894.5,798.5C 890.538,789.123 887.038,779.456 884,769.5C 882.69,768.103 881.19,767.103 879.5,766.5C 881.604,766.799 883.604,766.466 885.5,765.5C 895.437,750.613 905.104,735.613 914.5,720.5 Z"/></g>
<g><path style="opacity:1" fill="#7b4243" d="M 927.5,748.5 C 931.34,759.353 935.006,770.353 938.5,781.5C 928.947,798.043 918.614,814.043 907.5,829.5C 902.583,819.416 898.249,809.082 894.5,798.5C 897.439,796.012 899.939,793.012 902,789.5C 911.023,776.113 919.523,762.446 927.5,748.5 Z"/></g>
<g><path style="opacity:1" fill="#7f4848" d="M 938.5,781.5 C 942.815,791.423 947.148,801.423 951.5,811.5C 942.677,825.138 933.844,838.805 925,852.5C 924.241,854.063 923.074,855.063 921.5,855.5C 916.341,847.187 911.674,838.52 907.5,829.5C 918.614,814.043 928.947,798.043 938.5,781.5 Z"/></g>
<g><path style="opacity:1" fill="#824d4c" d="M 951.5,811.5 C 955.085,817.668 958.418,824.001 961.5,830.5C 951.82,845.203 942.153,859.87 932.5,874.5C 928.406,868.408 924.74,862.075 921.5,855.5C 923.074,855.063 924.241,854.063 925,852.5C 933.844,838.805 942.677,825.138 951.5,811.5 Z"/></g>
<g><path style="opacity:1" fill="#875451" d="M 961.5,830.5 C 969.323,843.472 977.656,856.139 986.5,868.5C 978.163,881.015 969.996,893.681 962,906.5C 961.241,908.063 960.074,909.063 958.5,909.5C 949.063,898.397 940.396,886.731 932.5,874.5C 942.153,859.87 951.82,845.203 961.5,830.5 Z"/></g>
<g><path style="opacity:1" fill="#6f2f35" d="M 893.5,864.5 C 846.794,902.54 799.794,940.206 752.5,977.5C 744.5,970.167 736.833,962.5 729.5,954.5C 730.922,954.291 732.255,953.791 733.5,953C 760.833,931 788.167,909 815.5,887C 814.906,886.536 814.239,886.369 813.5,886.5C 837.475,877.731 861.808,869.731 886.5,862.5C 889.029,862.929 891.362,863.596 893.5,864.5 Z"/></g>
<g><path style="opacity:1" fill="#513d3c" d="M 2047.5,864.5 C 2048.68,864.281 2049.68,864.614 2050.5,865.5C 2043.12,878.974 2042.12,878.641 2047.5,864.5 Z"/></g>
<g><path style="opacity:1" fill="#713237" d="M 893.5,864.5 C 897.598,865.272 900.931,867.272 903.5,870.5C 903.586,871.496 903.252,872.329 902.5,873C 856.651,909.427 810.984,946.093 765.5,983C 763.922,984.094 762.255,984.928 760.5,985.5C 757.5,983.167 754.833,980.5 752.5,977.5C 799.794,940.206 846.794,902.54 893.5,864.5 Z"/></g>
<g><path style="opacity:1" fill="#4e3a39" d="M 1875.5,868.5 C 1882.65,867.345 1889.99,867.178 1897.5,868C 1905.04,871.939 1907.54,878.105 1905,886.5C 1903.17,891 1900,894.167 1895.5,896C 1889.54,897.239 1883.54,897.573 1877.5,897C 1876.39,895.187 1877.06,894.354 1879.5,894.5C 1879.5,886.167 1879.5,877.833 1879.5,869.5C 1878.04,869.567 1876.71,869.234 1875.5,868.5 Z M 1884.5,869.5 C 1898.54,869.364 1903.7,876.031 1900,889.5C 1895.47,893.989 1889.97,895.655 1883.5,894.5C 1883.2,886.082 1883.53,877.748 1884.5,869.5 Z"/></g>
<g><path style="opacity:1" fill="#584544" d="M 1988.5,868.5 C 1990.97,867.366 1993.63,867.199 1996.5,868C 2002.36,874.896 2007.86,882.063 2013,889.5C 2013.5,882.842 2013.67,876.175 2013.5,869.5C 2011.9,869.688 2010.56,869.188 2009.5,868C 2012.88,867.176 2016.22,867.343 2019.5,868.5C 2018.68,869.386 2017.68,869.719 2016.5,869.5C 2016.83,878.857 2016.5,888.19 2015.5,897.5C 2008.13,889.627 2001.3,881.294 1995,872.5C 1995.04,879.819 1995.2,887.152 1995.5,894.5C 1996.55,894.351 1997.55,894.517 1998.5,895C 1999.83,895.667 1999.83,896.333 1998.5,897C 1995.29,897.89 1992.29,897.557 1989.5,896C 1990.03,895.308 1990.69,894.808 1991.5,894.5C 1992.5,886.193 1992.83,877.86 1992.5,869.5C 1991.04,869.567 1989.71,869.234 1988.5,868.5 Z"/></g>
<g><path style="opacity:1" fill="#4f3b3a" d="M 2077.5,873.5 C 2076.57,872.432 2076.23,871.099 2076.5,869.5C 2080.45,868.175 2084.78,867.508 2089.5,867.5C 2093.83,867.833 2098.17,868.167 2102.5,868.5C 2101.96,870.535 2101.29,872.535 2100.5,874.5C 2099.55,872.955 2099.21,871.288 2099.5,869.5C 2096.5,869.5 2093.5,869.5 2090.5,869.5C 2090.5,877.833 2090.5,886.167 2090.5,894.5C 2091.83,894.5 2093.17,894.5 2094.5,894.5C 2094.5,895.5 2094.5,896.5 2094.5,897.5C 2090.49,897.142 2086.49,896.642 2082.5,896C 2083.56,894.812 2084.9,894.312 2086.5,894.5C 2086.5,886.167 2086.5,877.833 2086.5,869.5C 2083.81,869.336 2081.15,869.503 2078.5,870C 2077.66,871.011 2077.33,872.178 2077.5,873.5 Z"/></g>
<g><path style="opacity:1" fill="#53403f" d="M 2177.5,895.5 C 2178.68,895.719 2179.68,895.386 2180.5,894.5C 2180.38,893.893 2180.04,893.56 2179.5,893.5C 2178.64,890.95 2177.64,888.45 2176.5,886C 2172.79,885.175 2169.12,885.341 2165.5,886.5C 2164.69,888.915 2163.69,891.249 2162.5,893.5C 2163.32,894.386 2164.32,894.719 2165.5,894.5C 2165.5,895.5 2165.5,896.5 2165.5,897.5C 2162.28,897.892 2159.28,897.392 2156.5,896C 2157.5,895.167 2158.5,894.333 2159.5,893.5C 2163.61,884.282 2167.94,875.282 2172.5,866.5C 2176.62,875.343 2180.45,884.343 2184,893.5C 2188.54,896.363 2187.87,897.696 2182,897.5C 2180.5,897.333 2179,897.167 2177.5,897C 2176.26,896.31 2176.26,895.81 2177.5,895.5 Z M 2170.5,873.5 C 2172.62,875.972 2174.29,878.806 2175.5,882C 2172.83,882.667 2170.17,882.667 2167.5,882C 2168.93,879.31 2169.93,876.477 2170.5,873.5 Z"/></g>
<g><path style="opacity:1" fill="#4b3736" d="M 2301.5,868.5 C 2305.02,867.192 2308.69,867.192 2312.5,868.5C 2311.31,869.429 2309.98,869.762 2308.5,869.5C 2308.11,876.921 2308.61,884.254 2310,891.5C 2312.31,893.888 2315.14,894.888 2318.5,894.5C 2321.68,894.954 2324.18,893.954 2326,891.5C 2327.39,884.254 2327.89,876.921 2327.5,869.5C 2326.02,869.762 2324.69,869.429 2323.5,868.5C 2326.17,867.167 2328.83,867.167 2331.5,868.5C 2329.94,876.708 2328.77,885.042 2328,893.5C 2325.31,896.857 2321.81,898.191 2317.5,897.5C 2312.65,898.156 2308.81,896.489 2306,892.5C 2304.97,884.87 2304.14,877.203 2303.5,869.5C 2302.82,869.137 2302.15,868.804 2301.5,868.5 Z"/></g>
<g><path style="opacity:1" fill="#513d3c" d="M 2382.5,870.5 C 2382.43,871.959 2382.77,873.292 2383.5,874.5C 2379.54,881.854 2376.04,889.521 2373,897.5C 2369.15,890.453 2365.98,883.119 2363.5,875.5C 2363.22,874.711 2362.72,874.044 2362,873.5C 2361.18,880.679 2361.35,887.679 2362.5,894.5C 2363.98,894.238 2365.31,894.571 2366.5,895.5C 2366.29,896.086 2365.96,896.586 2365.5,897C 2362.29,897.89 2359.29,897.557 2356.5,896C 2357.03,895.308 2357.69,894.808 2358.5,894.5C 2359.61,886.2 2360.28,877.867 2360.5,869.5C 2358.9,869.688 2357.56,869.188 2356.5,868C 2359.15,867.503 2361.81,867.336 2364.5,867.5C 2366.84,875.181 2370.01,882.514 2374,889.5C 2376.76,883.023 2379.59,876.69 2382.5,870.5 Z"/></g>
<g><path style="opacity:1" fill="#513d3c" d="M 2383.5,874.5 C 2382.77,873.292 2382.43,871.959 2382.5,870.5C 2382.41,869.504 2382.75,868.671 2383.5,868C 2385.9,867.186 2388.24,867.353 2390.5,868.5C 2389.68,869.386 2388.68,869.719 2387.5,869.5C 2387.5,877.833 2387.5,886.167 2387.5,894.5C 2388.5,894.5 2389.5,894.5 2390.5,894.5C 2390.5,895.5 2390.5,896.5 2390.5,897.5C 2387.15,897.665 2383.82,897.498 2380.5,897C 2379.17,896.333 2379.17,895.667 2380.5,895C 2381.45,894.517 2382.45,894.351 2383.5,894.5C 2383.5,887.833 2383.5,881.167 2383.5,874.5 Z"/></g>
<g><path style="opacity:1" fill="#564342" d="M 2437.5,867.5 C 2437.79,869.735 2437.46,871.735 2436.5,873.5C 2436.5,872.167 2436.5,870.833 2436.5,869.5C 2432.17,869.5 2427.83,869.5 2423.5,869.5C 2423.5,872.5 2423.5,875.5 2423.5,878.5C 2426.5,878.5 2429.5,878.5 2432.5,878.5C 2432.28,877.325 2432.61,876.325 2433.5,875.5C 2434.66,879.122 2434.83,882.789 2434,886.5C 2432.73,885.095 2432.23,883.429 2432.5,881.5C 2429.5,881.5 2426.5,881.5 2423.5,881.5C 2423.5,885.833 2423.5,890.167 2423.5,894.5C 2427.85,894.666 2432.18,894.499 2436.5,894C 2437.06,893.617 2437.39,893.117 2437.5,892.5C 2438.4,893.209 2438.74,894.209 2438.5,895.5C 2435.23,896.822 2431.57,897.489 2427.5,897.5C 2423.83,897.333 2420.17,897.167 2416.5,897C 2415.17,896.333 2415.17,895.667 2416.5,895C 2417.45,894.517 2418.45,894.351 2419.5,894.5C 2419.5,886.167 2419.5,877.833 2419.5,869.5C 2417.57,869.769 2415.9,869.269 2414.5,868C 2422.16,867.5 2429.83,867.334 2437.5,867.5 Z"/></g>
<g><path style="opacity:1" fill="#53403f" d="M 2535.5,878.5 C 2536.96,879.16 2538.63,879.493 2540.5,879.5C 2542.64,879.444 2544.31,878.777 2545.5,877.5C 2545.37,876.624 2545.7,875.957 2546.5,875.5C 2547.91,879.317 2547.75,882.984 2546,886.5C 2545.73,884.899 2545.23,883.399 2544.5,882C 2541.52,881.502 2538.52,881.335 2535.5,881.5C 2535.5,885.833 2535.5,890.167 2535.5,894.5C 2536.83,894.5 2538.17,894.5 2539.5,894.5C 2539.5,895.5 2539.5,896.5 2539.5,897.5C 2535.83,897.5 2532.17,897.5 2528.5,897.5C 2528.5,896.5 2528.5,895.5 2528.5,894.5C 2529.5,894.5 2530.5,894.5 2531.5,894.5C 2531.5,886.167 2531.5,877.833 2531.5,869.5C 2530.02,869.762 2528.69,869.429 2527.5,868.5C 2535.14,867.503 2542.8,867.169 2550.5,867.5C 2550.81,869.924 2550.47,872.257 2549.5,874.5C 2548.55,872.955 2548.21,871.288 2548.5,869.5C 2544.17,869.5 2539.83,869.5 2535.5,869.5C 2535.5,872.5 2535.5,875.5 2535.5,878.5 Z"/></g>
<g><path style="opacity:1" fill="#463230" d="M 2583.5,893.5 C 2584.18,895.176 2585.52,895.843 2587.5,895.5C 2588.74,895.81 2588.74,896.31 2587.5,897C 2584.17,897.667 2580.83,897.667 2577.5,897C 2576.94,896.617 2576.61,896.117 2576.5,895.5C 2578.48,895.843 2579.82,895.176 2580.5,893.5C 2580.5,885.5 2580.5,877.5 2580.5,869.5C 2578.57,869.769 2576.9,869.269 2575.5,868C 2579.54,867.173 2583.54,867.34 2587.5,868.5C 2586.37,869.262 2585.21,869.929 2584,870.5C 2583.5,878.159 2583.33,885.826 2583.5,893.5 Z"/></g>
<g><path style="opacity:1" fill="#513d3c" d="M 2636.5,889.5 C 2636.56,890.043 2636.89,890.376 2637.5,890.5C 2638.82,883.344 2638.82,876.344 2637.5,869.5C 2636.02,869.762 2634.69,869.429 2633.5,868.5C 2636.83,867.167 2640.17,867.167 2643.5,868.5C 2642.68,869.386 2641.68,869.719 2640.5,869.5C 2640.5,878.833 2640.5,888.167 2640.5,897.5C 2637.96,896.532 2635.79,894.865 2634,892.5C 2629,885.833 2624,879.167 2619,872.5C 2618.5,879.826 2618.33,887.159 2618.5,894.5C 2619.83,894.5 2621.17,894.5 2622.5,894.5C 2622.5,895.5 2622.5,896.5 2622.5,897.5C 2619.5,897.5 2616.5,897.5 2613.5,897.5C 2613.5,896.5 2613.5,895.5 2613.5,894.5C 2614.5,894.5 2615.5,894.5 2616.5,894.5C 2616.5,886.167 2616.5,877.833 2616.5,869.5C 2615.02,869.762 2613.69,869.429 2612.5,868.5C 2615.11,867.348 2617.77,867.182 2620.5,868C 2625.96,875.107 2631.3,882.274 2636.5,889.5 Z"/></g>
<g><path style="opacity:1" fill="#483433" d="M 2669.5,895.5 C 2671.18,895.715 2672.18,895.048 2672.5,893.5C 2672.5,885.5 2672.5,877.5 2672.5,869.5C 2670.57,869.769 2668.9,869.269 2667.5,868C 2674.83,867.333 2682.17,867.333 2689.5,868C 2694.95,870.532 2697.95,874.866 2698.5,881C 2695.75,893.475 2687.92,898.975 2675,897.5C 2673.17,897.333 2671.33,897.167 2669.5,897C 2668.26,896.31 2668.26,895.81 2669.5,895.5 Z M 2676.5,869.5 C 2688.7,868.866 2694.2,874.533 2693,886.5C 2689.54,893.881 2683.88,896.214 2676,893.5C 2675.2,885.421 2675.37,877.421 2676.5,869.5 Z"/></g>
<g><path style="opacity:1" fill="#4a3635" d="M 2811.5,867.5 C 2815.18,867.335 2818.85,867.501 2822.5,868C 2821.44,869.188 2820.1,869.688 2818.5,869.5C 2818.33,876.508 2818.5,883.508 2819,890.5C 2820.8,893.817 2823.64,895.15 2827.5,894.5C 2831.36,895.15 2834.2,893.817 2836,890.5C 2836.5,883.508 2836.67,876.508 2836.5,869.5C 2835.02,869.762 2833.69,869.429 2832.5,868.5C 2835.45,867.345 2838.45,867.179 2841.5,868C 2840.67,868.833 2839.83,869.667 2839,870.5C 2838.67,877.833 2838.33,885.167 2838,892.5C 2835.36,896.319 2831.69,897.985 2827,897.5C 2821.58,898.147 2817.58,896.147 2815,891.5C 2814.5,884.174 2814.33,876.841 2814.5,869.5C 2812.82,869.715 2811.82,869.048 2811.5,867.5 Z"/></g>
<g><path style="opacity:1" fill="#473231" d="M 2872.5,895.5 C 2874.48,895.843 2875.82,895.176 2876.5,893.5C 2876.67,885.826 2876.5,878.159 2876,870.5C 2871.07,868.431 2867.57,869.764 2865.5,874.5C 2865.29,872.448 2865.29,870.114 2865.5,867.5C 2874.17,867.5 2882.83,867.5 2891.5,867.5C 2891.85,870.073 2891.35,872.406 2890,874.5C 2889.51,872.866 2889.34,871.199 2889.5,869.5C 2886.22,869.216 2883.06,869.549 2880,870.5C 2879.33,878.167 2879.33,885.833 2880,893.5C 2881.61,894.147 2883.11,894.98 2884.5,896C 2883.74,896.944 2882.74,897.444 2881.5,897.5C 2878.33,897.009 2875.33,896.343 2872.5,895.5 Z"/></g>
<g><path style="opacity:1" fill="#4e3b3a" d="M 2920.5,868.5 C 2922.34,870.279 2923.01,872.612 2922.5,875.5C 2921.91,894.934 2920.91,895.101 2919.5,876C 2919.5,873.31 2919.84,870.81 2920.5,868.5 Z"/></g>
<g><path style="opacity:1" fill="#8c5c57" d="M 986.5,868.5 C 995.432,879.437 1004.77,890.104 1014.5,900.5C 1014.65,901.552 1014.48,902.552 1014,903.5C 1005.64,916.012 997.137,928.345 988.5,940.5C 977.8,930.801 967.8,920.468 958.5,909.5C 960.074,909.063 961.241,908.063 962,906.5C 969.996,893.681 978.163,881.015 986.5,868.5 Z"/></g>
<g><path style="opacity:1" fill="#976e64" d="M 1455.5,876.5 C 1408.73,914.09 1362.07,951.924 1315.5,990C 1314.56,990.692 1313.9,990.525 1313.5,989.5C 1340.7,949.609 1368.03,909.775 1395.5,870C 1402.44,863.971 1410.44,861.971 1419.5,864C 1431.71,867.902 1443.71,872.069 1455.5,876.5 Z"/></g>
<g><path style="opacity:1" fill="#493534" d="M 1943.5,866.5 C 1957.44,865.275 1963.94,871.609 1963,885.5C 1958.83,896.683 1951,900.183 1939.5,896C 1932.98,890.996 1930.81,884.496 1933,876.5C 1935.11,871.557 1938.61,868.224 1943.5,866.5 Z M 1943.5,868.5 C 1956.1,869.288 1960.93,875.955 1958,888.5C 1954.18,895.782 1948.68,897.282 1941.5,893C 1936.42,887.27 1935.25,880.77 1938,873.5C 1939.73,871.598 1941.56,869.931 1943.5,868.5 Z"/></g>
<g><path style="opacity:1" fill="#4e3a39" d="M 2219.5,866.5 C 2222.58,867.066 2225.58,867.066 2228.5,866.5C 2229.83,869.167 2229.83,871.833 2228.5,874.5C 2228.3,870.635 2226.3,868.968 2222.5,869.5C 2216.42,869.818 2215.09,872.485 2218.5,877.5C 2222.75,879.582 2226.58,882.249 2230,885.5C 2231.76,891.15 2229.92,894.983 2224.5,897C 2221.77,897.728 2219.1,897.562 2216.5,896.5C 2215.52,896.977 2214.69,897.643 2214,898.5C 2212.26,895.622 2211.76,892.622 2212.5,889.5C 2215.34,895.06 2219.68,896.56 2225.5,894C 2226.17,892.667 2226.83,891.333 2227.5,890C 2223.1,885.717 2218.6,881.55 2214,877.5C 2212.68,872.141 2214.51,868.474 2219.5,866.5 Z"/></g>
<g><path style="opacity:1" fill="#837473" d="M 2920.5,868.5 C 2921.21,867.596 2922.21,867.263 2923.5,867.5C 2923.81,870.385 2923.47,873.052 2922.5,875.5C 2923.01,872.612 2922.34,870.279 2920.5,868.5 Z"/></g>
<g><path style="opacity:1" fill="#4f3c3b" d="M 2264.5,866.5 C 2267.62,866.872 2270.62,866.872 2273.5,866.5C 2274.83,869.167 2274.83,871.833 2273.5,874.5C 2273.3,870.635 2271.3,868.968 2267.5,869.5C 2260.58,871.125 2259.91,874.292 2265.5,879C 2270.78,880.615 2274.45,883.948 2276.5,889C 2273.95,896.276 2268.95,898.776 2261.5,896.5C 2260.52,896.977 2259.69,897.643 2259,898.5C 2257.49,895.48 2256.99,892.48 2257.5,889.5C 2260.37,895.07 2264.71,896.57 2270.5,894C 2273.08,891.456 2273.08,888.956 2270.5,886.5C 2267.63,884.468 2264.63,882.635 2261.5,881C 2256.86,874.986 2257.86,870.153 2264.5,866.5 Z"/></g>
<g><path style="opacity:1" fill="#645352" d="M 2637.5,869.5 C 2638.82,876.344 2638.82,883.344 2637.5,890.5C 2636.89,890.376 2636.56,890.043 2636.5,889.5C 2637.49,883.021 2637.82,876.354 2637.5,869.5 Z"/></g>
<g><path style="opacity:1" fill="#4b3736" d="M 2765.5,866.5 C 2783.17,866.504 2789.01,874.838 2783,891.5C 2776.4,898.043 2768.9,899.209 2760.5,895C 2751.36,883.487 2753.02,873.987 2765.5,866.5 Z M 2766.5,868.5 C 2777.71,869.21 2782.54,875.21 2781,886.5C 2778.62,894.775 2773.45,897.275 2765.5,894C 2758.96,887.441 2757.79,879.941 2762,871.5C 2763.65,870.601 2765.15,869.601 2766.5,868.5 Z"/></g>
<g><path style="opacity:1" fill="#73353a" d="M 903.5,870.5 C 909.646,878.111 915.312,886.111 920.5,894.5C 920.607,896.903 919.607,898.736 917.5,900C 872.47,935.842 827.47,971.675 782.5,1007.5C 774.833,1000.5 767.5,993.167 760.5,985.5C 762.255,984.928 763.922,984.094 765.5,983C 810.984,946.093 856.651,909.427 902.5,873C 903.252,872.329 903.586,871.496 903.5,870.5 Z"/></g>
<g><path style="opacity:1" fill="#746564" d="M 2437.5,867.5 C 2438.8,869.693 2438.8,872.027 2437.5,874.5C 2436.89,874.376 2436.56,874.043 2436.5,873.5C 2437.46,871.735 2437.79,869.735 2437.5,867.5 Z"/></g>
<g><path style="opacity:1" fill="#7e6f6f" d="M 2076.5,869.5 C 2076.23,871.099 2076.57,872.432 2077.5,873.5C 2077.44,874.043 2077.11,874.376 2076.5,874.5C 2075.21,872.701 2075.21,871.035 2076.5,869.5 Z"/></g>
<g><path style="opacity:1" fill="#9b7368" d="M 1455.5,876.5 C 1468.97,880.435 1482.31,884.769 1495.5,889.5C 1411.9,956.59 1328.4,1023.92 1245,1091.5C 1244.6,1091.27 1244.43,1090.94 1244.5,1090.5C 1267.12,1056.55 1290.12,1022.89 1313.5,989.5C 1313.9,990.525 1314.56,990.692 1315.5,990C 1362.07,951.924 1408.73,914.09 1455.5,876.5 Z"/></g>
<g><path style="opacity:1" fill="#a19594" d="M 2545.5,877.5 C 2544.31,878.777 2542.64,879.444 2540.5,879.5C 2538.63,879.493 2536.96,879.16 2535.5,878.5C 2538.94,878.747 2542.27,878.414 2545.5,877.5 Z"/></g>
<g><path style="opacity:1" fill="#9f796c" d="M 1495.5,889.5 C 1508.39,893.463 1521.06,897.796 1533.5,902.5C 1415.75,997.887 1297.75,1093.05 1179.5,1188C 1178.56,1188.69 1177.9,1188.53 1177.5,1187.5C 1199.48,1154.87 1221.81,1122.53 1244.5,1090.5C 1244.43,1090.94 1244.6,1091.27 1245,1091.5C 1328.4,1023.92 1411.9,956.59 1495.5,889.5 Z"/></g>
<g><path style="opacity:1" fill="#8f8281" d="M 2363.5,875.5 C 2362.51,881.645 2362.18,887.978 2362.5,894.5C 2361.35,887.679 2361.18,880.679 2362,873.5C 2362.72,874.044 2363.22,874.711 2363.5,875.5 Z"/></g>
<g><path style="opacity:1" fill="#655352" d="M 2438.5,895.5 C 2438.74,894.209 2438.4,893.209 2437.5,892.5C 2437.46,891.244 2437.96,890.244 2439,889.5C 2439.79,891.712 2439.62,893.712 2438.5,895.5 Z"/></g>
<g><path style="opacity:1" fill="#837574" d="M 2179.5,893.5 C 2180.04,893.56 2180.38,893.893 2180.5,894.5C 2179.68,895.386 2178.68,895.719 2177.5,895.5C 2178.17,894.833 2178.83,894.167 2179.5,893.5 Z"/></g>
<g><path style="opacity:1" fill="#4b3736" d="M 2467.5,893.5 C 2471.81,895.172 2472.48,897.839 2469.5,901.5C 2468.3,903.138 2466.96,903.471 2465.5,902.5C 2468.73,900.428 2469.07,898.095 2466.5,895.5C 2466.86,894.817 2467.2,894.15 2467.5,893.5 Z"/></g>
<g><path style="opacity:1" fill="#847675" d="M 2580.5,893.5 C 2579.82,895.176 2578.48,895.843 2576.5,895.5C 2577.67,894.655 2579,893.989 2580.5,893.5 Z"/></g>
<g><path style="opacity:1" fill="#978a89" d="M 2583.5,893.5 C 2585,893.989 2586.33,894.655 2587.5,895.5C 2585.52,895.843 2584.18,895.176 2583.5,893.5 Z"/></g>
<g><path style="opacity:1" fill="#867777" d="M 2672.5,893.5 C 2672.18,895.048 2671.18,895.715 2669.5,895.5C 2670.29,894.599 2671.29,893.932 2672.5,893.5 Z"/></g>
<g><path style="opacity:1" fill="#857675" d="M 2876.5,893.5 C 2875.82,895.176 2874.48,895.843 2872.5,895.5C 2873.67,894.655 2875,893.989 2876.5,893.5 Z"/></g>
<g><path style="opacity:1" fill="#544140" d="M 2920.5,893.5 C 2923.86,894.203 2924.19,895.537 2921.5,897.5C 2919.36,896.563 2919.02,895.23 2920.5,893.5 Z"/></g>
<g><path style="opacity:1" fill="#76393d" d="M 920.5,894.5 C 923.734,898.622 926.734,902.955 929.5,907.5C 929.703,909.39 929.037,910.89 927.5,912C 882.67,947.333 838.004,982.833 793.5,1018.5C 789.5,1015.17 785.833,1011.5 782.5,1007.5C 827.47,971.675 872.47,935.842 917.5,900C 919.607,898.736 920.607,896.903 920.5,894.5 Z"/></g>
<g><path style="opacity:1" fill="#6c2b32" d="M 813.5,886.5 C 814.239,886.369 814.906,886.536 815.5,887C 788.167,909 760.833,931 733.5,953C 732.255,953.791 730.922,954.291 729.5,954.5C 715.72,942.404 715.053,929.571 727.5,916C 755.758,905.08 784.425,895.247 813.5,886.5 Z"/></g>
<g><path style="opacity:1" fill="#a17e6f" d="M 1533.5,902.5 C 1539.78,903.928 1545.78,905.928 1551.5,908.5C 1402.81,1028.52 1253.81,1148.18 1104.5,1267.5C 1099.49,1265 1094.82,1262 1090.5,1258.5C 1107.86,1245.16 1125.2,1231.82 1142.5,1218.5C 1145.14,1221.31 1147.64,1224.31 1150,1227.5C 1158.94,1213.93 1168.11,1200.59 1177.5,1187.5C 1177.9,1188.53 1178.56,1188.69 1179.5,1188C 1297.75,1093.05 1415.75,997.887 1533.5,902.5 Z"/></g>
<g><path style="opacity:1" fill="#783c3f" d="M 929.5,907.5 C 933.154,912.796 936.821,918.129 940.5,923.5C 940.141,925.371 939.141,926.871 937.5,928C 894.136,962.999 850.47,997.499 806.5,1031.5C 801.833,1027.5 797.5,1023.17 793.5,1018.5C 838.004,982.833 882.67,947.333 927.5,912C 929.037,910.89 929.703,909.39 929.5,907.5 Z"/></g>
<g><path style="opacity:1" fill="#a38172" d="M 1551.5,908.5 C 1560.41,909.792 1568.08,913.459 1574.5,919.5C 1574.14,921.371 1573.14,922.871 1571.5,924C 1422.96,1043.38 1274.29,1162.55 1125.5,1281.5C 1117.98,1277.57 1110.98,1272.91 1104.5,1267.5C 1253.81,1148.18 1402.81,1028.52 1551.5,908.5 Z"/></g>
<g><path style="opacity:1" fill="#93675f" d="M 1014.5,900.5 C 1024.9,909.576 1035.57,918.242 1046.5,926.5C 1037.8,939.523 1029.13,952.523 1020.5,965.5C 1009.24,957.899 998.569,949.566 988.5,940.5C 997.137,928.345 1005.64,916.012 1014,903.5C 1014.48,902.552 1014.65,901.552 1014.5,900.5 Z"/></g>
<g><path style="opacity:1" fill="#a68575" d="M 1574.5,919.5 C 1580.08,926.75 1581.42,934.75 1578.5,943.5C 1577.08,943.709 1575.74,944.209 1574.5,945C 1513.5,994 1452.5,1043 1391.5,1092C 1390.18,1092.82 1389.51,1093.98 1389.5,1095.5C 1389.17,1095.5 1388.83,1095.5 1388.5,1095.5C 1307.2,1159.84 1226.2,1224.67 1145.5,1290C 1144.26,1290.79 1142.92,1291.29 1141.5,1291.5C 1135.49,1289.16 1130.15,1285.83 1125.5,1281.5C 1274.29,1162.55 1422.96,1043.38 1571.5,924C 1573.14,922.871 1574.14,921.371 1574.5,919.5 Z"/></g>
<g><path style="opacity:1" fill="#ad907d" d="M 1258.5,922.5 C 1243.64,946.868 1228.14,970.868 1212,994.5C 1211.52,995.448 1211.35,996.448 1211.5,997.5C 1204.83,999.167 1198.17,1000.83 1191.5,1002.5C 1192.74,999.411 1194.24,996.411 1196,993.5C 1208.42,975.568 1219.92,957.568 1230.5,939.5C 1239.81,933.868 1249.14,928.201 1258.5,922.5 Z"/></g>
<g><path style="opacity:1" fill="#7b4143" d="M 940.5,923.5 C 947.401,932.955 954.067,942.622 960.5,952.5C 960.586,953.496 960.252,954.329 959.5,955C 916.958,989.047 874.292,1022.88 831.5,1056.5C 822.833,1048.5 814.5,1040.17 806.5,1031.5C 850.47,997.499 894.136,962.999 937.5,928C 939.141,926.871 940.141,925.371 940.5,923.5 Z"/></g>
<g><path style="opacity:1" fill="#976e64" d="M 1046.5,926.5 C 1054.01,931.09 1061.68,935.423 1069.5,939.5C 1061.16,952.015 1053,964.681 1045,977.5C 1044.33,978.252 1043.5,978.586 1042.5,978.5C 1034.64,974.956 1027.31,970.622 1020.5,965.5C 1029.13,952.523 1037.8,939.523 1046.5,926.5 Z"/></g>
<g><path style="opacity:1" fill="#9b7368" d="M 1069.5,939.5 C 1077.67,943.225 1086.01,946.558 1094.5,949.5C 1086.6,963.637 1077.93,977.304 1068.5,990.5C 1059.29,987.557 1050.62,983.557 1042.5,978.5C 1043.5,978.586 1044.33,978.252 1045,977.5C 1053,964.681 1061.16,952.015 1069.5,939.5 Z"/></g>
<g><path style="opacity:1" fill="#aa8c7a" d="M 1230.5,939.5 C 1219.92,957.568 1208.42,975.568 1196,993.5C 1194.24,996.411 1192.74,999.411 1191.5,1002.5C 1179.58,1004.49 1167.58,1005.82 1155.5,1006.5C 1157.45,1005.87 1159.28,1004.87 1161,1003.5C 1171.66,986.681 1182.5,970.014 1193.5,953.5C 1206.13,949.624 1218.46,944.957 1230.5,939.5 Z"/></g>
<g><path style="opacity:1" fill="#a88877" d="M 1578.5,943.5 C 1577.68,945.14 1576.85,946.807 1576,948.5C 1534.17,990.333 1492.33,1032.17 1450.5,1074C 1430.33,1081.67 1409.99,1088.84 1389.5,1095.5C 1389.51,1093.98 1390.18,1092.82 1391.5,1092C 1452.5,1043 1513.5,994 1574.5,945C 1575.74,944.209 1577.08,943.709 1578.5,943.5 Z"/></g>
<g><path style="opacity:1" fill="#9f796d" d="M 1094.5,949.5 C 1103.58,952.769 1112.91,955.102 1122.5,956.5C 1113.24,970.693 1104.24,985.026 1095.5,999.5C 1086.08,997.471 1077.08,994.471 1068.5,990.5C 1077.93,977.304 1086.6,963.637 1094.5,949.5 Z"/></g>
<g><path style="opacity:1" fill="#7e4747" d="M 960.5,952.5 C 967.551,962.223 974.218,972.223 980.5,982.5C 940.126,1014.02 900.126,1046.02 860.5,1078.5C 856.203,1077.85 852.203,1076.35 848.5,1074C 842.63,1068.3 836.964,1062.46 831.5,1056.5C 874.292,1022.88 916.958,989.047 959.5,955C 960.252,954.329 960.586,953.496 960.5,952.5 Z"/></g>
<g><path style="opacity:1" fill="#a78676" d="M 1193.5,953.5 C 1182.5,970.014 1171.66,986.681 1161,1003.5C 1159.28,1004.87 1157.45,1005.87 1155.5,1006.5C 1145.29,1006.77 1135.29,1006.1 1125.5,1004.5C 1126.82,1004.67 1127.99,1004.34 1129,1003.5C 1138.62,989.085 1148.12,974.585 1157.5,960C 1153.64,959.823 1149.98,959.323 1146.5,958.5C 1162.39,958.888 1178.06,957.221 1193.5,953.5 Z"/></g>
<g><path style="opacity:1" fill="#a38071" d="M 1122.5,956.5 C 1130.42,957.93 1138.42,958.597 1146.5,958.5C 1149.98,959.323 1153.64,959.823 1157.5,960C 1148.12,974.585 1138.62,989.085 1129,1003.5C 1127.99,1004.34 1126.82,1004.67 1125.5,1004.5C 1115.29,1003.91 1105.29,1002.24 1095.5,999.5C 1104.24,985.026 1113.24,970.693 1122.5,956.5 Z"/></g>
<g><path style="opacity:1" fill="#824c4b" d="M 980.5,982.5 C 985.572,988.304 989.905,994.638 993.5,1001.5C 958.167,1030.17 922.833,1058.83 887.5,1087.5C 878.216,1085.07 869.216,1082.07 860.5,1078.5C 900.126,1046.02 940.126,1014.02 980.5,982.5 Z"/></g>
<g><path style="opacity:1" fill="#84504e" d="M 993.5,1001.5 C 997.237,1005.3 1000.24,1009.64 1002.5,1014.5C 970.732,1039.76 939.066,1065.26 907.5,1091C 905.975,1092.01 904.308,1092.51 902.5,1092.5C 897.216,1091.41 892.216,1089.74 887.5,1087.5C 922.833,1058.83 958.167,1030.17 993.5,1001.5 Z"/></g>
<g><path style="opacity:1" fill="#865350" d="M 1002.5,1014.5 C 1006.94,1019.28 1010.61,1024.61 1013.5,1030.5C 979.388,1058.06 945.055,1085.4 910.5,1112.5C 910.829,1106.79 910.495,1101.13 909.5,1095.5C 906.984,1094.67 904.65,1093.67 902.5,1092.5C 904.308,1092.51 905.975,1092.01 907.5,1091C 939.066,1065.26 970.732,1039.76 1002.5,1014.5 Z"/></g>
<g><path style="opacity:1" fill="#74373b" d="M 743.5,1037.5 C 743.631,1038.24 743.464,1038.91 743,1039.5C 696.258,1077.45 649.425,1115.29 602.5,1153C 601.563,1153.69 600.897,1153.53 600.5,1152.5C 624.027,1099.8 660.027,1057.63 708.5,1026C 723.301,1020.32 734.967,1024.16 743.5,1037.5 Z"/></g>
<g><path style="opacity:1" fill="#b09480" d="M 1599.5,1032.5 C 1500.35,1112.8 1401.02,1192.97 1301.5,1273C 1300.55,1273.48 1299.55,1273.65 1298.5,1273.5C 1297.76,1264.49 1300.76,1256.99 1307.5,1251C 1341.5,1228.33 1375.5,1205.67 1409.5,1183C 1415.74,1177.43 1421.24,1171.26 1426,1164.5C 1431.06,1153.99 1435.72,1143.32 1440,1132.5C 1447.19,1126.76 1455.36,1122.93 1464.5,1121C 1470.66,1118.42 1476.33,1115.09 1481.5,1111C 1508.5,1084 1535.5,1057 1562.5,1030C 1575.47,1020.83 1587.8,1021.66 1599.5,1032.5 Z"/></g>
<g><path style="opacity:1" fill="#885652" d="M 1013.5,1030.5 C 1017.94,1035.28 1021.61,1040.61 1024.5,1046.5C 987.136,1075.84 949.803,1105.18 912.5,1134.5C 911.732,1133.74 911.232,1132.74 911,1131.5C 910.5,1125.18 910.334,1118.84 910.5,1112.5C 945.055,1085.4 979.388,1058.06 1013.5,1030.5 Z"/></g>
<g><path style="opacity:1" fill="#b19782" d="M 1599.5,1032.5 C 1603.86,1035.86 1608.19,1039.2 1612.5,1042.5C 1607.41,1047.42 1602.07,1052.25 1596.5,1057C 1500.02,1133.65 1404.02,1210.82 1308.5,1288.5C 1302.95,1285.1 1299.62,1280.1 1298.5,1273.5C 1299.55,1273.65 1300.55,1273.48 1301.5,1273C 1401.02,1192.97 1500.35,1112.8 1599.5,1032.5 Z"/></g>
<g><path style="opacity:1" fill="#763a3d" d="M 743.5,1037.5 C 747.833,1041.17 751.833,1045.17 755.5,1049.5C 700.312,1093.69 645.145,1138.03 590,1182.5C 589.601,1182.27 589.435,1181.94 589.5,1181.5C 592.203,1171.38 595.87,1161.71 600.5,1152.5C 600.897,1153.53 601.563,1153.69 602.5,1153C 649.425,1115.29 696.258,1077.45 743,1039.5C 743.464,1038.91 743.631,1038.24 743.5,1037.5 Z"/></g>
<g><path style="opacity:1" fill="#b39984" d="M 1612.5,1042.5 C 1675.98,1092.77 1712.48,1158.43 1722,1239.5C 1723.32,1251.14 1723.65,1262.81 1723,1274.5C 1720.84,1284.66 1714.68,1290.82 1704.5,1293C 1575.83,1293.67 1447.17,1293.67 1318.5,1293C 1314.58,1292.54 1311.25,1291.04 1308.5,1288.5C 1404.02,1210.82 1500.02,1133.65 1596.5,1057C 1602.07,1052.25 1607.41,1047.42 1612.5,1042.5 Z"/></g>
<g><path style="opacity:1" fill="#8b5b56" d="M 1024.5,1046.5 C 1030.65,1054.11 1036.31,1062.11 1041.5,1070.5C 1041.49,1072.02 1040.82,1073.18 1039.5,1074C 1006.32,1100.09 973.318,1126.43 940.5,1153C 938.922,1154.09 937.255,1154.93 935.5,1155.5C 928.075,1151.36 921.242,1146.36 915,1140.5C 913.441,1138.78 912.608,1136.78 912.5,1134.5C 949.803,1105.18 987.136,1075.84 1024.5,1046.5 Z"/></g>
<g><path style="opacity:1" fill="#783d3f" d="M 755.5,1049.5 C 760.167,1053.5 764.5,1057.83 768.5,1062.5C 706.75,1113.25 644.416,1163.25 581.5,1212.5C 582.977,1201.76 585.644,1191.42 589.5,1181.5C 589.435,1181.94 589.601,1182.27 590,1182.5C 645.145,1138.03 700.312,1093.69 755.5,1049.5 Z"/></g>
<g><path style="opacity:1" fill="#7a4142" d="M 768.5,1062.5 C 775.5,1068.83 782.167,1075.5 788.5,1082.5C 718.147,1139.52 647.48,1196.18 576.5,1252.5C 576.5,1251.83 576.5,1251.17 576.5,1250.5C 576.719,1237.51 578.385,1224.84 581.5,1212.5C 644.416,1163.25 706.75,1113.25 768.5,1062.5 Z"/></g>
<g><path style="opacity:1" fill="#8e5f59" d="M 1041.5,1070.5 C 1046.07,1076.62 1050.4,1082.96 1054.5,1089.5C 1022.06,1116.55 989.056,1142.89 955.5,1168.5C 948.484,1164.66 941.817,1160.33 935.5,1155.5C 937.255,1154.93 938.922,1154.09 940.5,1153C 973.318,1126.43 1006.32,1100.09 1039.5,1074C 1040.82,1073.18 1041.49,1072.02 1041.5,1070.5 Z"/></g>
<g><path style="opacity:1" fill="#7c4345" d="M 788.5,1082.5 C 790.5,1083.83 792.167,1085.5 793.5,1087.5C 721.81,1146.02 649.644,1204.02 577,1261.5C 576.502,1258.52 576.335,1255.52 576.5,1252.5C 647.48,1196.18 718.147,1139.52 788.5,1082.5 Z"/></g>
<g><path style="opacity:1" fill="#7e4747" d="M 793.5,1087.5 C 801.86,1095.53 810.193,1103.53 818.5,1111.5C 743.683,1172.07 668.683,1232.41 593.5,1292.5C 585.426,1290.93 579.926,1286.26 577,1278.5C 575.27,1269.05 575.103,1259.72 576.5,1250.5C 576.5,1251.17 576.5,1251.83 576.5,1252.5C 576.335,1255.52 576.502,1258.52 577,1261.5C 649.644,1204.02 721.81,1146.02 793.5,1087.5 Z"/></g>
<g><path style="opacity:1" fill="#a88877" d="M 1388.5,1095.5 C 1388.5,1101.83 1388.5,1108.17 1388.5,1114.5C 1333.53,1158.66 1278.53,1202.82 1223.5,1247C 1222.75,1247.67 1222.41,1248.5 1222.5,1249.5C 1202.68,1263.14 1182.68,1276.64 1162.5,1290C 1155.57,1293.83 1148.57,1294.33 1141.5,1291.5C 1142.92,1291.29 1144.26,1290.79 1145.5,1290C 1226.2,1224.67 1307.2,1159.84 1388.5,1095.5 Z"/></g>
<g><path style="opacity:1" fill="#91635c" d="M 1054.5,1089.5 C 1058.15,1094.8 1061.82,1100.13 1065.5,1105.5C 1065.63,1106.24 1065.46,1106.91 1065,1107.5C 1034.63,1132.05 1004.13,1156.38 973.5,1180.5C 967.148,1176.99 961.148,1172.99 955.5,1168.5C 989.056,1142.89 1022.06,1116.55 1054.5,1089.5 Z"/></g>
<g><path style="opacity:1" fill="#93685f" d="M 1065.5,1105.5 C 1072.24,1113.98 1078.24,1122.98 1083.5,1132.5C 1056.05,1154.73 1028.39,1176.73 1000.5,1198.5C 990.976,1193.24 981.976,1187.24 973.5,1180.5C 1004.13,1156.38 1034.63,1132.05 1065,1107.5C 1065.46,1106.91 1065.63,1106.24 1065.5,1105.5 Z"/></g>
<g><path style="opacity:1" fill="#824c4b" d="M 818.5,1111.5 C 825.792,1116.31 833.458,1120.31 841.5,1123.5C 771.79,1180.55 701.79,1237.21 631.5,1293.5C 618.656,1293.83 605.989,1293.5 593.5,1292.5C 668.683,1232.41 743.683,1172.07 818.5,1111.5 Z"/></g>
<g><path style="opacity:1" fill="#aa8b7a" d="M 1388.5,1114.5 C 1391.08,1127.04 1387.75,1137.54 1378.5,1146C 1326.62,1180.72 1274.62,1215.22 1222.5,1249.5C 1222.41,1248.5 1222.75,1247.67 1223.5,1247C 1278.53,1202.82 1333.53,1158.66 1388.5,1114.5 Z"/></g>
<g><path style="opacity:1" fill="#84504e" d="M 841.5,1123.5 C 847.403,1124.12 852.403,1126.46 856.5,1130.5C 856.141,1132.37 855.141,1133.87 853.5,1135C 787.356,1187.32 721.69,1240.15 656.5,1293.5C 648.167,1293.5 639.833,1293.5 631.5,1293.5C 701.79,1237.21 771.79,1180.55 841.5,1123.5 Z"/></g>
<g><path style="opacity:1" fill="#865350" d="M 856.5,1130.5 C 862.134,1135.1 865.134,1141.1 865.5,1148.5C 863.45,1151.06 861.117,1153.56 858.5,1156C 801.065,1201.37 744.065,1247.21 687.5,1293.5C 677.167,1293.5 666.833,1293.5 656.5,1293.5C 721.69,1240.15 787.356,1187.32 853.5,1135C 855.141,1133.87 856.141,1132.37 856.5,1130.5 Z"/></g>
<g><path style="opacity:1" fill="#976e64" d="M 1083.5,1132.5 C 1090.19,1141.2 1096.52,1150.2 1102.5,1159.5C 1102.14,1161.37 1101.14,1162.87 1099.5,1164C 1076.62,1182.38 1053.62,1200.55 1030.5,1218.5C 1020.21,1212.19 1010.21,1205.53 1000.5,1198.5C 1028.39,1176.73 1056.05,1154.73 1083.5,1132.5 Z"/></g>
<g><path style="opacity:1" fill="#885652" d="M 865.5,1148.5 C 868.467,1154.43 871.467,1160.43 874.5,1166.5C 821.833,1208.83 769.167,1251.17 716.5,1293.5C 706.833,1293.5 697.167,1293.5 687.5,1293.5C 744.065,1247.21 801.065,1201.37 858.5,1156C 861.117,1153.56 863.45,1151.06 865.5,1148.5 Z"/></g>
<g><path style="opacity:1" fill="#9b7368" d="M 1102.5,1159.5 C 1109.4,1168.96 1116.07,1178.62 1122.5,1188.5C 1122.59,1189.5 1122.25,1190.33 1121.5,1191C 1101.47,1207.33 1081.14,1223.17 1060.5,1238.5C 1050.21,1232.19 1040.21,1225.53 1030.5,1218.5C 1053.62,1200.55 1076.62,1182.38 1099.5,1164C 1101.14,1162.87 1102.14,1161.37 1102.5,1159.5 Z"/></g>
<g><path style="opacity:1" fill="#8b5a55" d="M 874.5,1166.5 C 880.542,1174.88 887.876,1181.88 896.5,1187.5C 896.586,1188.5 896.252,1189.33 895.5,1190C 852.312,1224.36 809.312,1258.86 766.5,1293.5C 749.833,1293.5 733.167,1293.5 716.5,1293.5C 769.167,1251.17 821.833,1208.83 874.5,1166.5 Z"/></g>
<g><path style="opacity:1" fill="#8e5f59" d="M 896.5,1187.5 C 903.167,1191.83 909.833,1196.17 916.5,1200.5C 914.756,1202.75 912.756,1204.92 910.5,1207C 874.312,1235.7 838.312,1264.53 802.5,1293.5C 790.5,1293.5 778.5,1293.5 766.5,1293.5C 809.312,1258.86 852.312,1224.36 895.5,1190C 896.252,1189.33 896.586,1188.5 896.5,1187.5 Z"/></g>
<g><path style="opacity:1" fill="#9e796c" d="M 1122.5,1188.5 C 1129.66,1198.15 1136.33,1208.15 1142.5,1218.5C 1125.2,1231.82 1107.86,1245.16 1090.5,1258.5C 1080.21,1252.19 1070.21,1245.53 1060.5,1238.5C 1081.14,1223.17 1101.47,1207.33 1121.5,1191C 1122.25,1190.33 1122.59,1189.5 1122.5,1188.5 Z"/></g>
<g><path style="opacity:1" fill="#90635c" d="M 916.5,1200.5 C 922.5,1204.5 928.5,1208.5 934.5,1212.5C 901.167,1239.5 867.833,1266.5 834.5,1293.5C 823.833,1293.5 813.167,1293.5 802.5,1293.5C 838.312,1264.53 874.312,1235.7 910.5,1207C 912.756,1204.92 914.756,1202.75 916.5,1200.5 Z"/></g>
<g><path style="opacity:1" fill="#93675f" d="M 934.5,1212.5 C 943.5,1218.5 952.5,1224.5 961.5,1230.5C 936.124,1251.88 910.457,1272.88 884.5,1293.5C 867.833,1293.5 851.167,1293.5 834.5,1293.5C 867.833,1266.5 901.167,1239.5 934.5,1212.5 Z"/></g>
<g><path style="opacity:1" fill="#976d64" d="M 961.5,1230.5 C 971.5,1237.17 981.5,1243.83 991.5,1250.5C 974.167,1264.83 956.833,1279.17 939.5,1293.5C 921.167,1293.5 902.833,1293.5 884.5,1293.5C 910.457,1272.88 936.124,1251.88 961.5,1230.5 Z"/></g>
<g><path style="opacity:1" fill="#9a7367" d="M 991.5,1250.5 C 1004.69,1263.28 1004.69,1276.11 991.5,1289C 988.618,1290.61 985.618,1291.94 982.5,1293C 968.171,1293.5 953.837,1293.67 939.5,1293.5C 956.833,1279.17 974.167,1264.83 991.5,1250.5 Z"/></g>
</svg>
