<svg width="70" height="70" viewBox="0 0 70 70" fill="none" xmlns="http://www.w3.org/2000/svg"><path d="M12.03 33.705s2.35 2.619 6.616 2.619c3.996 0 6.318-2.565 6.318-5.616 0-6.129-9.018-5.292-9.018-8.694 0-1.35 1.269-2.295 2.889-2.295 2.403 0 4.239 1.674 4.239 1.674l1.512-2.835s-1.944-2.052-5.724-2.052c-3.672 0-6.426 2.376-6.426 5.562 0 5.886 9.045 5.292 9.045 8.721 0 1.566-1.323 2.322-2.781 2.322-2.7 0-4.78-2.025-4.78-2.025l-1.89 2.619zM28.44 36h3.483v-6.615h3.915c3.59 0 6.102-2.592 6.102-6.318 0-3.726-2.511-6.237-6.102-6.237H28.44V36zm3.483-9.639v-6.534h3.32c1.972 0 3.16 1.269 3.16 3.24 0 1.998-1.188 3.294-3.213 3.294h-3.267zM49.02 36h3.483v-8.019l6.372-11.151h-3.942l-2.97 5.643a30.422 30.422 0 00-1.161 2.565h-.054c-.027.027-.54-1.377-1.161-2.565L46.59 16.83h-3.942l6.372 11.151V36zM11.844 55h2.322v-7.362c0-.756-.126-1.98-.126-1.98h.036s.576 1.242 1.062 1.98L19.98 55h2.304V42.22H19.98v7.38c0 .756.126 1.98.126 1.98h-.036s-.576-1.242-1.062-1.98l-4.842-7.38h-2.322V55zm12.811-6.408c0 4.014 2.898 6.624 6.264 6.624 2.376 0 3.708-1.368 3.708-1.368h.036s-.018.27-.018.54V55h1.98v-6.732h-4.05v1.998h1.962v1.494s-1.278 1.332-3.204 1.332c-2.394 0-4.284-1.8-4.284-4.572 0-2.412 1.53-4.392 4.392-4.392 2.034 0 3.402 1.224 3.402 1.224l1.152-1.728s-1.62-1.62-4.752-1.62c-3.798 0-6.588 2.88-6.588 6.588zM39.195 55h7.938v-1.998h-5.616v-3.438h4.302v-1.998h-4.302v-3.348h5.328V42.22h-7.65V55zm10.354 0h2.322v-4.77h2.232L56.64 55h2.592l-2.628-4.77c-.252-.45-.432-.63-.432-.63v-.036c1.35-.54 2.16-1.962 2.16-3.492 0-1.692-.81-2.916-2.088-3.492-.558-.252-1.188-.36-2.574-.36h-4.122V55zm2.322-6.786v-3.996h1.764c1.818 0 2.34.756 2.34 1.98 0 1.278-.774 2.016-2.016 2.016H51.87z" fill="#fff"/><path stroke="#fff" stroke-width="5" d="M2.5 2.5h65v65h-65z"/></svg>