<?xml version="1.0" encoding="UTF-8"?>
<svg version="1.1" xmlns="http://www.w3.org/2000/svg" width="400" height="190">
<path d="M0 0 C132 0 264 0 400 0 C400 62.7 400 125.4 400 190 C268 190 136 190 0 190 C0 127.3 0 64.6 0 0 Z " fill="#2D2D2C" transform="translate(0,0)"/>
<path d="M0 0 C99.33 0 198.66 0 301 0 C301 33.33 301 66.66 301 101 C201.67 101 102.34 101 0 101 C0 67.67 0 34.34 0 0 Z " fill="#30302E" transform="translate(52,46)"/>
<path d="M0 0 C0 30.69 0 61.38 0 93 C-3.63 93 -7.26 93 -11 93 C-11.33 78.48 -11.66 63.96 -12 49 C-12.66 49.99 -13.32 50.98 -14 52 C-14.33 52.33 -14.66 52.66 -15 53 C-15.20604085 54.32781878 -15.3662959 55.66295895 -15.5 57 C-15.88888889 60.88888889 -15.88888889 60.88888889 -17 62 C-19.67058851 62.14115161 -22.32432238 62.04247107 -25 62 C-25 58.7 -25 55.4 -25 52 C-26.65 52 -28.3 52 -30 52 C-30.99 52 -31.98 52 -33 52 C-33 50.68 -33 49.36 -33 48 C-33.33 48.639375 -33.66 49.27875 -34 49.9375 C-37.02329832 53.0552764 -39.73656724 52.72043064 -44 53 C-44.33 54.65 -44.66 56.3 -45 58 C-45.66 58 -46.32 58 -47 58 C-47.495 58.99 -47.495 58.99 -48 60 C-47.01 59.67 -46.02 59.34 -45 59 C-45.33 59.99 -45.66 60.98 -46 62 C-47.81242052 62.02687279 -49.62495233 62.04633715 -51.4375 62.0625 C-52.44683594 62.07410156 -53.45617187 62.08570313 -54.49609375 62.09765625 C-57 62 -57 62 -58 61 C-58.10003289 58.86646826 -58.13081048 56.72962458 -58.1328125 54.59375 C-58.13410156 53.29308594 -58.13539063 51.99242187 -58.13671875 50.65234375 C-58.13462402 49.97155762 -58.1325293 49.29077148 -58.13037109 48.58935547 C-58.1250224 46.50871485 -58.1303168 44.42829011 -58.13671875 42.34765625 C-58.13542969 41.04699219 -58.13414062 39.74632812 -58.1328125 38.40625 C-58.13168457 37.20291016 -58.13055664 35.99957031 -58.12939453 34.75976562 C-58 32 -58 32 -57 31 C-54.07370428 30.89929752 -51.17609661 30.86132665 -48.25 30.875 C-47.43789063 30.87113281 -46.62578125 30.86726563 -45.7890625 30.86328125 C-41.70634333 30.86993063 -37.99559602 31.08238572 -34 32 C-31.66698014 32.03824623 -29.33288492 32.04574284 -27 32 C-26.16151196 33.45537568 -25.32936066 34.91440373 -24.5 36.375 C-23.80390625 37.59316406 -23.80390625 37.59316406 -23.09375 38.8359375 C-22 41 -22 41 -22 43 C-21.34 43 -20.68 43 -20 43 C-18.40078955 39.50172714 -17.68773425 36.85127762 -18 33 C-18.33 32.34 -18.66 31.68 -19 31 C-16.36 30.67 -13.72 30.34 -11 30 C-11 21.42 -11 12.84 -11 4 C-56.54 4 -102.08 4 -149 4 C-149 3.67 -149 3.34 -149 3 C-144.38 2.67 -139.76 2.34 -135 2 C-135 1.67 -135 1.34 -135 1 C-117.98880528 0.86943047 -100.97760924 0.73903545 -83.96641159 0.60884857 C-76.06793912 0.5483974 -68.1694671 0.48788898 -60.27099609 0.42724609 C-53.38722197 0.37439399 -46.50344704 0.32164899 -39.61967111 0.26903296 C-35.97430884 0.24116593 -32.328947 0.21324504 -28.68358612 0.18519592 C-24.61555607 0.15389659 -20.54752423 0.12283637 -16.47949219 0.09179688 C-15.26892654 0.08244614 -14.0583609 0.0730954 -12.81111145 0.0634613 C-11.70335861 0.05504715 -10.59560577 0.046633 -9.45428467 0.03796387 C-8.01075686 0.02690235 -8.01075686 0.02690235 -6.53806686 0.01561737 C-4.35874628 0.00220746 -2.17936184 0 0 0 Z " fill="#363536" transform="translate(349,50)"/>
<path d="M0 0 C99.33 0 198.66 0 301 0 C301 33.33 301 66.66 301 101 C201.67 101 102.34 101 0 101 C0 67.67 0 34.34 0 0 Z M3 3 C3 34.35 3 65.7 3 98 C100.35 98 197.7 98 298 98 C298 66.65 298 35.3 298 3 C200.65 3 103.3 3 3 3 Z " fill="#EACD69" transform="translate(52,46)"/>
<path d="M0 0 C34.65 0 69.3 0 105 0 C105 0.33 105 0.66 105 1 C83.88 1.33 62.76 1.66 41 2 C41 3.32 41 4.64 41 6 C38.69 6 36.38 6 34 6 C34 6.99 34 7.98 34 9 C33.07767578 8.96519531 33.07767578 8.96519531 32.13671875 8.9296875 C31.32847656 8.91164063 30.52023438 8.89359375 29.6875 8.875 C28.48673828 8.84019531 28.48673828 8.84019531 27.26171875 8.8046875 C24.71611424 8.84182678 24.71611424 8.84182678 22 11 C22.66 11.33 23.32 11.66 24 12 C24 12.66 24 13.32 24 14 C19.71 15.65 15.42 17.3 11 19 C10.4294364 38.44142653 11.50599992 56.66400936 24.3125 72.4375 C28.33525093 76.66910708 33.09011009 79.8819831 38 83 C38.85207031 83.55171875 39.70414063 84.1034375 40.58203125 84.671875 C43.93045419 86.51107338 46.24079722 86.47844399 50 86 C52.27144074 84.14567913 52.27144074 84.14567913 54 82 C54.99 81.67 55.98 81.34 57 81 C57.33 82.32 57.66 83.64 58 85 C57.34 85 56.68 85 56 85 C56.495 88.96 56.495 88.96 57 93 C76.47 93 95.94 93 116 93 C116 93.33 116 93.66 116 94 C77.72 94 39.44 94 0 94 C0 62.98 0 31.96 0 0 Z " fill="#252323" transform="translate(55,50)"/>
<path d="M0 0 C1.13540693 16.9469997 1.13540693 16.9469997 -3.8671875 24.13671875 C-7.89693292 27.65721063 -12.81700493 28.34583557 -18 29 C-16.69370826 31.85675015 -15.61266433 33.40578023 -13.375 35.75 C-10.74212024 38.81653054 -10.4988219 41.07021733 -10.7578125 45.03125 C-11.08709168 47.70797109 -11.47102938 50.35514692 -12 53 C-11.38511719 52.71125 -10.77023438 52.4225 -10.13671875 52.125 C-9.32847656 51.75375 -8.52023438 51.3825 -7.6875 51 C-6.88699219 50.62875 -6.08648437 50.2575 -5.26171875 49.875 C-3 49 -3 49 0 49 C0 57.58 0 66.16 0 75 C-7.52204447 71.23897777 -12.15026648 67.74852705 -18 62 C-18.51820312 61.4946875 -19.03640625 60.989375 -19.5703125 60.46875 C-27.54728865 51.83956825 -29.34386079 40.15655938 -31 29 C-31.19078125 27.72511719 -31.3815625 26.45023438 -31.578125 25.13671875 C-32.16019712 20.43046695 -32.08730981 15.73413215 -32 11 C-28.66680199 9.72881155 -25.33341673 8.45811479 -22 7.1875 C-21.06542969 6.83107422 -20.13085938 6.47464844 -19.16796875 6.10742188 C-17.31833371 5.40249104 -15.4680802 4.69918063 -13.6171875 3.99755859 C-11.9525038 3.36305322 -10.29067045 2.72097948 -8.6328125 2.06884766 C-5.60953196 0.89151245 -3.27554998 0 0 0 Z " fill="#272522" transform="translate(98,59)"/>
<path d="M0 0 C7.32673452 2.0966568 14.4772579 4.54884754 21.625 7.1875 C22.62917969 7.55552734 23.63335937 7.92355469 24.66796875 8.30273438 C27.11294675 9.19922631 29.55692081 10.09834928 32 11 C32.41484949 29.30917606 30.06634309 49.17429027 17 63 C11.53998916 68.50920013 7.15217529 71.42391235 0 75 C0 66.42 0 57.84 0 49 C2.90130187 49.72532547 5.48132518 50.50117465 8.25 51.5625 C8.95640625 51.83191406 9.6628125 52.10132813 10.390625 52.37890625 C10.92171875 52.58386719 11.4528125 52.78882813 12 53 C11.76796875 52.17435547 11.76796875 52.17435547 11.53125 51.33203125 C10.51135878 46.85500876 10.18667553 42.5341238 11 38 C12.9757515 35.15006689 15.34086889 33.18724693 18 31 C18.33 30.34 18.66 29.68 19 29 C18.13117188 28.98324219 17.26234375 28.96648437 16.3671875 28.94921875 C7.39000229 28.27643194 7.39000229 28.27643194 3.80078125 24.98046875 C-1.07772149 17.10162777 -0.60353713 8.90776093 0 0 Z " fill="#2A2825" transform="translate(100,59)"/>
<path d="M0 0 C2.06207467 0.74697347 4.12597536 1.48891994 6.19140625 2.2265625 C8.3163915 3.02261366 10.44008075 3.82213244 12.5625 4.625 C13.65369141 5.03234375 14.74488281 5.4396875 15.86914062 5.859375 C23.87046547 8.87046547 23.87046547 8.87046547 25 10 C26.25233612 29.03140297 23.84913016 48.30002746 11.5625 63.625 C7.86525471 67.5157058 3.7003627 70.62773177 -0.6875 73.6875 C-1.32937256 74.14656738 -1.97124512 74.60563477 -2.63256836 75.07861328 C-4.51171875 76.32421875 -4.51171875 76.32421875 -8 78 C-10.69140625 77.43359375 -10.69140625 77.43359375 -13 76 C-13.70640625 75.59523438 -14.4128125 75.19046875 -15.140625 74.7734375 C-27.97944446 66.26177571 -36.83992114 56.70399576 -40.94921875 41.484375 C-43.04121117 30.90265671 -43.31599825 20.76734787 -43 10 C-36.08219375 6.86763477 -29.11429857 3.8805567 -22.0625 1.0625 C-21.04220703 0.62615234 -20.02191406 0.18980469 -18.97070312 -0.25976562 C-11.48249593 -3.20821734 -7.32517918 -3.11097607 0 0 Z M-19.63671875 2.40625 C-20.27615921 2.65040649 -20.91559967 2.89456299 -21.57441711 3.14611816 C-23.6139312 3.92609043 -25.65071045 4.71294399 -27.6875 5.5 C-29.07078888 6.03040367 -30.4542505 6.56035704 -31.83789062 7.08984375 C-35.22727962 8.38801243 -38.61425011 9.69236516 -42 11 C-42.2964045 30.78056696 -39.50061435 49.77499665 -25.48046875 64.6640625 C-20.93901068 68.94090018 -15.96691766 73.01102745 -10 75 C-10 66.42 -10 57.84 -10 49 C-13.44935669 49.68987134 -15.75584851 50.18401011 -18.8125 51.5625 C-19.864375 52.036875 -20.91625 52.51125 -22 53 C-21.835 52.175 -21.67 51.35 -21.5 50.5 C-20.09810069 43.27650728 -20.09810069 43.27650728 -22.5625 36.78125 C-23.82691753 35.37407565 -25.12839157 33.99910205 -26.46875 32.6640625 C-28 31 -28 31 -28 29 C-26.80503906 28.84917969 -26.80503906 28.84917969 -25.5859375 28.6953125 C-21.11864933 27.90185256 -17.34428461 27.17440249 -13.8671875 24.13671875 C-8.70110181 16.71203038 -9.42184002 8.62957298 -10 0 C-13.69938816 0 -16.17951734 1.07771845 -19.63671875 2.40625 Z M-8 0 C-8.60353713 8.90776093 -9.07772149 17.10162777 -4.19921875 24.98046875 C0.04318037 28.87624201 5.45722268 28.89309183 11 29 C9.85459775 30.31287621 8.70866567 31.62529021 7.5625 32.9375 C6.92441406 33.66839844 6.28632812 34.39929688 5.62890625 35.15234375 C4.77458541 36.12139353 3.91348825 37.08651175 3 38 C2.90061137 39.76853292 2.87030777 41.54118275 2.875 43.3125 C2.87242188 44.27800781 2.86984375 45.24351563 2.8671875 46.23828125 C2.98371833 48.66143705 3.30758352 50.68644969 4 53 C3.38511719 52.71125 2.77023438 52.4225 2.13671875 52.125 C1.32847656 51.75375 0.52023438 51.3825 -0.3125 51 C-1.11300781 50.62875 -1.91351563 50.2575 -2.73828125 49.875 C-5.06213959 48.81959333 -5.06213959 48.81959333 -8 49 C-8 57.58 -8 66.16 -8 75 C6.11209854 67.15994525 15.58401289 58.63687873 20.44775391 43.06640625 C23.23996914 32.61843553 24.24422777 21.77887121 24 11 C19.76567272 9.42931142 15.52981835 7.86284151 11.29248047 6.30029297 C9.85064416 5.76792764 8.40923508 5.23440373 6.96826172 4.69970703 C4.8992202 3.93218234 2.82868749 3.1688116 0.7578125 2.40625 C0.11192169 2.16563843 -0.53396912 1.92502686 -1.19943237 1.67712402 C-4.51246197 0.41297847 -4.51246197 0.41297847 -8 0 Z " fill="#D1C26E" transform="translate(108,59)"/>
<path d="M0 0 C0 23.1 0 46.2 0 70 C-0.33 70 -0.66 70 -1 70 C-1 61.42 -1 52.84 -1 44 C-1.99 44 -2.98 44 -4 44 C-4.33 44.66 -4.66 45.32 -5 46 C-5.66 45.34 -6.32 44.68 -7 44 C-6.67 43.01 -6.34 42.02 -6 41 C-6.99 41 -7.98 41 -9 41 C-9.33 40.01 -9.66 39.02 -10 38 C-15.71887082 45.58534302 -18.11657846 51.45722069 -18 61 C-19.98 61 -21.96 61 -24 61 C-23.96777344 60.30777344 -23.93554688 59.61554688 -23.90234375 58.90234375 C-24.00903758 49.90449773 -27.26762007 44.33902351 -32.06640625 37.0546875 C-34 34 -34 34 -34 32 C-31.69 32 -29.38 32 -27 32 C-26.16151196 33.45537568 -25.32936066 34.91440373 -24.5 36.375 C-23.80390625 37.59316406 -23.80390625 37.59316406 -23.09375 38.8359375 C-22 41 -22 41 -22 43 C-21.34 43 -20.68 43 -20 43 C-18.40078955 39.50172714 -17.68773425 36.85127762 -18 33 C-18.33 32.34 -18.66 31.68 -19 31 C-16.36 30.67 -13.72 30.34 -11 30 C-11 21.42 -11 12.84 -11 4 C-56.54 4 -102.08 4 -149 4 C-149 3.67 -149 3.34 -149 3 C-144.38 2.67 -139.76 2.34 -135 2 C-135 1.67 -135 1.34 -135 1 C-117.98880528 0.86943047 -100.97760924 0.73903545 -83.96641159 0.60884857 C-76.06793912 0.5483974 -68.1694671 0.48788898 -60.27099609 0.42724609 C-53.38722197 0.37439399 -46.50344704 0.32164899 -39.61967111 0.26903296 C-35.97430884 0.24116593 -32.328947 0.21324504 -28.68358612 0.18519592 C-24.61555607 0.15389659 -20.54752423 0.12283637 -16.47949219 0.09179688 C-15.26892654 0.08244614 -14.0583609 0.0730954 -12.81111145 0.0634613 C-11.70335861 0.05504715 -10.59560577 0.046633 -9.45428467 0.03796387 C-8.01075686 0.02690235 -8.01075686 0.02690235 -6.53806686 0.01561737 C-4.35874628 0.00220746 -2.17936184 0 0 0 Z " fill="#3A383B" transform="translate(349,50)"/>
<path d="M0 0 C4.80573874 -0.04586601 9.61072082 -0.08570391 14.41650391 -0.10986328 C16.05194672 -0.11993254 17.68737149 -0.13358881 19.32275391 -0.15087891 C21.6709437 -0.17508705 24.01889588 -0.18647357 26.3671875 -0.1953125 C27.10057343 -0.20563507 27.83395935 -0.21595764 28.58956909 -0.22659302 C30.39462697 -0.22699368 32.1990783 -0.12212755 34 0 C34.66 0.66 35.32 1.32 36 2 C38.36744888 1.66673453 38.36744888 1.66673453 41 1 C50.62817019 0.03164955 50.62817019 0.03164955 55.1875 3.25 C57 6 57 6 57 10 C55.02 10 53.04 10 51 10 C50.505 8.515 50.505 8.515 50 7 C47.36 7 44.72 7 42 7 C42 7.99 42 8.98 42 10 C42.81984375 10.24234375 43.6396875 10.4846875 44.484375 10.734375 C45.56203125 11.06953125 46.6396875 11.4046875 47.75 11.75 C48.81734375 12.07484375 49.8846875 12.3996875 50.984375 12.734375 C54.17735564 14.07443423 55.8435564 15.31471428 58 18 C58.66974422 21.93474728 58.35110528 23.47334208 56.125 26.8125 C52.96658127 30.0638134 51.11431547 30.17811666 46.6875 30.25 C42.31183482 30.20418152 39.37189339 30.04558112 36 27 C33.36469438 23.22735195 33.77370709 19.16013728 33.875 14.75 C33.88402344 14.00492188 33.89304687 13.25984375 33.90234375 12.4921875 C33.92581642 10.66131941 33.96168475 8.83061762 34 7 C30.7 7 27.4 7 24 7 C24 14.59 24 22.18 24 30 C21.69 30 19.38 30 17 30 C16 29 16 29 15.88647461 26.95874023 C15.89171143 26.08419189 15.89694824 25.20964355 15.90234375 24.30859375 C15.90556641 23.36435547 15.90878906 22.42011719 15.91210938 21.44726562 C15.92048828 20.45404297 15.92886719 19.46082031 15.9375 18.4375 C15.94201172 17.44041016 15.94652344 16.44332031 15.95117188 15.41601562 C15.96299993 12.94395151 15.97948151 10.47200482 16 8 C13.36 8 10.72 8 8 8 C8.00523682 8.55985596 8.01047363 9.11971191 8.01586914 9.6965332 C8.03666691 12.23517737 8.04966904 14.77380359 8.0625 17.3125 C8.07087891 18.19357422 8.07925781 19.07464844 8.08789062 19.98242188 C8.09111328 20.82998047 8.09433594 21.67753906 8.09765625 22.55078125 C8.10289307 23.33106689 8.10812988 24.11135254 8.11352539 24.9152832 C8 27 8 27 7 30 C4.69 30 2.38 30 0 30 C0 20.1 0 10.2 0 0 Z " fill="#463D1C" transform="translate(229,81)"/>
<path d="M0 0 C0 0.66 0 1.32 0 2 C5.28 2 10.56 2 16 2 C16 1.34 16 0.68 16 0 C16.99 0.495 16.99 0.495 18 1 C20.37402501 1.07116382 22.75000677 1.08409085 25.125 1.0625 C26.40632812 1.05347656 27.68765625 1.04445312 29.0078125 1.03515625 C29.99523437 1.02355469 30.98265625 1.01195312 32 1 C32 0.34 32 -0.32 32 -1 C42.90038664 -1.06944326 53.80072085 -1.12278238 64.70128345 -1.15543652 C69.76260491 -1.17110713 74.82377528 -1.19237087 79.88500977 -1.22631836 C84.76738156 -1.25886203 89.64960783 -1.27684249 94.5320797 -1.28463173 C96.39686055 -1.29018422 98.26163324 -1.30102662 100.12635231 -1.31719017 C102.73390682 -1.33889822 105.34085632 -1.34196973 107.94848633 -1.34057617 C108.72316254 -1.351362 109.49783875 -1.36214783 110.29598999 -1.3732605 C115.48460418 -1.34316144 115.48460418 -1.34316144 118.0032196 0.33378601 C119 2 119 2 119 5 C118.125 8.125 118.125 8.125 117 11 C116.34 11.33 115.68 11.66 115 12 C114.67 42.69 114.34 73.38 114 105 C113.67 105 113.34 105 113 105 C113 71.67 113 38.34 113 4 C14.33 4 -84.34 4 -186 4 C-186 3.67 -186 3.34 -186 3 C-156.3 2.67 -126.6 2.34 -96 2 C-96 1.67 -96 1.34 -96 1 C-90.57058619 0.24266828 -85.25206705 -0.16519765 -79.76733398 -0.22119141 C-78.59738892 -0.23845024 -78.59738892 -0.23845024 -77.40380859 -0.25605774 C-74.85127528 -0.29244107 -72.29871764 -0.32227744 -69.74609375 -0.3515625 C-67.95825397 -0.37471337 -66.17041728 -0.39810393 -64.38258362 -0.42172241 C-60.64644317 -0.47000523 -56.91028099 -0.51495669 -53.17407227 -0.55761719 C-48.39717163 -0.61249016 -43.62044003 -0.67635147 -38.84368801 -0.74279213 C-35.15562796 -0.79297947 -31.46751857 -0.83805178 -27.77937508 -0.88163376 C-26.01838154 -0.90311636 -24.25740731 -0.9262502 -22.49645805 -0.9510994 C-20.03209174 -0.98517427 -17.5677411 -1.01225898 -15.10327148 -1.03759766 C-14.38359695 -1.04897263 -13.66392242 -1.0603476 -12.92243958 -1.07206726 C-8.49111207 -1.10854463 -4.35554097 -0.72406969 0 0 Z " fill="#383222" transform="translate(240,42)"/>
<path d="M0 0 C1.60407328 -0.02708567 3.2082785 -0.04643483 4.8125 -0.0625 C5.70582031 -0.07410156 6.59914062 -0.08570312 7.51953125 -0.09765625 C10 0 10 0 13 1 C14.0188167 6.42181477 13.86360471 10.99894442 13.0625 16.4375 C12.96259766 17.16904297 12.86269531 17.90058594 12.75976562 18.65429688 C12.51502767 20.43738769 12.25872147 22.21888442 12 24 C16.95 24 21.9 24 27 24 C27 16.74 27 9.48 27 2 C34.26 2 41.52 2 49 2 C49 3.65 49 5.3 49 7 C44.05 7 39.1 7 34 7 C34 9.31 34 11.62 34 14 C38.62 14 43.24 14 48 14 C48 15.32 48 16.64 48 18 C43.38 18 38.76 18 34 18 C34 20.31 34 22.62 34 25 C38.95 25 43.9 25 49 25 C49 26.98 49 28.96 49 31 C48.34926514 30.98952637 47.69853027 30.97905273 47.02807617 30.96826172 C44.0812567 30.92670165 41.13449889 30.90067392 38.1875 30.875 C37.16333984 30.85824219 36.13917969 30.84148437 35.08398438 30.82421875 C34.10107422 30.81777344 33.11816406 30.81132813 32.10546875 30.8046875 C31.19949951 30.79421387 30.29353027 30.78374023 29.36010742 30.77294922 C26.73063552 30.83834609 26.73063552 30.83834609 24 33 C21.90283203 33.25878906 21.90283203 33.25878906 19.5078125 33.265625 C18.20263672 33.26949219 18.20263672 33.26949219 16.87109375 33.2734375 C15.96488281 33.26570313 15.05867188 33.25796875 14.125 33.25 C12.77728516 33.26160156 12.77728516 33.26160156 11.40234375 33.2734375 C6.84341242 33.25996946 3.1302056 33.17743057 -1 31 C-1.02693575 28.87506859 -1.04636628 26.75004088 -1.0625 24.625 C-1.07410156 23.44164063 -1.08570313 22.25828125 -1.09765625 21.0390625 C-1 18 -1 18 0 16 C0.66 16 1.32 16 2 16 C2 12.04 2 8.08 2 4 C1.01 3.67 0.02 3.34 -1 3 C-0.67 2.01 -0.34 1.02 0 0 Z " fill="#352B1B" transform="translate(145,80)"/>
<path d="M0 0 C8.44182939 0 8.44182939 0 12 1 C13.65097544 1.09252192 15.30520117 1.13359738 16.95875931 1.1386652 C18.4650823 1.14687687 18.4650823 1.14687687 20.00183606 1.15525442 C21.10299591 1.15623253 22.20415576 1.15721064 23.33868408 1.15821838 C25.09565459 1.16562535 25.09565459 1.16562535 26.88811946 1.17318195 C30.13993407 1.18589646 33.39172553 1.19417998 36.64355755 1.20060861 C40.15000826 1.20861471 43.65643724 1.22231177 47.16287231 1.23532104 C53.23822601 1.2570808 59.3135819 1.27522713 65.38895416 1.29092598 C74.1729447 1.31362916 82.95691117 1.34177137 91.74088129 1.37124526 C105.99195711 1.41891566 120.24304277 1.46218135 134.49414062 1.50268555 C148.33854946 1.54204327 162.18294954 1.58347017 176.02734375 1.62768555 C176.88057359 1.63040982 177.73380343 1.63313409 178.61288872 1.63594092 C182.89325067 1.64962044 187.17361249 1.66334071 191.45397425 1.67708123 C226.96929804 1.79103735 262.48464036 1.89784862 298 2 C298 2.33 298 2.66 298 3 C200.65 3 103.3 3 3 3 C3 34.35 3 65.7 3 98 C100.35 98 197.7 98 298 98 C298 98.33 298 98.66 298 99 C199.66 99 101.32 99 0 99 C0 66.33 0 33.66 0 0 Z " fill="#D0B061" transform="translate(52,46)"/>
<path d="M0 0 C3 1 3 1 4.6875 3.9375 C6 7 6 7 6 9 C11.94 9.99 11.94 9.99 18 11 C16 15 16 15 13.921875 16.859375 C11.39718022 19.67143342 11.41211668 21.52131647 11.25 25.25 C11.19328125 26.32765625 11.1365625 27.4053125 11.078125 28.515625 C11.05234375 29.33546875 11.0265625 30.1553125 11 31 C10.40832031 30.77183594 9.81664063 30.54367188 9.20703125 30.30859375 C1.35459577 27.45199814 -2.57121688 28.64976448 -10 32 C-9.93039063 31.13117188 -9.86078125 30.26234375 -9.7890625 29.3671875 C-9.24979918 22.84182732 -9.24979918 22.84182732 -11.3359375 16.87109375 C-13.1598013 15.11293163 -13.1598013 15.11293163 -16 13 C-16 12.34 -16 11.68 -16 11 C-14.7625 10.67 -13.525 10.34 -12.25 10 C-11.20585938 9.7215625 -11.20585938 9.7215625 -10.140625 9.4375 C-8 9 -8 9 -4 9 C-3.896875 8.443125 -3.79375 7.88625 -3.6875 7.3125 C-2.86866423 4.55823422 -1.54146219 2.41272343 0 0 Z " fill="#2B281C" transform="translate(98,78)"/>
<path d="M0 0 C3.41827315 2.3927912 4.66050439 3.82482288 5.8125 7.8125 C5.874375 8.534375 5.93625 9.25625 6 10 C4.02 10 2.04 10 0 10 C-0.33 9.01 -0.66 8.02 -1 7 C-3.79870027 5.60064987 -5.90498792 5.74734595 -9 6 C-10.81207935 7.03404312 -10.81207935 7.03404312 -12 9 C-12.3636162 12.20138068 -12.3636162 12.20138068 -12.1875 15.6875 C-12.16042969 16.86699219 -12.13335937 18.04648438 -12.10546875 19.26171875 C-12.07066406 20.16535156 -12.03585938 21.06898437 -12 22 C-10.56589632 22.24954005 -9.12739928 22.47392642 -7.6875 22.6875 C-6.88699219 22.81511719 -6.08648437 22.94273438 -5.26171875 23.07421875 C-2.93075373 23.22055526 -2.93075373 23.22055526 -1.26953125 21.64453125 C0.07288235 20.01469975 0.07288235 20.01469975 1 18 C-0.98 18 -2.96 18 -5 18 C-5 16.35 -5 14.7 -5 13 C-1.04 13 2.92 13 7 13 C7 18.28 7 23.56 7 29 C5.68 29 4.36 29 3 29 C2.34 28.34 1.68 27.68 1 27 C0.34 27.66 -0.32 28.32 -1 29 C-5.86642553 29.75272049 -9.95323717 29.47580129 -14.4375 27.4375 C-18.62160353 23.45749908 -19.78168993 19.71919181 -20.5 14.0625 C-20.31476544 9.31123356 -18.12684862 5.50536188 -15 2 C-10.45486428 -0.97517413 -5.22631314 -0.75878324 0 0 Z " fill="#E4C060" transform="translate(217,82)"/>
<path d="M0 0 C2.536875 -0.061875 5.07375 -0.12375 7.6875 -0.1875 C8.47729248 -0.21481201 9.26708496 -0.24212402 10.08081055 -0.27026367 C14.61722053 -0.32360621 17.40191876 0.21811866 21 3 C23.10101595 5.6740203 22.99846976 7.04284685 22.875 10.5 C21.8947414 14.42103441 21.15806078 15.57072248 18 18 C14.984375 18.390625 14.984375 18.390625 11.75 18.25 C10.67234375 18.21390625 9.5946875 18.1778125 8.484375 18.140625 C7.25460937 18.07101563 7.25460937 18.07101563 6 18 C6 21.63 6 25.26 6 29 C4.02 29 2.04 29 0 29 C0 19.43 0 9.86 0 0 Z " fill="#E8D86E" transform="translate(291,82)"/>
<path d="M0 0 C0 33.33 0 66.66 0 101 C-55.77 101 -111.54 101 -169 101 C-169 100.67 -169 100.34 -169 100 C-113.56 100 -58.12 100 -1 100 C-1.33 99.34 -1.66 98.68 -2 98 C-2.12294769 95.01052961 -2.18578769 92.04288133 -2.20532227 89.05224609 C-2.21522186 88.12536484 -2.22512146 87.19848358 -2.23532104 86.24351501 C-2.2669882 83.17018211 -2.29171408 80.09683372 -2.31640625 77.0234375 C-2.33697127 74.89636832 -2.35796762 72.76930326 -2.37937927 70.64224243 C-2.43464658 65.03628884 -2.4840353 59.43029808 -2.53222656 53.82427979 C-2.5912261 47.10201948 -2.65747966 40.37982728 -2.72252655 33.65762329 C-2.82059467 23.43845703 -2.90941067 13.21924764 -3 3 C-23.46 2.67 -43.92 2.34 -65 2 C-65 1.67 -65 1.34 -65 1 C-56.67270835 0.86952471 -48.3454154 0.73913279 -40.01812077 0.60884857 C-36.15180968 0.54835577 -32.28549905 0.48783379 -28.41918945 0.42724609 C-24.69096926 0.36882341 -20.96274789 0.3104761 -17.23452568 0.25218201 C-15.8091064 0.22988087 -14.38368754 0.20755214 -12.95826912 0.18519592 C-10.96835567 0.15399081 -8.97844057 0.12289113 -6.98852539 0.09179688 C-5.28642662 0.06514954 -5.28642662 0.06514954 -3.54994202 0.03796387 C-1 0 -1 0 0 0 Z " fill="#EEE67B" transform="translate(353,46)"/>
<path d="M0 0 C34.65 0 69.3 0 105 0 C105 0.33 105 0.66 105 1 C103.52566498 1.0154612 103.52566498 1.0154612 102.02154541 1.03123474 C92.66825818 1.12983889 83.31502478 1.23263831 73.96182632 1.33933926 C69.15555987 1.39403969 64.34928709 1.44736259 59.54296875 1.49731445 C54.88742605 1.54575372 50.23194098 1.59810223 45.57646942 1.65294075 C43.81788354 1.67301114 42.05928211 1.69177259 40.30066681 1.70907402 C39.04705982 1.72153003 39.04705982 1.72153003 37.76812744 1.73423767 C36.68262793 1.74441123 36.68262793 1.74441123 35.57519913 1.75479031 C24.6667329 1.91145441 13.92621445 2.45368928 3 3 C2.67 32.7 2.34 62.4 2 93 C39.62 93 77.24 93 116 93 C116 93.33 116 93.66 116 94 C77.72 94 39.44 94 0 94 C0 62.98 0 31.96 0 0 Z " fill="#2E220F" transform="translate(55,50)"/>
<path d="M0 0 C3.1875 2.25 3.1875 2.25 5 5 C5 6.32 5 7.64 5 9 C3.02 9 1.04 9 -1 9 C-1.33 8.01 -1.66 7.02 -2 6 C-4.64 6 -7.28 6 -10 6 C-10 6.99 -10 7.98 -10 9 C-9.18015625 9.24234375 -8.3603125 9.4846875 -7.515625 9.734375 C-6.43796875 10.06953125 -5.3603125 10.4046875 -4.25 10.75 C-3.18265625 11.07484375 -2.1153125 11.3996875 -1.015625 11.734375 C2.17735564 13.07443423 3.8435564 14.31471428 6 17 C6.66974422 20.93474728 6.35110528 22.47334208 4.125 25.8125 C0.96658127 29.0638134 -0.88568453 29.17811666 -5.3125 29.25 C-9.68816518 29.20418152 -12.62810661 29.04558112 -16 26 C-17.73523928 23.35582586 -18 22.21534057 -18 19 C-15.69 19 -13.38 19 -11 19 C-11 20.32 -11 21.64 -11 23 C-7.7 23 -4.4 23 -1 23 C-1 21.68 -1 20.36 -1 19 C-1.81984375 18.75765625 -2.6396875 18.5153125 -3.484375 18.265625 C-5.10085938 17.76289062 -5.10085938 17.76289062 -6.75 17.25 C-8.35101563 16.76273438 -8.35101563 16.76273438 -9.984375 16.265625 C-13.18766833 14.92123765 -14.88583586 13.74172625 -17 11 C-16.93700518 7.40929502 -16.77851471 5.01545397 -14.5625 2.125 C-10.20665409 -1.01120905 -5.1668422 -0.67005158 0 0 Z " fill="#F0DD5F" transform="translate(281,82)"/>
<path d="M0 0 C6.93 0 13.86 0 21 0 C21 1.65 21 3.3 21 5 C16.05 5 11.1 5 6 5 C6 7.31 6 9.62 6 12 C10.62 12 15.24 12 20 12 C20 13.32 20 14.64 20 16 C15.38 16 10.76 16 6 16 C6 18.31 6 20.62 6 23 C10.95 23 15.9 23 21 23 C21 24.98 21 26.96 21 29 C14.07 29 7.14 29 0 29 C0 19.43 0 9.86 0 0 Z " fill="#E5BD6A" transform="translate(173,82)"/>
<path d="M0 0 C0.99 0 1.98 0 3 0 C3.33 33.33 3.66 66.66 4 101 C39.64 101.33 75.28 101.66 112 102 C112 102.33 112 102.66 112 103 C110.85059937 103.0154612 110.85059937 103.0154612 109.67797852 103.03123474 C102.38369406 103.13005143 95.08947684 103.23266878 87.79530334 103.33933926 C84.04715403 103.39402418 80.29899661 103.44734375 76.55078125 103.49731445 C72.91969434 103.54577767 69.28868069 103.59812553 65.65768433 103.65294075 C63.62867795 103.68262555 61.59961688 103.70849593 59.57055664 103.73423767 C51.54033536 103.85935452 43.563304 104.22405365 35.55407715 104.78283691 C30.53179519 105.08971102 25.52948857 105.11107604 20.5 105.0625 C19.57058594 105.05798828 18.64117187 105.05347656 17.68359375 105.04882812 C15.45565142 105.03734389 13.22786794 105.02112185 11 105 C11.99 105.66 12.98 106.32 14 107 C13 108 13 108 10.4375 108.0625 C9.633125 108.041875 8.82875 108.02125 8 108 C7.67 107.01 7.34 106.02 7 105 C5.515 105.495 5.515 105.495 4 106 C4 105.01 4 104.02 4 103 C3.34 103 2.68 103 2 103 C0.35058821 99.70117642 0.88018782 96.03174447 0.90234375 92.40698242 C0.90380402 91.51739334 0.90526428 90.62780426 0.9067688 89.71125793 C0.91058056 87.77528011 0.91670314 85.83930579 0.92483521 83.90334129 C0.93756614 80.83955057 0.94410639 77.775803 0.94897461 74.71199036 C0.96236857 67.09945459 0.98653473 59.4869596 1.01037598 51.87445068 C1.03010175 45.44872075 1.04574732 39.02300615 1.05593872 32.5972538 C1.06242298 29.57882067 1.07493354 26.56045035 1.08764648 23.54203796 C1.09127977 21.68842626 1.09463141 19.83481397 1.09765625 17.98120117 C1.10282257 17.1420517 1.10798889 16.30290222 1.11331177 15.43832397 C1.11367184 11.46408336 0.87863463 7.89362072 0 4 C0 2.68 0 1.36 0 0 Z " fill="#2A2011" transform="translate(48,46)"/>
<path d="M0 0 C2.87557703 -0.08138426 5.74882262 -0.14067851 8.625 -0.1875 C9.43324219 -0.21263672 10.24148438 -0.23777344 11.07421875 -0.26367188 C16.1336684 -0.32537248 19.73366064 -0.01586058 24 3 C25.92313286 5.15568268 27.41189952 7.45163152 28.875 9.9375 C29.27066162 10.59758057 29.66632324 11.25766113 30.07397461 11.93774414 C33.41504251 17.92661376 34.02691074 23.19196216 33 30 C34.98 30 36.96 30 39 30 C38.9071875 29.28457031 38.814375 28.56914063 38.71875 27.83203125 C38.01315433 18.09229108 41.51111374 12.59622653 47 5 C48.1845131 8.55353929 48.26641894 11.27013478 48 15 C46.625 16.75 46.625 16.75 45 18 C44.34 18.99 43.68 19.98 43 21 C42.505 21.495 42.505 21.495 42 22 C41.79395915 23.32781878 41.6337041 24.66295895 41.5 26 C41.11111111 29.88888889 41.11111111 29.88888889 40 31 C37.32941149 31.14115161 34.67567762 31.04247107 32 31 C32 27.7 32 24.4 32 21 C30.35 21 28.7 21 27 21 C26.01 21 25.02 21 24 21 C24 19.68 24 18.36 24 17 C23.67 17.639375 23.34 18.27875 23 18.9375 C19.97670168 22.0552764 17.26343276 21.72043064 13 22 C12.67 23.65 12.34 25.3 12 27 C11.34 27 10.68 27 10 27 C9.67 27.66 9.34 28.32 9 29 C9.99 28.67 10.98 28.34 12 28 C11.67 28.99 11.34 29.98 11 31 C7.37 31 3.74 31 0 31 C0 30.67 0 30.34 0 30 C1.65 30 3.3 30 5 30 C5 26.37 5 22.74 5 19 C5.83144531 18.93941406 6.66289062 18.87882812 7.51953125 18.81640625 C9.14955078 18.69072266 9.14955078 18.69072266 10.8125 18.5625 C11.89144531 18.48128906 12.97039062 18.40007812 14.08203125 18.31640625 C17.05989905 18.09787539 17.05989905 18.09787539 20 17 C20.2236337 15.58566794 20.42826476 14.16832382 20.625 12.75 C20.74101562 11.96109375 20.85703125 11.1721875 20.9765625 10.359375 C21.00416318 7.58090704 20.58428409 6.27437103 19 4 C15.5129923 1.42625622 11.42950171 1.56461823 7.25 1.375 C6.55261719 1.33632812 5.85523438 1.29765625 5.13671875 1.2578125 C3.42489182 1.16401376 1.71248318 1.08093826 0 1 C0 0.67 0 0.34 0 0 Z " fill="#38362E" transform="translate(292,81)"/>
<path d="M0 0 C0 3.41761705 -0.75938546 5.82954062 -2 9 C-2.66 9.33 -3.32 9.66 -4 10 C-4.33 40.69 -4.66 71.38 -5 103 C-5.33 103 -5.66 103 -6 103 C-6 69.34 -6 35.68 -6 1 C-27.45 1 -48.9 1 -71 1 C-71 0.01 -71 -0.98 -71 -2 C-62.74189376 -2.15403716 -54.48371187 -2.30221646 -46.22536945 -2.4429636 C-42.39050361 -2.50850445 -38.55569496 -2.57604594 -34.72094727 -2.64819336 C-31.01871463 -2.71777344 -27.31642411 -2.78205409 -23.61403465 -2.84269524 C-22.20305237 -2.86673053 -20.79210101 -2.89266004 -19.38118935 -2.92053413 C-17.401761 -2.95931306 -15.42219152 -2.99067198 -13.44262695 -3.02172852 C-11.75385185 -3.05170677 -11.75385185 -3.05170677 -10.03096008 -3.08229065 C-2.88836911 -2.88836911 -2.88836911 -2.88836911 0 0 Z " fill="#524D39" transform="translate(359,44)"/>
<path d="M0 0 C0.66 0 1.32 0 2 0 C2 0.99 2 1.98 2 3 C3.65 3 5.3 3 7 3 C6.505 3.825 6.01 4.65 5.5 5.5 C3.21346818 10.83524092 3.41869356 14.96542746 5 20.5 C5.33 21.325 5.66 22.15 6 23 C5.01 23.33 4.02 23.66 3 24 C2.34 23.67 1.68 23.34 1 23 C1 24.65 1 26.3 1 28 C0.67 28 0.34 28 0 28 C0 26.02 0 24.04 0 22 C-4.95 22 -9.9 22 -15 22 C-15 19.69 -15 17.38 -15 15 C-10.38 15 -5.76 15 -1 15 C-1 13.68 -1 12.36 -1 11 C-5.62 11 -10.24 11 -15 11 C-15 8.69 -15 6.38 -15 4 C-10.05 4 -5.1 4 0 4 C0 2.68 0 1.36 0 0 Z " fill="#3D3A2D" transform="translate(194,83)"/>
<path d="M0 0 C0.33 0 0.66 0 1 0 C1 9.57 1 19.14 1 29 C0.67 29 0.34 29 0 29 C-0.06058594 27.84242187 -0.12117188 26.68484375 -0.18359375 25.4921875 C-0.26805502 23.95311543 -0.35270018 22.41405345 -0.4375 20.875 C-0.47681641 20.11445312 -0.51613281 19.35390625 -0.55664062 18.5703125 C-0.79509002 14.31490797 -1.20230237 10.19629174 -2 6 C-3.0176403 11.01608525 -3.11856434 15.78608306 -3.0625 20.875 C-3.05798828 21.65875 -3.05347656 22.4425 -3.04882812 23.25 C-3.03714093 25.16670014 -3.01920908 27.08336048 -3 29 C-3.33 29 -3.66 29 -4 29 C-4 23.72 -4 18.44 -4 13 C-7.96 13 -11.92 13 -16 13 C-16 14.65 -16 16.3 -16 18 C-14.02 18 -12.04 18 -10 18 C-11.75 22.875 -11.75 22.875 -14 24 C-18.05142119 24.25860135 -19.54337669 24.30441554 -23 22 C-24.44537752 17.66386743 -24.52654485 13.53125217 -24 9 C-22.375 6.375 -22.375 6.375 -20 5 C-15.89222251 4.49700684 -14.49124017 4.67250655 -11 7 C-11 7.99 -11 8.98 -11 10 C-9.02 10 -7.04 10 -5 10 C-5.020625 9.05125 -5.04125 8.1025 -5.0625 7.125 C-5 4 -5 4 -4 2 C-2.68 2 -1.36 2 0 2 C0 1.34 0 0.68 0 0 Z " fill="#41341A" transform="translate(228,82)"/>
<path d="M0 0 C2.31 0 4.62 0 7 0 C7.83848804 1.45537568 8.67063934 2.91440373 9.5 4.375 C9.9640625 5.18710938 10.428125 5.99921875 10.90625 6.8359375 C12 9 12 9 12 11 C12.66 11 13.32 11 14 11 C14.2475 10.29875 14.495 9.5975 14.75 8.875 C16.2254144 5.48154688 17.5752164 2.81799175 20 0 C23.64453125 -0.16796875 23.64453125 -0.16796875 27 0 C25.70966095 2.27159689 24.41778598 4.54229625 23.125 6.8125 C22.76019531 7.45509766 22.39539063 8.09769531 22.01953125 8.75976562 C20.41916099 11.56768798 18.79357134 14.30964298 17 17 C16.54084493 19.96842658 16.54084493 19.96842658 16.375 23.1875 C16.30023438 24.27417969 16.22546875 25.36085938 16.1484375 26.48046875 C16.09945313 27.31191406 16.05046875 28.14335938 16 29 C14.02 29 12.04 29 10 29 C10.03222656 28.30777344 10.06445312 27.61554688 10.09765625 26.90234375 C9.99096242 17.90449773 6.73237993 12.33902351 1.93359375 5.0546875 C0 2 0 2 0 0 Z " fill="#F1E86A" transform="translate(315,82)"/>
<path d="M0 0 C7.92 0 15.84 0 24 0 C24 1.98 24 3.96 24 6 C21.03 6 18.06 6 15 6 C15 13.59 15 21.18 15 29 C13.02 29 11.04 29 9 29 C9 21.41 9 13.82 9 6 C6.03 6 3.06 6 0 6 C0 4.02 0 2.04 0 0 Z " fill="#DEC463" transform="translate(238,82)"/>
<path d="M0 0 C1.98 0 3.96 0 6 0 C6 7.59 6 15.18 6 23 C10.62 23 15.24 23 20 23 C20 24.98 20 26.96 20 29 C13.4 29 6.8 29 0 29 C0 19.43 0 9.86 0 0 Z " fill="#D8B377" transform="translate(149,82)"/>
<path d="M0 0 C3.3 0 6.6 0 10 0 C10 3.63 10 7.26 10 11 C11.32 11.33 12.64 11.66 14 12 C12.68 12 11.36 12 10 12 C10.3982875 13.29745172 10.81943922 14.5878981 11.25 15.875 C11.59804688 16.95394531 11.59804688 16.95394531 11.953125 18.0546875 C13.30859186 20.57342815 14.30441719 21.09206373 17 22 C19.71807154 22.27803692 19.71807154 22.27803692 22.5625 22.1875 C23.51253906 22.18105469 24.46257812 22.17460938 25.44140625 22.16796875 C28.1204942 22.10061434 28.1204942 22.10061434 31 21 C31 21.99 31 22.98 31 24 C26.43879688 25.17708468 21.68387647 25.51750695 17 25 C16.01 24.34 15.02 23.68 14 23 C12.34450469 22.61500109 10.6777567 22.27206865 9 22 C8.67 19.36 8.34 16.72 8 14 C7.01 14.495 7.01 14.495 6 15 C5.34444881 17.52733235 5.34444881 17.52733235 5 20 C3.68 20 2.36 20 1 20 C0.67 20.99 0.34 21.98 0 23 C0 15.41 0 7.82 0 0 Z " fill="#3C3728" transform="translate(253,88)"/>
<path d="M0 0 C1.43739513 -0.02712066 2.87493863 -0.04645067 4.3125 -0.0625 C5.51326172 -0.07990234 5.51326172 -0.07990234 6.73828125 -0.09765625 C9 0 9 0 12 1 C12.495 1.99 12.495 1.99 13 3 C14.65 2.67 16.3 2.34 18 2 C18 2.66 18 3.32 18 4 C18.66 4.33 19.32 4.66 20 5 C20.495 6.485 20.495 6.485 21 8 C24.00847418 9.22520264 24.00847418 9.22520264 27 10 C27 10.66 27 11.32 27 12 C28.051875 11.6596875 28.051875 11.6596875 29.125 11.3125 C32.87700275 10.90467361 34.79431057 12.13622707 38 14 C37.88556397 16.0839403 37.75804453 18.16716493 37.625 20.25 C37.55539063 21.41015625 37.48578125 22.5703125 37.4140625 23.765625 C37 27 37 27 35 31 C34.505 23.575 34.505 23.575 34 16 C29.63407616 14.20694432 25.26843547 12.43578543 20.87744141 10.70825195 C19.38938925 10.11648267 17.90550572 9.5141088 16.42626953 8.90063477 C6.63891631 4.53814557 6.63891631 4.53814557 -3.73828125 5.02734375 C-5.17634108 5.6457175 -6.59853428 6.30265073 -8 7 C-17.54397014 10.58117188 -17.54397014 10.58117188 -22 9 C-21.67 8.34 -21.34 7.68 -21 7 C-20.34 7 -19.68 7 -19 7 C-18.67 6.34 -18.34 5.68 -18 5 C-15.03 5.33 -12.06 5.66 -9 6 C-9 5.01 -9 4.02 -9 3 C-4.545 2.505 -4.545 2.505 0 2 C0 1.34 0 0.68 0 0 Z " fill="#2A2826" transform="translate(98,53)"/>
<path d="M0 0 C3.33333333 0 6.66666667 0 10 0 C10 9.24 10 18.48 10 28 C7.69 27.67 5.38 27.34 3 27 C3.33 26.505 3.66 26.01 4 25.5 C5.43636358 21.90909106 5.12851462 18.85543873 5 15 C4.34773438 14.81824219 3.69546875 14.63648437 3.0234375 14.44921875 C-1.92730011 13.02533404 -6.46546423 11.50592766 -11 9 C-10.67 7.68 -10.34 6.36 -10 5 C-7.36 5 -4.72 5 -2 5 C-1.67 6.32 -1.34 7.64 -1 9 C0.98 9 2.96 9 5 9 C3.90931332 5.22454612 3.0916909 2.52956528 0 0 Z " fill="#3F381F" transform="translate(281,82)"/>
<path d="M0 0 C0.66 0.33 1.32 0.66 2 1 C2.625 3.0625 2.625 3.0625 3 5 C4.65 5 6.3 5 8 5 C8 5.99 8 6.98 8 8 C9.32 8.33 10.64 8.66 12 9 C10.52419355 21.2983871 10.52419355 21.2983871 6 25 C3.5625 24.25 3.5625 24.25 1 23 C0.125 21 0.125 21 0 19 C0.33 18.34 0.66 17.68 1 17 C0.34 17 -0.32 17 -1 17 C-1.66 14.69 -2.32 12.38 -3 10 C-2.34 10 -1.68 10 -1 10 C-1.33 8.02 -1.66 6.04 -2 4 C-1.34 4 -0.68 4 0 4 C0 2.68 0 1.36 0 0 Z " fill="#232323" transform="translate(74,90)"/>
<path d="M0 0 C1.00095703 0.35779541 2.00191406 0.71559082 3.03320312 1.08422852 C6.22053864 2.2370998 9.39233265 3.42579087 12.5625 4.625 C13.65369141 5.03234375 14.74488281 5.4396875 15.86914062 5.859375 C23.87046547 8.87046547 23.87046547 8.87046547 25 10 C25.60338048 21.17414238 25.53014617 32.26382151 22 43 C21.34 43.66 20.68 44.32 20 45 C20.12117188 44.05382812 20.24234375 43.10765625 20.3671875 42.1328125 C21.68420358 31.76627946 22.8697749 21.38845201 24 11 C23.44957031 10.87625 22.89914063 10.7525 22.33203125 10.625 C11.89865117 8.03687471 1.99434346 3.90679535 -8 0 C-8 5.94 -8 11.88 -8 18 C-8.66 18 -9.32 18 -10 18 C-10 12.06 -10 6.12 -10 0 C-12.24609375 0.81380208 -14.4921875 1.62760417 -16.73828125 2.44140625 C-19 3 -19 3 -22 2 C-20.22824039 1.06541203 -18.43098718 0.1791009 -16.625 -0.6875 C-15.62726563 -1.18636719 -14.62953125 -1.68523438 -13.6015625 -2.19921875 C-8.41055878 -3.3534007 -4.88819247 -1.82535398 0 0 Z " fill="#CECC7B" transform="translate(108,59)"/>
<path d="M0 0 C0.66 0.66 1.32 1.32 2 2 C-1.12305373 3.17192435 -4.24874739 4.33663876 -7.375 5.5 C-8.26445313 5.83386719 -9.15390625 6.16773437 -10.0703125 6.51171875 C-10.92109375 6.82753906 -11.771875 7.14335938 -12.6484375 7.46875 C-13.43395996 7.76201172 -14.21948242 8.05527344 -15.02880859 8.35742188 C-17 9 -17 9 -19 9 C-18.57810035 13.12674839 -18.13460976 17.25091298 -17.6875 21.375 C-17.56955078 22.53128906 -17.45160156 23.68757813 -17.33007812 24.87890625 C-15.58744924 40.69661461 -11.00486226 54.03127168 1 65 C4.11090285 67.3254959 7.37508064 69.38581692 10.69140625 71.40625 C11.45324219 71.9321875 12.21507812 72.458125 13 73 C13 73.66 13 74.32 13 75 C0.3264155 70.47045175 -8.8283176 60.51177714 -14.6418457 48.68579102 C-20.55757218 35.67528787 -20.4107212 21.99494473 -20 8 C-13.44457918 4.98341081 -6.8082116 2.39241828 0 0 Z " fill="#BFA66D" transform="translate(85,61)"/>
<path d="M0 0 C2.743125 -0.103125 5.48625 -0.20625 8.3125 -0.3125 C9.17270752 -0.35802002 10.03291504 -0.40354004 10.91918945 -0.45043945 C13.03911413 -0.48921094 14.9250874 -0.45054144 17 0 C19.56414133 2.91917629 19.96798439 4.43439086 20.1875 8.3125 C20.0946875 9.6428125 20.0946875 9.6428125 20 11 C19.01 11.33 18.02 11.66 17 12 C16.731875 11.05125 16.46375 10.1025 16.1875 9.125 C15.25013412 5.74732727 15.25013412 5.74732727 12 4 C9.9507906 3.54860541 9.9507906 3.54860541 7.8125 3.375 C6.554375 3.25125 5.29625 3.1275 4 3 C4.14084796 4.79206547 4.28783701 6.58364917 4.4375 8.375 C4.51871094 9.37273437 4.59992188 10.37046875 4.68359375 11.3984375 C4.84965626 13.97927613 4.84965626 13.97927613 6 16 C5.34 16 4.68 16 4 16 C3.67 19.63 3.34 23.26 3 27 C2.01 27 1.02 27 0 27 C0 18.09 0 9.18 0 0 Z " fill="#F4E25F" transform="translate(292,83)"/>
<path d="M0 0 C1.98 0 3.96 0 6 0 C6 9.57 6 19.14 6 29 C4.02 29 2.04 29 0 29 C0 19.43 0 9.86 0 0 Z " fill="#FACF5B" transform="translate(229,82)"/>
<path d="M0 0 C6.93 0.33 13.86 0.66 21 1 C21 1.33 21 1.66 21 2 C14.07 2 7.14 2 0 2 C0 9.26 0 16.52 0 24 C-4.95 24 -9.9 24 -15 24 C-15 22.02 -15 20.04 -15 18 C-12.69 18 -10.38 18 -8 18 C-8 19.65 -8 21.3 -8 23 C-7.34 23 -6.68 23 -6 23 C-6.04125 22.21625 -6.0825 21.4325 -6.125 20.625 C-6 18 -6 18 -4 16 C-3.75684344 13.33050591 -3.75684344 13.33050591 -3.875 10.375 C-3.89304688 9.37210938 -3.91109375 8.36921875 -3.9296875 7.3359375 C-3.95289063 6.56507812 -3.97609375 5.79421875 -4 5 C-3.01 5 -2.02 5 -1 5 C-0.67 3.35 -0.34 1.7 0 0 Z " fill="#2F2C23" transform="translate(172,80)"/>
<path d="M0 0 C0.66 0.33 1.32 0.66 2 1 C0.515 4.96 0.515 4.96 -1 9 C4.94 9 10.88 9 17 9 C17 10.32 17 11.64 17 13 C12.38 13 7.76 13 3 13 C3 16.96 3 20.92 3 25 C1.68 24.67 0.36 24.34 -1 24 C-2.76078179 20.47843642 -2.184646 16.44108049 -2.1875 12.5625 C-2.19974609 11.69044922 -2.21199219 10.81839844 -2.22460938 9.91992188 C-2.22654297 9.08138672 -2.22847656 8.24285156 -2.23046875 7.37890625 C-2.23457764 6.6113501 -2.23868652 5.84379395 -2.24291992 5.05297852 C-2 3 -2 3 0 0 Z " fill="#F6C262" transform="translate(176,85)"/>
<path d="M0 0 C0.66 0.99 1.32 1.98 2 3 C4.55183404 4.20450304 4.55183404 4.20450304 7 5 C7 5.66 7 6.32 7 7 C7.66 7.33 8.32 7.66 9 8 C7.35 8.33 5.7 8.66 4 9 C5.65 9 7.3 9 9 9 C8.67 10.32 8.34 11.64 8 13 C6.35 13.33 4.7 13.66 3 14 C3 13.34 3 12.68 3 12 C1.88625 12.66 0.7725 13.32 -0.375 14 C-3.75 16 -3.75 16 -6 16 C-6 15.34 -6 14.68 -6 14 C-6.66 14 -7.32 14 -8 14 C-8 13.01 -8 12.02 -8 11 C-6.35 11 -4.7 11 -3 11 C-3 10.34 -3 9.68 -3 9 C-2.34 9 -1.68 9 -1 9 C-1 8.34 -1 7.68 -1 7 C-2.98 7 -4.96 7 -7 7 C-7.33 7.66 -7.66 8.32 -8 9 C-8 7.68 -8 6.36 -8 5 C-6.35 4.67 -4.7 4.34 -3 4 C-3 3.34 -3 2.68 -3 2 C-2.01 1.34 -1.02 0.68 0 0 Z " fill="#272426" transform="translate(99,91)"/>
<path d="M0 0 C1.32 0 2.64 0 4 0 C4 6.93 4 13.86 4 21 C8.95 21 13.9 21 19 21 C19 21.33 19 21.66 19 22 C15.04 22.33 11.08 22.66 7 23 C7 23.66 7 24.32 7 25 C4.69 25 2.38 25 0 25 C0 16.75 0 8.5 0 0 Z " fill="#F6B95D" transform="translate(150,84)"/>
<path d="M0 0 C0.33 0.66 0.66 1.32 1 2 C1.66 2 2.32 2 3 2 C3.33 1.34 3.66 0.68 4 0 C4.33 0.99 4.66 1.98 5 3 C4.37738281 3.08378906 3.75476563 3.16757813 3.11328125 3.25390625 C0.8638343 3.7896903 0.8638343 3.7896903 -0.01953125 5.77734375 C-0.28121094 6.49019531 -0.54289062 7.20304687 -0.8125 7.9375 C-2.41225139 11.4582127 -2.66528611 11.85394303 -6.4375 13.5 C-9.37978268 13.91295195 -12.04468067 14.04055327 -15 14 C-14.4946875 14.43828125 -13.989375 14.8765625 -13.46875 15.328125 C-10.25241969 18.46787602 -8.19575176 20.6511223 -7.53515625 25.203125 C-7.55970859 28.16343618 -7.69093062 31.05648214 -8 34 C-7.236875 33.649375 -6.47375 33.29875 -5.6875 32.9375 C-3 32 -3 32 0 33 C-1.26691507 33.67408308 -2.53870749 34.33900497 -3.8125 35 C-4.52019531 35.37125 -5.22789063 35.7425 -5.95703125 36.125 C-8 37 -8 37 -11 37 C-10.87818359 35.62328125 -10.87818359 35.62328125 -10.75390625 34.21875 C-10.20014785 26.99973201 -10.20014785 26.99973201 -12.59375 20.39453125 C-14.50936216 18.30470867 -14.50936216 18.30470867 -16.56640625 16.55078125 C-17.03949219 16.03902344 -17.51257813 15.52726562 -18 15 C-17.67 14.01 -17.34 13.02 -17 12 C-14.453125 11.3671875 -14.453125 11.3671875 -11.25 10.875 C-6.57937581 9.87651265 -6.57937581 9.87651265 -3.09375 6.80859375 C-1.88961282 4.57183892 -0.86119341 2.38830964 0 0 Z " fill="#CCB670" transform="translate(97,75)"/>
<path d="M0 0 C2.87557703 -0.08138426 5.74882262 -0.14067851 8.625 -0.1875 C9.43324219 -0.21263672 10.24148438 -0.23777344 11.07421875 -0.26367188 C16.13191881 -0.32535114 19.69496694 0.04468756 24 3 C25.93359375 5.41015625 25.93359375 5.41015625 27.4375 8.0625 C27.95183594 8.94035156 28.46617187 9.81820312 28.99609375 10.72265625 C29.32738281 11.47417969 29.65867187 12.22570312 30 13 C29.67 13.66 29.34 14.32 29 15 C28.34 14.67 27.68 14.34 27 14 C27 13.01 27 12.02 27 11 C26.34 11 25.68 11 25 11 C24.67 10.01 24.34 9.02 24 8 C24 10.31 24 12.62 24 15 C23.01 15.495 23.01 15.495 22 16 C21.34 17.32 20.68 18.64 20 20 C15.38 20 10.76 20 6 20 C6 23.3 6 26.6 6 30 C5.67 30 5.34 30 5 30 C5 26.37 5 22.74 5 19 C5.83144531 18.93941406 6.66289062 18.87882812 7.51953125 18.81640625 C9.14955078 18.69072266 9.14955078 18.69072266 10.8125 18.5625 C11.89144531 18.48128906 12.97039062 18.40007812 14.08203125 18.31640625 C17.05989905 18.09787539 17.05989905 18.09787539 20 17 C20.2236337 15.58566794 20.42826476 14.16832382 20.625 12.75 C20.74101562 11.96109375 20.85703125 11.1721875 20.9765625 10.359375 C21.00416318 7.58090704 20.58428409 6.27437103 19 4 C15.5129923 1.42625622 11.42950171 1.56461823 7.25 1.375 C6.55261719 1.33632812 5.85523438 1.29765625 5.13671875 1.2578125 C3.42489182 1.16401376 1.71248318 1.08093826 0 1 C0 0.67 0 0.34 0 0 Z " fill="#453E1C" transform="translate(292,81)"/>
<path d="M0 0 C2.31 0 4.62 0 7 0 C7.69965443 1.26418246 8.38434763 2.53665402 9.0625 3.8125 C9.44535156 4.52019531 9.82820313 5.22789063 10.22265625 5.95703125 C11 8 11 8 10 11 C10.33 11.680625 10.66 12.36125 11 13.0625 C12.49262117 17.44707467 11.64953165 21.4796108 11 26 C11.639375 26.12375 12.27875 26.2475 12.9375 26.375 C13.618125 26.58125 14.29875 26.7875 15 27 C15.33 27.66 15.66 28.32 16 29 C14.02 29 12.04 29 10 29 C10.03222656 28.30777344 10.06445312 27.61554688 10.09765625 26.90234375 C9.99096242 17.90449773 6.73237993 12.33902351 1.93359375 5.0546875 C0 2 0 2 0 0 Z " fill="#E4DB68" transform="translate(315,82)"/>
<path d="M0 0 C1.89666526 0.08772455 3.79238993 0.19591301 5.6875 0.3125 C7.27111328 0.39951172 7.27111328 0.39951172 8.88671875 0.48828125 C12.26512029 1.04357686 14.17138396 2.12699749 17 4 C18.98451771 4.71143088 20.98202112 5.38991336 23 6 C23 6.66 23 7.32 23 8 C23.70125 7.773125 24.4025 7.54625 25.125 7.3125 C28.87700275 6.90467361 30.79431057 8.13622707 34 10 C33.88556397 12.0839403 33.75804453 14.16716493 33.625 16.25 C33.55539063 17.41015625 33.48578125 18.5703125 33.4140625 19.765625 C33 23 33 23 31 27 C30.67 22.05 30.34 17.1 30 12 C20.1 8.37 10.2 4.74 0 1 C0 0.67 0 0.34 0 0 Z " fill="#3E3616" transform="translate(102,57)"/>
<path d="M0 0 C0.99 0.495 0.99 0.495 2 1 C2 7.93 2 14.86 2 22 C6.95 22 11.9 22 17 22 C17 14.74 17 7.48 17 0 C17.33 0 17.66 0 18 0 C18 9.57 18 19.14 18 29 C16.68 29 15.36 29 14 29 C14 27.02 14 25.04 14 23 C9.38 23 4.76 23 0 23 C0 15.41 0 7.82 0 0 Z " fill="#4F3B18" transform="translate(155,82)"/>
<path d="M0 0 C1.1845131 3.55353929 1.26641894 6.27013478 1 10 C-0.375 11.75 -0.375 11.75 -2 13 C-2.99 14.485 -2.99 14.485 -4 16 C-4.33 16.33 -4.66 16.66 -5 17 C-5.20604085 18.32781878 -5.3662959 19.66295895 -5.5 21 C-5.88888889 24.88888889 -5.88888889 24.88888889 -7 26 C-9.67058851 26.14115161 -12.32432238 26.04247107 -15 26 C-15.06058594 25.18015625 -15.12117188 24.3603125 -15.18359375 23.515625 C-15.26738281 22.43796875 -15.35117187 21.3603125 -15.4375 20.25 C-15.51871094 19.18265625 -15.59992188 18.1153125 -15.68359375 17.015625 C-15.94090773 14.56320038 -16.31812218 12.36078709 -17 10 C-15.51171875 11.11328125 -15.51171875 11.11328125 -14 13 C-13.70703125 15.91796875 -13.70703125 15.91796875 -13.8125 19.1875 C-13.83957031 20.27417969 -13.86664063 21.36085938 -13.89453125 22.48046875 C-13.92933594 23.31191406 -13.96414063 24.14335938 -14 25 C-12.02 25 -10.04 25 -8 25 C-8.0928125 24.28457031 -8.185625 23.56914063 -8.28125 22.83203125 C-8.98684567 13.09229108 -5.48888626 7.59622653 0 0 Z " fill="#464323" transform="translate(339,86)"/>
<path d="M0 0 C4.95 0 9.9 0 15 0 C15 1.98 15 3.96 15 6 C8.07 6 1.14 6 -6 6 C-6 5.67 -6 5.34 -6 5 C-4.35 4.67 -2.7 4.34 -1 4 C-0.67 2.68 -0.34 1.36 0 0 Z " fill="#D4B05C" transform="translate(179,105)"/>
<path d="M0 0 C0.66 0.33 1.32 0.66 2 1 C1.98839844 1.81984375 1.97679687 2.6396875 1.96484375 3.484375 C1.95582031 4.56203125 1.94679687 5.6396875 1.9375 6.75 C1.92589844 7.81734375 1.91429687 8.8846875 1.90234375 9.984375 C1.98489913 12.53368501 2.25382442 14.57933591 3 17 C2.67 16.34 2.34 15.68 2 15 C0.68 15.33 -0.64 15.66 -2 16 C-1.94199219 16.59167969 -1.88398438 17.18335937 -1.82421875 17.79296875 C-1.68234887 20.27771838 -1.64996428 22.53308161 -2 25 C-4.4375 27.6875 -4.4375 27.6875 -7 30 C-7.87989974 33.18150892 -7.87989974 33.18150892 -8 36 C-9.32 35.67 -10.64 35.34 -12 35 C-11.505 34.505 -11.505 34.505 -11 34 C-11.66 33.67 -12.32 33.34 -13 33 C-12.443125 32.38125 -11.88625 31.7625 -11.3125 31.125 C-4.27774671 21.61857664 -2.22058656 11.38825956 0 0 Z " fill="#3A361A" transform="translate(132,88)"/>
<path d="M0 0 C0.33 0 0.66 0 1 0 C1 9.57 1 19.14 1 29 C0.67 29 0.34 29 0 29 C-0.06058594 27.84242187 -0.12117187 26.68484375 -0.18359375 25.4921875 C-0.26805502 23.95311543 -0.35270018 22.41405345 -0.4375 20.875 C-0.47681641 20.11445312 -0.51613281 19.35390625 -0.55664062 18.5703125 C-0.79509002 14.31490797 -1.20230237 10.19629174 -2 6 C-3.0176403 11.01608525 -3.11856434 15.78608306 -3.0625 20.875 C-3.05798828 21.65875 -3.05347656 22.4425 -3.04882812 23.25 C-3.03714093 25.16670014 -3.01920908 27.08336048 -3 29 C-3.33 29 -3.66 29 -4 29 C-4 23.72 -4 18.44 -4 13 C-7.96 13 -11.92 13 -16 13 C-16 12.67 -16 12.34 -16 12 C-10.555 11.01 -10.555 11.01 -5 10 C-5.020625 9.05125 -5.04125 8.1025 -5.0625 7.125 C-5 4 -5 4 -4 2 C-2.68 2 -1.36 2 0 2 C0 1.34 0 0.68 0 0 Z " fill="#473E1E" transform="translate(228,82)"/>
<path d="M0 0 C0.66 0 1.32 0 2 0 C2 0.99 2 1.98 2 3 C3.65 3 5.3 3 7 3 C6.01 4.98 5.02 6.96 4 9 C3.34 7.68 2.68 6.36 2 5 C1.67 5.33 1.34 5.66 1 6 C-1.18639453 6.07258946 -3.37500389 6.08373783 -5.5625 6.0625 C-7.35880859 6.04896484 -7.35880859 6.04896484 -9.19140625 6.03515625 C-10.11824219 6.02355469 -11.04507813 6.01195313 -12 6 C-12 6.99 -12 7.98 -12 9 C-8.7 9 -5.4 9 -2 9 C-1.67 9.66 -1.34 10.32 -1 11 C-5.62 11 -10.24 11 -15 11 C-15 8.69 -15 6.38 -15 4 C-10.05 4 -5.1 4 0 4 C0 2.68 0 1.36 0 0 Z " fill="#574624" transform="translate(194,83)"/>
<path d="M0 0 C1.32 0.66 2.64 1.32 4 2 C3.01 5.3 2.02 8.6 1 12 C1.99 12 2.98 12 4 12 C3.835 12.763125 3.67 13.52625 3.5 14.3125 C2.90854604 17.03596236 2.90854604 17.03596236 3 20 C1.35 20 -0.3 20 -2 20 C-2 13.73 -2 7.46 -2 1 C-1.34 0.67 -0.68 0.34 0 0 Z " fill="#262424" transform="translate(103,111)"/>
<path d="M0 0 C1.32 0 2.64 0 4 0 C4 6.93 4 13.86 4 21 C3.01 21.33 2.02 21.66 1 22 C-0.20029908 19.59940183 -0.11459743 18.10639351 -0.09765625 15.4296875 C-0.09443359 14.53378906 -0.09121094 13.63789062 -0.08789062 12.71484375 C-0.07951172 11.77769531 -0.07113281 10.84054688 -0.0625 9.875 C-0.05798828 8.93011719 -0.05347656 7.98523438 -0.04882812 7.01171875 C-0.03702357 4.67441613 -0.02055759 2.33723939 0 0 Z " fill="#F8D65D" transform="translate(248,88)"/>
<path d="M0 0 C7.75 -0.125 7.75 -0.125 10 1 C10 3.31 10 5.62 10 8 C6.52674819 9.1577506 3.63932552 9.06866652 0 9 C0 6.03 0 3.06 0 0 Z " fill="#514822" transform="translate(297,87)"/>
<path d="M0 0 C-0.78697325 3.41021743 -1.87119943 6.68885166 -3 10 C-3.66 10 -4.32 10 -5 10 C-5 10.66 -5 11.32 -5 12 C-3.35 12 -1.7 12 0 12 C0 12.99 0 13.98 0 15 C-2.875 15.1875 -2.875 15.1875 -6 15 C-8.105184 11.842224 -8.25289344 11.04602866 -8.1875 7.4375 C-8.18105469 6.65246094 -8.17460937 5.86742188 -8.16796875 5.05859375 C-8 3 -8 3 -7 1 C-4 0 -4 0 0 0 Z " fill="#2C2F33" transform="translate(214,89)"/>
<path d="M0 0 C1.32 1.65 2.64 3.3 4 5 C3.67 5.66 3.34 6.32 3 7 C2.92934383 9.04055005 2.91578024 11.08334257 2.9375 13.125 C2.95103516 14.76855469 2.95103516 14.76855469 2.96484375 16.4453125 C2.97644531 17.28835937 2.98804688 18.13140625 3 19 C2.34 18.67 1.68 18.34 1 18 C1 15.69 1 13.38 1 11 C0.34 11 -0.32 11 -1 11 C-1 11.99 -1 12.98 -1 14 C-1.66 14 -2.32 14 -3 14 C-3 14.66 -3 15.32 -3 16 C-3.66 16 -4.32 16 -5 16 C-5.61669998 9.09296024 -4.11242982 5.52240576 0 0 Z " fill="#D3B15D" transform="translate(202,84)"/>
<path d="M0 0 C-0.33 0.99 -0.66 1.98 -1 3 C-1.99 3.33 -2.98 3.66 -4 4 C-6.25218057 7.941316 -6.01018369 10.65621014 -5 15 C-5.99 15.66 -6.98 16.32 -8 17 C-8.33 16.01 -8.66 15.02 -9 14 C-9.33 16.31 -9.66 18.62 -10 21 C-10.33 21 -10.66 21 -11 21 C-11.10854617 18.60293877 -11.18753157 16.21084162 -11.25 13.8125 C-11.28351563 13.13896484 -11.31703125 12.46542969 -11.3515625 11.77148438 C-11.42255552 8.13309186 -11.10523742 6.16695894 -9.1484375 3.0625 C-6.23110534 0.26186112 -3.9273651 0 0 0 Z " fill="#262229" transform="translate(80,67)"/>
<path d="M0 0 C0.66 0.33 1.32 0.66 2 1 C1.51015625 1.51433594 1.0203125 2.02867188 0.515625 2.55859375 C-1.53549591 5.86259006 -1.32996635 8.19612721 -1.25 12.0625 C-1.23356445 13.04972046 -1.23356445 13.04972046 -1.21679688 14.05688477 C-1.09021042 19.7305723 -0.65607618 25.3647742 0 31 C-0.66 31 -1.32 31 -2 31 C-3.849149 21.23362081 -5.18377103 11.96447369 -5 2 C-2.625 0.9375 -2.625 0.9375 0 0 Z " fill="#35241E" transform="translate(71,68)"/>
<path d="M0 0 C1.98 0 3.96 0 6 0 C6 9.57 6 19.14 6 29 C4.02 29 2.04 29 0 29 C0 19.43 0 9.86 0 0 Z M1 2 C0.9710663 5.79165074 0.95322399 9.58327327 0.9375 13.375 C0.92912109 14.45523438 0.92074219 15.53546875 0.91210938 16.6484375 C0.90888672 17.6796875 0.90566406 18.7109375 0.90234375 19.7734375 C0.89710693 20.72653809 0.89187012 21.67963867 0.88647461 22.66162109 C0.84357401 25.02324406 0.84357401 25.02324406 2 27 C2.99 27 3.98 27 5 27 C5 18.75 5 10.5 5 2 C3.68 2 2.36 2 1 2 Z " fill="#E2CB76" transform="translate(229,82)"/>
<path d="M0 0 C0.66 0 1.32 0 2 0 C1.16316537 9.41438955 -2.10632398 17.63290498 -8 25 C-8.33 24.34 -8.66 23.68 -9 23 C-9.66 22.67 -10.32 22.34 -11 22 C-9.7934375 20.9790625 -9.7934375 20.9790625 -8.5625 19.9375 C-5.53765593 16.46999582 -5.49690769 14.47216919 -5 10 C-4.02149805 8.97895449 -3.02019573 7.9793879 -2 7 C-1.25613932 4.69011685 -0.57809297 2.35684056 0 0 Z " fill="#35311A" transform="translate(127,95)"/>
<path d="M0 0 C2.31 0 4.62 0 7 0 C7 1.32 7 2.64 7 4 C7.62648438 4.03738281 8.25296875 4.07476562 8.8984375 4.11328125 C9.71570313 4.17902344 10.53296875 4.24476562 11.375 4.3125 C12.59316406 4.39951172 12.59316406 4.39951172 13.8359375 4.48828125 C16 5 16 5 18 8 C17.39671875 7.98839844 16.7934375 7.97679688 16.171875 7.96484375 C15.37265625 7.95582031 14.5734375 7.94679688 13.75 7.9375 C12.96109375 7.92589844 12.1721875 7.91429688 11.359375 7.90234375 C9.00538027 7.90924399 9.00538027 7.90924399 6.83984375 8.60546875 C6.23269531 8.73566406 5.62554687 8.86585937 5 9 C2.23733334 6.94773334 1.1594602 5.58468741 0.25 2.25 C0.1675 1.5075 0.085 0.765 0 0 Z " fill="#E2CB5B" transform="translate(263,101)"/>
<path d="M0 0 C-0.99 0.33 -1.98 0.66 -3 1 C-3 6.94 -3 12.88 -3 19 C-2.34 19 -1.68 19 -1 19 C-0.67 18.34 -0.34 17.68 0 17 C0.33 17.99 0.66 18.98 1 20 C-0.98 20.66 -2.96 21.32 -5 22 C-4.93039063 21.13117188 -4.86078125 20.26234375 -4.7890625 19.3671875 C-4.24979918 12.84182732 -4.24979918 12.84182732 -6.3359375 6.87109375 C-8.1598013 5.11293163 -8.1598013 5.11293163 -11 3 C-11 2.34 -11 1.68 -11 1 C-3.375 -1.125 -3.375 -1.125 0 0 Z " fill="#3C2D14" transform="translate(93,88)"/>
<path d="M0 0 C14.52 0 29.04 0 44 0 C44 0.33 44 0.66 44 1 C31.6508245 1.97815251 19.38297105 2.11739981 7 2 C7.99 2.66 8.98 3.32 10 4 C9 5 9 5 6.4375 5.0625 C5.2309375 5.0315625 5.2309375 5.0315625 4 5 C3.67 4.01 3.34 3.02 3 2 C2.01 2.33 1.02 2.66 0 3 C0 2.01 0 1.02 0 0 Z " fill="#21201D" transform="translate(52,149)"/>
<path d="M0 0 C2.64 0 5.28 0 8 0 C9.1577506 3.47325181 9.06866652 6.36067448 9 10 C8.67 9.34 8.34 8.68 8 8 C6.35 8 4.7 8 3 8 C3 8.66 3 9.32 3 10 C2.34 10 1.68 10 1 10 C0 3.375 0 3.375 0 0 Z " fill="#232420" transform="translate(88,118)"/>
<path d="M0 0 C0.99 0 1.98 0 3 0 C3.43666974 5.32737077 3.43666974 5.32737077 3 8 C0.625 10.0625 0.625 10.0625 -2 11 C-2.66 10.67 -3.32 10.34 -4 10 C-4.33 10.66 -4.66 11.32 -5 12 C-5.99 12 -6.98 12 -8 12 C-8.99 12.33 -9.98 12.66 -11 13 C-9.4169423 8.7257442 -6.49431596 6.73468206 -3 4 C-3 4.99 -3 5.98 -3 7 C-2.34 7.33 -1.68 7.66 -1 8 C-1.020625 7.05125 -1.04125 6.1025 -1.0625 5.125 C-1 2 -1 2 0 0 Z " fill="#29231A" transform="translate(125,116)"/>
<path d="M0 0 C3.3 0.33 6.6 0.66 10 1 C6.81237635 3.12508244 4.73487777 3.5020163 1 4 C2.20958463 6.85901821 3.43515252 8.45587407 5.625 10.75 C7.86269196 13.30923713 8.33048744 14.98136919 8.3125 18.375 C8.1578125 20.169375 8.1578125 20.169375 8 22 C7.67 22 7.34 22 7 22 C6.67 19.69 6.34 17.38 6 15 C5.01 14.67 4.02 14.34 3 14 C3 13.01 3 12.02 3 11 C1.68 11 0.36 11 -1 11 C-2.0257259 6.58937864 -2.03684712 4.07369424 0 0 Z " fill="#382E14" transform="translate(79,84)"/>
<path d="M0 0 C0.53109375 0.37898438 1.0621875 0.75796875 1.609375 1.1484375 C1.279375 1.4784375 0.949375 1.8084375 0.609375 2.1484375 C0.45355197 3.48858971 0.35893358 4.83602653 0.29296875 6.18359375 C0.25107422 6.99248047 0.20917969 7.80136719 0.16601562 8.63476562 C0.12669922 9.48490234 0.08738281 10.33503906 0.046875 11.2109375 C0.00369141 12.06494141 -0.03949219 12.91894531 -0.08398438 13.79882812 C-0.19039202 15.91515787 -0.29104231 18.03177563 -0.390625 20.1484375 C-1.050625 20.1484375 -1.710625 20.1484375 -2.390625 20.1484375 C-2.390625 14.2084375 -2.390625 8.2684375 -2.390625 2.1484375 C-4.63671875 2.96223958 -6.8828125 3.77604167 -9.12890625 4.58984375 C-11.390625 5.1484375 -11.390625 5.1484375 -14.390625 4.1484375 C-12.48272468 3.25448421 -10.56388694 2.38384416 -8.640625 1.5234375 C-7.57328125 1.03617188 -6.5059375 0.54890625 -5.40625 0.046875 C-2.390625 -0.8515625 -2.390625 -0.8515625 0 0 Z " fill="#D3C56B" transform="translate(100.390625,56.8515625)"/>
<path d="M0 0 C10.56 0 21.12 0 32 0 C30.02 0.99 30.02 0.99 28 2 C26.26574227 4.03317007 26.26574227 4.03317007 25 6 C24.67 5.01 24.34 4.02 24 3 C20.04 2.67 16.08 2.34 12 2 C12 2.66 12 3.32 12 4 C11.34 4 10.68 4 10 4 C10 3.01 10 2.02 10 1 C5.545 1.495 5.545 1.495 1 2 C0.67 1.34 0.34 0.68 0 0 Z " fill="#2A272D" transform="translate(86,51)"/>
<path d="M0 0 C0.99 0 1.98 0 3 0 C3 8.58 3 17.16 3 26 C-5 22 -5 22 -6 20 C-5.34 20 -4.68 20 -4 20 C-4 19.34 -4 18.68 -4 18 C-2.35 18 -0.7 18 1 18 C1.02690844 15.37493198 1.04679404 12.75013827 1.0625 10.125 C1.07087891 9.37863281 1.07925781 8.63226563 1.08789062 7.86328125 C1.20688084 3.80154422 1.20688084 3.80154422 0 0 Z " fill="#3C2E17" transform="translate(95,108)"/>
<path d="M0 0 C-1.28773152 2.29395893 -2.57996772 4.58516784 -3.875 6.875 C-4.23980469 7.52597656 -4.60460937 8.17695312 -4.98046875 8.84765625 C-6.48660536 11.50393354 -7.83019001 13.83019001 -10 16 C-10 14.35 -10 12.7 -10 11 C-9.34 11 -8.68 11 -8 11 C-8.5878125 9.39125 -8.5878125 9.39125 -9.1875 7.75 C-10 4 -10 4 -9.0625 1.5625 C-6.10345767 -0.67919874 -3.61817567 -0.1048139 0 0 Z " fill="#F0EC62" transform="translate(342,82)"/>
<path d="M0 0 C1.64574566 -0.02688151 3.29161413 -0.04634123 4.9375 -0.0625 C5.85402344 -0.07410156 6.77054687 -0.08570312 7.71484375 -0.09765625 C10 0 10 0 11 1 C11.04092937 3.33297433 11.04241723 5.66705225 11 8 C10.01 8.33 9.02 8.66 8 9 C7.34 8.67 6.68 8.34 6 8 C5.67 8.99 5.34 9.98 5 11 C4.01 11.495 4.01 11.495 3 12 C3 15.3 3 18.6 3 22 C2.34 22 1.68 22 1 22 C-0.0748288 12.56539168 -0.0748288 12.56539168 2.5234375 8.78125 C4.28359723 7.0857492 6.11406537 5.55126038 8 4 C8.33 3.34 8.66 2.68 9 2 C6.03 1.67 3.06 1.34 0 1 C0 0.67 0 0.34 0 0 Z " fill="#3D3717" transform="translate(110,86)"/>
<path d="M0 0 C2.74084921 2.36709704 3.7367158 4.64405806 5 8 C6.15628906 8.09087891 6.15628906 8.09087891 7.3359375 8.18359375 C8.33882812 8.26738281 9.34171875 8.35117188 10.375 8.4375 C11.87160156 8.55931641 11.87160156 8.55931641 13.3984375 8.68359375 C16 9 16 9 18 10 C16.57753605 13.69840628 14.19011545 15.85632808 11.3984375 18.5390625 C9.80386734 20.20489837 8.82729782 21.84902568 8 24 C7.6922083 20.86162389 7.72186216 19.40656372 9.53125 16.76171875 C10.1809375 16.07722656 10.830625 15.39273438 11.5 14.6875 C12.1496875 13.99011719 12.799375 13.29273437 13.46875 12.57421875 C13.9740625 12.05472656 14.479375 11.53523438 15 11 C14.38511719 10.93941406 13.77023438 10.87882812 13.13671875 10.81640625 C12.32847656 10.73261719 11.52023438 10.64882812 10.6875 10.5625 C9.88699219 10.48128906 9.08648437 10.40007812 8.26171875 10.31640625 C6 10 6 10 3 9 C1.11420063 5.78715662 0 3.75366417 0 0 Z " fill="#D2CB80" transform="translate(101,78)"/>
<path d="M0 0 C-2.63904371 1.41377341 -5.07120629 2.37240135 -8 3 C-7.67 3.99 -7.34 4.98 -7 6 C-7.4375 8.6875 -7.4375 8.6875 -8 11 C-6.68 11.66 -5.36 12.32 -4 13 C-4 13.66 -4 14.32 -4 15 C-1.36 15.33 1.28 15.66 4 16 C4 16.66 4 17.32 4 18 C-6.66131621 16.02568218 -6.66131621 16.02568218 -10 13 C-10.94284754 9.54289236 -11.34062315 7.14573242 -10.3125 3.6875 C-7.47826335 0.04348145 -4.43007803 -0.24611545 0 0 Z " fill="#DFC86A" transform="translate(275,82)"/>
<path d="M0 0 C3.14330223 0.3492558 4.79491452 0.83925733 7.3125 2.8125 C9 5 9 5 9 9 C7.02 9 5.04 9 3 9 C2.67 8.01 2.34 7.02 2 6 C-0.31 5.67 -2.62 5.34 -5 5 C-3 4 -1 3 1 2 C0.67 1.34 0.34 0.68 0 0 Z " fill="#E6D15D" transform="translate(277,82)"/>
<path d="M0 0 C0.33 0 0.66 0 1 0 C1 9.24 1 18.48 1 28 C-1.31 27.67 -3.62 27.34 -6 27 C-5.67 26.484375 -5.34 25.96875 -5 25.4375 C-3.67989123 22.21973488 -3.86757895 19.4429472 -4 16 C-3.34 16 -2.68 16 -2 16 C-2 17.98 -2 19.96 -2 22 C-1.34 22 -0.68 22 0 22 C0 14.74 0 7.48 0 0 Z " fill="#50481B" transform="translate(290,82)"/>
<path d="M0 0 C0.66 0 1.32 0 2 0 C2.33 3.3 2.66 6.6 3 10 C7.95 10.33 12.9 10.66 18 11 C18 11.33 18 11.66 18 12 C12.06 12.495 12.06 12.495 6 13 C6 13.66 6 14.32 6 15 C4.02 15 2.04 15 0 15 C0 10.05 0 5.1 0 0 Z " fill="#E5A951" transform="translate(151,94)"/>
<path d="M0 0 C0.66 0.33 1.32 0.66 2 1 C2.7166207 3.31847874 3.38242027 5.65319703 4 8 C4.33 8.66 4.66 9.32 5 10 C4.34 10 3.68 10 3 10 C2.67 13.63 2.34 17.26 2 21 C1.01 21 0.02 21 -1 21 C-0.67 14.07 -0.34 7.14 0 0 Z " fill="#F9E250" transform="translate(293,89)"/>
<path d="M0 0 C0.66 0.66 1.32 1.32 2 2 C-1.12305373 3.17192435 -4.24874739 4.33663876 -7.375 5.5 C-8.26445313 5.83386719 -9.15390625 6.16773437 -10.0703125 6.51171875 C-10.92109375 6.82753906 -11.771875 7.14335938 -12.6484375 7.46875 C-13.43395996 7.76201172 -14.21948242 8.05527344 -15.02880859 8.35742188 C-17 9 -17 9 -19 9 C-19 13.95 -19 18.9 -19 24 C-19.33 24 -19.66 24 -20 24 C-20 18.72 -20 13.44 -20 8 C-13.43717412 4.98755533 -6.81198489 2.39374422 0 0 Z " fill="#CBB074" transform="translate(85,61)"/>
<path d="M0 0 C4.62 0 9.24 0 14 0 C14 1.32 14 2.64 14 4 C9.38 4 4.76 4 0 4 C0 2.68 0 1.36 0 0 Z " fill="#F7BF5F" transform="translate(179,94)"/>
<path d="M0 0 C1.32 0.33 2.64 0.66 4 1 C4 3.97 4 6.94 4 10 C3.01 10.495 3.01 10.495 2 11 C1.34 12.32 0.68 13.64 0 15 C-4.62 15 -9.24 15 -14 15 C-14 18.3 -14 21.6 -14 25 C-14.33 25 -14.66 25 -15 25 C-15 21.37 -15 17.74 -15 14 C-14.16855469 13.93941406 -13.33710938 13.87882812 -12.48046875 13.81640625 C-11.39378906 13.73261719 -10.30710937 13.64882812 -9.1875 13.5625 C-8.10855469 13.48128906 -7.02960938 13.40007812 -5.91796875 13.31640625 C-2.94010095 13.09787539 -2.94010095 13.09787539 0 12 C0.19573608 10.56359829 0.38127816 9.12580496 0.5625 7.6875 C0.71912109 6.48673828 0.71912109 6.48673828 0.87890625 5.26171875 C1.14755178 2.83182884 1.14755178 2.83182884 0 0 Z " fill="#5A5225" transform="translate(312,86)"/>
<path d="M0 0 C0.66 0.33 1.32 0.66 2 1 C1.34 2.98 0.68 4.96 0 7 C-4.62 6.34 -9.24 5.68 -14 5 C-14 4.01 -14 3.02 -14 2 C-13.07316406 1.93941406 -12.14632812 1.87882812 -11.19140625 1.81640625 C-9.39509766 1.69072266 -9.39509766 1.69072266 -7.5625 1.5625 C-5.77005859 1.44068359 -5.77005859 1.44068359 -3.94140625 1.31640625 C-1.11429756 1.32343886 -1.11429756 1.32343886 0 0 Z " fill="#2A2E2D" transform="translate(196,87)"/>
<path d="M0 0 C4.29 0 8.58 0 13 0 C13 1.32 13 2.64 13 4 C7.06 4 1.12 4 -5 4 C-5 3.67 -5 3.34 -5 3 C-3.02 3 -1.04 3 1 3 C0.67 2.01 0.34 1.02 0 0 Z " fill="#F0BE6E" transform="translate(156,106)"/>
<path d="M0 0 C3.54823932 3.54823932 3.7419271 5.09661485 4 10 C2.89791992 13.39808026 2.07902124 13.94731917 -1 16 C-3.6875 16.125 -3.6875 16.125 -6 16 C-6 15.34 -6 14.68 -6 14 C-4.35 14 -2.7 14 -1 14 C-1 13.34 -1 12.68 -1 12 C-2.65 12 -4.3 12 -6 12 C-5.01 11.67 -4.02 11.34 -3 11 C-3 9.02 -3 7.04 -3 5 C-1 8 -1 8 0 10 C0.66 10 1.32 10 2 10 C1.34 6.7 0.68 3.4 0 0 Z " fill="#DFD16B" transform="translate(310,84)"/>
<path d="M0 0 C3.63 0 7.26 0 11 0 C11 1.98 11 3.96 11 6 C9.35 6.33 7.7 6.66 6 7 C6 6.01 6 5.02 6 4 C4.02 4 2.04 4 0 4 C0 2.68 0 1.36 0 0 Z " fill="#EFC76D" transform="translate(212,96)"/>
<path d="M0 0 C0 0.66 0 1.32 0 2 C-2.72418835 3.03621277 -5.45302216 4.05411937 -8.1875 5.0625 C-8.95642578 5.35705078 -9.72535156 5.65160156 -10.51757812 5.95507812 C-14.69043747 7.47736587 -17.61565802 8.53759488 -22 7 C-21.67 6.34 -21.34 5.68 -21 5 C-20.34 5 -19.68 5 -19 5 C-18.67 4.34 -18.34 3.68 -18 3 C-15.03 3.33 -12.06 3.66 -9 4 C-9 3.01 -9 2.02 -9 1 C-2.25 0 -2.25 0 0 0 Z " fill="#392D1A" transform="translate(98,55)"/>
<path d="M0 0 C-3.36423277 2.96052484 -6.69159287 3.92289822 -11 5 C-10.67 6.98 -10.34 8.96 -10 11 C-11.32 10.67 -12.64 10.34 -14 10 C-13.67 7.36 -13.34 4.72 -13 2 C-4.57142857 -1.57142857 -4.57142857 -1.57142857 0 0 Z " fill="#F4DB62" transform="translate(280,83)"/>
<path d="M0 0 C0.66 0.33 1.32 0.66 2 1 C1.67 5.29 1.34 9.58 1 14 C-0.32 14 -1.64 14 -3 14 C-3.08082094 12.04233719 -3.13910778 10.08373272 -3.1875 8.125 C-3.22230469 7.03445312 -3.25710938 5.94390625 -3.29296875 4.8203125 C-3.19628906 3.88960938 -3.09960938 2.95890625 -3 2 C-2.01 1.34 -1.02 0.68 0 0 Z " fill="#F7EB5A" transform="translate(329,94)"/>
<path d="M0 0 C0.33 0.66 0.66 1.32 1 2 C1.66 2 2.32 2 3 2 C3.33 1.34 3.66 0.68 4 0 C4.33 0.99 4.66 1.98 5 3 C4.37738281 3.08378906 3.75476563 3.16757813 3.11328125 3.25390625 C0.8638343 3.7896903 0.8638343 3.7896903 -0.01953125 5.77734375 C-0.28121094 6.49019531 -0.54289062 7.20304687 -0.8125 7.9375 C-2.38913056 11.37406193 -2.6920923 11.85476052 -6.3125 13.5625 C-10.13720781 14.01627889 -13.23719853 13.76791867 -17 13 C-17 12.67 -17 12.34 -17 12 C-16.19175781 11.88785156 -15.38351563 11.77570313 -14.55078125 11.66015625 C-8.10863176 10.61289826 -8.10863176 10.61289826 -3.08984375 6.796875 C-1.88585677 4.56440935 -0.85989403 2.38470612 0 0 Z " fill="#B6A767" transform="translate(97,75)"/>
<path d="M0 0 C0.66 0 1.32 0 2 0 C2.2475 0.61875 2.495 1.2375 2.75 1.875 C4.27404449 4.46587563 5.22119243 4.9238697 8 6 C10.71807154 6.27803692 10.71807154 6.27803692 13.5625 6.1875 C14.51253906 6.18105469 15.46257812 6.17460938 16.44140625 6.16796875 C19.1204942 6.10061434 19.1204942 6.10061434 22 5 C22 5.99 22 6.98 22 8 C17.43879688 9.17708468 12.68387647 9.51750695 8 9 C7.01 8.34 6.02 7.68 5 7 C3.34450469 6.61500109 1.6777567 6.27206865 0 6 C0 4.02 0 2.04 0 0 Z " fill="#4C3F20" transform="translate(262,104)"/>
<path d="M0 0 C3.1921126 0.79802815 5.98155093 1.74231289 9 3 C8.01 3.66 7.02 4.32 6 5 C5.01 4.34 4.02 3.68 3 3 C1.88176185 5.23647631 1.80603939 6.64891529 1.68359375 9.1328125 C1.62075195 10.34130859 1.62075195 10.34130859 1.55664062 11.57421875 C1.51732422 12.41597656 1.47800781 13.25773437 1.4375 14.125 C1.39431641 14.97449219 1.35113281 15.82398437 1.30664062 16.69921875 C1.20045764 18.79928223 1.09971503 20.89961948 1 23 C1.99 23.33 2.98 23.66 4 24 C2.02 24.99 2.02 24.99 0 26 C0 17.42 0 8.84 0 0 Z " fill="#362A06" transform="translate(100,108)"/>
<path d="M0 0 C0.33 0 0.66 0 1 0 C1 3.96 1 7.92 1 12 C-7.75 9.25 -7.75 9.25 -10 7 C-8.68 6.67 -7.36 6.34 -6 6 C-6 6.66 -6 7.32 -6 8 C-3.50447516 7.21869929 -3.50447516 7.21869929 -1 6 C-0.67 5.01 -0.34 4.02 0 3 C-1.98 3.33 -3.96 3.66 -6 4 C-5.67 3.34 -5.34 2.68 -5 2 C-3.35 2 -1.7 2 0 2 C0 1.34 0 0.68 0 0 Z " fill="#353312" transform="translate(108,97)"/>
<path d="M0 0 C0.66 0 1.32 0 2 0 C1.98839844 1.05960937 1.97679687 2.11921875 1.96484375 3.2109375 C1.95546524 4.59895658 1.94636511 5.98697755 1.9375 7.375 C1.92912109 8.07367188 1.92074219 8.77234375 1.91210938 9.4921875 C1.8164558 13.37295376 1.8164558 13.37295376 3 17 C2.67 17.66 2.34 18.32 2 19 C1.01 18.67 0.02 18.34 -1 18 C-1.02707139 15.75006641 -1.04642829 13.50003905 -1.0625 11.25 C-1.07410156 9.99703125 -1.08570313 8.7440625 -1.09765625 7.453125 C-1.02021027 4.71463499 -0.82780815 2.58119707 0 0 Z " fill="#2F2628" transform="translate(134,80)"/>
<path d="M0 0 C0.33 0 0.66 0 1 0 C1 4.19913312 0.82425141 7.87874293 0 12 C0 12.66 0 13.32 0 14 C0 15.32 0 16.64 0 18 C0.66 18 1.32 18 2 18 C1.34 19.32 0.68 20.64 0 22 C-2.95248749 16.34106564 -3.82248236 11.37690866 -3 5 C-2.16865407 3.05566851 -1.49678464 1.49678464 0 0 Z " fill="#22221A" transform="translate(73,89)"/>
<path d="M0 0 C5.94 1.98 11.88 3.96 18 6 C18.33 7.65 18.66 9.3 19 11 C18.01 10.67 17.02 10.34 16 10 C16 9.01 16 8.02 16 7 C13.36 6.67 10.72 6.34 8 6 C8 6.66 8 7.32 8 8 C7.01 7.67 6.02 7.34 5 7 C5 6.01 5 5.02 5 4 C2.525 3.01 2.525 3.01 0 2 C0 1.34 0 0.68 0 0 Z " fill="#343015" transform="translate(112,63)"/>
<path d="M0 0 C3.99500618 1.3697164 6.80009492 3.25722422 10 6 C9.01 6.495 9.01 6.495 8 7 C9.32 7.33 10.64 7.66 12 8 C11.67 8.99 11.34 9.98 11 11 C8.69 10.67 6.38 10.34 4 10 C4.33 8.35 4.66 6.7 5 5 C3.7625 4.319375 3.7625 4.319375 2.5 3.625 C1.675 3.08875 0.85 2.5525 0 2 C0 1.34 0 0.68 0 0 Z " fill="#22231E" transform="translate(90,132)"/>
<path d="M0 0 C1.65 0 3.3 0 5 0 C6.07402153 3.22206459 5.99198757 5.08813676 5.6875 8.4375 C5.56955078 9.85869141 5.56955078 9.85869141 5.44921875 11.30859375 C5.01310882 13.92146109 4.31896257 15.72277075 3 18 C2.92652344 16.39318359 2.92652344 16.39318359 2.8515625 14.75390625 C2.77654706 13.35674361 2.7009987 11.9596095 2.625 10.5625 C2.5940625 9.85544922 2.563125 9.14839844 2.53125 8.41992188 C2.42719371 6.60760812 2.22080108 4.80182012 2 3 C1.34 2.67 0.68 2.34 0 2 C0 1.34 0 0.68 0 0 Z " fill="#4D4A1D" transform="translate(130,66)"/>
<path d="M0 0 C9.9 0 19.8 0 30 0 C30 0.33 30 0.66 30 1 C23.07 1 16.14 1 9 1 C9 2.98 9 4.96 9 7 C8.34 7 7.68 7 7 7 C6.67 5.35 6.34 3.7 6 2 C3.03 1.505 3.03 1.505 0 1 C0 0.67 0 0.34 0 0 Z " fill="#3C3318" transform="translate(229,81)"/>
<path d="M0 0 C0.08112454 2.58396679 0.14054748 5.16537568 0.1875 7.75 C0.22520508 8.84441406 0.22520508 8.84441406 0.26367188 9.9609375 C0.30981636 13.34486604 0.25324128 15.57858557 -1.51171875 18.515625 C-2.00285156 19.00546875 -2.49398437 19.4953125 -3 20 C-3 18.35 -3 16.7 -3 15 C-2.34 15 -1.68 15 -1 15 C-1.33 11.04 -1.66 7.08 -2 3 C-4.31 3 -6.62 3 -9 3 C-3 0 -3 0 0 0 Z " fill="#443315" transform="translate(98,59)"/>
<path d="M0 0 C0.68449219 0.32742187 1.36898437 0.65484375 2.07421875 0.9921875 C5.48912059 2.16848212 8.21031284 2.19777146 11.8125 2.125 C12.97394531 2.10695313 14.13539063 2.08890625 15.33203125 2.0703125 C16.65267578 2.03550781 16.65267578 2.03550781 18 2 C15.6295656 4.3704344 13.98769045 4.94393744 10.66015625 5.1328125 C9.80292969 5.13023438 8.94570312 5.12765625 8.0625 5.125 C6.78052734 5.12886719 6.78052734 5.12886719 5.47265625 5.1328125 C3.17319148 5.00930254 1.20359652 4.64420687 -1 4 C-0.67 2.68 -0.34 1.36 0 0 Z " fill="#443A19" transform="translate(201,108)"/>
<path d="M0 0 C4.29 0 8.58 0 13 0 C13 0.33 13 0.66 13 1 C9.7 1 6.4 1 3 1 C3.33 1.99 3.66 2.98 4 4 C7.63 4.33 11.26 4.66 15 5 C15 5.33 15 5.66 15 6 C10.05 6 5.1 6 0 6 C0 4.02 0 2.04 0 0 Z " fill="#3A2B0E" transform="translate(179,99)"/>
<path d="M0 0 C4.29 0 8.58 0 13 0 C13 0.99 13 1.98 13 3 C8.38 3 3.76 3 -1 3 C-0.67 2.01 -0.34 1.02 0 0 Z " fill="#F7C459" transform="translate(180,83)"/>
<path d="M0 0 C4.62 0.66 9.24 1.32 14 2 C12.38262276 5.23475448 11.52370777 6.70572021 9 9 C9.33 7.68 9.66 6.36 10 5 C9.01 5.33 8.02 5.66 7 6 C7 5.34 7 4.68 7 4 C4.69 3.67 2.38 3.34 0 3 C0 2.01 0 1.02 0 0 Z " fill="#2C232E" transform="translate(99,87)"/>
<path d="M0 0 C0.66 0 1.32 0 2 0 C2 0.66 2 1.32 2 2 C2.66 2 3.32 2 4 2 C4 1.34 4 0.68 4 0 C5.65 0.33 7.3 0.66 9 1 C9 1.66 9 2.32 9 3 C9.66 3.66 10.32 4.32 11 5 C6.545 5.495 6.545 5.495 2 6 C2 5.34 2 4.68 2 4 C0.68 3.34 -0.64 2.68 -2 2 C-1.34 1.34 -0.68 0.68 0 0 Z " fill="#28241F" transform="translate(50,40)"/>
<path d="M0 0 C3.4375 -0.375 3.4375 -0.375 7 0 C8.72265625 1.5234375 8.72265625 1.5234375 10 3 C8.56666979 3.39063507 7.12807321 3.76198474 5.6875 4.125 C4.48673828 4.43824219 4.48673828 4.43824219 3.26171875 4.7578125 C1 5 1 5 -2 3 C-1.34 2.01 -0.68 1.02 0 0 Z " fill="#F3C964" transform="translate(204,83)"/>
<path d="M0 0 C0.33 0 0.66 0 1 0 C1 7.92 1 15.84 1 24 C1.99 24.33 2.98 24.66 4 25 C2.35 25.66 0.7 26.32 -1 27 C-0.67 18.09 -0.34 9.18 0 0 Z " fill="#D2BB5B" transform="translate(99,110)"/>
<path d="M0 0 C0.66 0.33 1.32 0.66 2 1 C2 1.99 2 2.98 2 4 C3.98 4 5.96 4 8 4 C7.01 4.33 6.02 4.66 5 5 C5.495 5.45375 5.99 5.9075 6.5 6.375 C8 8 8 8 8 10 C4.7 9.01 1.4 8.02 -2 7 C-1.34 6.67 -0.68 6.34 0 6 C0 4.02 0 2.04 0 0 Z " fill="#514525" transform="translate(278,87)"/>
<path d="M0 0 C1.65 0 3.3 0 5 0 C5 2.97 5 5.94 5 9 C3.68 9 2.36 9 1 9 C0.67 6.03 0.34 3.06 0 0 Z " fill="#373733" transform="translate(319,103)"/>
<path d="M0 0 C2.97 0.99 5.94 1.98 9 3 C9 3.99 9 4.98 9 6 C3.375 6.25 3.375 6.25 0 4 C0 2.68 0 1.36 0 0 Z " fill="#323431" transform="translate(270,99)"/>
<path d="M0 0 C5.28 0.33 10.56 0.66 16 1 C16 1.66 16 2.32 16 3 C10.72 3 5.44 3 0 3 C0 2.01 0 1.02 0 0 Z " fill="#30393B" transform="translate(272,41)"/>
<path d="M0 0 C1.65 0 3.3 0 5 0 C5 2.97 5 5.94 5 9 C4.67 8.34 4.34 7.68 4 7 C1.98330173 5.86649466 1.98330173 5.86649466 0 5 C0 3.35 0 1.7 0 0 Z " fill="#31333B" transform="translate(258,90)"/>
<path d="M0 0 C0.33 0 0.66 0 1 0 C1.33 4.62 1.66 9.24 2 14 C0.35 13.67 -1.3 13.34 -3 13 C-3.33 12.34 -3.66 11.68 -4 11 C-3.01 11 -2.02 11 -1 11 C-1.020625 9.9275 -1.04125 8.855 -1.0625 7.75 C-1.0142016 4.85209576 -0.86844115 2.71387859 0 0 Z " fill="#C8B66A" transform="translate(110,98)"/>
<path d="M0 0 C2.31 0 4.62 0 7 0 C6.67 1.98 6.34 3.96 6 6 C3 6 3 6 1.3125 4.6875 C0 3 0 3 0 0 Z " fill="#DAC468" transform="translate(263,101)"/>
<path d="M0 0 C0.99 0.66 1.98 1.32 3 2 C0.36 4.31 -2.28 6.62 -5 9 C-5.99 8.34 -6.98 7.68 -8 7 C-5.63707344 4.47411298 -4.33537489 3.11179163 -1 2 C-0.67 1.34 -0.34 0.68 0 0 Z " fill="#372F1B" transform="translate(113,121)"/>
<path d="M0 0 C0.66 0.33 1.32 0.66 2 1 C0.515 4.96 0.515 4.96 -1 9 C0.32 9 1.64 9 3 9 C3 9.99 3 10.98 3 12 C1.35 12.33 -0.3 12.66 -2 13 C-2.05416188 11.39620659 -2.09286638 9.79188594 -2.125 8.1875 C-2.14820313 7.29417969 -2.17140625 6.40085937 -2.1953125 5.48046875 C-2 3 -2 3 0 0 Z " fill="#F9C055" transform="translate(176,85)"/>
<path d="M0 0 C0.33 1.32 0.66 2.64 1 4 C0.45472656 3.67386719 -0.09054688 3.34773438 -0.65234375 3.01171875 C-3.45648299 1.80327938 -5.51925747 1.76695487 -8.5625 1.8125 C-9.51253906 1.81894531 -10.46257812 1.82539062 -11.44140625 1.83203125 C-14.1204942 1.89938566 -14.1204942 1.89938566 -17 3 C-17.33 2.01 -17.66 1.02 -18 0 C-11.67370431 -0.90375653 -6.32629569 -0.90375653 0 0 Z " fill="#463721" transform="translate(220,81)"/>
<path d="M0 0 C1.98 0 3.96 0 6 0 C6 0.66 6 1.32 6 2 C6.66 2 7.32 2 8 2 C7.25 6.75 7.25 6.75 5 9 C4.731875 8.071875 4.46375 7.14375 4.1875 6.1875 C3.08851629 3.23759634 2.37581439 1.94384814 0 0 Z " fill="#443C27" transform="translate(281,82)"/>
<path d="M0 0 C0.66 0.33 1.32 0.66 2 1 C2 1.66 2 2.32 2 3 C-1.63 3 -5.26 3 -9 3 C-9.33 2.34 -9.66 1.68 -10 1 C-6.49852959 -0.1671568 -3.67329964 -0.13357453 0 0 Z " fill="#F1DA68" transform="translate(279,108)"/>
<path d="M0 0 C2.97 0 5.94 0 9 0 C7.875 2 7.875 2 6 4 C2.8125 4.25 2.8125 4.25 0 4 C0 2.68 0 1.36 0 0 Z " fill="#F5D368" transform="translate(239,83)"/>
<path d="M0 0 C0.99 0 1.98 0 3 0 C2.67 5.94 2.34 11.88 2 18 C1.67 18 1.34 18 1 18 C0.10395632 11.95170514 -0.11269443 6.1105424 0 0 Z " fill="#4A2F12" transform="translate(66,70)"/>
<path d="M0 0 C3.57294032 1.32002058 6.63953492 2.89521388 9.8125 5 C10.60269531 5.515625 11.39289063 6.03125 12.20703125 6.5625 C12.79871094 7.036875 13.39039062 7.51125 14 8 C14 8.66 14 9.32 14 10 C8.97619887 8.43006215 4.9530017 5.39884258 1 2 C0.67 1.34 0.34 0.68 0 0 Z " fill="#C6B679" transform="translate(84,126)"/>
<path d="M0 0 C0.33 0.66 0.66 1.32 1 2 C-0.8125 4 -0.8125 4 -3 6 C-3.99 6 -4.98 6 -6 6 C-5.67 5.34 -5.34 4.68 -5 4 C-5.66 4 -6.32 4 -7 4 C-7.33 4.66 -7.66 5.32 -8 6 C-9.32 5.34 -10.64 4.68 -12 4 C-8.04 2.68 -4.08 1.36 0 0 Z " fill="#382D1D" transform="translate(85,63)"/>
<path d="M0 0 C2.97 0 5.94 0 9 0 C8.01 0.495 8.01 0.495 7 1 C7 1.99 7 2.98 7 4 C4.69 3.67 2.38 3.34 0 3 C0 2.01 0 1.02 0 0 Z " fill="#F3CC62" transform="translate(207,107)"/>
<path d="M0 0 C2.35448165 2.55068845 2.98327924 3.71017358 3.1875 7.25 C3.125625 8.1575 3.06375 9.065 3 10 C2.01 10.33 1.02 10.66 0 11 C-1.28571429 3.57142857 -1.28571429 3.57142857 0 0 Z " fill="#F8E859" transform="translate(309,84)"/>
<path d="M0 0 C1.65 0.33 3.3 0.66 5 1 C5 3 5 3 2.6875 5.5 C0 8 0 8 -3 10 C-3.66 8.68 -4.32 7.36 -5 6 C-3.35 6 -1.7 6 0 6 C0 4.02 0 2.04 0 0 Z " fill="#373633" transform="translate(355,143)"/>
<path d="M0 0 C0.33 0.66 0.66 1.32 1 2 C-0.80510884 4.09012603 -2.0025331 5.00096499 -4.625 6 C-5.40875 6.33 -6.1925 6.66 -7 7 C-7.33 7.99 -7.66 8.98 -8 10 C-9.32 9.34 -10.64 8.68 -12 8 C-11.21753906 7.50628906 -10.43507813 7.01257813 -9.62890625 6.50390625 C-8.61699219 5.86324219 -7.60507813 5.22257813 -6.5625 4.5625 C-5.55316406 3.92441406 -4.54382813 3.28632813 -3.50390625 2.62890625 C-1.15446165 1.22350458 -1.15446165 1.22350458 0 0 Z " fill="#3D3713" transform="translate(113,127)"/>
<path d="M0 0 C1.32 0 2.64 0 4 0 C4.2475 0.61875 4.495 1.2375 4.75 1.875 C6.20628639 4.35068687 7.37812506 4.95125002 10 6 C10 6.99 10 7.98 10 9 C6.78956118 7.61811547 4.95063635 6.07578097 2.75 3.375 C2.22921875 2.74335937 1.7084375 2.11171875 1.171875 1.4609375 C0.78515625 0.97882813 0.3984375 0.49671875 0 0 Z " fill="#362A12" transform="translate(79,119)"/>
<path d="M0 0 C0.99 0 1.98 0 3 0 C3.44041451 5.37305699 3.44041451 5.37305699 3 8 C0.5 10 0.5 10 -2 11 C-2 10.34 -2 9.68 -2 9 C-1.34 9 -0.68 9 0 9 C0.33 7.35 0.66 5.7 1 4 C0.34 4 -0.32 4 -1 4 C-0.67 2.68 -0.34 1.36 0 0 Z " fill="#272828" transform="translate(125,116)"/>
<path d="M0 0 C2.64 0 5.28 0 8 0 C8 1.32 8 2.64 8 4 C4.04 4 0.08 4 -4 4 C-4 3.67 -4 3.34 -4 3 C-0.535 2.505 -0.535 2.505 3 2 C2.01 1.34 1.02 0.68 0 0 Z " fill="#EFC469" transform="translate(186,106)"/>
<path d="M0 0 C0.66 0.33 1.32 0.66 2 1 C0.125 5.75 0.125 5.75 -1 8 C-1.66 8 -2.32 8 -3 8 C-3.99 5.69 -4.98 3.38 -6 1 C-4.02 1.99 -4.02 1.99 -2 3 C-0.84188612 1.94729537 -0.84188612 1.94729537 0 0 Z " fill="#4D4627" transform="translate(330,85)"/>
<path d="M0 0 C4.62 0 9.24 0 14 0 C14 0.66 14 1.32 14 2 C12.41986783 2.25028811 10.83557694 2.47440946 9.25 2.6875 C7.92742187 2.87892578 7.92742187 2.87892578 6.578125 3.07421875 C4 3 4 3 0 0 Z " fill="#3E3A35" transform="translate(307,80)"/>
<path d="M0 0 C0.45375 0.598125 0.9075 1.19625 1.375 1.8125 C5.14269194 4.95224329 9.30375268 5.81697587 14 7 C10.72814447 8.07310858 8.57052408 7.89263102 5.25 7.0625 C4.45078125 6.86785156 3.6515625 6.67320313 2.828125 6.47265625 C1.92320312 6.23869141 1.92320312 6.23869141 1 6 C0.67 4.02 0.34 2.04 0 0 Z " fill="#E6D76D" transform="translate(269,88)"/>
<path d="M0 0 C0 0.99 0 1.98 0 3 C-2.97 3 -5.94 3 -9 3 C-9 2.34 -9 1.68 -9 1 C-6.04335481 -0.4783226 -3.25770263 -0.06032783 0 0 Z " fill="#F7BB5D" transform="translate(167,106)"/>
<path d="M0 0 C0.66 0 1.32 0 2 0 C2.66 1.98 3.32 3.96 4 6 C3.01 6.33 2.02 6.66 1 7 C0.34 6.67 -0.32 6.34 -1 6 C-1 7.65 -1 9.3 -1 11 C-1.33 11 -1.66 11 -2 11 C-2 9.02 -2 7.04 -2 5 C-1.34 5 -0.68 5 0 5 C0 3.35 0 1.7 0 0 Z " fill="#4C3B28" transform="translate(196,100)"/>
<path d="M0 0 C0.66 0.33 1.32 0.66 2 1 C1.814375 1.53625 1.62875 2.0725 1.4375 2.625 C0.88580676 5.61990614 1.39402556 8.03745829 2 11 C1.01 11 0.02 11 -1 11 C-1.0270043 9.54176788 -1.04639787 8.08339325 -1.0625 6.625 C-1.07410156 5.81289062 -1.08570313 5.00078125 -1.09765625 4.1640625 C-1 2 -1 2 0 0 Z " fill="#343639" transform="translate(334,101)"/>
<path d="M0 0 C3.33333333 3.33333333 6.66666667 6.66666667 10 10 C7.61435923 9.42415568 5.33317216 8.77772405 3 8 C2.67 7.01 2.34 6.02 2 5 C1.34 4.67 0.68 4.34 0 4 C0 2.68 0 1.36 0 0 Z " fill="#3B280F" transform="translate(75,118)"/>
<path d="M0 0 C0.33 0 0.66 0 1 0 C1 3.3 1 6.6 1 10 C1.66 10 2.32 10 3 10 C3.33 9.34 3.66 8.68 4 8 C4.33 8.99 4.66 9.98 5 11 C3.02 11.66 1.04 12.32 -1 13 C-0.67 8.71 -0.34 4.42 0 0 Z " fill="#523E18" transform="translate(89,97)"/>
<path d="M0 0 C0.99 0.33 1.98 0.66 3 1 C2.67 2.65 2.34 4.3 2 6 C-5.75 6.125 -5.75 6.125 -8 5 C-8 4.34 -8 3.68 -8 3 C-3.545 3.99 -3.545 3.99 1 5 C0.67 3.35 0.34 1.7 0 0 Z " fill="#4E4017" transform="translate(278,100)"/>
<path d="M0 0 C2.10162658 1.81504114 2.98750248 2.96500695 3.9375 5.625 C4.7498001 8.19124685 4.7498001 8.19124685 7.125 8.8125 C7.74375 8.874375 8.3625 8.93625 9 9 C6 10 6 10 3 9 C1.11420063 5.78715662 0 3.75366417 0 0 Z " fill="#C6BD75" transform="translate(101,78)"/>
<path d="M0 0 C0.66 0 1.32 0 2 0 C2.33 1.98 2.66 3.96 3 6 C1.68 6 0.36 6 -1 6 C-1.042721 4.33388095 -1.04063832 2.66617115 -1 1 C-0.67 0.67 -0.34 0.34 0 0 Z " fill="#2D313C" transform="translate(259,102)"/>
<path d="M0 0 C3.96 0 7.92 0 12 0 C12 1.32 12 2.64 12 4 C10.35 4 8.7 4 7 4 C7.66 3.67 8.32 3.34 9 3 C9 2.34 9 1.68 9 1 C6.03 1 3.06 1 0 1 C0 0.67 0 0.34 0 0 Z " fill="#E8B975" transform="translate(181,94)"/>
<path d="M0 0 C1.5 1.3125 1.5 1.3125 3 3 C3 3.99 3 4.98 3 6 C1.02 6 -0.96 6 -3 6 C-3.33 4.68 -3.66 3.36 -4 2 C-3.34 2 -2.68 2 -2 2 C-2 2.66 -2 3.32 -2 4 C-1.34 4 -0.68 4 0 4 C0 2.68 0 1.36 0 0 Z " fill="#D9BF6B" transform="translate(220,86)"/>
<path d="M0 0 C1.41377341 2.63904371 2.37240135 5.07120629 3 8 C0.33636533 6.66818267 -1.75598043 4.94875383 -4 3 C-4 2.34 -4 1.68 -4 1 C-2.68 0.67 -1.36 0.34 0 0 Z " fill="#3E3B32" transform="translate(326,81)"/>
<path d="M0 0 C0.33 0.66 0.66 1.32 1 2 C1.66 2 2.32 2 3 2 C3.33 1.34 3.66 0.68 4 0 C4.33 0.99 4.66 1.98 5 3 C4.1028125 3.0928125 4.1028125 3.0928125 3.1875 3.1875 C0.12856542 4.3236757 -0.55041099 6.17330142 -2 9 C-2.6875 7.3125 -2.6875 7.3125 -3 5 C-1.5625 2.25 -1.5625 2.25 0 0 Z " fill="#C0AD69" transform="translate(97,75)"/>
<path d="M0 0 C0.33 0 0.66 0 1 0 C1 1.65 1 3.3 1 5 C0.34 5 -0.32 5 -1 5 C-1 8.63 -1 12.26 -1 16 C-1.33 16 -1.66 16 -2 16 C-2.05402274 13.89611431 -2.09280256 11.79183286 -2.125 9.6875 C-2.14820313 8.51574219 -2.17140625 7.34398438 -2.1953125 6.13671875 C-2 3 -2 3 0 0 Z " fill="#3E3B23" transform="translate(334,95)"/>
<path d="M0 0 C1.32 0 2.64 0 4 0 C4 2.31 4 4.62 4 7 C3.01 6.67 2.02 6.34 1 6 C0.67 4.02 0.34 2.04 0 0 Z " fill="#3C2C13" transform="translate(193,93)"/>
<path d="M0 0 C1.65 0 3.3 0 5 0 C5.33 1.32 5.66 2.64 6 4 C4.35 4 2.7 4 1 4 C0.67 2.68 0.34 1.36 0 0 Z " fill="#353734" transform="translate(300,89)"/>
<path d="M0 0 C0.99 0 1.98 0 3 0 C3 0.66 3 1.32 3 2 C4.32 2.33 5.64 2.66 7 3 C7 3.66 7 4.32 7 5 C1.25 3.25 1.25 3.25 -1 1 C-0.67 0.67 -0.34 0.34 0 0 Z M8 0 C8.33 0.66 8.66 1.32 9 2 C8.34 1.67 7.68 1.34 7 1 C7.33 0.67 7.66 0.34 8 0 Z " fill="#3F351D" transform="translate(99,103)"/>
<path d="M0 0 C0.99 0 1.98 0 3 0 C1.50902342 3.7952131 -0.75700849 5.61042731 -4 8 C-3.40353695 4.65980694 -2.31705841 2.49529367 0 0 Z " fill="#493E15" transform="translate(113,89)"/>
<path d="M0 0 C0.99 0.33 1.98 0.66 3 1 C2.34 2.65 1.68 4.3 1 6 C0.01 6 -0.98 6 -2 6 C-1.125 1.125 -1.125 1.125 0 0 Z " fill="#F9CA52" transform="translate(201,88)"/>
<path d="M0 0 C0.66 0 1.32 0 2 0 C3.25 3.1875 3.25 3.1875 4 7 C2.125 9.9375 2.125 9.9375 0 12 C0 10.35 0 8.7 0 7 C0.66 7 1.32 7 2 7 C1.34 4.69 0.68 2.38 0 0 Z " fill="#E0D960" transform="translate(332,86)"/>
<path d="M0 0 C2.64 0 5.28 0 8 0 C7.67 0.99 7.34 1.98 7 3 C4.69 2.67 2.38 2.34 0 2 C0 1.34 0 0.68 0 0 Z " fill="#2C2B14" transform="translate(98,54)"/>
<path d="M0 0 C3.99500618 1.3697164 6.80009492 3.25722422 10 6 C9.01 6.33 8.02 6.66 7 7 C5 5.6875 5 5.6875 3 4 C2.01 3.34 1.02 2.68 0 2 C0 1.34 0 0.68 0 0 Z " fill="#372E11" transform="translate(90,132)"/>
<path d="M0 0 C3.14737182 0.69941596 6.02588876 1.76078698 9 3 C8.01 3.66 7.02 4.32 6 5 C5.01 4.34 4.02 3.68 3 3 C2.67 3.66 2.34 4.32 2 5 C1.34 3.35 0.68 1.7 0 0 Z " fill="#3F3019" transform="translate(100,108)"/>
<path d="M0 0 C0.66 1.32 1.32 2.64 2 4 C0.625 7.75 0.625 7.75 -1 11 C-1.66 10.67 -2.32 10.34 -3 10 C-2.01 6.7 -1.02 3.4 0 0 Z " fill="#BDBC71" transform="translate(127,102)"/>
<path d="M0 0 C1.875 0.25 1.875 0.25 4 1 C5.125 2.8125 5.125 2.8125 6 5 C6.65981536 6.33673704 7.32554109 7.67059133 8 9 C6.84775972 8.07038578 5.70340824 7.1309875 4.5625 6.1875 C3.60537109 5.40439453 3.60537109 5.40439453 2.62890625 4.60546875 C1 3 1 3 0 0 Z " fill="#D9B77F" transform="translate(79,88)"/>
<path d="M0 0 C1.5 1.25 1.5 1.25 3 3 C3 4.32 3 5.64 3 7 C1.02 7 -0.96 7 -3 7 C-3 6.34 -3 5.68 -3 5 C-1.68 5 -0.36 5 1 5 C0.67 3.35 0.34 1.7 0 0 Z " fill="#D4C876" transform="translate(283,84)"/>
<path d="M0 0 C0.33 0.66 0.66 1.32 1 2 C-2.625 7.75 -2.625 7.75 -6 10 C-4.6302836 6.00499382 -2.74277578 3.19990508 0 0 Z " fill="#CFCF75" transform="translate(124,112)"/>
<path d="M0 0 C0 0.33 0 0.66 0 1 C-2.31 1.33 -4.62 1.66 -7 2 C-7.33 3.65 -7.66 5.3 -8 7 C-8.66 6.67 -9.32 6.34 -10 6 C-7.83322503 -0.036016 -6.28508493 -0.13663228 0 0 Z " fill="#504319" transform="translate(214,87)"/>
<path d="M0 0 C1.32 0 2.64 0 4 0 C3.67 1.65 3.34 3.3 3 5 C2.01 5 1.02 5 0 5 C0 3.35 0 1.7 0 0 Z " fill="#242234" transform="translate(90,89)"/>
<path d="M0 0 C1.32 1.65 2.64 3.3 4 5 C3.34 5.66 2.68 6.32 2 7 C1.67 6.34 1.34 5.68 1 5 C0.34 5 -0.32 5 -1 5 C-1.33 5.66 -1.66 6.32 -2 7 C-2.66 6.67 -3.32 6.34 -4 6 C-2.68 4.02 -1.36 2.04 0 0 Z " fill="#DDB963" transform="translate(202,84)"/>
<path d="M0 0 C1.32 0 2.64 0 4 0 C4.66 0.66 5.32 1.32 6 2 C6.99 2.33 7.98 2.66 9 3 C8.34 3 7.68 3 7 3 C6.34 4.32 5.68 5.64 5 7 C4.731875 6.030625 4.46375 5.06125 4.1875 4.0625 C3.795625 3.051875 3.40375 2.04125 3 1 C2.01 0.67 1.02 0.34 0 0 Z " fill="#4A3F26" transform="translate(259,81)"/>
<path d="M0 0 C0.99 0 1.98 0 3 0 C3 1.98 3 3.96 3 6 C1.68 5.67 0.36 5.34 -1 5 C-0.67 3.35 -0.34 1.7 0 0 Z " fill="#2C251A" transform="translate(97,80)"/>
<path d="M0 0 C2.475 0.495 2.475 0.495 5 1 C5 1.99 5 2.98 5 4 C3.35 3.67 1.7 3.34 0 3 C0 2.01 0 1.02 0 0 Z " fill="#2A1E33" transform="translate(84,120)"/>
<path d="M0 0 C-0.33 1.65 -0.66 3.3 -1 5 C-1.66 5 -2.32 5 -3 5 C-3 4.01 -3 3.02 -3 2 C-4.65 1.67 -6.3 1.34 -8 1 C-8 0.67 -8 0.34 -8 0 C-4.71303767 -0.79953138 -3.28976808 -1.09658936 0 0 Z " fill="#DBB861" transform="translate(217,106)"/>
<path d="M0 0 C0.33 0 0.66 0 1 0 C1.33 2.31 1.66 4.62 2 7 C0.68 6.67 -0.64 6.34 -2 6 C-1.125 1.125 -1.125 1.125 0 0 Z " fill="#F3DD4E" transform="translate(268,87)"/>
<path d="M0 0 C-2 2 -2 2 -3.9453125 2.1953125 C-5.96354167 2.13020833 -7.98177083 2.06510417 -10 2 C-10 1.34 -10 0.68 -10 0 C-6.7169902 -1.6415049 -3.57454967 -0.51888624 0 0 Z " fill="#37343F" transform="translate(291,80)"/>
<path d="M0 0 C2.475 0.99 2.475 0.99 5 2 C4.67 2.66 4.34 3.32 4 4 C2.35 4 0.7 4 -1 4 C-0.67 2.68 -0.34 1.36 0 0 Z " fill="#493522" transform="translate(201,108)"/>
<path d="M0 0 C0.99 0.33 1.98 0.66 3 1 C3 2.32 3 3.64 3 5 C3.66 5 4.32 5 5 5 C4.34 6.32 3.68 7.64 3 9 C2.01 6.03 1.02 3.06 0 0 Z " fill="#3C2E10" transform="translate(70,102)"/>
<path d="M0 0 C-0.33 0.99 -0.66 1.98 -1 3 C-2.65 3 -4.3 3 -6 3 C-6.33 2.01 -6.66 1.02 -7 0 C-2.25 -1.125 -2.25 -1.125 0 0 Z " fill="#DFBB5A" transform="translate(207,105)"/>
<path d="M0 0 C2.31 0 4.62 0 7 0 C7 0.99 7 1.98 7 3 C4.69 2.67 2.38 2.34 0 2 C0 1.34 0 0.68 0 0 Z " fill="#F3D05A" transform="translate(213,96)"/>
<path d="M0 0 C1.98 0 3.96 0 6 0 C6 1.65 6 3.3 6 5 C4 4 2 3 0 2 C0 1.34 0 0.68 0 0 Z " fill="#393536" transform="translate(283,92)"/>
<path d="M0 0 C2.475 0.495 2.475 0.495 5 1 C5 1.99 5 2.98 5 4 C3.35 3.67 1.7 3.34 0 3 C0 2.01 0 1.02 0 0 Z " fill="#363436" transform="translate(273,88)"/>
<path d="M0 0 C0.66 0.33 1.32 0.66 2 1 C1.34 2.98 0.68 4.96 0 7 C-0.66 7 -1.32 7 -2 7 C-1.125 1.125 -1.125 1.125 0 0 Z " fill="#332A31" transform="translate(196,87)"/>
<path d="M0 0 C2.31 0 4.62 0 7 0 C6.01 1.98 5.02 3.96 4 6 C3.71125 5.38125 3.4225 4.7625 3.125 4.125 C2.06279958 1.86674235 2.06279958 1.86674235 0 0 Z " fill="#D2D26D" transform="translate(335,82)"/>
</svg>
