<?xml version="1.0" encoding="UTF-8"?>
<!DOCTYPE svg PUBLIC "-//W3C//DTD SVG 1.1//EN" "http://www.w3.org/Graphics/SVG/1.1/DTD/svg11.dtd">
<svg xmlns="http://www.w3.org/2000/svg" version="1.1" width="231px" height="140px" style="shape-rendering:geometricPrecision; text-rendering:geometricPrecision; image-rendering:optimizeQuality; fill-rule:evenodd; clip-rule:evenodd" xmlns:xlink="http://www.w3.org/1999/xlink">
<g><path style="opacity:0.674" fill="#f2b600" d="M 93.5,33.5 C 98.8946,32.5548 100.561,34.5548 98.5,39.5C 92.2895,40.9669 90.6229,38.9669 93.5,33.5 Z"/></g>
<g><path style="opacity:0.824" fill="#f1b501" d="M 12.5,34.5 C 15.0792,34.0833 17.2458,34.75 19,36.5C 19.4998,45.1603 19.6664,53.8269 19.5,62.5C 23.8461,62.3343 28.1794,62.501 32.5,63C 35.1667,65 35.1667,67 32.5,69C 25.5857,69.8112 18.7524,69.6445 12,68.5C 11.1901,57.0905 11.3568,45.7572 12.5,34.5 Z"/></g>
<g><path style="opacity:0.828" fill="#f2b600" d="M 133.5,34.5 C 138.179,34.3342 142.845,34.5008 147.5,35C 150.145,36.2865 151.145,38.4532 150.5,41.5C 146.181,40.7512 141.848,40.5845 137.5,41C 136.065,43.2672 136.398,45.2672 138.5,47C 143.38,48.3549 147.547,50.8549 151,54.5C 153.768,64.9761 149.768,70.3094 139,70.5C 135.769,70.111 132.769,69.111 130,67.5C 129.257,65.5594 129.424,63.7261 130.5,62C 133.29,62.2327 136.123,62.7327 139,63.5C 143.069,62.9138 144.235,60.7471 142.5,57C 136.865,55.3531 132.365,52.1864 129,47.5C 127.675,42.1569 129.175,37.8236 133.5,34.5 Z"/></g>
<g><path style="opacity:0.827" fill="#f2b500" d="M 110.5,36.5 C 112.792,36.2436 114.959,36.5769 117,37.5C 117.497,40.146 117.664,42.8127 117.5,45.5C 119.857,45.3367 122.19,45.5034 124.5,46C 125.711,47.1131 125.711,48.2798 124.5,49.5C 122.257,50.4742 119.924,50.8076 117.5,50.5C 117.5,54.8333 117.5,59.1667 117.5,63.5C 119.527,63.3379 121.527,63.5045 123.5,64C 125.24,68.4525 123.573,70.6191 118.5,70.5C 115.674,70.1755 113.174,69.1755 111,67.5C 109.596,61.9562 109.096,56.2896 109.5,50.5C 105.324,51.1693 103.991,49.6693 105.5,46C 106.793,45.51 108.127,45.3433 109.5,45.5C 109.264,42.3915 109.597,39.3915 110.5,36.5 Z"/></g>
<g><path style="opacity:0.766" fill="#f2b500" d="M 43.5,43.5 C 53.1608,41.8354 58.4941,45.8354 59.5,55.5C 59.4712,57.0293 58.8045,58.196 57.5,59C 52.8333,59.3333 48.1667,59.6667 43.5,60C 44.7879,62.708 46.9545,64.208 50,64.5C 52.0639,63.4086 54.2305,63.2419 56.5,64C 57.8333,65.6667 57.8333,67.3333 56.5,69C 38.5642,72.0608 32.3975,64.8942 38,47.5C 39.8121,46.0229 41.6455,44.6896 43.5,43.5 Z M 45.5,49.5 C 48.2776,49.0217 50.2776,50.0217 51.5,52.5C 48.8938,53.6517 46.2272,53.8184 43.5,53C 44.305,51.8873 44.9717,50.7206 45.5,49.5 Z"/></g>
<g><path style="opacity:0.792" fill="#f1b600" d="M 68.5,43.5 C 74.0046,44.9671 79.5046,45.6337 85,45.5C 85.6667,54.1667 85.6667,62.8333 85,71.5C 82.9178,77.5607 78.5845,80.5607 72,80.5C 69.4741,80.4349 67.1407,79.7683 65,78.5C 64.2797,76.8876 64.4464,75.3876 65.5,74C 69.8244,75.4608 73.6577,74.6274 77,71.5C 77.4828,70.552 77.6495,69.552 77.5,68.5C 70.0387,71.1852 64.872,68.8519 62,61.5C 59.9661,53.752 62.1328,47.752 68.5,43.5 Z M 72.5,49.5 C 76.8384,49.847 78.5051,52.1803 77.5,56.5C 78.2632,60.1378 76.9298,62.4711 73.5,63.5C 70.3697,62.2438 69.0364,59.9105 69.5,56.5C 69.1716,53.4995 70.1716,51.1661 72.5,49.5 Z"/></g>
<g><path style="opacity:0.81" fill="#f2b600" d="M 166.5,43.5 C 172.425,42.8751 176.591,45.2085 179,50.5C 179.667,54.8333 179.667,59.1667 179,63.5C 175.535,69.9886 170.535,71.6552 164,68.5C 163.667,71.5 163.333,74.5 163,77.5C 160.667,80.1667 158.333,80.1667 156,77.5C 155.333,66.8333 155.333,56.1667 156,45.5C 158.466,44.2117 160.966,44.2117 163.5,45.5C 164.739,45.0576 165.739,44.3909 166.5,43.5 Z M 166.5,49.5 C 170.566,49.9728 172.566,52.3061 172.5,56.5C 172.563,62.4502 169.896,64.4502 164.5,62.5C 163.341,58.878 163.175,55.2113 164,51.5C 164.995,50.9341 165.828,50.2674 166.5,49.5 Z"/></g>
<g><path style="opacity:0.787" fill="#f2b500" d="M 92.5,44.5 C 94.7925,44.2436 96.9592,44.5769 99,45.5C 99.8141,53.4128 99.6474,61.2462 98.5,69C 95.9369,69.9181 93.7702,69.4181 92,67.5C 91.2019,59.754 91.3686,52.0873 92.5,44.5 Z"/></g>
<g><path style="opacity:0.805" fill="#f2b600" d="M 181.5,44.5 C 183.792,44.2436 185.959,44.5769 188,45.5C 189.403,49.8763 190.903,54.2096 192.5,58.5C 194.1,54.1986 195.6,49.8653 197,45.5C 199.381,44.565 201.881,44.2317 204.5,44.5C 201.176,55.6355 197.343,66.6355 193,77.5C 190.085,80.1345 187.252,80.1345 184.5,77.5C 185.833,74.5 187.167,71.5 188.5,68.5C 185.416,61.4973 182.75,54.3306 180.5,47C 180.743,46.0979 181.077,45.2646 181.5,44.5 Z"/></g>
<g><path style="opacity:0.521" fill="#fefffe" d="M 122.5,86.5 C 124.806,86.9926 127.139,87.3259 129.5,87.5C 129.5,88.5 129.5,89.5 129.5,90.5C 127.738,90.6427 126.071,90.3094 124.5,89.5C 123.614,90.325 123.281,91.325 123.5,92.5C 125.5,92.5 127.5,92.5 129.5,92.5C 129.5,95.5 129.5,98.5 129.5,101.5C 128.167,101.5 126.833,101.5 125.5,101.5C 124.833,93.5 124.167,93.5 123.5,101.5C 122.5,101.5 121.5,101.5 120.5,101.5C 120.656,98.9339 120.322,96.4339 119.5,94C 119.845,91.138 120.845,88.638 122.5,86.5 Z"/></g>
<g><path style="opacity:0.507" fill="#fefffe" d="M 147.5,86.5 C 148.5,86.5 149.5,86.5 150.5,86.5C 150.5,91.5 150.5,96.5 150.5,101.5C 147.026,102.625 143.86,102.292 141,100.5C 139.011,94.8674 140.844,91.8674 146.5,91.5C 146.366,89.7085 146.699,88.0418 147.5,86.5 Z M 144.5,95.5 C 146.97,96.3603 147.137,97.6936 145,99.5C 144.51,98.2068 144.343,96.8734 144.5,95.5 Z"/></g>
<g><path style="opacity:0.558" fill="#fefffe" d="M 162.5,86.5 C 163.5,86.5 164.5,86.5 165.5,86.5C 165.338,88.5273 165.505,90.5273 166,92.5C 167.667,91.1667 169.333,91.1667 171,92.5C 171.498,95.4816 171.665,98.4816 171.5,101.5C 170.5,101.5 169.5,101.5 168.5,101.5C 168.799,99.396 168.466,97.396 167.5,95.5C 165.717,97.0225 165.051,99.0225 165.5,101.5C 164.5,101.5 163.5,101.5 162.5,101.5C 161.833,93.5 161.167,93.5 160.5,101.5C 159.5,101.5 158.5,101.5 157.5,101.5C 156.584,97.1256 156.584,92.7923 157.5,88.5C 158.5,88.5 159.5,88.5 160.5,88.5C 160.238,89.9778 160.571,91.3112 161.5,92.5C 162.466,90.604 162.799,88.604 162.5,86.5 Z"/></g>
<g><path style="opacity:0.495" fill="#fefffe" d="M 216.5,86.5 C 217.5,86.5 218.5,86.5 219.5,86.5C 219.338,88.5273 219.505,90.5273 220,92.5C 222.267,91.0652 224.267,91.3985 226,93.5C 226.497,96.146 226.664,98.8127 226.5,101.5C 225.167,101.5 223.833,101.5 222.5,101.5C 222.799,99.396 222.466,97.396 221.5,95.5C 219.717,97.0225 219.051,99.0225 219.5,101.5C 218.5,101.5 217.5,101.5 216.5,101.5C 216.167,93.5 215.833,93.5 215.5,101.5C 214.167,101.5 212.833,101.5 211.5,101.5C 210.584,97.1256 210.584,92.7923 211.5,88.5C 214.388,88.2196 215.888,89.5529 216,92.5C 216.495,90.5273 216.662,88.5273 216.5,86.5 Z"/></g>
<g><path style="opacity:0.549" fill="#fefffe" d="M -0.5,87.5 C 5.94083,86.2255 10.1075,88.5589 12,94.5C 15.6968,90.4178 19.0301,90.7512 22,95.5C 22.4828,94.552 22.6495,93.552 22.5,92.5C 24.5466,92.4889 26.5466,92.1556 28.5,91.5C 30.0293,91.5288 31.196,92.1955 32,93.5C 32.4935,91.8659 32.6602,90.1992 32.5,88.5C 33.5,88.5 34.5,88.5 35.5,88.5C 35.8333,93.8333 36.1667,93.8333 36.5,88.5C 37.5,88.5 38.5,88.5 39.5,88.5C 39.4486,90.5695 40.1153,92.4029 41.5,94C 39.9145,96.2562 39.2479,98.7562 39.5,101.5C 38.5,101.5 37.5,101.5 36.5,101.5C 36.6621,99.4727 36.4955,97.4727 36,95.5C 34.9887,94.6634 33.8221,94.33 32.5,94.5C 32.5,96.8333 32.5,99.1667 32.5,101.5C 31.1667,101.5 29.8333,101.5 28.5,101.5C 28.5,99.5 28.5,97.5 28.5,95.5C 27.5,95.5 26.5,95.5 25.5,95.5C 25.5,97.5 25.5,99.5 25.5,101.5C 24.5,101.5 23.5,101.5 22.5,101.5C 22.5408,97.7566 21.8741,97.5899 20.5,101C 16.13,103.209 12.9633,102.043 11,97.5C 10.5348,98.9308 9.70143,100.097 8.5,101C 5.51838,101.498 2.51838,101.665 -0.5,101.5C -0.5,96.8333 -0.5,92.1667 -0.5,87.5 Z M 2.5,90.5 C 7.66767,91.3385 8.66767,93.8385 5.5,98C 4.55198,98.4828 3.55198,98.6495 2.5,98.5C 2.5,95.8333 2.5,93.1667 2.5,90.5 Z M 15.5,95.5 C 16.5,95.5 17.5,95.5 18.5,95.5C 18.3352,99.8638 17.0019,100.364 14.5,97C 15.056,96.6174 15.3893,96.1174 15.5,95.5 Z"/></g>
<g><path style="opacity:0.488" fill="#fefffe" d="M 189.5,88.5 C 191.662,88.8972 192.995,90.2305 193.5,92.5C 197.134,91.4893 200.801,91.4893 204.5,92.5C 205.167,101.833 205.833,101.833 206.5,92.5C 207.5,92.5 208.5,92.5 209.5,92.5C 209.664,95.1873 209.497,97.854 209,100.5C 206.4,102.891 203.733,102.891 201,100.5C 200.506,98.8659 200.34,97.1992 200.5,95.5C 199.5,95.5 198.5,95.5 197.5,95.5C 197.5,97.5 197.5,99.5 197.5,101.5C 196.167,101.5 194.833,101.5 193.5,101.5C 193.167,93.5 192.833,93.5 192.5,101.5C 191.167,101.5 189.833,101.5 188.5,101.5C 187.18,96.9623 187.514,92.629 189.5,88.5 Z"/></g>
<g><path style="opacity:0.495" fill="#fefffe" d="M 48.5,91.5 C 51.1667,91.8333 53.8333,92.1667 56.5,92.5C 56.2011,94.604 56.5344,96.604 57.5,98.5C 57.3471,96.4999 57.6804,94.3332 58.5,92C 60.9203,91.3131 63.087,91.8131 65,93.5C 67.3333,90.8333 69.6667,90.8333 72,93.5C 73.3561,92.6198 74.8561,92.2865 76.5,92.5C 77.1667,101.833 77.8333,101.833 78.5,92.5C 79.8333,92.5 81.1667,92.5 82.5,92.5C 83.69,97.4548 82.0233,100.788 77.5,102.5C 75.5658,102.099 74.0658,101.099 73,99.5C 71.7581,100.872 70.2581,101.872 68.5,102.5C 65.8333,101.167 63.1667,101.167 60.5,102.5C 57.3731,100.688 54.0398,100.688 50.5,102.5C 45.9945,99.635 45.3279,95.9684 48.5,91.5 Z M 64.5,96.5 C 61.9991,96.4891 61.8324,95.8224 64,94.5C 64.4643,95.0944 64.631,95.7611 64.5,96.5 Z M 71.5,94.5 C 72.7733,95.0768 72.7733,95.7435 71.5,96.5C 70.537,96.0302 70.537,95.3635 71.5,94.5 Z M 50.5,95.5 C 52.9701,96.3603 53.1368,97.6936 51,99.5C 49.2317,98.3181 49.0651,96.9848 50.5,95.5 Z M 64.5,96.5 C 65.2891,96.7828 65.9558,97.2828 66.5,98C 65.184,98.5281 64.5173,98.0281 64.5,96.5 Z"/></g>
<g><path style="opacity:0.575" fill="#fefffe" d="M 86.5,91.5 C 89.8281,92.6463 93.1615,92.8129 96.5,92C 97.4505,95.0567 97.7839,98.2234 97.5,101.5C 96.5,101.5 95.5,101.5 94.5,101.5C 94.2971,92.3646 93.6304,92.3646 92.5,101.5C 91.5,101.5 90.5,101.5 89.5,101.5C 88.4216,92.2468 87.4216,92.2468 86.5,101.5C 85.5,101.5 84.5,101.5 83.5,101.5C 83.5,98.5 83.5,95.5 83.5,92.5C 84.791,92.7373 85.791,92.404 86.5,91.5 Z"/></g>
<g><path style="opacity:0.508" fill="#fefffe" d="M 101.5,91.5 C 108.263,91.5472 110.263,94.7139 107.5,101C 101.099,103.456 98.2653,101.289 99,94.5C 99.6979,93.3094 100.531,92.3094 101.5,91.5 Z"/></g>
<g><path style="opacity:0.58" fill="#fefffe" d="M 134.5,91.5 C 136.144,91.2865 137.644,91.6198 139,92.5C 139.498,95.4816 139.665,98.4816 139.5,101.5C 138.5,101.5 137.5,101.5 136.5,101.5C 135.5,92.1667 134.5,92.1667 133.5,101.5C 132.5,101.5 131.5,101.5 130.5,101.5C 130.5,98.5 130.5,95.5 130.5,92.5C 132.099,92.7678 133.432,92.4345 134.5,91.5 Z"/></g>
<g><path style="opacity:0.497" fill="#fefffe" d="M 175.5,91.5 C 181.908,91.8097 183.908,94.9764 181.5,101C 174.153,103.658 171.32,101.158 173,93.5C 173.995,92.9341 174.828,92.2674 175.5,91.5 Z"/></g>
<g><path style="opacity:0.419" fill="#fefffe" d="M 110.5,98.5 C 111.5,98.5 112.5,98.5 113.5,98.5C 113.701,102.36 112.035,104.194 108.5,104C 109.464,102.275 110.131,100.441 110.5,98.5 Z"/></g>
<g><path style="opacity:0.458" fill="#fefffe" d="M 230.5,98.5 C 230.5,99.5 230.5,100.5 230.5,101.5C 229.5,101.5 228.5,101.5 227.5,101.5C 227.5,100.5 227.5,99.5 227.5,98.5C 228.5,98.5 229.5,98.5 230.5,98.5 Z"/></g>
</svg>
