<svg width="48" height="32" viewBox="0 0 48 32" fill="none" xmlns="http://www.w3.org/2000/svg"><g clip-path="url(#clip0_89_11545)"><path d="M0 4a4 4 0 014-4h40a4 4 0 014 4v24a4 4 0 01-4 4H4a4 4 0 01-4-4V4z" fill="#EFF2F6"/><path d="M27.855 8.709l-7.95.027.24 14.556 7.951-.027-.24-14.556z" fill="#FF5F00"/><path d="M20.428 16.044a9.21 9.21 0 013.354-7.298 9.101 9.101 0 00-5.665-1.963c-5.048.017-9.063 4.176-8.978 9.3.085 5.122 4.238 9.253 9.286 9.236a8.886 8.886 0 005.599-2.002 9.441 9.441 0 01-3.596-7.273z" fill="#EB001B"/><path d="M38.861 15.919c.086 5.123-3.93 9.282-8.978 9.299a9.102 9.102 0 01-5.665-1.963c2.103-1.706 3.404-4.337 3.355-7.297a9.48 9.48 0 00-3.597-7.274 8.886 8.886 0 015.599-2.002c5.048-.017 9.202 4.14 9.287 9.237z" fill="#F79E1B"/></g><defs><clipPath id="clip0_89_11545"><path fill="#fff" d="M0 0h48v32H0z"/></clipPath></defs></svg>