<svg width="53" height="39" viewBox="0 0 53 39" fill="none" xmlns="http://www.w3.org/2000/svg"><path fill-rule="evenodd" clip-rule="evenodd" d="M0 32.496c7.882-3.259 11.822-7.087 11.822-11.487-3.36-.325-6.138-1.48-8.333-3.46-2.195-1.986-3.294-4.28-3.294-6.882 0-2.772 1.066-5.106 3.198-7.006C5.525 1.76 8.203.81 11.434.81c3.619 0 6.75 1.234 9.399 3.704 2.648 2.47 3.973 5.471 3.973 9.002 0 10.59-7.042 18.87-21.122 24.843L0 32.496zm27.811 0c7.946-3.259 11.921-7.087 11.921-11.487-3.423-.325-6.236-1.48-8.431-3.46-2.195-1.986-3.294-4.28-3.294-6.882 0-2.772 1.08-5.106 3.242-7.006C33.42 1.76 36.117.81 39.346.81c3.618 0 6.735 1.234 9.35 3.704 2.619 2.47 3.925 5.471 3.925 9.002 0 10.59-7.008 18.87-21.025 24.843l-3.78-5.864h-.004z" fill="#232323"/></svg>