<?xml version="1.0" encoding="utf-8"?><svg xmlns="http://www.w3.org/2000/svg" xmlns:xlink="http://www.w3.org/1999/xlink"><symbol fill="none" viewBox="0 0 20 22" id="icon-android" xmlns="http://www.w3.org/2000/svg"><path fill-rule="evenodd" clip-rule="evenodd" d="M4.09 7.262H15.74v9.496c0 .563-.457 1.021-1.02 1.021h-1.168v2.892A1.32 1.32 0 0 1 12.245 22a1.318 1.318 0 0 1-1.31-1.33v-2.89H8.896v2.89A1.32 1.32 0 0 1 7.586 22a1.318 1.318 0 0 1-1.309-1.33v-2.89H5.111a1.022 1.022 0 0 1-1.022-1.022V7.262Zm-2.284-.077c-.73 0-1.322.6-1.322 1.343v5.247c0 .74.592 1.342 1.322 1.342.73 0 1.322-.602 1.322-1.342V8.528c0-.742-.592-1.343-1.322-1.343Zm13.935-.88H4.09c.144-1.658 1.222-3.087 2.772-3.914L5.752.763a.481.481 0 1 1 .795-.54l1.208 1.773a6.6 6.6 0 0 1 4.321 0L13.284.223a.48.48 0 1 1 .794.54L12.972 2.39c1.55.827 2.625 2.255 2.77 3.916v-.001ZM8.102 4.05a.644.644 0 1 0-.189.455.644.644 0 0 0 .19-.456v.001Zm4.997 0a.645.645 0 1 0-1.29 0 .645.645 0 0 0 1.29 0Zm4.927 3.134c-.73 0-1.323.6-1.323 1.343v5.248c0 .743.593 1.344 1.323 1.344s1.32-.602 1.32-1.344v-5.25c0-.74-.59-1.342-1.32-1.342Z" fill="#fff"/></symbol><symbol fill="none" viewBox="0 0 18 22" id="icon-apple" xmlns="http://www.w3.org/2000/svg"><path d="M6.205 22h-.574c-1.15-.252-1.89-1.048-2.563-1.936-.253-.333-.505-.67-.73-1.026C.783 16.523-.068 13.813.317 10.823c.184-1.456.77-2.75 1.879-3.747 1.281-1.146 2.77-1.673 4.487-1.272.615.143 1.206.407 1.804.636.442.166.867.172 1.304-.006.506-.2 1.011-.407 1.528-.561 2.017-.596 3.81-.19 5.343 1.249.259.24.46.544.701.842-.143.091-.235.154-.333.217-1.58 1.055-2.315 2.773-1.953 4.624.293 1.484 1.195 2.492 2.54 3.14.131.062.258.091.189.297a12.579 12.579 0 0 1-2.936 4.841c-.65.66-1.46.992-2.39.843-.471-.075-.942-.241-1.385-.43-.942-.401-1.896-.499-2.872-.183-.673.217-1.345.458-2.017.687ZM13.473 0c.427 2.375-1.552 4.928-3.976 5.146-.68.062-.71.095-.68-.592.08-1.794.998-3.112 2.59-3.995C12.047.207 12.723 0 13.473 0Z" fill="#fff"/></symbol><symbol viewBox="0 0 512 512" xml:space="preserve" id="icon-arrow-bottom" xmlns="http://www.w3.org/2000/svg"><path d="m60 98.3-60 60 256 256 256-256-60-60-196 196-196-196z"/></symbol><symbol fill="none" viewBox="0 0 24 24" id="icon-arrow_small" xmlns="http://www.w3.org/2000/svg"><path d="m10 7 5 5-5 5" stroke="currentColor" stroke-width="2" stroke-linecap="round" stroke-linejoin="round"/></symbol><symbol fill="none" viewBox="0 0 16 16" id="icon-check" xmlns="http://www.w3.org/2000/svg"><path fill-rule="evenodd" clip-rule="evenodd" d="M0 8a8 8 0 1 1 16 0A8 8 0 0 1 0 8Zm3.01.587 3.522 3.522 6.458-6.457-1.174-1.174L6.532 9.76 4.184 7.413 3.01 8.587Z" fill="#2ECC71"/></symbol><symbol viewBox="0 0 512 512" xml:space="preserve" id="icon-cookie" xmlns="http://www.w3.org/2000/svg"><defs><path id="afa" d="M0-.2h512v512H0z"/></defs><clipPath id="afb"><use xlink:href="#afa" overflow="visible"/></clipPath><g clip-path="url(#afb)"><path d="M438.2 75.9C390.7 27.7 327.2.7 259.6-.2c-7.2-.1-13.5 5-14.9 12.1-5.4 27.4-28.7 47.9-56.6 49.9-4.5.3-8.6 2.6-11.2 6.3-2.6 3.7-3.4 8.3-2.2 12.6 5.6 20.5 1.7 43.3-10.6 62.6-12.7 20-32.4 33.3-54.1 36.4-8 1.2-13.7 8.5-12.8 16.6.3 2.4.4 4.8.4 7.2 0 34.3-27.9 62.2-62.2 62.2-5.3 0-10.6-.7-15.7-2-4.7-1.2-9.8-.1-13.5 3.1-3.7 3.2-5.7 7.9-5.2 12.8 5.9 63.2 35 121.8 82 164.9 47.3 43.4 108.7 67.3 173 67.3 68.4 0 132.7-26.6 181-75 48.4-48.4 75-112.6 75-181 0-67.8-26.2-131.6-73.8-179.9zm-22.4 339.7c-42.7 42.7-99.4 66.2-159.8 66.2-56.7 0-110.9-21.1-152.7-59.4-36.8-33.7-61.2-78.2-69.8-126.8h2c49.8 0 90.5-39.7 92.1-89.1 24.9-7.1 47-23.8 61.8-47.1 13.7-21.5 19.7-46.4 17.2-70.4 29.7-7.6 53.9-29.7 64.1-58.8 55.3 3.5 106.9 27 146.1 66.8 42 42.6 65.1 98.9 65.1 158.7.1 60.4-23.4 117.2-66.1 159.9z"/><path d="M176.6 270.4c-28.7 0-52 23.3-52 52s23.3 52 52 52 52-23.3 52-52c.1-28.6-23.3-52-52-52zm0 74.1c-12.1 0-22-9.9-22-22s9.9-22 22-22 22 9.9 22 22-9.8 22-22 22zM301.8 182.7c30.3 0 54.9-24.6 54.9-54.9s-24.6-54.9-54.9-54.9c-30.3 0-54.9 24.6-54.9 54.9s24.6 54.9 54.9 54.9zm0-79.9c13.7 0 24.9 11.2 24.9 24.9s-11.2 24.9-24.9 24.9-24.9-11.2-24.9-24.9 11.1-24.9 24.9-24.9zM328 311.8c-27.8 0-50.3 22.6-50.3 50.3 0 27.8 22.6 50.3 50.3 50.3 27.8 0 50.3-22.6 50.3-50.3 0-27.7-22.5-50.3-50.3-50.3zm0 70.7c-11.2 0-20.3-9.1-20.3-20.3 0-11.2 9.1-20.3 20.3-20.3 11.2 0 20.3 9.1 20.3 20.3 0 11.2-9.1 20.3-20.3 20.3zM448.7 234.5c0-27.8-22.6-50.3-50.3-50.3-27.8 0-50.3 22.6-50.3 50.3 0 27.8 22.6 50.3 50.3 50.3 27.7 0 50.3-22.5 50.3-50.3zm-50.3 20.3c-11.2 0-20.3-9.1-20.3-20.3 0-11.2 9.1-20.3 20.3-20.3 11.2 0 20.3 9.1 20.3 20.3 0 11.2-9.1 20.3-20.3 20.3zM383.7 139.8c1.3 6.1 6.3 11 12.5 11.9 6.2.9 12.5-2.3 15.4-7.8 2.9-5.5 2.1-12.5-2.1-17.1-4.2-4.6-11.1-6.2-16.9-3.8-6.5 2.8-10.2 9.9-8.9 16.8zM444.5 323.9c-1.2-6.1-6.3-11-12.5-11.9-6.2-.9-12.5 2.2-15.4 7.8-2.9 5.5-2.1 12.5 2.1 17.1 4.2 4.6 11.1 6.2 16.8 3.8 6.6-2.7 10.5-9.9 9-16.8zM191.3 217.5c1.2 6.1 6.4 11 12.5 11.9 6.2.9 12.5-2.3 15.4-7.8 3-5.5 2.1-12.5-2.1-17.1-4.2-4.7-11.1-6.2-16.9-3.8-6.5 2.6-10.4 9.8-8.9 16.8zM250.7 423.6c-1.3-6.2-6.3-11-12.5-11.9-6.2-.9-12.5 2.3-15.4 7.8-2.9 5.5-2.1 12.5 2.1 17.1 4.2 4.6 11.1 6.2 16.9 3.8 6.4-2.7 10.3-9.9 8.9-16.8zM316.1 222.2c-2-6-7.3-10.3-13.6-10.6-6.3-.3-12.2 3.5-14.6 9.2-2.4 5.8-.9 12.7 3.8 16.9 4.7 4.2 11.6 5.1 17.1 2.1 6.3-3.4 9.3-10.9 7.3-17.6zM279.1 295.6c5.2-3.4 7.7-10.1 6.2-16.1-1.5-6.1-6.8-10.7-13.1-11.3-6.2-.6-12.4 2.8-15 8.5-2.7 5.7-1.5 12.6 2.9 17 5.1 5.1 13.2 5.9 19 1.9zM90.3 323.9c-1.2-6.1-6.3-11-12.5-11.9-6.2-.9-12.5 2.2-15.4 7.8-2.9 5.5-2.1 12.5 2.1 17.1 4.2 4.6 11.1 6.2 16.9 3.8 6.4-2.7 10.4-9.9 8.9-16.8zM90.6 103.8c28.7 0 52-23.3 52-52s-23.3-52-52-52-52 23.3-52 52 23.3 52 52 52zm0-74c12.1 0 22 9.9 22 22s-9.9 22-22 22-22-9.9-22-22c0-12.2 9.9-22 22-22zM1.7 169c2.9 5.5 9.3 8.7 15.4 7.8 6.2-.9 11.3-5.8 12.5-11.9 1.2-6.1-1.6-12.6-7-15.8-5.4-3.2-12.4-2.7-17.2 1.3-5.5 4.4-6.9 12.3-3.7 18.6z"/></g></symbol><symbol viewBox="0 0 512 512" xml:space="preserve" id="icon-cross" xmlns="http://www.w3.org/2000/svg"><path fill-rule="evenodd" clip-rule="evenodd" d="M10.7 10.7C25-3.6 48.1-3.6 62.4 10.7L256 204.3 449.6 10.7c14.3-14.3 37.4-14.3 51.7 0 14.3 14.3 14.3 37.4 0 51.7L307.7 256l193.6 193.6c14.3 14.3 14.3 37.4 0 51.7-14.3 14.3-37.4 14.3-51.7 0L256 307.7 62.4 501.3c-14.3 14.3-37.4 14.3-51.7 0-14.3-14.3-14.3-37.4 0-51.7L204.3 256 10.7 62.4C-3.6 48.1-3.6 25 10.7 10.7z"/></symbol><symbol fill="none" viewBox="0 0 80 40" id="icon-feature-1" xmlns="http://www.w3.org/2000/svg"><path d="M19.545 20c0-11.046 8.955-20 20-20 11.046 0 20 8.954 20 20s-8.954 20-20 20c-11.045 0-20-8.954-20-20Z" fill="#F2B601"/><path d="M39.545 10a9.649 9.649 0 0 0-10 9.7 9.509 9.509 0 0 0 3.14 7.18.811.811 0 0 1 .27.56v1.78a.81.81 0 0 0 1.13.71l2-.87a.75.75 0 0 1 .53 0c.946.255 1.921.383 2.9.38a9.72 9.72 0 0 0 .03-19.44Zm6 7.46-2.93 4.66a1.5 1.5 0 0 1-2.17.4l-2.34-1.75a.6.6 0 0 0-.72 0l-3.16 2.4a.47.47 0 0 1-.68-.63l2.93-4.66a1.501 1.501 0 0 1 2.17-.4l2.34 1.75a.6.6 0 0 0 .72 0l3.16-2.4a.47.47 0 0 1 .68.63Z" fill="#1C1C1C"/></symbol><symbol fill="none" viewBox="0 0 80 40" id="icon-feature-10" xmlns="http://www.w3.org/2000/svg"><path d="M19.545 20c0-11.046 8.955-20 20-20 11.046 0 20 8.954 20 20s-8.954 20-20 20c-11.045 0-20-8.954-20-20Z" fill="#F2B601"/><path d="M42.927 20a3.2 3.2 0 1 1-3.2-3.2 3.21 3.21 0 0 1 3.2 3.2Zm6.8-4.4v8.8a5.6 5.6 0 0 1-5.6 5.6h-8.8a5.6 5.6 0 0 1-5.6-5.6v-8.8a5.6 5.6 0 0 1 5.6-5.6h8.8a5.6 5.6 0 0 1 5.6 5.6Zm-5.2 4.4a4.8 4.8 0 1 0-9.6 0 4.8 4.8 0 0 0 9.6 0Zm1.6-5.2a1.2 1.2 0 1 0-2.4 0 1.2 1.2 0 0 0 2.4 0Z" fill="#1C1C1C"/></symbol><symbol fill="none" viewBox="0 0 80 40" id="icon-feature-11" xmlns="http://www.w3.org/2000/svg"><path d="M19.636 20c0-11.046 8.954-20 20-20s20 8.954 20 20-8.954 20-20 20-20-8.954-20-20Z" fill="#F2B601"/><path d="M49.636 19.891c0-5.463-4.476-9.891-10-9.891s-10 4.428-10 9.891c0 5.182 4.762 9.42 10 9.42v3.298c6.048-2.92 10-7.725 10-12.718Zm-9.047-2.826h4.285v4.24c0 1.318-.857 2.354-1.904 2.354v-2.355h-2.381v-4.239Zm-1.429 4.24c0 1.318-.857 2.354-1.905 2.354v-2.355h-2.38v-4.239h4.285v4.24Z" fill="#1C1C1C"/></symbol><symbol fill="none" viewBox="0 0 80 40" id="icon-feature-2" xmlns="http://www.w3.org/2000/svg"><path d="M39.636 40c11.046 0 20-8.954 20-20s-8.954-20-20-20c-11.045 0-20 8.954-20 20s8.955 20 20 20Z" fill="#F2B601"/><path d="M48.9 14.073C45.61 9 38.89 7.491 33.68 10.645c-5.074 3.154-6.72 10.01-3.428 15.084l.274.411-1.097 4.114 4.113-1.097.412.274c1.782.96 3.702 1.508 5.622 1.508 2.057 0 4.114-.548 5.896-1.645 5.074-3.291 6.582-10.01 3.428-15.22Zm-2.88 10.559c-.548.822-1.234 1.371-2.193 1.508-.549 0-1.234.274-3.977-.823-2.331-1.097-4.25-2.88-5.622-4.936-.823-.96-1.234-2.194-1.371-3.428 0-1.097.411-2.057 1.097-2.742.274-.275.548-.412.822-.412h.686c.274 0 .549 0 .686.549.274.685.96 2.33.96 2.468a.417.417 0 0 1 0 .548c.137.274 0 .549-.137.686-.138.137-.275.411-.412.548-.274.137-.411.412-.274.686a15.787 15.787 0 0 0 1.92 2.331c.822.686 1.645 1.234 2.605 1.646.274.137.548.137.685-.138.138-.274.823-.96 1.098-1.234.274-.274.41-.274.685-.137l2.194 1.097c.274.137.548.274.686.412.137.41.137.96-.138 1.37Z" fill="#1C1C1C"/></symbol><symbol fill="none" viewBox="0 0 80 40" id="icon-feature-3" xmlns="http://www.w3.org/2000/svg"><path d="M19.727 20c0-11.046 8.955-20 20-20 11.046 0 20 8.954 20 20s-8.954 20-20 20c-11.045 0-20-8.954-20-20Z" fill="#F2B601"/><path d="M53.06 21.24a1.546 1.546 0 1 1-3.091 0 1.546 1.546 0 0 1 3.092 0ZM31.908 21.072l1.77-1.69a1.35 1.35 0 1 0-1.866-1.954l-2.717 2.597v-5.288a1.35 1.35 0 0 0-2.701 0v10.6a1.35 1.35 0 0 0 2.701 0v-1.576l.845-.808 2.348 3.186a1.35 1.35 0 0 0 2.174-1.603l-2.554-3.464ZM37.752 17.01a1.35 1.35 0 0 0-1.35 1.35v6.976a1.35 1.35 0 0 0 2.7 0V18.36a1.35 1.35 0 0 0-1.35-1.35ZM46.465 21.071l1.77-1.69a1.35 1.35 0 1 0-1.865-1.954l-2.718 2.597v-5.288a1.35 1.35 0 0 0-2.7 0v10.6a1.35 1.35 0 1 0 2.7 0V23.76l.845-.808 2.348 3.186a1.35 1.35 0 0 0 2.174-1.603l-2.553-3.464Z" fill="#1C1C1C"/></symbol><symbol fill="none" viewBox="0 0 80 40" id="icon-feature-4" xmlns="http://www.w3.org/2000/svg"><path d="M39.545 40c11.046 0 20-8.954 20-20s-8.954-20-20-20-20 8.954-20 20 8.954 20 20 20Z" fill="#F2B601"/><path d="M26.994 20.979c2.338-1.288 4.948-2.363 7.386-3.443 4.196-1.77 8.407-3.509 12.662-5.128.828-.275 2.315-.545 2.46.682-.08 1.736-.408 3.462-.633 5.188-.572 3.796-1.233 7.58-1.878 11.363-.222 1.26-1.8 1.913-2.81 1.106-2.428-1.64-4.875-3.264-7.271-4.942-.785-.797-.057-1.943.644-2.512 2-1.971 4.12-3.645 6.015-5.717.511-1.235-1-.195-1.498.124-2.737 1.887-5.407 3.888-8.293 5.546-1.474.811-3.192.118-4.666-.335-1.321-.547-3.257-1.098-2.118-1.932Z" fill="#1C1C1C"/></symbol><symbol fill="none" viewBox="0 0 80 40" id="icon-feature-5" xmlns="http://www.w3.org/2000/svg"><path d="M19.636 20c0-11.046 8.954-20 20-20s20 8.954 20 20-8.954 20-20 20-20-8.954-20-20Z" fill="#F2B601"/><path fill-rule="evenodd" clip-rule="evenodd" d="M45.863 9.617a25.63 25.63 0 0 0-11.182 0l-.397.088a5.74 5.74 0 0 0-4.311 4.19 22.781 22.781 0 0 0 0 11.208 5.74 5.74 0 0 0 4.03 4.12l.544 3.248a.584.584 0 0 0 .967.34l3.196-2.86c2.4.147 4.807-.045 7.153-.57l.398-.087a5.74 5.74 0 0 0 4.311-4.19c.934-3.678.934-7.53 0-11.208a5.74 5.74 0 0 0-4.312-4.19l-.397-.089ZM35.668 13.8a.962.962 0 0 0-.628.124h-.016a4.805 4.805 0 0 0-1.172.963c-.28.324-.433.652-.473.968-.023.187-.007.377.048.556l.021.012c.316.928.728 1.82 1.231 2.661a15.652 15.652 0 0 0 2.376 3.248l.028.04.045.032.027.032.032.028c.98.931 2.074 1.733 3.256 2.387 1.352.737 2.172 1.084 2.665 1.23v.006c.144.045.275.065.408.065.42-.031.816-.202 1.128-.485.38-.337.702-.734.952-1.175v-.008c.236-.445.156-.864-.183-1.148a14.191 14.191 0 0 0-2.202-1.58c-.524-.285-1.057-.112-1.272.175l-.46.58c-.236.289-.665.25-.665.25l-.011.006c-3.197-.816-4.05-4.052-4.05-4.052s-.04-.44.257-.664l.575-.464c.277-.224.469-.756.172-1.28-.452-.783-.98-1.52-1.576-2.2a.875.875 0 0 0-.515-.308l.002.001Zm5.4-1.407a.585.585 0 0 0 0 1.17c1.48 0 2.71.484 3.682 1.41.5.508.89 1.108 1.145 1.766.256.659.373 1.362.343 2.066a.586.586 0 0 0 1.17.05 6.272 6.272 0 0 0-.422-2.54 6.368 6.368 0 0 0-1.41-2.17l-.011-.011c-1.207-1.153-2.734-1.74-4.497-1.74Zm-.04 1.924a.585.585 0 0 0 0 1.17h.02c1.068.077 1.845.432 2.39 1.016.557.602.846 1.35.824 2.274a.586.586 0 0 0 1.17.027c.029-1.213-.362-2.26-1.137-3.096v-.003c-.792-.85-1.88-1.299-3.188-1.386l-.02-.003-.059.001Zm-.022 1.96a.587.587 0 0 0-.479.983.585.585 0 0 0 .418.186c.49.025.802.173.999.37.197.2.345.52.372 1.019a.585.585 0 1 0 1.168-.062c-.038-.702-.258-1.323-.708-1.78-.453-.456-1.07-.678-1.77-.715Z" fill="#1C1C1C"/></symbol><symbol fill="none" viewBox="0 0 80 40" id="icon-feature-6" xmlns="http://www.w3.org/2000/svg"><path d="M19.727 20c0-11.046 8.955-20 20-20 11.046 0 20 8.954 20 20s-8.954 20-20 20c-11.045 0-20-8.954-20-20Z" fill="#F2B601"/><path fill-rule="evenodd" clip-rule="evenodd" d="M36.721 17.887a.052.052 0 0 1-.059-.017c-.647-.875-.81-2.379-.85-2.956a.152.152 0 0 0-.228-.118c-2 1.146-3.857 3.856-3.857 6.474 0 4.496 3.062 8.268 8.334 8.268 4.938 0 8.333-3.888 8.333-8.268 0-5.731-4.016-9.539-7.593-11.26a.127.127 0 0 0-.13.013.131.131 0 0 0-.052.123c.46 3.088-.176 6.448-3.898 7.74Z" fill="#1C1C1C"/></symbol><symbol fill="none" viewBox="0 0 80 40" id="icon-feature-7" xmlns="http://www.w3.org/2000/svg"><path d="M19.545 20c0-11.046 8.954-20 20-20s20 8.954 20 20-8.954 20-20 20-20-8.954-20-20Z" fill="#F2B601"/><path d="M39.909 9c-6.616 0-12 4.337-12 9.668 0 4.779 4.269 8.782 10.036 9.538.39.084.922.256 1.057.588.121.3.08.773.039 1.077l-.171 1.02c-.053.301-.242 1.178 1.039.642 1.28-.536 6.91-4.04 9.428-6.917 1.739-1.893 2.572-3.814 2.572-5.948 0-5.331-5.383-9.668-12-9.668Z" fill="#1C1C1C"/><path d="M36.573 16.135a.236.236 0 0 0-.232.24v5.359c0 .132.104.24.232.24h.834a.235.235 0 0 0 .232-.24v-5.36a.236.236 0 0 0-.232-.239h-.834ZM43.233 16.135h-.878a.242.242 0 0 0-.244.24v3.183l-2.499-3.316a.26.26 0 0 0-.019-.025l-.002-.001a.23.23 0 0 0-.032-.03l-.006-.005-.013-.008a.043.043 0 0 0-.007-.004l-.013-.008c-.003 0-.005-.002-.008-.003l-.014-.006c-.003 0-.005-.002-.008-.003a.14.14 0 0 0-.014-.004l-.009-.003c-.005 0-.009-.002-.014-.003a.116.116 0 0 0-.01 0c-.004-.002-.008-.002-.013-.003h-.899a.242.242 0 0 0-.244.238v5.36c0 .132.11.24.244.24h.878a.242.242 0 0 0 .244-.24v-3.183l2.502 3.32a.236.236 0 0 0 .08.071l.007.003a.123.123 0 0 0 .011.006l.012.005a.265.265 0 0 0 .024.008h.003c.02.006.041.01.063.01h.878a.241.241 0 0 0 .244-.24v-5.36a.241.241 0 0 0-.244-.239M35.456 20.631H33.13v-4.256a.238.238 0 0 0-.237-.24h-.856a.239.239 0 0 0-.237.24v5.358a.24.24 0 0 0 .07.17l.003.003c.043.042.1.067.164.067h3.418a.238.238 0 0 0 .237-.24v-.862a.238.238 0 0 0-.237-.24M47.78 17.477a.238.238 0 0 0 .237-.24v-.862a.238.238 0 0 0-.237-.24h-3.417a.235.235 0 0 0-.165.068l-.003.003a.239.239 0 0 0-.07.17v-.001 5.358a.24.24 0 0 0 .067.166c0 .002.002.003.003.004l.003.003c.043.041.1.067.164.067h3.418a.238.238 0 0 0 .237-.24v-.862a.238.238 0 0 0-.237-.24h-2.324v-.906h2.324a.238.238 0 0 0 .237-.24v-.862a.238.238 0 0 0-.237-.24h-2.324v-.906h2.324Z" fill="#F2B601"/></symbol><symbol fill="none" viewBox="0 0 80 40" id="icon-feature-8" xmlns="http://www.w3.org/2000/svg"><path d="M19.636 20c0-11.046 8.955-20 20-20 11.046 0 20 8.954 20 20s-8.954 20-20 20c-11.045 0-20-8.954-20-20Z" fill="#F2B601"/><path d="M50.362 25.729c-3.871-1.874-4.488-4.768-4.516-4.982-.033-.26-.07-.465.216-.729.277-.256 1.504-1.015 1.844-1.253.563-.393.81-.786.628-1.269-.128-.334-.439-.46-.767-.46-.103 0-.206.012-.307.035-.618.134-1.218.444-1.566.527a.545.545 0 0 1-.128.018c-.185 0-.255-.083-.237-.306.043-.675.135-1.994.028-3.226-.146-1.696-.693-2.536-1.34-3.279-.314-.36-1.77-1.908-4.581-1.908-2.81 0-4.265 1.548-4.577 1.904-.65.743-1.196 1.583-1.341 3.278-.107 1.232-.011 2.55.028 3.227.013.212-.052.305-.237.305a.556.556 0 0 1-.128-.017c-.347-.084-.947-.393-1.565-.528a1.418 1.418 0 0 0-.308-.034c-.329 0-.638.128-.766.46-.183.483.064.875.628 1.269.34.238 1.568.996 1.844 1.253.287.264.25.468.216.728-.027.218-.645 3.112-4.516 4.982-.226.11-.612.343.068.718 1.068.59 1.779.527 2.332.883.468.302.191.954.532 1.189.42.29 1.658-.02 3.258.508 1.341.442 2.156 1.69 4.535 1.69s3.217-1.254 4.535-1.69c1.597-.528 2.838-.219 3.258-.508.34-.235.063-.887.532-1.189.553-.356 1.263-.292 2.332-.883.679-.37.293-.603.066-.713Z" fill="#1C1C1C"/><path fill-rule="evenodd" clip-rule="evenodd" d="M51.165 24.574c.377.21.708.462.882.935.195.529.075 1.128-.4 1.636l-.006.008c-.192.212-.419.39-.671.525-.5.274-1.032.486-1.584.63a.979.979 0 0 0-.297.136c-.094.084-.133.188-.182.318-.037.098-.08.21-.156.34-.13.228-.31.425-.526.575-.517.357-1.096.379-1.71.402h-.003c-.554.022-1.183.046-1.9.283-.29.096-.597.284-.953.503h-.002c-.867.532-2.053 1.258-4.022 1.258-1.971 0-3.15-.724-4.01-1.253-.358-.222-.667-.412-.965-.51-.718-.238-1.347-.262-1.902-.283-.615-.024-1.195-.046-1.711-.402a1.776 1.776 0 0 1-.463-.47c-.12-.174-.175-.321-.221-.445-.049-.13-.088-.234-.183-.317a1.031 1.031 0 0 0-.315-.141 6.925 6.925 0 0 1-1.563-.625 2.534 2.534 0 0 1-.64-.484c-.506-.52-.636-1.137-.437-1.68.226-.613.715-.858 1.228-1.115.088-.044.177-.089.265-.136 1.137-.617 2.027-1.389 2.65-2.299.177-.257.331-.529.46-.813.06-.166.06-.256.019-.34a.566.566 0 0 0-.17-.17 63.078 63.078 0 0 0-.674-.441c-.184-.12-.333-.217-.435-.289-.482-.337-.82-.695-1.031-1.096a2.183 2.183 0 0 1-.105-1.815c.318-.84 1.113-1.362 2.076-1.362a2.862 2.862 0 0 1 .76.1c-.008-.57.005-1.18.056-1.778.181-2.098.916-3.2 1.683-4.078a6.68 6.68 0 0 1 1.714-1.38c1.165-.664 2.477-1.001 3.915-1.001 1.438 0 2.757.337 3.92 1.002.642.361 1.22.827 1.711 1.377.767.877 1.502 1.978 1.683 4.077.051.598.064 1.204.055 1.78.052-.014.105-.026.158-.038.198-.042.4-.064.604-.064.962 0 1.756.522 2.075 1.363a2.181 2.181 0 0 1-.108 1.813c-.21.4-.548.758-1.03 1.096-.128.09-.326.219-.576.38l-.004.003c-.14.091-.349.227-.55.36a.523.523 0 0 0-.151.157c-.039.08-.041.168.013.323.13.29.287.569.468.83.636.932 1.553 1.718 2.728 2.34.06.032.12.062.18.092a16.423 16.423 0 0 1 .353.183Zm-2.336 2.434c.403-.108.88-.235 1.466-.558.68-.379.294-.611.066-.726-3.872-1.87-4.489-4.764-4.516-4.982a2.093 2.093 0 0 0-.003-.026c-.032-.248-.058-.447.219-.703.188-.174.815-.58 1.305-.898.23-.149.43-.278.539-.354.564-.394.81-.787.628-1.27-.128-.332-.438-.46-.767-.46-.103.001-.206.013-.307.035-.364.08-.723.22-1.027.338-.211.083-.397.155-.54.19a.54.54 0 0 1-.127.017c-.185 0-.252-.082-.237-.305l.004-.074c.045-.695.127-1.964.024-3.153-.145-1.695-.691-2.535-1.341-3.278-.312-.356-1.78-1.897-4.581-1.897s-4.266 1.547-4.577 1.904c-.65.743-1.196 1.583-1.342 3.278-.098 1.133-.025 2.338.018 3.051l.011.176c.013.212-.052.306-.238.306a.55.55 0 0 1-.127-.018 4.717 4.717 0 0 1-.539-.189c-.304-.119-.662-.259-1.027-.338a1.425 1.425 0 0 0-.307-.035c-.327 0-.639.126-.767.46-.182.483.066.876.629 1.27.109.076.31.205.54.355.49.317 1.116.723 1.304.897.277.256.251.456.22.704l-.004.025c-.028.214-.645 3.108-4.516 4.982-.227.11-.613.342.068.718.583.32 1.06.447 1.463.554.334.089.617.164.868.325.253.164.29.43.322.676.028.21.054.405.21.513.183.125.519.138.971.156.592.022 1.383.053 2.287.352.455.15.85.392 1.265.648.811.498 1.702 1.046 3.272 1.046 1.576 0 2.477-.553 3.29-1.052.412-.253.802-.492 1.245-.639.907-.3 1.697-.33 2.288-.352.453-.017.788-.03.97-.156.157-.108.183-.303.21-.513.033-.246.069-.512.323-.675.25-.161.532-.236.865-.325Z" fill="#F2B601"/></symbol><symbol fill="none" viewBox="0 0 80 40" id="icon-feature-9" xmlns="http://www.w3.org/2000/svg"><path d="M19.727 20c0-11.046 8.955-20 20-20 11.046 0 20 8.954 20 20s-8.954 20-20 20c-11.045 0-20-8.954-20-20Z" fill="#F2B601"/><path d="M50.224 21.806c.113-.62.173-1.252.173-1.884a10.344 10.344 0 0 0-3.045-7.346 10.335 10.335 0 0 0-3.302-2.226 10.321 10.321 0 0 0-4.043-.816c-.66 0-1.323.063-1.967.187A6.19 6.19 0 0 0 35.15 9c-1.642 0-3.188.64-4.349 1.802A6.112 6.112 0 0 0 29 15.15c0 1.045.27 2.074.773 2.981-.102.589-.157 1.191-.157 1.79 0 1.403.275 2.765.817 4.044a10.338 10.338 0 0 0 2.225 3.303 10.337 10.337 0 0 0 3.303 2.225 10.356 10.356 0 0 0 5.864.655c.921.52 1.96.797 3.025.797a6.101 6.101 0 0 0 4.348-1.802A6.101 6.101 0 0 0 51 24.796a6.116 6.116 0 0 0-.776-2.99Zm-10.176 4.48c-3.691 0-5.341-1.815-5.341-3.174 0-.699.514-1.185 1.224-1.185 1.578 0 1.171 2.269 4.117 2.269 1.51 0 2.343-.82 2.343-1.659 0-.503-.247-1.064-1.243-1.309l-3.284-.82c-2.643-.662-3.124-2.093-3.124-3.435 0-2.789 2.626-3.836 5.093-3.836 2.272 0 4.951 1.256 4.951 2.929 0 .718-.622 1.133-1.331 1.133-1.348 0-1.1-1.865-3.815-1.865-1.348 0-2.093.61-2.093 1.483 0 .871 1.064 1.15 1.989 1.36l2.43.54c2.663.594 3.337 2.148 3.337 3.611 0 2.264-1.74 3.958-5.253 3.958Z" fill="#1C1C1C"/></symbol><symbol fill="none" viewBox="0 0 40 40" id="icon-feature_icon_1" xmlns="http://www.w3.org/2000/svg"><path d="M38.438 16.875H25.547c-.863 0-1.563.7-1.563 1.563v5.468c0 .863.7 1.563 1.563 1.563h1.172v1.239a.781.781 0 0 0 1.333.552l1.792-1.791h8.593c.864 0 1.563-.7 1.563-1.563v-5.468c0-.863-.7-1.563-1.563-1.563ZM11.948 21.791a.781.781 0 0 0 1.333-.552V20h1.172c.863 0 1.563-.7 1.563-1.563V12.97c0-.863-.7-1.563-1.563-1.563H1.563C.7 11.406 0 12.106 0 12.97v5.469C0 19.3.7 20 1.563 20h8.593l1.792 1.791ZM7.11 37.266A2.734 2.734 0 0 0 9.843 40h20.312a2.734 2.734 0 0 0 2.735-2.734v-1.172H7.109v1.172Z" fill="#F2B601"/><path d="M29.71 28.917a3.098 3.098 0 0 1-2.204.917 3.136 3.136 0 0 1-2.977-2.156 3.913 3.913 0 0 1-2.888-3.772v-5.468a3.906 3.906 0 0 1 3.906-3.907h7.344V2.734A2.734 2.734 0 0 0 30.156 0H24.92L23.87 4.19c-.13.522-.599.888-1.137.888h-5.468a1.172 1.172 0 0 1-1.137-.888L15.08 0H9.844a2.734 2.734 0 0 0-2.735 2.734v6.329h7.344a3.906 3.906 0 0 1 3.906 3.906v5.469a3.913 3.913 0 0 1-2.888 3.771 3.136 3.136 0 0 1-2.977 2.157c-.83 0-1.613-.326-2.204-.917l-1.105-1.105H7.11V33.75h25.782v-5.938h-2.076l-1.105 1.105Z" fill="#F2B601"/><path d="M21.82 2.734 22.503 0h-5.006l.684 2.734h3.639Z" fill="#F2B601"/></symbol><symbol fill="none" viewBox="0 0 40 40" id="icon-feature_icon_2" xmlns="http://www.w3.org/2000/svg"><g clip-path="url(#ata)" fill="#F2B601"><path d="M10.03 21.216H8.236c-.47 0-.896.28-1.082.712L2.188 33.49l11.794-6.024c-1.412-1.953-2.809-4.108-3.952-6.25ZM32.845 21.928a1.178 1.178 0 0 0-1.08-.712H29.97c-2.16 4.047-5.305 8.229-7.306 10.53a3.536 3.536 0 0 1-5.327 0 55.722 55.722 0 0 1-1.928-2.37l-2.126 1.086 8.042 8.027 15.24-7.9-3.72-8.661ZM.738 36.87l-.642 1.494A1.175 1.175 0 0 0 1.177 40h17.27c.108-.08.11-.075.69-.376l-8.055-8.038L.738 36.87ZM39.904 38.364l-2.41-5.611L23.514 40h15.309c.842 0 1.413-.862 1.08-1.636ZM21.176 10.572a1.177 1.177 0 0 0-2.352 0 1.176 1.176 0 0 0 2.352 0Z"/><path d="M20.888 30.126c.396-.454 9.7-11.217 9.7-18.615 0-15.255-21.176-15.441-21.176 0 0 7.398 9.304 18.16 9.7 18.615.47.538 1.308.538 1.776 0ZM16.47 10.572a3.53 3.53 0 0 1 7.058 0 3.53 3.53 0 0 1-7.058 0Z"/></g><defs><clipPath id="ata"><path fill="#fff" d="M0 0h40v40H0z"/></clipPath></defs></symbol><symbol fill="none" viewBox="0 0 40 40" id="icon-feature_icon_3" xmlns="http://www.w3.org/2000/svg"><path d="M18.412 3.516 19.582 0H12.68l1.172 3.516h4.56ZM34.49 24.297h3.125c.863 0 1.563-.7 1.563-1.563v-3.119a2.33 2.33 0 0 0-1.494-2.185 26.742 26.742 0 0 0-9.443-1.727 26.76 26.76 0 0 0-9.442 1.726 2.337 2.337 0 0 0-1.496 2.188v3.117c0 .863.7 1.563 1.563 1.563h3.125c.863 0 1.562-.7 1.562-1.563v-1.562a14.463 14.463 0 0 1 9.375 0v1.563c0 .862.7 1.562 1.563 1.562Z" fill="#F2B601"/><path d="M21.99 26.64h-3.124a3.91 3.91 0 0 1-3.906-3.905v-3.118c0-1.94 1.21-3.7 3.01-4.38a28.943 28.943 0 0 1 10.27-1.878V3.516A3.52 3.52 0 0 0 24.726 0h-2.671l-1.686 5.058c-.16.479-.607.801-1.112.801h-6.25c-.504 0-.952-.322-1.111-.801L10.209 0H7.538a3.52 3.52 0 0 0-3.516 3.516v32.968A3.52 3.52 0 0 0 7.538 40h17.187a3.52 3.52 0 0 0 3.516-3.516v-13.75c-.793 0-1.579.077-2.35.23a3.911 3.911 0 0 1-3.9 3.677Zm-3.515 9.844h-4.688a1.172 1.172 0 0 1 0-2.343h4.688a1.172 1.172 0 0 1 0 2.343Z" fill="#F2B601"/></symbol><symbol fill="none" viewBox="0 0 40 40" id="icon-feature_icon_4" xmlns="http://www.w3.org/2000/svg"><g clip-path="url(#ava)" fill="#F2B601"><path d="M33.946 9.488h-4.571a1.172 1.172 0 0 1 0-2.344h4.57a1.172 1.172 0 1 1 0 2.344ZM38.752 14.137h-9.377a1.172 1.172 0 1 1 0-2.344h9.377a1.172 1.172 0 0 1 0 2.344ZM29.375 16.481h4.688a1.172 1.172 0 0 1 0 2.345h-4.688a1.172 1.172 0 0 1 0-2.345ZM12.953 18.712c-.739-.963-1.057-3.251-1.137-4.575h2.274c-.08 1.336-.405 3.62-1.137 4.575ZM12.953 7.14c.752.98 1.066 3.32 1.141 4.653h-2.283c.075-1.329.39-3.672 1.142-4.653ZM18.697 14.137a5.887 5.887 0 0 1-2.904 3.946c.355-1.148.571-2.522.65-3.946h2.254ZM18.714 11.793h-2.267c-.075-1.451-.293-2.854-.654-4.024a5.89 5.89 0 0 1 2.92 4.024ZM10.125 18.12a5.894 5.894 0 0 1-2.97-3.983h2.309c.079 1.44.299 2.827.66 3.983ZM10.125 7.732c-.369 1.177-.59 2.594-.666 4.061H7.14a5.898 5.898 0 0 1 2.986-4.061ZM25.927 20.954l3.132 3.132-4.973 4.973-3.132-3.132a15.4 15.4 0 0 0 4.973-4.973ZM38.972 33.999a3.52 3.52 0 0 1 0 4.973 3.52 3.52 0 0 1-4.973 0l-8.255-8.255 4.973-4.973 8.255 8.255Z"/><path d="M3.782 3.782c5.042-5.043 13.246-5.043 18.289 0 5.042 5.042 5.042 13.246 0 18.288-5.043 5.043-13.247 5.043-18.29 0-5.041-5.042-5.041-13.246 0-18.288Zm3.315 14.973a8.244 8.244 0 0 0 11.659 0c3.214-3.214 3.214-8.444 0-11.658a8.244 8.244 0 0 0-11.659 0c-3.214 3.214-3.214 8.444 0 11.658Z"/></g><defs><clipPath id="ava"><path fill="#fff" transform="matrix(-1 0 0 1 40 0)" d="M0 0h40v40H0z"/></clipPath></defs></symbol><symbol fill="none" viewBox="0 0 40 40" id="icon-feature_icon_5" xmlns="http://www.w3.org/2000/svg"><g clip-path="url(#awa)" fill="#F2B601"><path d="M13.708 2.344h5.788c.452 0 .819-.22 1.033-.619L21.453 0H11.75l.925 1.725c.213.4.58.619 1.032.619Z"/><path d="M18.624 34.36a4.738 4.738 0 0 1-5.064.654 4.715 4.715 0 0 1-2.74-4.309V14.392a5.178 5.178 0 0 1 5.172-5.172h13.5V3.516A3.52 3.52 0 0 0 25.977 0H24.11l-1.516 2.832a3.465 3.465 0 0 1-3.1 1.856h-5.787a3.465 3.465 0 0 1-3.098-1.856L9.092 0H7.227A3.52 3.52 0 0 0 3.71 3.516v32.968A3.52 3.52 0 0 0 7.227 40h18.75a3.52 3.52 0 0 0 3.515-3.516v-3.751h-8.915l-1.953 1.628Z"/><path d="M26.688 18.934c-.4 0-.763.25-.905.624a1.172 1.172 0 0 1-2.192 0 .968.968 0 0 0-1.87.342c0 .247.297.971 1.413 2.122a15.308 15.308 0 0 0 1.57 1.405c.511-.378 1.134-.91 1.671-1.478.945-.997 1.28-1.727 1.28-2.049a.968.968 0 0 0-.967-.966Z"/><path d="M33.461 11.563h-17.47a2.831 2.831 0 0 0-2.827 2.829v16.314c0 .946.532 1.784 1.39 2.186a2.397 2.397 0 0 0 2.57-.332l2.604-2.171h13.733a2.831 2.831 0 0 0 2.828-2.828V14.39a2.831 2.831 0 0 0-2.828-2.828ZM25.273 25.86a1.17 1.17 0 0 1-1.172 0c-.564-.326-1.684-1.21-2.65-2.205-1.396-1.44-2.074-2.668-2.074-3.754a3.314 3.314 0 0 1 3.31-3.31c.736 0 1.435.248 2 .677a3.314 3.314 0 0 1 2-.677 3.314 3.314 0 0 1 3.311 3.31c0 2.465-3.463 5.23-4.725 5.959Z"/></g><defs><clipPath id="awa"><path fill="#fff" d="M0 0h40v40H0z"/></clipPath></defs></symbol><symbol fill="none" viewBox="0 0 40 40" id="icon-feature_icon_6" xmlns="http://www.w3.org/2000/svg"><g clip-path="url(#axa)" fill="#F2B601"><path d="M17.006 34.11a3.512 3.512 0 0 1-2.105.706 3.515 3.515 0 0 1-1.575-.375 3.496 3.496 0 0 1-1.945-3.144V16.234c0-4.015 3.266-7.28 7.28-7.28h8.787V4.936a4.904 4.904 0 0 0-1.446-3.49A4.905 4.905 0 0 0 22.51 0H4.937A4.943 4.943 0 0 0 0 4.937v30.126A4.943 4.943 0 0 0 4.937 40H22.51a4.907 4.907 0 0 0 3.492-1.446 4.906 4.906 0 0 0 1.446-3.491v-4.016h-6.36l-4.082 3.062ZM10.04 4.476c0-.648.525-1.172 1.172-1.172h5.021a1.172 1.172 0 1 1 0 2.344h-5.02a1.172 1.172 0 0 1-1.173-1.172Z"/><path d="M35.063 11.297H18.66a4.943 4.943 0 0 0-4.937 4.937v15.063c0 .959 1.1 1.519 1.875.937l4.708-3.531h14.756A4.943 4.943 0 0 0 40 23.766v-7.532a4.943 4.943 0 0 0-4.937-4.937Zm-8.787 12.385h-5.649a1.172 1.172 0 0 1 0-2.343h5.649a1.172 1.172 0 1 1 0 2.343Zm6.904-5.02H20.627a1.172 1.172 0 0 1 0-2.344H33.18a1.172 1.172 0 1 1 0 2.343Z"/></g><defs><clipPath id="axa"><path fill="#fff" d="M0 0h40v40H0z"/></clipPath></defs></symbol><symbol fill="none" viewBox="0 0 40 40" id="icon-feature_icon_7" xmlns="http://www.w3.org/2000/svg"><path d="M25.656 12.202a1.172 1.172 0 1 0 0-2.344 1.172 1.172 0 0 0 0 2.344ZM9.357 19.134 0 29.569v8.223a1.172 1.172 0 0 0 1.939.886l8.948-7.749h22.129L14.713 18.483a4.144 4.144 0 0 0-5.355.65Z" fill="#F2B601"/><path d="M11.635 15.484a6.469 6.469 0 0 1 4.392 1.058l5.826 3.962 3.813-2.526a6.453 6.453 0 0 1 6.083-.568L40 20.899V2.208c0-.647-.525-1.172-1.172-1.172H1.172C.525 1.036 0 1.561 0 2.208v23.85l7.617-8.494a6.474 6.474 0 0 1 4.018-2.08Zm14.021-7.97a3.52 3.52 0 0 1 3.516 3.516 3.52 3.52 0 0 1-3.516 3.516 3.52 3.52 0 0 1-3.515-3.516 3.52 3.52 0 0 1 3.515-3.515ZM6.501 5.725H13.5a1.172 1.172 0 0 1 0 2.343H6.5a1.172 1.172 0 0 1 0-2.343Zm-1.172 5.859c0-.647.525-1.172 1.172-1.172h3.874a1.172 1.172 0 0 1 0 2.344H6.5a1.172 1.172 0 0 1-1.172-1.172Z" fill="#F2B601"/><path d="m26.96 19.932-3.013 1.996 13.237 9.001h1.644c.647 0 1.172-.524 1.172-1.172v-6.314l-9.163-3.874a4.115 4.115 0 0 0-3.877.363Z" fill="#F2B601"/></symbol><symbol fill="none" viewBox="0 0 40 40" id="icon-feature_icon_8" xmlns="http://www.w3.org/2000/svg"><g clip-path="url(#aza)" fill="#F2B601"><path d="M20 9.531c-6.388 0-11.669 4.63-12.705 10.703C8.29 26.75 13.277 30.625 20 30.625c6.657 0 11.698-3.812 12.706-10.392C31.664 14.069 26.358 9.53 20 9.53Zm0 16.407a1.172 1.172 0 1 1 .001-2.345 1.172 1.172 0 0 1 0 2.345Zm1.635-7.435c-.277.146-.463.522-.463.936v.64a1.172 1.172 0 0 1-2.344 0v-.64c0-1.3.658-2.453 1.717-3.01a1.171 1.171 0 1 0-1.717-1.038 1.172 1.172 0 0 1-2.343 0A3.52 3.52 0 0 1 20 11.875a3.52 3.52 0 0 1 3.516 3.516c0 1.309-.72 2.502-1.88 3.112ZM20 0C13.83 0 8.98 6.716 7.544 13.644A15.202 15.202 0 0 1 20 7.187c5.128 0 9.684 2.54 12.449 6.449C31.028 6.834 26.297 0 20 0Z"/><path d="M18.828 32.933V40H9.453v-5.86a1.172 1.172 0 0 0-2.344 0V40H1.172A1.172 1.172 0 0 1 0 38.828v-5.715a5.85 5.85 0 0 1 4.438-5.684l2.864-.709c2.457 3.664 6.538 5.91 11.526 6.213ZM40 33.113v5.715c0 .647-.525 1.172-1.172 1.172h-5.937v-5.86a1.172 1.172 0 0 0-2.344 0V40h-9.375v-7.067c4.923-.302 9.044-2.51 11.527-6.213l2.86.708A5.851 5.851 0 0 1 40 33.113Z"/></g><defs><clipPath id="aza"><path fill="#fff" d="M0 0h40v40H0z"/></clipPath></defs></symbol><symbol fill="none" viewBox="0 0 28 28" id="icon-info" xmlns="http://www.w3.org/2000/svg"><path d="M14 .667c7.365 0 13.336 5.97 13.336 13.336 0 7.364-5.97 13.334-13.336 13.334-7.365 0-13.333-5.97-13.333-13.334C.665 6.637 6.635.667 14 .667Zm-.005 11a1.333 1.333 0 0 0-1.323 1.18l-.01.154.006 7.336.008.156a1.334 1.334 0 0 0 2.65-.002l.007-.156L15.328 13l-.01-.156a1.333 1.333 0 0 0-1.325-1.176l.002-.001ZM14 6.668a1.669 1.669 0 1 0 .003 3.338A1.669 1.669 0 0 0 14 6.668H14Z" fill="#fff"/></symbol><symbol fill="none" viewBox="0 0 70 70" id="icon-logo" xmlns="http://www.w3.org/2000/svg"><path fill="currentColor" d="M2.5 2.5h65v65h-65z"/><path d="M12.8 28.475c.676.675 2.998 2.349 6.346 2.349 1.917 0 3.456-.54 4.59-1.62 1.16-1.08 1.728-2.403 1.728-3.996.027-3.537-3.294-4.968-5.832-5.913-1.755-.675-3.186-1.566-3.186-2.781 0-1.323 1.242-2.295 2.889-2.295.729 0 1.458.162 2.187.459.729.297 1.215.567 1.458.756.243.189.459.324.594.459l1.512-2.835-.594-.513c-.405-.351-1.08-.675-2.025-1.026-.945-.351-1.998-.513-3.105-.513-1.836 0-3.375.54-4.59 1.593-1.215 1.053-1.836 2.376-1.836 3.969-.054 3.402 3.32 4.86 5.859 5.832 1.755.729 3.186 1.674 3.186 2.889 0 1.485-1.242 2.322-2.781 2.322-1.647 0-2.997-.702-3.888-1.323-.648-.459-.783-.594-.891-.702l-1.89 2.619.27.27ZM32.423 30.5v-6.615h3.915c1.809 0 3.267-.594 4.4-1.755 1.135-1.188 1.702-2.7 1.702-4.563 0-1.863-.567-3.348-1.701-4.509-1.134-1.161-2.592-1.728-4.401-1.728h-7.398V30.5h3.483Zm0-16.173h3.32c1.945 0 3.16 1.269 3.16 3.24 0 2.025-1.188 3.294-3.213 3.294h-3.267v-6.534ZM53.002 30.5v-8.019l6.373-11.151h-3.942l-2.97 5.643a25.2 25.2 0 0 0-1.161 2.565h-.054l-.054-.054c-.108-.297-.567-1.539-1.107-2.511L47.09 11.33h-3.942l6.372 11.151V30.5h3.483Zm-25.449 28v-3.552H17.377c-.704 0-1.28.032-1.696.064v-.064l.224-.224c.288-.288.928-1.056 1.44-1.824l10.08-14.496V35.78H11.01v3.552h9.536c.704 0 1.28-.032 1.696-.064v.064l-.224.224c-.288.288-.928 1.056-1.44 1.824l-10.08 14.464V58.5h17.056Zm8.393 0V35.78h-4.128V58.5h4.128Zm4.178-11.456c0 3.36 1.088 6.176 3.296 8.448 2.209 2.272 5.024 3.392 8.448 3.392 2.176 0 4.352-.64 5.633-1.28.64-.32 1.248-.704 1.824-1.12 1.151-.864 1.311-1.056 1.471-1.28l-2.175-2.976-.288.32c-.8.736-3.2 2.56-6.304 2.56-2.273 0-4.129-.8-5.537-2.368-1.407-1.6-2.111-3.52-2.111-5.76 0-2.208.672-4.032 2.047-5.536 1.377-1.504 3.233-2.272 5.569-2.272 1.056 0 2.144.224 3.231.672 1.088.448 1.792.8 2.145 1.088l.832.64 1.983-3.072-.32-.32c-.416-.416-1.44-1.088-2.72-1.696-1.248-.608-3.296-1.088-5.344-1.088-3.328 0-6.111 1.12-8.352 3.36-2.207 2.208-3.328 4.992-3.328 8.288Z" fill="#fff"/><path stroke="#fff" stroke-width="5" d="M2.5 2.5h65v65h-65z"/></symbol><symbol fill="none" viewBox="0 0 16 16" id="icon-search" xmlns="http://www.w3.org/2000/svg"><path d="M11.077 6.77c0-1.187-.422-2.201-1.264-3.044-.843-.843-1.858-1.264-3.044-1.264s-2.2.421-3.043 1.264-1.264 1.857-1.264 3.043c0 1.186.421 2.2 1.264 3.043s1.857 1.265 3.043 1.265c1.186 0 2.2-.422 3.043-1.264.843-.843 1.265-1.858 1.265-3.044Zm4.923 8c0 .333-.122.621-.365.865a1.183 1.183 0 0 1-.866.365c-.346 0-.634-.122-.865-.365l-3.298-3.289a6.585 6.585 0 0 1-3.837 1.193 6.651 6.651 0 0 1-2.63-.534 6.768 6.768 0 0 1-2.163-1.443A6.768 6.768 0 0 1 .534 9.4 6.652 6.652 0 0 1 0 6.769c0-.916.178-1.793.534-2.63a6.768 6.768 0 0 1 1.442-2.163A6.768 6.768 0 0 1 4.139.534 6.652 6.652 0 0 1 6.77 0c.917 0 1.793.178 2.63.534a6.768 6.768 0 0 1 2.164 1.442 6.768 6.768 0 0 1 1.442 2.163c.356.837.534 1.714.534 2.63 0 1.41-.398 2.69-1.193 3.837l3.298 3.298c.237.237.356.526.356.865Z" fill="#fff" fill-opacity=".4"/></symbol><symbol fill="none" viewBox="0 0 64 64" id="icon-step_1" xmlns="http://www.w3.org/2000/svg"><path d="M45.333 18.667h13.334v26.666H45.333v5.334A2.667 2.667 0 0 0 48 53.333h5.333v5.334h-6.666c-1.467 0-4-1.2-4-2.667 0 1.467-2.534 2.667-4 2.667H32v-5.334h5.333A2.667 2.667 0 0 0 40 50.668V13.333a2.667 2.667 0 0 0-2.667-2.666H32V5.334h6.667c1.466 0 4 1.2 4 2.666 0-1.466 2.533-2.667 4-2.667h6.666v5.334H48a2.667 2.667 0 0 0-2.667 2.667v5.333Zm-40 0h29.334V24h-24v16h24v5.334H5.333V18.666Zm48 21.333V24h-8v16h8Z" fill="#F2B601"/></symbol><symbol fill="none" viewBox="0 0 52 54" id="icon-step_2" xmlns="http://www.w3.org/2000/svg"><path d="M30.853 53.667h-9.706a2.667 2.667 0 0 1-2.606-2.096l-1.085-5.024a21.341 21.341 0 0 1-4.093-2.365l-4.899 1.56a2.667 2.667 0 0 1-3.12-1.209L.48 36.131a2.683 2.683 0 0 1 .515-3.304l3.8-3.467a21.6 21.6 0 0 1 0-4.725l-3.8-3.459A2.683 2.683 0 0 1 .48 17.87L5.333 9.46a2.667 2.667 0 0 1 3.12-1.207l4.899 1.56a22.12 22.12 0 0 1 2.027-1.334 22.436 22.436 0 0 1 2.077-1.03l1.088-5.018A2.666 2.666 0 0 1 21.147.333h9.706a2.667 2.667 0 0 1 2.603 2.1l1.099 5.02a21.313 21.313 0 0 1 4.09 2.366l4.902-1.56a2.667 2.667 0 0 1 3.117 1.208l4.853 8.408a2.685 2.685 0 0 1-.514 3.304l-3.8 3.466c.172 1.57.172 3.155 0 4.726l3.8 3.466a2.686 2.686 0 0 1 .514 3.304l-4.853 8.409a2.668 2.668 0 0 1-3.12 1.208l-4.899-1.56a21.278 21.278 0 0 1-4.09 2.362l-1.099 5.01a2.667 2.667 0 0 1-2.603 2.097ZM14.32 38.277l2.187 1.6c.493.363 1.005.697 1.538 1 .502.291 1.014.552 1.544.79l2.488 1.09 1.219 5.577h5.413l1.219-5.58 2.488-1.09a16.486 16.486 0 0 0 3.075-1.776l2.186-1.6 5.446 1.734 2.706-4.688-4.221-3.849.299-2.698a15.813 15.813 0 0 0 0-3.552l-.299-2.699 4.224-3.856-2.71-4.69-5.442 1.733-2.19-1.6a16.603 16.603 0 0 0-3.074-1.79l-2.488-1.09-1.219-5.576h-5.413l-1.227 5.579-2.48 1.088a16.027 16.027 0 0 0-3.074 1.776l-2.19 1.6-5.44-1.734-2.712 4.704 4.222 3.843-.299 2.701a15.818 15.818 0 0 0 0 3.552l.299 2.699-4.222 3.848L8.88 40.01l5.44-1.733Zm11.67-.61a10.667 10.667 0 1 1 0-21.334 10.667 10.667 0 0 1 0 21.334Zm0-16a5.334 5.334 0 1 0 5.333 5.573v1.067V27a5.333 5.333 0 0 0-5.334-5.333Z" fill="#F2B601"/></symbol><symbol fill="none" viewBox="0 0 56 55" id="icon-step_3" xmlns="http://www.w3.org/2000/svg"><path d="M53.325 18.6A26.975 26.975 0 0 1 28 54.975 26.999 26.999 0 1 1 44.85 6.9l5.025-5.025a3.005 3.005 0 1 1 4.25 4.25L38.6 21.625l-8.475 8.5a3.025 3.025 0 0 1-4.25 0 3 3 0 0 1 0-4.25l6-6a9 9 0 1 0 2.5 14.5 9.1 9.1 0 0 0 2.45-4.6 3 3 0 0 1 5.875 1.2A15 15 0 0 1 17.4 38.6 15 15 0 0 1 28 13a15.025 15.025 0 0 1 8.275 2.475l4.3-4.3a20.975 20.975 0 1 0 7.125 9.5 3 3 0 0 1 1.75-3.85 3.025 3.025 0 0 1 3.875 1.775Z" fill="#F2B601"/></symbol></svg>