<svg width="246" height="12" viewBox="0 0 246 12" fill="none" xmlns="http://www.w3.org/2000/svg"><path d="M1 5.5a.5.5 0 000 1v-1zM246 6l-5-2.887v5.774L246 6zM1 6.5h3.063v-1H1v1zm9.188 0h6.124v-1h-6.125v1zm12.25 0h6.125v-1h-6.125v1zm12.25 0h6.124v-1h-6.124v1zm12.25 0h6.124v-1h-6.124v1zm12.25 0h6.124v-1h-6.124v1zm12.25 0h6.124v-1h-6.124v1zm12.25 0h6.124v-1h-6.124v1zm12.25 0h6.125l-.001-1h-6.124v1zm12.25 0h6.125l-.001-1h-6.125l.001 1zm12.25 0h6.125l-.001-1h-6.125l.001 1zm12.25 0h6.125l-.001-1h-6.125l.001 1zm12.25 0h6.125l-.001-1h-6.125l.001 1zm12.25 0h6.125l-.001-1h-6.125l.001 1zm12.25 0h6.125l-.001-1h-6.125l.001 1zm12.25 0h6.125l-.001-1h-6.125l.001 1zm12.25 0h6.125l-.001-1h-6.125l.001 1zm12.25 0h6.125l-.001-1h-6.125l.001 1zm12.25 0h6.125l-.001-1h-6.125l.001 1zm12.25 0h6.125l-.001-1h-6.125l.001 1zM1 5a1 1 0 000 2V5zm245 1L236 .226v11.547L246 6zM1 7h3.063V5H1v2zm9.188 0h6.124V5h-6.125v2zm12.25 0h6.125V5h-6.125v2zm12.25 0h6.124V5h-6.124v2zm12.25 0h6.124V5h-6.124v2zm12.25 0h6.124V5h-6.124v2zm12.25 0h6.124V5h-6.124v2zm12.25 0h6.124V5h-6.124v2zm12.25 0h6.125l-.001-2h-6.124v2zm12.25 0h6.125l-.001-2h-6.125l.001 2zm12.25 0h6.125l-.001-2h-6.125l.001 2zm12.25 0h6.125l-.001-2h-6.125l.001 2zm12.25 0h6.125l-.001-2h-6.125l.001 2zm12.25 0h6.125l-.001-2h-6.125l.001 2zm12.25 0h6.125l-.001-2h-6.125l.001 2zm12.25 0h6.125l-.001-2h-6.125l.001 2zm12.25 0h6.125l-.001-2h-6.125l.001 2zm12.25 0h6.125l-.001-2h-6.125l.001 2zm12.25 0h6.125l-.001-2h-6.125l.001 2zm12.25 0h6.125l-.001-2h-6.125l.001 2z" fill="url(#paint0_linear_22_1736)"/><defs><linearGradient id="paint0_linear_22_1736" x1="246" y1="5.999" x2="1" y2="6" gradientUnits="userSpaceOnUse"><stop stop-color="#fff"/><stop offset="1" stop-color="#fff" stop-opacity="0"/></linearGradient></defs></svg>