<svg width="86" height="209" viewBox="0 0 86 209" fill="none" xmlns="http://www.w3.org/2000/svg"><path d="M85 1h1V0h-1v1zm0 200v1h1v-1h-1zm-84.707-.707a1 1 0 000 1.414l6.364 6.364a1 1 0 101.414-1.414L2.414 201l5.657-5.657a1 1 0 10-1.414-1.414l-6.364 6.364zM1 2h3V0H1v2zm9 0h6V0h-6v2zm12 0h6V0h-6v2zm12 0h6V0h-6v2zm12 0h6V0h-6v2zm12 0h6V0h-6v2zm12 0h6V0h-6v2zm12 0h3V0h-3v2zm2-1v2.941h2V1h-2zm0 8.824v5.882h2V9.824h-2zm0 11.764v5.883h2v-5.883h-2zm0 11.765v5.882h2v-5.882h-2zm0 11.765V51h2v-5.882h-2zm0 11.764v5.883h2v-5.883h-2zm0 11.765v5.882h2v-5.882h-2zm0 11.765v5.882h2v-5.882h-2zm0 11.764v5.883h2v-5.882h-2zm0 11.765v5.883h2v-5.883h-2zm0 11.765v5.882h2v-5.882h-2zm0 11.765v5.882h2v-5.882h-2zm0 11.764v5.883h2v-5.883h-2zM84 151v5.882h2V151h-2zm0 11.765v5.882h2v-5.882h-2zm0 11.764v5.883h2v-5.883h-2zm0 11.765v5.882h2v-5.882h-2zm0 11.765V201h2v-2.941h-2zM85 200h-3v2h3v-2zm-9 0h-6v2h6v-2zm-12 0h-6v2h6v-2zm-12 0h-6v2h6v-2zm-12 0h-6v2h6v-2zm-12 0h-6v2h6v-2zm-12 0h-6v2h6v-2zm-12 0H1v2h3v-2z" fill="#676767"/></svg>