<svg width="48" height="32" viewBox="0 0 48 32" fill="none" xmlns="http://www.w3.org/2000/svg"><g clip-path="url(#clip0_89_11537)"><path d="M0 4a4 4 0 014-4h40a4 4 0 014 4v24a4 4 0 01-4 4H4a4 4 0 01-4-4V4z" fill="#EFF2F7"/><path d="M41.31 10.035h-2.515c-.76 0-1.345.234-1.696.994l-4.795 10.936h3.392s.585-1.462.702-1.813h4.152c.117.41.41 1.755.41 1.755H44l-2.69-11.872zm-3.977 7.661c.293-.702 1.287-3.333 1.287-3.333 0 .058.292-.702.41-1.111l.233 1.052s.644 2.866.76 3.45h-2.69v-.058zm-4.795.351c0 2.456-2.222 4.093-5.672 4.093-1.462 0-2.866-.292-3.626-.643l.468-2.69.409.175c1.053.468 1.754.643 3.04.643.936 0 1.93-.35 1.93-1.17 0-.525-.409-.876-1.695-1.461-1.228-.585-2.866-1.52-2.866-3.216 0-2.34 2.281-3.919 5.497-3.919 1.228 0 2.281.234 2.924.527l-.468 2.573-.233-.234a6.284 6.284 0 00-2.457-.468c-1.228.059-1.812.585-1.812 1.053 0 .526.701.935 1.813 1.462 1.87.877 2.748 1.871 2.748 3.275z" fill="#3362AB"/><path d="M4 10.152l.058-.234h5.03c.701 0 1.228.234 1.403.994l1.111 5.263c-1.11-2.807-3.684-5.087-7.602-6.023z" fill="#F9B50B"/><path d="M18.678 10.035l-5.087 11.871h-3.45l-2.925-9.941c2.106 1.345 3.86 3.45 4.503 4.912l.351 1.228 3.158-8.128h3.45v.058zm1.345-.058h3.217l-2.047 11.93h-3.216l2.046-11.93z" fill="#3362AB"/></g><defs><clipPath id="clip0_89_11537"><path fill="#fff" d="M0 0h48v32H0z"/></clipPath></defs></svg>